<?xml version="1.0" standalone="no"?>
<!DOCTYPE svg PUBLIC "-//W3C//DTD SVG 20010904//EN"
 "http://www.w3.org/TR/2001/REC-SVG-20010904/DTD/svg10.dtd">
<svg version="1.0" xmlns="http://www.w3.org/2000/svg"
 width="640.000000pt" height="480.000000pt" viewBox="0 0 640.000000 480.000000"
 preserveAspectRatio="xMidYMid meet">
<metadata>
Created by potrace 1.16, written by Peter Selinger 2001-2019
</metadata>
<g transform="translate(0.000000,480.000000) scale(0.100000,-0.100000)"
fill="#000000" stroke="none">
<path d="M5645 4720 c3 -5 1 -10 -4 -10 -6 0 -11 -6 -11 -13 0 -8 -12 -19 -26
-26 -15 -6 -24 -14 -21 -17 3 -3 -2 -14 -11 -24 -65 -70 -107 -125 -104 -137
2 -7 -3 -13 -11 -13 -18 0 -117 -122 -117 -144 0 -10 -4 -15 -8 -12 -9 5 -52
-38 -52 -52 0 -4 -11 -16 -25 -26 -14 -10 -25 -25 -25 -32 0 -8 -9 -19 -20
-26 -11 -7 -20 -18 -20 -25 0 -7 -4 -13 -10 -13 -5 0 -10 -4 -10 -10 0 -5 -15
-25 -32 -44 -18 -19 -48 -51 -65 -70 -18 -20 -33 -40 -33 -44 0 -5 -7 -16 -17
-23 -9 -8 -48 -52 -87 -99 -38 -47 -82 -98 -97 -115 -15 -16 -53 -61 -85 -100
-31 -38 -77 -93 -101 -122 l-43 -51 31 -59 c17 -32 51 -85 75 -118 25 -33 70
-94 100 -135 59 -81 156 -182 339 -355 65 -60 143 -136 175 -167 32 -32 62
-58 67 -58 4 0 26 -16 48 -35 82 -71 149 -125 156 -125 3 0 17 -10 31 -22 13
-13 37 -32 52 -43 16 -11 37 -28 46 -39 10 -10 23 -15 29 -11 6 3 11 0 11 -7
0 -8 19 -25 41 -38 23 -14 49 -32 58 -40 53 -48 109 -89 114 -83 4 3 7 2 7 -4
0 -13 131 -110 169 -125 36 -15 131 -22 131 -10 0 6 12 9 28 7 15 -2 39 -2 55
1 l27 6 0 864 c0 501 -4 863 -9 860 -15 -10 -33 22 -26 44 5 17 3 21 -12 18
-12 -2 -18 3 -17 15 2 21 -12 23 -20 2 -7 -20 -26 -19 -26 0 0 13 -6 11 -29
-6 l-30 -22 22 -18 c12 -10 17 -18 10 -19 -6 0 -14 4 -17 9 -3 5 -15 7 -25 4
-10 -3 -22 1 -26 8 -5 8 -12 2 -21 -17 -8 -19 -13 -23 -13 -11 -1 9 -7 17 -15
17 -8 0 -17 -8 -19 -17 -4 -17 -5 -17 -6 0 0 9 -6 17 -12 17 -6 0 -9 7 -5 15
3 8 2 14 -2 12 -4 -1 -7 1 -7 4 0 4 -8 15 -17 26 -18 20 -68 126 -68 146 -1 7
-9 30 -20 52 -11 22 -19 48 -20 58 0 10 -9 37 -20 59 -11 23 -20 50 -20 59 0
10 -4 20 -9 23 -5 3 -12 21 -15 40 -4 19 -11 36 -16 38 -6 2 -12 17 -14 33 -4
28 -18 71 -53 170 -14 39 -23 59 -57 137 -9 20 -16 39 -16 43 0 19 -54 55 -81
55 -18 0 -28 -4 -24 -10z m69 -24 c15 -13 26 -27 26 -31 0 -4 7 -23 16 -43 34
-78 43 -98 57 -137 21 -60 44 -136 52 -172 4 -18 11 -33 15 -33 5 0 12 -16 16
-35 3 -19 10 -38 15 -41 5 -3 9 -13 9 -23 0 -9 9 -36 20 -59 11 -22 20 -49 20
-59 1 -10 9 -36 20 -58 11 -22 19 -47 20 -55 0 -22 90 -200 101 -200 5 0 9 -7
9 -15 0 -21 30 -19 31 3 1 16 2 16 6 0 6 -22 22 -23 38 -2 9 13 20 15 48 10
21 -4 37 -11 37 -16 0 -6 9 -10 20 -10 11 0 20 7 20 15 0 8 -6 15 -14 15 -14
0 -24 16 -23 35 1 6 8 9 17 7 52 -9 60 -14 60 -32 0 -11 9 -25 20 -32 20 -13
20 -24 20 -860 0 -800 -1 -848 -17 -849 -10 -1 -35 -1 -55 0 -22 2 -38 -2 -38
-8 0 -15 -37 -14 -91 2 -40 13 -189 111 -189 126 0 3 -12 12 -27 19 -16 6 -47
29 -70 49 -22 21 -60 49 -82 63 -23 13 -41 30 -41 37 0 7 -7 13 -16 13 -8 0
-21 6 -29 13 -7 6 -25 21 -41 32 -15 11 -39 30 -52 43 -14 12 -28 22 -31 22
-7 0 -74 54 -156 125 -22 19 -44 35 -48 35 -5 0 -35 26 -67 58 -32 31 -110
107 -175 167 -183 173 -280 274 -339 355 -30 41 -75 102 -99 135 -55 74 -100
152 -95 164 3 10 204 255 229 280 8 9 47 54 86 101 38 47 77 91 86 99 10 7 17
18 17 23 0 12 67 78 80 78 5 0 10 7 10 15 0 8 9 24 20 35 11 11 20 25 20 30 0
6 5 10 10 10 6 0 10 6 10 13 0 7 9 18 20 25 11 7 20 18 20 26 0 7 11 22 25 32
14 10 25 22 25 26 0 14 34 48 47 48 7 0 13 7 13 16 0 21 100 144 117 144 7 0
13 8 13 18 0 9 27 46 60 81 33 36 60 70 60 77 0 7 9 16 20 19 11 3 20 11 20
16 0 14 23 38 37 39 7 0 23 -11 37 -24z"/>
<path d="M6327 3683 c-12 -12 -7 -43 7 -43 13 0 26 20 26 41 0 10 -23 12 -33
2z m16 -18 c-3 -9 -8 -14 -10 -11 -3 3 -2 9 2 15 9 16 15 13 8 -4z"/>
<path d="M2992 3363 c-36 -5 -39 -29 -3 -27 11 0 21 -3 21 -8 0 -4 -7 -8 -15
-8 -8 0 -15 -4 -15 -10 0 -5 11 -10 25 -10 30 0 33 -20 5 -27 -11 -3 -20 -10
-20 -15 0 -7 -4 -7 -12 0 -17 13 -111 22 -127 13 -7 -4 -14 -21 -15 -37 -3
-25 -7 -29 -30 -26 -42 5 -30 -15 14 -22 23 -3 43 -13 46 -21 3 -7 12 -11 20
-8 8 3 14 1 14 -5 0 -6 21 -18 48 -27 26 -9 55 -21 64 -26 34 -18 64 -9 100
29 46 46 55 80 33 121 -9 18 -19 30 -23 27 -5 -3 -14 0 -22 5 -13 8 -13 10 0
20 11 8 12 12 3 16 -7 2 -13 9 -13 15 0 16 -28 38 -47 36 -10 0 -33 -3 -51 -5z
m68 -13 c0 -5 -9 -10 -21 -10 -11 0 -17 5 -14 10 3 6 13 10 21 10 8 0 14 -4
14 -10z m20 -45 c0 -28 4 -36 24 -41 27 -6 48 -45 39 -71 -3 -10 -22 -35 -41
-55 -35 -37 -65 -48 -76 -29 -3 5 -22 12 -42 16 -24 4 -38 13 -41 26 -3 12
-14 19 -28 19 -13 0 -33 6 -46 13 -19 9 -23 19 -21 45 3 31 4 32 53 32 27 0
58 -6 69 -12 15 -9 23 -10 28 -2 4 6 15 13 25 17 9 3 17 16 17 27 0 11 5 20
10 20 6 0 10 7 10 15 0 8 5 15 10 15 6 0 10 -16 10 -35z"/>
<path d="M2815 3350 c-3 -5 -16 -10 -28 -11 -20 -1 -20 -2 3 -8 24 -7 24 -8
-7 -12 -18 -3 -34 -1 -37 5 -4 11 -26 -11 -26 -26 0 -5 37 -8 83 -8 l82 1 -24
19 -23 20 54 0 c42 0 55 4 55 15 0 8 -7 15 -14 15 -8 0 -11 -4 -8 -10 8 -13
-15 -13 -35 0 -9 6 -17 5 -22 -3 -5 -9 -10 -9 -20 1 -15 15 -25 15 -33 2z m29
-42 c6 -4 -9 -7 -34 -6 -29 1 -35 2 -17 5 17 3 27 11 28 21 0 14 2 14 6 2 3
-8 11 -18 17 -22z"/>
<path d="M1495 3320 c3 -5 11 -10 16 -10 6 0 7 5 4 10 -3 6 -11 10 -16 10 -6
0 -7 -4 -4 -10z"/>
<path d="M1284 3311 c-12 -12 -1 -21 26 -21 19 0 30 5 30 14 0 13 -44 18 -56
7z"/>
<path d="M1686 3304 c-5 -12 -2 -15 10 -10 8 3 18 6 20 6 3 0 2 5 -1 10 -9 15
-22 12 -29 -6z"/>
<path d="M550 3302 c0 -4 -120 -7 -267 -6 -180 0 -270 -3 -275 -10 -4 -6 -8
-21 -8 -33 0 -21 5 -23 48 -23 26 0 57 7 69 15 18 13 26 13 43 3 28 -18 25
-35 -7 -36 -53 -2 -58 -5 -60 -36 -2 -16 2 -33 7 -36 16 -10 29 -88 16 -93
-13 -5 -14 -46 -2 -66 5 -8 0 -24 -13 -41 -18 -25 -20 -40 -17 -99 2 -39 0
-87 -6 -108 -13 -52 -17 -157 -19 -448 -2 -339 2 -529 12 -536 5 -3 5 -19 0
-37 -5 -18 -6 -32 -3 -32 8 0 8 -1 16 -300 l5 -216 -28 -12 c-22 -10 -27 -17
-23 -37 2 -14 11 -25 18 -25 19 0 18 -5 -21 -103 -34 -83 -35 -92 -35 -212 l0
-125 25 6 c31 8 43 -17 28 -57 -6 -16 -8 -31 -4 -33 4 -3 3 -39 -1 -81 -8 -68
-7 -78 11 -101 12 -15 21 -41 21 -58 l0 -31 382 1 c211 1 496 4 633 8 264 7
264 7 186 -36 -17 -10 -31 -25 -31 -36 0 -10 -7 -27 -15 -38 -8 -10 -15 -32
-15 -47 0 -16 -11 -39 -26 -53 -14 -14 -23 -31 -21 -37 2 -7 -2 -18 -10 -25
-7 -7 -13 -19 -13 -25 0 -7 4 -6 10 3 6 10 10 11 10 3 0 -37 49 4 92 78 14 24
68 101 120 170 51 69 113 154 138 189 45 64 101 123 223 237 100 95 99 89 101
352 1 176 -2 225 -11 223 -17 -3 -16 17 1 24 8 3 11 15 8 29 -2 13 3 45 12 71
13 38 16 92 16 273 0 135 6 282 15 366 9 77 18 169 21 205 6 64 19 97 28 69
11 -36 15 -109 5 -109 -6 0 -7 4 -4 10 3 5 2 17 -3 26 -6 11 -11 -46 -15 -162
-4 -99 -12 -260 -18 -359 -12 -209 -12 -279 1 -355 10 -56 8 -123 -9 -265 -6
-44 -13 -125 -16 -180 l-6 -100 39 38 c70 69 243 106 609 132 122 8 241 19
265 25 23 5 76 16 116 25 41 9 76 14 80 10 3 -3 13 -51 22 -105 14 -83 15
-116 6 -201 -6 -57 -16 -104 -22 -106 -18 -6 -26 79 -15 144 18 111 22 161 11
168 -6 4 -13 -7 -16 -24 -4 -17 -13 -31 -20 -31 -17 0 -18 -12 -1 -29 10 -10
9 -15 -4 -24 -14 -11 -37 -108 -43 -190 -2 -15 -5 -30 -9 -33 -3 -3 -2 -16 2
-28 4 -11 5 -32 1 -46 -7 -22 -8 -23 -15 -6 -5 11 -3 21 3 25 8 5 4 13 -11 26
-21 18 -35 19 -30 3 2 -5 -3 -8 -11 -8 -8 0 -17 -7 -20 -16 -3 -8 -11 -12 -17
-8 -8 5 -8 9 1 14 7 4 13 19 13 34 1 14 5 26 10 26 4 0 7 11 7 24 0 14 5 28
10 31 6 4 8 10 5 14 -9 16 68 220 89 233 8 5 7 11 -2 20 -15 15 -75 -4 -109
-34 -27 -25 -91 -27 -151 -4 -33 12 -52 14 -85 7 -28 -7 -56 -6 -84 1 -27 6
-68 7 -110 2 -71 -8 -98 -9 -148 -4 -16 1 -39 1 -50 0 -17 -2 -16 -3 5 -9 24
-7 23 -9 -22 -30 -52 -25 -160 -133 -243 -244 -27 -36 -56 -66 -62 -67 -12 0
-17 -13 -14 -32 0 -4 -5 -5 -13 -2 -10 4 -11 15 -6 45 6 34 5 39 -11 39 -11 0
-19 -4 -19 -10 0 -5 -6 -10 -14 -10 -9 0 -12 -7 -9 -19 2 -10 -2 -25 -11 -33
-8 -9 -21 -35 -28 -58 -7 -23 -19 -45 -25 -47 -7 -3 -13 -14 -13 -24 0 -10 -4
-19 -10 -19 -5 0 -10 -13 -10 -30 0 -20 -5 -30 -15 -30 -8 0 -15 6 -15 13 0
22 -49 40 -67 26 -7 -7 -12 -18 -9 -25 7 -18 -21 -25 -34 -8 -7 8 -17 14 -23
14 -18 0 -58 -52 -52 -68 3 -8 -2 -23 -12 -34 -9 -10 -17 -26 -18 -36 -4 -39
-17 -82 -26 -82 -5 0 -9 4 -9 8 0 5 -7 9 -15 9 -9 0 -15 -10 -15 -24 0 -20 4
-23 20 -18 14 5 20 2 20 -9 0 -15 -23 -21 -57 -17 -7 1 -13 -5 -13 -12 0 -8
-7 -18 -16 -21 -23 -9 -8 -25 17 -19 14 4 25 0 31 -11 8 -15 197 -16 2519 -16
l2509 0 0 380 c-1 250 -4 380 -11 380 -6 0 -8 4 -5 9 3 5 -4 11 -15 14 -14 4
-20 11 -16 21 9 22 -4 26 -46 16 -20 -4 -37 -5 -37 -1 -1 3 -10 17 -21 31 -19
22 -22 23 -30 7 -6 -9 -15 -17 -20 -17 -6 0 -7 5 -4 10 3 6 2 10 -4 10 -5 0
-13 -5 -16 -10 -5 -8 -11 -7 -21 1 -20 16 -17 29 6 29 12 0 20 7 20 18 0 13
-9 17 -45 19 -29 1 -45 -3 -45 -10 0 -7 -4 -6 -10 3 -5 9 -5 19 1 27 15 18 1
35 -23 27 -14 -4 -18 -2 -14 5 4 6 1 9 -7 5 -18 -6 -32 27 -16 37 15 9 3 29
-18 29 -9 0 -22 8 -29 17 -11 17 -13 16 -23 -9 -8 -20 -15 -25 -31 -21 -23 6
-24 33 -1 41 8 3 11 0 7 -7 -4 -6 -3 -11 2 -11 14 0 24 32 14 42 -5 5 -29 10
-54 11 -44 2 -47 4 -63 45 -20 46 -45 56 -45 18 0 -14 -5 -28 -10 -31 -6 -4
-10 -3 -9 2 3 19 -2 34 -10 28 -5 -3 -12 -1 -16 5 -3 5 3 10 13 10 15 0 19 5
15 20 -6 22 -19 26 -25 8 -2 -6 -10 -8 -16 -4 -7 4 -10 16 -7 25 9 28 -4 54
-21 41 -7 -7 -11 -17 -8 -25 3 -7 1 -15 -3 -18 -5 -3 -10 3 -10 14 -3 37 -53
71 -53 37 0 -9 -4 -8 -10 2 -14 21 -12 30 4 30 8 0 18 5 21 10 4 7 -6 9 -29 7
-41 -5 -58 10 -33 28 21 15 11 25 -25 25 -21 0 -28 5 -28 20 0 25 -17 26 -23
3 -3 -12 -5 -9 -6 8 -1 15 -11 33 -23 42 -19 13 -20 16 -6 16 9 1 20 6 24 13
5 7 2 9 -8 6 -15 -6 -48 23 -48 42 0 6 -7 10 -15 10 -8 0 -15 4 -15 10 0 5 -6
7 -14 4 -8 -3 -16 3 -19 16 -3 11 -9 20 -14 18 -17 -4 -53 14 -53 28 0 12 -19
19 -43 15 -5 -1 -11 8 -14 19 -4 16 -9 18 -19 9 -18 -15 -77 50 -62 68 7 9 5
15 -8 20 -11 4 -25 15 -32 25 -10 14 -17 16 -27 8 -10 -8 -15 -8 -21 1 -4 7
-2 15 4 17 16 5 15 22 -1 22 -8 0 -24 11 -37 26 -21 21 -22 27 -10 34 16 10 8
14 -22 11 -13 -2 -17 4 -15 20 1 12 -4 24 -10 26 -7 3 -13 -2 -13 -11 0 -9 -8
-16 -20 -16 -23 0 -24 4 -9 31 5 11 14 17 20 14 11 -8 12 25 0 44 -6 9 -18 11
-34 7 -14 -3 -29 -2 -32 4 -3 5 -14 10 -24 10 -9 0 -26 8 -37 18 -10 10 -23
19 -29 20 -5 1 -10 9 -10 16 0 27 -13 27 -19 1 -5 -19 -11 -25 -22 -21 -9 3
-25 6 -36 6 -14 0 -18 5 -14 15 7 20 -14 19 -42 -1 -22 -15 -23 -15 -18 11 3
15 7 30 10 33 3 2 -7 14 -21 25 -18 15 -28 17 -31 9 -6 -18 -22 -14 -23 6 0
10 -3 12 -6 5 -7 -20 -23 -15 -17 5 5 14 3 14 -11 -3 -9 -11 -22 -19 -28 -17
-6 2 4 -11 23 -30 19 -18 42 -32 50 -30 13 3 13 2 0 -8 -13 -9 -11 -14 13 -35
15 -13 27 -28 27 -33 0 -16 37 -52 45 -44 5 4 5 -1 2 -10 -3 -10 -1 -20 5 -24
6 -4 8 -27 4 -64 -4 -37 -3 -61 4 -65 6 -4 10 12 10 44 0 28 3 51 7 51 7 0
143 -141 143 -148 0 -3 18 -23 40 -44 22 -22 40 -42 40 -45 0 -3 9 -17 20 -33
11 -15 16 -30 13 -34 -6 -6 -5 -46 2 -161 2 -22 7 -125 13 -228 6 -104 13
-191 16 -194 2 -3 1 -16 -4 -29 -5 -13 -6 -26 -1 -28 5 -3 6 -17 4 -31 -7 -36
5 -75 24 -75 14 0 15 12 9 113 -4 61 -11 184 -16 272 -5 88 -12 199 -16 247
-3 49 -2 88 2 88 15 -1 56 -41 118 -115 32 -38 67 -79 77 -90 22 -23 115 -139
144 -179 42 -58 228 -301 234 -306 4 -3 29 -32 55 -65 27 -33 73 -87 102 -119
30 -32 54 -62 54 -66 0 -14 -48 -20 -77 -10 -30 11 -68 27 -94 41 -9 4 -67 11
-128 15 -96 6 -111 9 -111 24 0 22 -42 30 -196 36 -99 5 -113 7 -117 24 -3 13
-11 17 -26 13 -12 -3 -21 -1 -21 6 0 6 9 11 20 11 11 0 20 4 20 10 0 17 -52
23 -87 11 -19 -7 -37 -10 -41 -7 -3 4 4 9 16 13 26 6 24 19 -15 98 -32 65 -57
92 -118 122 -27 14 -53 30 -57 36 -3 6 -9 62 -13 126 -10 174 -13 213 -20 219
-7 7 4 -319 11 -330 2 -4 -5 -9 -16 -13 -22 -7 -23 -6 75 -90 40 -35 60 -91
51 -147 -6 -35 -4 -39 19 -48 22 -8 24 -13 15 -30 -6 -11 -16 -20 -23 -20 -7
0 -22 -3 -33 -6 -17 -5 -24 0 -32 25 -15 44 -54 60 -95 39 -77 -38 -97 -42
-112 -22 -8 11 -15 22 -15 25 0 6 -25 13 -178 51 -24 6 -46 18 -50 27 -3 9
-13 24 -22 33 -17 16 -17 20 -1 79 10 34 25 67 35 74 15 12 14 14 -15 24 -18
6 -39 11 -48 11 -8 0 -30 14 -48 32 l-32 31 -12 -29 c-6 -16 -12 -37 -14 -47
-3 -11 -13 -33 -25 -50 l-20 -32 6 43 c5 34 4 42 -9 42 -17 0 -32 30 -20 39
12 8 8 54 -5 59 -6 2 -8 10 -5 18 3 9 -2 14 -16 14 -12 0 -21 4 -21 9 0 5 9 7
20 4 30 -8 24 10 -10 29 -20 11 -28 22 -24 32 3 9 10 16 15 16 18 0 8 18 -13
25 -14 4 -18 8 -11 11 10 4 10 9 -1 20 -8 8 -19 14 -25 14 -6 0 -11 9 -11 19
0 19 -2 19 -35 5 -45 -18 -48 -18 -35 6 6 11 15 18 21 15 14 -9 11 4 -5 20 -7
7 -29 16 -48 20 -31 6 -34 9 -30 36 4 28 3 29 -36 29 -24 0 -47 -7 -56 -16
-20 -20 -20 -19 7 -57 13 -18 24 -46 25 -64 2 -31 1 -31 -28 -23 -23 7 -30 5
-30 -5 0 -10 -18 -13 -77 -11 -43 2 -76 5 -73 8 3 3 -4 16 -15 28 -25 27 -24
108 1 127 9 6 13 16 9 22 -3 6 -2 11 4 11 6 0 8 12 5 29 -4 16 -1 32 5 35 7 5
4 17 -10 36 -20 26 -19 57 2 45 5 -4 9 -1 9 4 0 6 -5 11 -11 11 -8 0 -7 5 1
15 7 9 10 18 7 22 -4 3 -2 12 4 19 9 10 7 15 -4 20 -17 6 -14 56 4 62 5 2 9
13 9 24 0 17 2 18 15 4 9 -8 23 -12 32 -9 12 5 15 2 10 -10 -3 -9 -3 -17 2
-17 5 0 11 -15 15 -32 10 -54 11 -56 40 -83 15 -14 39 -25 54 -25 15 0 37 -7
49 -15 12 -8 28 -12 36 -9 12 4 14 0 10 -15 -4 -16 -2 -20 10 -15 8 3 18 0 22
-5 3 -6 11 -9 16 -5 5 3 16 0 24 -6 8 -6 19 -9 25 -5 7 4 14 -2 17 -14 6 -24
30 -27 55 -8 15 12 15 14 -3 25 -10 7 -37 12 -59 12 -22 0 -40 5 -40 10 0 9
17 14 47 13 16 -1 17 14 1 19 -8 3 -7 13 5 36 11 22 12 32 4 32 -7 0 -4 7 5
14 10 7 15 16 11 19 -3 4 -1 7 5 7 7 0 12 7 12 16 0 11 5 14 16 10 36 -14 62
-17 68 -8 3 5 -1 34 -8 63 -15 55 -9 79 19 79 7 0 15 15 17 35 4 33 3 34 -14
18 -15 -14 -18 -14 -18 -1 0 25 -38 52 -73 51 -32 0 -157 -11 -167 -14 -3 0
-12 -2 -20 -3 -103 -12 -142 -21 -151 -32 -8 -10 -8 -14 0 -14 6 0 11 -5 11
-10 0 -6 -11 -8 -25 -4 -21 5 -25 3 -25 -17 0 -15 -3 -19 -8 -12 -4 7 -24 10
-47 9 -32 -3 -44 2 -66 24 -39 38 -99 53 -189 45 -145 -13 -180 -13 -180 -4 0
5 -12 9 -27 9 -41 -1 -93 11 -93 21 0 5 7 9 15 9 8 0 15 4 15 9 0 5 8 12 18
14 14 4 13 5 -4 6 -17 1 -20 6 -16 29 2 15 10 32 16 37 9 7 7 15 -8 29 -19 19
-19 18 -12 -8 5 -20 3 -26 -9 -26 -9 0 -14 4 -11 9 13 20 -6 43 -31 36 -24 -6
-24 -5 -9 16 12 18 13 24 1 35 -8 8 -27 17 -44 20 -17 4 -28 11 -25 18 3 7
-11 30 -31 51 -19 22 -35 35 -36 29 0 -5 -7 4 -14 21 -9 20 -10 37 -3 55 6 16
6 26 -1 28 -6 2 -11 10 -11 19 0 11 8 13 33 9 21 -4 26 -3 13 2 -14 6 -16 11
-7 16 7 5 10 15 7 23 -4 9 1 17 14 20 30 8 24 23 -10 23 -20 0 -30 5 -30 15 0
21 -9 19 -31 -7 -26 -32 -24 -41 9 -34 26 6 26 6 8 -9 -11 -8 -26 -15 -33 -15
-7 0 -14 -6 -15 -12 0 -7 -2 -18 -2 -24 -1 -6 -7 -19 -15 -28 -7 -9 -14 -30
-15 -47 -1 -18 -14 -46 -33 -68 -22 -26 -29 -41 -22 -48 7 -7 6 -25 -5 -54 -8
-24 -15 -36 -16 -27 0 9 -5 18 -12 20 -8 3 -12 56 -13 181 -1 97 2 174 7 171
4 -3 8 -15 8 -27 0 -12 4 -17 9 -12 14 16 45 118 43 144 -1 14 1 22 4 18 10
-9 29 14 42 50 10 29 9 34 -9 44 -11 6 -18 16 -16 24 4 9 -1 11 -14 8 -13 -4
-19 0 -19 11 0 17 -47 53 -57 43 -3 -4 -14 -2 -24 4 -11 5 -19 6 -19 1 0 -6
-9 -12 -20 -15 -22 -6 -26 3 -9 20 17 17 -18 57 -73 82 -27 12 -60 33 -75 47
-25 23 -26 28 -17 64 9 31 8 37 -3 33 -7 -3 -13 -1 -13 5 0 6 -13 15 -30 21
-24 8 -30 16 -30 38 0 26 -3 28 -39 28 -22 0 -38 -1 -36 -4 2 -2 -2 -13 -10
-24 -10 -14 -11 -25 -5 -33 17 -19 0 -46 -24 -40 -11 3 -26 6 -32 6 -7 0 -15
15 -18 33 -6 32 -8 34 -51 33 -28 -1 -45 -6 -45 -13 0 -7 -7 -10 -15 -7 -10 4
-15 -1 -16 -15 -1 -12 -2 -29 -2 -38 -1 -18 -15 -33 -29 -33 -5 0 -7 3 -7 8 3
12 -25 72 -33 72 -4 0 -8 5 -8 11 0 7 9 9 21 6 13 -3 19 -1 16 6 -3 7 -10 11
-16 10 -6 -2 -11 6 -11 16 0 12 -7 20 -17 20 -10 1 -37 2 -60 4 -33 3 -43 0
-46 -14 -3 -10 -2 -20 1 -24 15 -14 10 -44 -7 -50 -21 -6 -58 -105 -56 -149 1
-27 -3 -30 -27 -21 -10 4 -13 16 -10 35 3 18 0 30 -7 30 -6 0 -11 7 -11 15 0
8 -4 15 -10 15 -5 0 -10 7 -10 15 0 8 -4 15 -10 15 -5 0 -10 7 -10 15 0 8 -5
15 -11 15 -5 0 -7 6 -3 12 5 7 9 20 9 30 1 9 12 26 26 37 l24 20 -30 3 c-72 5
-91 2 -107 -14 -23 -22 -23 -28 1 -28 11 0 21 -9 25 -22 10 -39 7 -48 -19 -48
-15 0 -25 6 -25 15 0 8 -12 22 -27 32 -16 10 -35 25 -44 35 -20 22 -42 23 -59
3 -7 -8 -19 -15 -26 -15 -8 0 -14 -6 -14 -14 0 -17 -24 -28 -45 -20 -8 4 -15
1 -15 -5 0 -6 -9 -11 -20 -11 -11 0 -20 7 -20 15 0 9 6 12 17 8 11 -4 14 -3 9
5 -4 7 -14 12 -22 12 -8 0 -13 4 -9 9 3 5 -4 12 -15 16 -29 9 -111 -5 -117
-21 -7 -19 -16 -18 -43 6 -24 21 -60 27 -60 10 0 -5 -7 -10 -16 -10 -10 0 -14
-5 -10 -16 3 -9 2 -12 -4 -9 -6 4 -13 -7 -16 -24 -4 -17 -11 -31 -17 -31 -6 0
-33 23 -60 51 -38 40 -51 49 -58 38 -7 -12 -9 -12 -9 0 0 8 -6 11 -15 7 -8 -3
-54 -6 -100 -7 -72 -1 -91 -5 -120 -25 l-34 -23 -20 25 c-16 20 -28 24 -70 24
-31 0 -51 -4 -51 -11 0 -8 -4 -9 -13 0 -8 6 -17 8 -21 4 -4 -4 -22 -6 -41 -5
-27 2 -33 -1 -29 -13 4 -9 0 -15 -9 -15 -8 0 -18 7 -21 16 -5 14 -16 16 -62
11 -43 -4 -56 -2 -61 9 -3 9 -13 12 -24 9 -12 -4 -19 -2 -19 7 0 9 18 14 57
16 39 2 60 8 69 20 12 16 13 16 26 0 10 -14 24 -17 68 -14 30 2 65 4 78 5 13
0 21 5 17 11 -3 5 -13 6 -22 3 -10 -4 -14 -2 -10 4 4 6 34 10 72 8 58 -2 65 0
65 16 0 21 -16 26 -22 7 -4 -10 -10 -10 -31 -1 -15 7 -27 9 -27 5z m-226 -23
c15 -15 -17 -30 -67 -31 -53 -1 -57 -3 -57 -25 0 -16 6 -23 19 -23 11 0 23 -5
26 -11 5 -6 27 -8 61 -3 44 5 55 3 60 -10 8 -20 54 -22 54 -2 0 10 12 13 50
10 28 -2 50 1 50 6 0 6 19 10 43 10 32 -1 46 -6 59 -24 17 -23 16 -24 -3 -29
-29 -8 -22 -51 9 -55 19 -3 22 1 22 27 0 29 2 31 27 25 23 -6 25 -4 21 14 -6
23 11 33 65 37 18 2 27 -2 27 -12 0 -8 9 -17 20 -20 11 -3 20 -12 20 -19 0 -8
9 -14 20 -14 23 0 24 7 10 45 -10 26 -10 26 38 23 39 -3 53 -9 83 -40 30 -31
33 -38 18 -38 -12 0 -19 -7 -19 -20 0 -11 7 -20 15 -20 8 0 15 -4 15 -10 0 -5
7 -10 16 -10 12 0 15 7 12 25 -4 19 -1 25 13 25 12 0 19 7 19 20 0 11 7 23 15
26 8 4 15 10 15 16 0 9 25 38 33 38 2 0 14 -9 27 -20 13 -11 29 -20 37 -20 7
0 13 -9 13 -20 0 -11 -4 -20 -10 -20 -5 0 -10 -11 -10 -25 0 -18 5 -25 20 -25
15 0 20 7 20 25 0 20 5 25 25 25 16 0 25 6 25 15 0 8 5 15 10 15 6 0 10 7 10
15 0 17 -27 20 -32 4 -2 -7 -13 -9 -27 -4 -30 9 -16 21 36 30 35 6 43 4 52
-14 15 -27 14 -41 -4 -41 -8 0 -15 -9 -15 -20 0 -11 7 -20 15 -20 8 0 15 7 15
15 0 9 9 15 23 15 41 0 97 21 97 35 0 8 5 15 12 15 6 0 19 7 29 16 16 15 20
14 41 -5 13 -12 32 -29 43 -39 12 -9 15 -13 8 -9 -19 13 -53 -2 -53 -23 0 -10
4 -21 9 -24 5 -3 7 -14 5 -24 -3 -9 2 -34 11 -55 11 -27 22 -37 38 -38 l22 0
-22 -9 c-34 -14 -29 -40 6 -40 22 0 32 6 37 22 4 13 2 24 -5 26 -16 5 -13 32
4 32 8 0 15 7 15 15 0 9 -9 15 -21 15 -17 0 -20 4 -15 23 3 12 6 28 6 35 0 6
11 12 25 12 24 0 25 3 23 50 -3 59 8 75 43 61 13 -5 19 -10 12 -10 -17 -1 -39
-84 -24 -89 6 -2 11 -10 11 -18 0 -8 5 -14 10 -14 6 0 10 -7 10 -15 0 -8 5
-15 10 -15 6 0 10 -7 10 -15 0 -8 5 -15 11 -15 7 0 9 -10 5 -27 -8 -29 5 -43
41 -43 17 0 22 6 21 28 -2 51 30 140 53 147 18 6 21 13 16 46 -4 29 -2 39 9
39 8 0 14 -9 14 -20 0 -13 7 -20 20 -20 11 0 20 7 20 15 0 8 7 15 15 15 12 0
14 -7 9 -26 -4 -14 -2 -29 3 -33 18 -11 43 -91 43 -135 0 -23 3 -46 7 -50 4
-4 6 -25 4 -46 -1 -22 2 -40 7 -40 16 0 30 -73 27 -137 -2 -35 0 -63 3 -63 4
0 7 -44 6 -97 -1 -114 2 -133 22 -133 13 0 15 16 12 95 -2 52 0 95 3 95 3 0 9
30 13 67 5 49 4 69 -6 75 -10 8 -10 11 -1 15 7 2 13 15 13 28 0 13 -6 26 -13
28 -7 3 -5 6 6 6 26 1 21 18 -20 57 -31 30 -35 39 -25 54 6 10 14 41 18 69 6
43 4 51 -10 51 -11 0 -16 9 -16 30 0 20 5 30 15 30 8 0 15 5 15 10 0 6 16 10
35 10 19 0 35 -2 35 -4 0 -2 3 -11 6 -20 4 -11 1 -16 -10 -16 -9 0 -16 -7 -16
-15 0 -8 5 -15 10 -15 6 0 8 -20 4 -55 -5 -42 -4 -55 6 -55 9 0 8 -5 -3 -18
-10 -10 -17 -33 -17 -51 0 -26 4 -32 18 -29 9 2 21 13 27 26 5 12 18 22 27 22
10 0 18 5 18 10 0 6 9 20 19 31 32 34 36 71 11 91 -12 10 -31 18 -41 18 -10 0
-19 4 -19 8 0 5 13 7 30 4 24 -3 30 0 34 19 3 13 5 33 3 44 -1 16 3 19 21 17
12 -2 22 2 22 7 0 6 5 11 11 11 8 0 9 -13 5 -40 -5 -32 -3 -40 9 -40 8 0 15 5
15 10 0 15 15 12 37 -7 14 -13 18 -24 12 -38 -4 -11 -8 -14 -8 -7 -1 7 -14 12
-32 12 -29 0 -31 -2 -25 -27 13 -60 29 -190 28 -221 -2 -29 1 -33 20 -30 17 2
24 11 26 31 2 17 -1 27 -10 27 -10 0 -10 2 1 9 7 5 15 31 17 61 2 29 6 55 9
58 8 8 119 -50 129 -67 5 -9 11 -38 12 -64 1 -27 5 -51 7 -53 3 -3 23 1 46 8
28 9 41 18 41 31 0 24 22 17 35 -11 5 -12 13 -22 17 -22 5 0 17 -9 28 -20 24
-24 18 -66 -11 -75 -12 -4 -19 -16 -19 -32 0 -14 -5 -43 -12 -64 -10 -34 -14
-38 -35 -33 -14 4 -23 2 -23 -5 0 -6 -11 -11 -25 -11 -35 0 -33 -28 3 -32 26
-3 27 -5 26 -62 0 -36 -5 -61 -12 -64 -14 -4 -16 -29 -3 -34 6 -1 12 -39 15
-83 3 -44 10 -81 16 -83 5 -2 10 -10 10 -18 0 -8 6 -14 13 -14 13 0 41 78 35
101 -1 8 9 30 25 50 16 21 27 49 27 66 0 17 7 36 15 43 8 7 15 22 15 34 0 15
9 25 30 33 19 7 30 8 30 1 0 -5 -9 -12 -20 -15 -18 -5 -19 -12 -16 -67 4 -64
13 -96 26 -96 5 0 6 -9 3 -20 -4 -14 0 -20 11 -20 9 0 16 6 16 13 1 18 30 -24
30 -44 0 -11 11 -19 34 -23 34 -6 54 -30 36 -41 -6 -4 -10 -13 -10 -22 0 -11
7 -14 25 -11 17 4 25 1 25 -8 0 -8 -10 -14 -24 -14 -13 0 -31 -11 -42 -25 -10
-14 -28 -25 -40 -25 -26 0 -48 -24 -40 -45 4 -11 -2 -15 -24 -15 -37 0 -55
-31 -65 -114 -4 -32 -12 -70 -18 -84 -9 -20 -9 -26 1 -30 21 -7 13 -41 -19
-74 -29 -31 -30 -32 -23 -8 4 14 12 28 18 32 8 5 8 13 -1 28 -7 11 -13 26 -13
34 0 8 -6 17 -12 19 -8 3 -5 6 6 6 13 1 17 6 13 21 -4 15 0 20 14 20 22 0 23
7 7 60 -9 29 -18 40 -33 40 -11 0 -30 3 -42 6 -14 4 -28 -1 -43 -16 -21 -21
-22 -28 -17 -144 9 -193 16 -245 50 -341 16 -45 28 -57 53 -51 18 5 21 2 17
-14 -6 -22 22 -29 30 -7 9 24 27 -9 56 -106 16 -54 26 -107 24 -118 -4 -15 0
-19 22 -19 26 0 27 1 19 43 -12 73 -11 128 3 142 7 8 13 23 13 34 0 11 5 23
10 26 6 4 7 23 4 46 -6 32 -3 44 14 59 12 12 28 17 41 13 12 -3 21 -1 21 6 0
6 11 11 25 11 14 0 25 -4 25 -10 0 -5 -4 -10 -10 -10 -5 0 -10 -7 -10 -15 0
-10 10 -15 30 -15 20 0 33 -7 41 -22 14 -26 18 -68 7 -68 -13 0 -9 -27 10 -64
16 -33 52 -50 52 -26 0 6 11 10 25 10 16 0 25 -6 25 -15 0 -26 39 -18 46 10 4
18 13 25 30 25 31 0 33 30 2 31 l-23 0 23 9 c12 6 22 18 22 30 0 11 7 20 15
20 18 0 20 30 3 31 -7 0 -3 4 10 9 18 8 22 17 22 50 0 22 5 40 10 40 6 0 10
14 10 30 0 20 -5 30 -15 30 -8 0 -15 -9 -15 -20 0 -11 -4 -20 -10 -20 -5 0
-10 5 -10 10 0 6 -13 10 -30 10 -19 0 -30 5 -30 14 0 7 -7 19 -15 26 -21 17
-19 30 5 30 11 0 20 7 20 15 0 8 -9 15 -21 15 -26 0 -59 -18 -59 -32 0 -15
-48 -58 -66 -58 -8 0 -14 9 -14 21 0 19 -4 20 -35 15 -41 -8 -79 20 -64 47 5
8 6 29 3 45 -5 24 -12 32 -33 34 -18 2 -27 10 -29 26 -2 14 -10 22 -23 22 -14
0 -19 7 -18 28 2 31 16 93 18 75 0 -7 7 -13 15 -13 16 0 31 34 21 50 -3 5 -1
10 5 10 6 0 19 7 27 16 11 11 24 14 42 9 14 -4 38 -7 54 -7 15 -1 27 -5 27
-10 0 -8 50 -7 220 7 60 5 116 -12 151 -48 25 -24 36 -28 69 -25 22 2 40 0 40
-4 0 -5 7 -8 15 -8 8 0 15 8 15 19 0 14 6 17 25 13 21 -4 25 -1 25 20 0 27 17
31 175 45 33 2 78 8 100 13 47 11 85 -4 100 -38 5 -12 15 -22 22 -22 21 0 15
-14 -9 -25 -24 -11 -26 -23 -13 -102 l8 -43 -34 12 c-19 6 -39 19 -46 27 -9
13 -16 14 -30 5 -30 -18 -29 -44 2 -44 l26 0 -21 -22 c-11 -12 -20 -30 -20
-40 0 -10 -7 -18 -15 -18 -18 0 -20 -36 -3 -43 8 -3 6 -8 -7 -13 -11 -4 -23
-11 -26 -16 -8 -12 -39 1 -39 17 0 7 -12 15 -27 18 -92 19 -116 26 -131 43
-20 21 -38 64 -47 112 -5 25 -11 32 -31 32 -13 0 -24 5 -24 10 0 6 -7 10 -15
10 -8 0 -15 -9 -15 -20 0 -11 -4 -20 -10 -20 -14 0 -25 -73 -12 -78 7 -2 6
-19 -5 -54 -12 -42 -12 -56 -2 -77 15 -32 12 -76 -7 -116 -19 -37 -27 -132
-13 -141 6 -3 14 -16 19 -28 8 -21 15 -23 94 -25 56 -1 86 3 86 10 0 7 11 8
30 4 30 -7 30 -6 30 37 0 27 -8 52 -20 68 -24 30 -25 46 -4 54 32 12 64 7 63
-11 0 -11 -3 -13 -6 -5 -7 17 -33 15 -33 -3 0 -8 7 -15 15 -15 8 0 15 -4 15
-9 0 -5 18 -12 41 -16 32 -6 39 -10 34 -23 -17 -40 -17 -52 -1 -52 9 0 16 -4
16 -10 0 -5 -4 -10 -10 -10 -5 0 -10 -7 -10 -16 0 -12 6 -15 23 -10 12 3 30 6
40 6 9 0 17 7 17 15 0 8 5 15 10 15 6 0 10 -9 10 -19 0 -11 5 -23 10 -26 6 -3
7 -17 4 -30 -3 -12 -1 -26 5 -29 6 -4 11 -18 11 -31 0 -14 7 -25 18 -28 13 -4
11 -5 -5 -6 -22 -1 -34 -31 -13 -31 6 0 10 -7 10 -15 0 -7 8 -19 18 -24 9 -6
11 -11 5 -11 -7 0 -13 -9 -13 -20 0 -13 -7 -20 -20 -20 -11 0 -20 -7 -20 -15
0 -22 40 -19 41 3 1 16 2 16 6 0 6 -23 29 -23 42 -1 7 13 8 0 4 -42 -5 -54 -3
-63 20 -88 21 -22 35 -27 70 -27 47 0 57 9 57 55 0 27 -17 35 -76 35 -24 0
-44 2 -44 4 0 3 9 20 19 38 10 18 22 48 26 66 l7 34 26 -25 c15 -13 44 -28 64
-31 32 -6 36 -10 28 -24 -17 -31 -40 -130 -34 -145 3 -9 12 -18 19 -21 7 -2
16 -18 20 -34 6 -28 9 -30 53 -30 74 0 167 -30 183 -58 7 -13 19 -24 28 -24
19 0 77 21 109 38 17 10 27 10 44 1 14 -8 18 -14 10 -17 -20 -6 -14 -32 8 -32
11 0 20 -5 20 -11 0 -8 14 -9 43 -5 63 10 91 57 43 76 -18 7 -22 14 -19 34 3
14 2 46 -2 72 -6 45 -37 85 -106 136 -12 10 -19 21 -15 25 4 4 10 3 14 -3 4
-6 30 -23 57 -37 61 -30 86 -56 119 -123 30 -60 31 -70 11 -78 -8 -3 -15 -13
-15 -22 0 -12 6 -15 28 -11 68 14 86 17 74 11 -17 -8 -15 -44 3 -44 8 0 15 -6
15 -14 0 -12 25 -16 123 -20 163 -6 207 -13 207 -36 0 -15 15 -18 111 -24 61
-4 119 -11 128 -16 72 -38 126 -53 161 -45 44 10 38 33 -24 101 -29 32 -75 86
-102 119 -26 33 -51 62 -55 65 -6 5 -192 248 -234 306 -29 40 -122 156 -144
179 -10 11 -45 52 -77 90 -110 131 -140 145 -147 68 -2 -27 -3 -18 -2 18 2 51
-2 72 -16 90 -10 13 -19 27 -19 31 0 3 -18 24 -40 46 -22 21 -40 41 -40 44 0
10 -137 148 -148 148 -6 0 -14 16 -18 35 -4 21 -13 37 -25 40 -10 3 -21 16
-25 28 -4 12 -12 25 -18 29 -6 5 -3 8 9 8 12 0 27 6 34 13 11 10 14 9 18 0 3
-7 13 -13 24 -13 10 0 19 -7 19 -15 0 -8 -4 -15 -10 -15 -11 0 -14 -30 -2 -30
4 0 17 -3 29 -6 19 -5 22 -1 25 28 3 37 21 41 27 6 1 -13 8 -26 15 -30 19 -13
46 -9 46 7 0 8 3 15 8 15 15 -1 42 -28 42 -44 0 -9 4 -16 9 -16 4 0 6 -11 3
-25 -4 -22 -1 -25 27 -25 17 0 31 -4 31 -10 0 -5 7 -10 15 -10 10 0 15 -10 15
-30 0 -23 5 -30 19 -30 25 0 33 -13 33 -56 0 -27 4 -34 19 -34 13 0 19 7 19
23 1 20 2 21 14 5 7 -10 17 -18 23 -18 5 0 7 -16 5 -35 -4 -30 -1 -35 17 -35
12 0 24 -7 27 -15 4 -8 14 -15 24 -15 11 0 22 -5 25 -10 3 -5 17 -10 31 -10
15 0 24 -6 24 -15 0 -8 5 -15 10 -15 6 0 8 -11 4 -25 -5 -21 -3 -25 15 -25 12
0 21 6 21 15 0 8 5 15 10 15 6 0 10 -6 10 -14 0 -8 14 -17 30 -21 17 -4 30
-13 30 -21 0 -8 5 -14 10 -14 6 0 10 -11 10 -25 0 -14 8 -29 20 -35 12 -6 20
-21 20 -35 0 -21 6 -26 39 -31 28 -4 38 -10 34 -20 -3 -8 -11 -14 -19 -14 -8
0 -14 -9 -14 -20 0 -18 4 -20 34 -15 30 6 34 4 40 -19 6 -25 36 -37 36 -15 0
8 5 8 15 -1 8 -7 15 -24 15 -37 0 -20 4 -24 19 -20 15 4 24 -4 36 -29 9 -19
20 -34 25 -34 6 0 10 -7 10 -16 0 -28 35 -11 40 21 5 29 5 29 25 -18 10 -26
23 -47 27 -47 4 0 8 -9 8 -20 0 -22 25 -27 34 -7 3 6 4 -7 1 -30 -5 -42 -4
-43 24 -43 22 0 32 7 45 33 8 17 16 26 16 20 0 -7 8 -13 18 -13 12 0 17 -8 17
-30 0 -26 -4 -30 -27 -30 -18 0 -28 -5 -28 -15 0 -17 56 -22 62 -6 2 5 15 7
30 4 15 -3 25 -9 22 -14 -9 -14 6 -49 21 -49 7 0 15 4 17 9 2 6 17 6 38 1 24
-5 28 -8 13 -9 -15 -1 -23 -7 -23 -19 0 -27 20 -42 56 -42 24 0 34 -5 39 -20
3 -11 11 -20 18 -20 8 0 8 -3 -1 -12 -18 -18 -14 -38 8 -38 11 0 20 5 20 11 0
14 39 1 64 -22 11 -11 28 -19 38 -19 17 0 18 -19 18 -350 l0 -350 -1555 0
-1555 0 0 26 c0 21 -4 25 -22 22 -17 -2 -23 -9 -22 -25 l1 -23 -926 0 c-634 1
-920 4 -908 11 11 6 17 22 17 45 0 45 30 154 48 176 8 10 13 25 10 35 -2 10 6
28 18 41 19 20 23 20 34 7 7 -8 18 -15 24 -15 6 0 20 -21 30 -48 34 -83 59
-96 69 -35 6 34 3 41 -28 69 -33 29 -47 64 -26 64 21 0 41 -13 41 -26 0 -8 10
-14 25 -14 21 0 25 5 25 30 0 17 5 30 10 30 6 0 10 9 10 19 0 10 6 21 13 24 6
2 18 25 26 51 7 25 17 46 22 46 5 0 12 12 15 27 4 15 14 34 21 42 12 12 13 5
7 -48 -6 -53 -4 -61 10 -61 9 0 16 7 16 15 0 8 5 15 10 15 6 0 10 9 10 20 0
11 6 20 13 20 6 1 35 31 62 67 77 102 191 219 232 238 21 9 43 24 50 32 6 8
19 13 29 11 13 -2 7 -13 -28 -53 -25 -27 -52 -64 -61 -81 -15 -29 -183 -225
-199 -232 -12 -5 -10 -32 3 -32 15 0 53 21 61 34 15 22 17 -3 6 -58 -11 -52
-11 -59 5 -67 15 -9 16 -12 2 -25 -19 -20 -19 -44 0 -44 8 0 15 4 15 8 0 5 16
26 35 48 20 21 46 52 58 68 12 16 34 42 50 58 15 16 27 33 27 37 0 4 18 27 40
50 22 23 40 46 40 50 0 5 11 12 25 15 14 4 25 10 25 14 0 4 17 6 38 4 26 -3
42 1 51 12 8 9 18 16 23 16 5 0 18 9 30 20 12 11 34 26 50 32 15 7 28 16 28
20 0 5 10 8 23 8 12 0 33 12 47 27 21 21 26 23 28 10 2 -11 13 -17 33 -17 16
0 29 -4 29 -8 0 -11 -39 -62 -83 -108 -24 -25 -39 -52 -43 -76 -4 -21 -10 -38
-15 -38 -5 0 -9 -12 -9 -26 0 -14 -7 -32 -15 -40 -20 -20 -19 -44 1 -44 12 0
14 -8 8 -46 -6 -41 -5 -46 12 -42 10 2 20 12 22 22 2 11 12 27 22 35 10 9 30
36 43 61 13 25 34 49 45 55 14 6 22 22 27 52 3 24 10 43 16 43 5 0 9 7 9 15 0
8 5 15 10 15 6 0 10 15 10 34 0 18 7 39 15 46 8 7 15 18 15 24 0 7 11 23 24
35 l25 23 -30 -91 c-16 -50 -29 -100 -29 -111 0 -11 -4 -20 -10 -20 -5 0 -10
-9 -10 -20 0 -11 -7 -20 -15 -20 -18 0 -19 -14 -5 -41 13 -23 38 -25 46 -4 4
8 15 15 25 15 14 0 19 -7 19 -25 0 -24 24 -44 37 -32 3 4 7 39 9 79 4 107 25
221 42 234 9 7 13 19 9 33 -3 11 -1 21 4 21 12 0 11 -10 -2 -100 -13 -87 1
-190 27 -190 8 0 14 3 14 8 1 4 7 59 14 122 13 101 12 128 -1 216 -9 56 -19
108 -24 115 -8 13 -35 9 -217 -31 -24 -5 -144 -17 -267 -25 -123 -9 -246 -20
-274 -24 -28 -4 -51 -4 -51 0 0 5 -7 9 -15 9 -8 0 -15 -4 -15 -9 0 -10 2 -9
-124 -45 -57 -16 -98 -34 -116 -51 l-27 -26 4 83 c3 46 11 129 18 186 8 63 11
136 7 190 -15 204 1 634 24 657 16 16 19 45 4 45 -5 0 -10 14 -10 30 0 20 5
30 15 30 9 0 15 9 15 25 0 16 -6 25 -15 25 -10 0 -15 11 -15 35 0 25 4 35 16
35 13 0 15 8 9 53 -10 87 -16 107 -30 107 -7 0 -16 -8 -19 -17 -3 -10 -3 44 0
120 4 117 2 137 -11 137 -8 0 -18 -12 -21 -27 -4 -16 -11 -33 -15 -39 -5 -6
-8 -29 -8 -50 1 -21 -3 -59 -9 -84 -17 -75 -1 -240 24 -240 8 0 14 -4 14 -10
0 -5 -9 -10 -20 -10 -11 0 -20 -6 -21 -12 0 -7 -2 -47 -4 -88 -3 -41 -7 -96
-10 -123 -5 -43 -3 -48 17 -57 17 -6 19 -9 6 -9 -22 -1 -25 -41 -3 -41 22 0
22 -328 0 -390 -8 -23 -15 -55 -15 -71 0 -15 -5 -31 -10 -34 -17 -10 -12 -45
7 -45 15 0 16 -19 10 -214 -7 -249 -6 -247 -104 -339 -122 -114 -178 -173
-223 -237 -25 -35 -87 -120 -138 -189 -52 -69 -106 -146 -120 -170 -14 -24
-36 -55 -48 -68 l-23 -25 2 28 c1 15 12 37 25 50 12 13 22 34 22 48 0 13 7 37
14 53 8 15 17 36 20 45 3 9 23 26 46 38 22 11 40 28 40 36 0 15 -26 16 -257 9
-142 -4 -426 -7 -631 -8 l-372 -2 0 31 c0 17 -9 43 -20 57 -17 22 -19 33 -12
93 5 38 8 94 8 124 -1 52 -2 55 -28 58 l-28 3 0 110 c0 102 2 115 35 196 39
96 43 123 19 123 -23 0 -13 33 14 45 l22 10 -6 225 c-3 124 -6 260 -6 303 0
42 -3 77 -7 77 -5 0 -8 79 -14 383 -2 72 1 97 11 97 6 0 12 7 12 15 0 8 -5 15
-11 15 -14 0 -5 393 10 455 6 22 11 59 11 83 0 31 4 42 15 42 8 0 15 9 15 20
0 13 -7 20 -20 20 -25 0 -25 5 1 38 16 21 19 34 13 65 -4 25 -2 42 5 46 14 9
-5 111 -20 111 -15 0 -10 19 10 39 12 12 27 17 45 14 22 -5 26 -2 26 19 0 16
-9 29 -25 38 -22 12 -30 12 -54 -3 -31 -18 -101 -23 -101 -8 0 34 10 36 160
35 82 0 152 -2 154 -5z m154 -7 c7 -21 -93 -26 -106 -6 -4 6 -14 13 -22 16 -8
3 16 4 55 3 38 -2 71 -7 73 -13z m1482 -62 c0 -5 -4 -10 -10 -10 -5 0 -10 5
-10 10 0 6 5 10 10 10 6 0 10 -4 10 -10z m-1118 -38 c-19 -6 -44 6 -37 18 4 7
14 6 28 -2 14 -7 17 -13 9 -16z m428 -22 c0 -4 -11 -7 -25 -6 -14 0 -25 6 -25
12 0 7 10 9 25 6 14 -2 25 -8 25 -12z m344 -67 c-3 -12 -13 -23 -22 -25 -14
-3 -13 -7 6 -26 26 -26 27 -32 7 -32 -18 0 -47 64 -38 85 3 9 -1 22 -8 31 -10
13 -10 17 2 24 21 14 60 -29 53 -57z m-977 37 c-1 -11 -5 -20 -9 -20 -11 0
-20 19 -13 30 11 17 24 11 22 -10z m583 -15 c0 -8 -4 -15 -10 -15 -5 0 -10 7
-10 15 0 8 5 15 10 15 6 0 10 -7 10 -15z m-200 -10 c7 -9 10 -18 6 -22 -3 -3
-6 -1 -6 5 0 7 -7 12 -15 12 -8 0 -15 5 -15 10 0 15 16 12 30 -5z m1085 -23
c0 -9 -4 -22 -8 -29 -4 -6 -4 -18 -1 -26 3 -8 1 -18 -5 -22 -19 -11 -12 -45
14 -71 20 -20 23 -29 15 -50 -6 -14 -7 -36 -4 -50 3 -13 2 -24 -3 -24 -5 0
-14 18 -20 40 -5 22 -6 40 -2 40 5 0 9 5 9 10 0 6 -10 10 -21 10 -19 0 -21 4
-15 39 3 23 2 42 -4 46 -11 7 -14 64 -4 89 9 23 51 21 49 -2z m176 -3 c13 -11
18 -17 10 -13 -11 5 -13 2 -9 -14 4 -13 -2 -28 -13 -41 -11 -11 -19 -25 -19
-31 0 -5 -12 -10 -26 -10 -19 0 -25 -4 -21 -14 3 -8 -1 -20 -9 -26 -11 -10
-14 -8 -14 13 0 16 10 33 27 45 26 19 27 20 5 26 -40 13 -21 86 22 86 13 0 34
-9 47 -21z m133 9 c9 -8 12 -26 8 -50 -2 -21 -1 -38 4 -38 16 0 10 -60 -6 -61
-10 0 -11 -2 -2 -6 16 -6 15 -20 -1 -26 -8 -3 -14 0 -15 6 -4 50 -13 115 -18
132 -3 11 -8 28 -10 38 -6 20 20 23 40 5z m-794 -38 c0 -5 -2 -10 -4 -10 -3 0
-8 5 -11 10 -3 6 -1 10 4 10 6 0 11 -4 11 -10z m14 -74 c-5 -12 -44 -19 -44
-9 0 3 33 18 47 22 1 1 0 -5 -3 -13z m-1514 -96 c0 -5 -2 -10 -4 -10 -3 0 -8
5 -11 10 -3 6 -1 10 4 10 6 0 11 -4 11 -10z m2310 -14 c0 -15 -18 -31 -26 -23
-7 7 7 37 17 37 5 0 9 -6 9 -14z m200 -16 c-18 -11 -24 -6 -16 16 5 14 9 15
19 5 9 -9 9 -14 -3 -21z m50 20 c0 -5 -4 -10 -10 -10 -5 0 -10 5 -10 10 0 6 5
10 10 10 6 0 10 -4 10 -10z m-543 -32 c-3 -8 -6 -5 -6 6 -1 11 2 17 5 13 3 -3
4 -12 1 -19z m-7 -48 c13 0 -1 -113 -17 -128 -12 -12 -13 -11 -7 13 4 16 2 30
-5 34 -7 5 -8 17 -1 41 7 25 6 36 -3 43 -8 6 -6 7 6 3 10 -3 22 -6 27 -6z
m-10 -186 c0 -8 -5 -12 -10 -9 -6 4 -8 11 -5 16 9 14 15 11 15 -7z m537 -20
c-3 -3 -12 -4 -19 -1 -8 3 -5 6 6 6 11 1 17 -2 13 -5z m-761 -30 c-4 -9 -9
-15 -11 -12 -3 3 -3 13 1 22 4 9 9 15 11 12 3 -3 3 -13 -1 -22z m224 -41 c-1
-28 -3 -34 -10 -22 -8 14 -3 59 6 59 2 0 4 -17 4 -37z m-227 -20 c-1 -21 -5
-103 -9 -183 -3 -80 -8 -147 -10 -149 -9 -10 -15 10 -17 58 -1 28 -4 51 -7 51
-7 0 -7 80 0 80 6 0 9 22 11 108 2 43 12 72 28 72 3 0 5 -17 4 -37z m4 -240
c-3 -10 -5 -2 -5 17 0 19 2 27 5 18 2 -10 2 -26 0 -35z m1149 -121 c1 -15 -4
-22 -17 -22 -24 0 -24 -6 1 -37 15 -19 17 -27 7 -38 -7 -7 -16 -11 -21 -8 -4
3 -3 9 4 13 16 10 4 30 -19 30 -9 0 -26 -7 -37 -15 -16 -13 -17 -16 -4 -25 13
-9 11 -13 -10 -30 -23 -18 -24 -20 -8 -32 15 -11 16 -22 8 -83 -5 -43 -5 -74
1 -80 9 -9 10 -8 13 24 0 8 8 16 16 18 11 3 12 2 2 -4 -9 -7 -6 -15 13 -33 19
-18 22 -26 13 -37 -7 -9 -21 -12 -35 -9 -18 5 -24 2 -27 -16 -9 -45 -4 -54 26
-50 20 3 30 -1 35 -14 4 -10 2 -19 -5 -22 -7 -2 -12 -12 -12 -23 0 -10 -5 -19
-11 -19 -8 0 -7 -5 1 -15 11 -13 8 -19 -12 -38 -30 -26 -41 -63 -27 -88 6 -11
5 -20 -1 -24 -5 -3 -10 -18 -10 -32 0 -19 -4 -24 -16 -19 -8 3 -12 2 -9 -4 3
-5 1 -19 -6 -31 -6 -12 -7 -24 -2 -28 4 -3 8 -19 8 -36 0 -16 4 -45 7 -62 6
-25 4 -33 -7 -33 -8 0 -12 6 -9 14 3 8 -7 54 -21 102 -40 136 -45 145 -66 139
-11 -4 -19 -2 -19 5 0 7 -12 10 -27 8 -22 -2 -30 3 -41 25 -7 15 -16 40 -18
54 -3 15 -7 30 -10 35 -3 5 -8 25 -10 46 -3 20 -7 53 -10 72 -2 19 -7 85 -10
146 -6 102 -5 113 13 131 27 27 89 20 96 -10 2 -12 8 -30 12 -40 5 -13 3 -16
-8 -11 -8 3 -18 0 -22 -6 -6 -9 -9 -9 -15 0 -5 8 -9 7 -13 -5 -5 -10 1 -19 16
-25 17 -7 18 -9 5 -9 -19 -1 -26 -31 -8 -31 14 0 12 -27 -2 -33 -10 -4 -10 -7
0 -18 9 -10 12 -10 12 0 0 7 5 9 11 5 6 -3 7 -9 3 -13 -22 -15 -31 -46 -21
-69 6 -12 15 -21 19 -20 5 2 8 6 6 9 -2 3 9 20 25 38 26 32 38 91 17 91 -6 0
-6 8 0 23 11 27 24 97 21 114 -1 7 5 26 13 42 11 20 23 29 40 29 14 0 24 -4
21 -8 -3 -4 2 -13 10 -20 12 -10 14 -7 13 24 -1 20 -6 36 -11 36 -5 0 -4 7 3
15 7 9 22 14 34 13 11 -2 23 2 26 7 21 46 64 57 66 17z m31 -17 c-2 -25 -7
-35 -19 -35 -9 0 -20 5 -23 10 -3 6 1 10 9 10 10 0 16 9 16 25 0 14 4 25 9 25
5 0 9 -16 8 -35z m1551 21 c22 -13 1 -36 -26 -29 -24 6 -52 25 -52 36 0 6 66
1 78 -7z m-2754 -41 c-3 -14 -7 -37 -7 -52 -1 -16 -6 -31 -12 -35 -7 -5 -6 -8
0 -8 7 0 9 -15 7 -35 -2 -19 -7 -35 -11 -35 -10 0 -11 78 -1 105 5 14 6 27 1
29 -13 9 0 56 15 56 10 0 13 -7 8 -25z m76 0 c0 -8 -4 -15 -10 -15 -5 0 -7 7
-4 15 4 8 8 15 10 15 2 0 4 -7 4 -15z m2661 -28 c-10 -9 -11 -8 -5 6 3 10 9
15 12 12 3 -3 0 -11 -7 -18z m149 -21 c0 -3 -4 -8 -10 -11 -5 -3 -10 -1 -10 4
0 6 5 11 10 11 6 0 10 -2 10 -4z m80 -10 c0 -2 -7 -9 -15 -16 -12 -10 -15 -10
-15 4 0 9 7 16 15 16 8 0 15 -2 15 -4z m10 -26 c0 -5 -4 -10 -10 -10 -5 0 -10
5 -10 10 0 6 5 10 10 10 6 0 10 -4 10 -10z m98 -22 c-6 -18 -28 -21 -28 -4 0
9 7 16 16 16 9 0 14 -5 12 -12z m-1944 -13 c-4 -8 -8 -15 -10 -15 -2 0 -4 7
-4 15 0 8 4 15 10 15 5 0 7 -7 4 -15z m-1144 -80 c0 -8 -5 -15 -11 -15 -5 0
-7 -6 -3 -12 5 -10 4 -10 -5 -2 -12 11 -5 44 10 44 5 0 9 -7 9 -15z m2170 -56
c0 -5 -10 -9 -21 -9 -18 0 -19 2 -9 15 12 15 30 12 30 -6z m-980 -49 c0 -5 -4
-10 -10 -10 -5 0 -10 5 -10 10 0 6 5 10 10 10 6 0 10 -4 10 -10z m-2 -55 c-9
-19 -16 -24 -32 -19 -27 8 -29 11 -22 22 3 6 15 8 26 5 11 -3 20 0 20 6 0 6 4
11 10 11 6 0 5 -10 -2 -25z m259 -11 c-3 -3 -12 -4 -19 -1 -8 3 -5 6 6 6 11 1
17 -2 13 -5z m-37 -14 c0 -5 -5 -10 -11 -10 -5 0 -7 5 -4 10 3 6 8 10 11 10 2
0 4 -4 4 -10z m-204 -37 c-6 -15 7 -15 68 4 10 3 16 1 13 -4 -10 -15 6 -30 40
-36 25 -5 31 -3 27 8 -7 18 38 40 61 31 9 -3 19 -15 22 -26 3 -11 10 -20 15
-20 6 0 8 -7 4 -15 -3 -8 -1 -15 4 -15 6 0 10 7 10 15 0 8 6 15 14 15 9 0 12
-7 9 -20 -3 -11 -10 -20 -15 -20 -5 0 -6 -4 -3 -10 11 -18 35 -11 35 11 0 11
5 17 10 14 14 -9 12 -55 -2 -55 -9 0 -8 -3 2 -10 11 -7 8 -11 -15 -20 -29 -11
-29 -12 -11 -26 17 -12 17 -14 4 -14 -9 0 -18 -10 -20 -22 -2 -13 -12 -24 -25
-28 -26 -6 -19 -25 12 -33 13 -4 11 -5 -7 -3 -22 2 -27 -2 -32 -26 -9 -47 -31
-33 -29 20 1 6 -5 12 -13 12 -8 0 -11 -6 -8 -15 4 -10 0 -15 -10 -15 -9 0 -19
7 -22 15 -7 17 -34 21 -34 4 0 -5 -5 -7 -12 -3 -8 5 2 14 27 26 34 15 40 23
13 19 -4 0 -5 6 -2 14 4 9 0 15 -10 15 -9 0 -16 -6 -16 -12 0 -9 -3 -8 -10 2
-5 9 -5 19 1 26 11 14 -23 56 -55 67 -13 5 -17 14 -14 32 5 23 3 24 -28 20
-38 -5 -39 -3 -21 26 10 17 10 23 0 26 -7 3 -13 9 -13 14 0 15 24 38 33 32 5
-3 6 -12 3 -20z m-43 -29 c12 -4 12 -10 3 -30 -15 -33 -26 -30 -26 6 0 32 1
33 23 24z m384 -26 c-3 -7 -5 -2 -5 12 0 14 2 19 5 13 2 -7 2 -19 0 -25z m625
7 c0 -5 -5 -11 -11 -13 -6 -2 -11 4 -11 13 0 9 5 15 11 13 6 -2 11 -8 11 -13z
m1298 -55 c0 -5 -5 -10 -11 -10 -5 0 -7 5 -4 10 3 6 8 10 11 10 2 0 4 -4 4
-10z m-341 -157 c-1 -66 -2 -67 -9 -23 -7 41 -4 90 6 90 2 0 3 -30 3 -67z
m-1829 13 c0 -3 -4 -8 -10 -11 -5 -3 -10 -1 -10 4 0 6 5 11 10 11 6 0 10 -2
10 -4z m817 -33 c-4 -3 -1 -13 5 -21 10 -12 9 -14 -7 -11 -25 5 -33 39 -9 39
10 0 14 -3 11 -7z m1573 -57 c0 -3 -4 -8 -10 -11 -5 -3 -10 -1 -10 4 0 6 5 11
10 11 6 0 10 -2 10 -4z m-548 -166 c4 -88 3 -127 -2 -100 -8 44 -13 257 -6
249 2 -2 6 -69 8 -149z m-902 10 c0 -5 -2 -10 -4 -10 -3 0 -8 5 -11 10 -3 6
-1 10 4 10 6 0 11 -4 11 -10z m4 -77 c4 -9 2 -21 -4 -27 -8 -8 -9 -6 -5 7 4
10 2 17 -4 17 -6 0 -11 5 -11 10 0 16 17 11 24 -7z m1823 -9 c-3 -3 -12 -4
-19 -1 -8 3 -5 6 6 6 11 1 17 -2 13 -5z m-1678 -103 c9 -6 11 -18 7 -35 -9
-37 -67 -37 -101 0 -14 15 -25 31 -25 35 0 12 101 11 119 0z m771 -64 c-1 -40
-4 -57 -9 -47 -11 19 -10 121 1 114 4 -3 8 -33 8 -67z m973 36 c-7 -2 -19 -2
-25 0 -7 3 -2 5 12 5 14 0 19 -2 13 -5z m-3088 -23 c-3 -5 -14 -10 -23 -10
-15 0 -15 2 -2 10 20 13 33 13 25 0z m-15 -25 c0 -2 -18 -23 -40 -47 -22 -24
-40 -47 -40 -52 0 -5 -6 -17 -13 -25 -18 -22 -39 -74 -27 -66 5 3 10 1 10 -4
0 -6 -4 -11 -10 -11 -5 0 -10 -7 -10 -16 0 -8 -4 -12 -10 -9 -6 3 -10 -5 -10
-19 0 -14 -4 -27 -9 -30 -5 -3 -7 -14 -5 -24 3 -11 -3 -21 -17 -27 -12 -5 -34
-32 -49 -60 -29 -52 -54 -75 -67 -62 -4 4 -2 16 4 26 10 16 8 17 -13 13 -19
-3 -23 -1 -18 12 3 9 10 16 15 16 5 0 9 14 9 30 0 17 4 30 9 30 5 0 11 17 15
38 4 26 22 54 57 92 28 30 60 73 71 94 29 57 86 101 136 105 6 1 12 -1 12 -4z
m-416 -11 c9 -3 16 -12 16 -20 0 -8 -6 -11 -15 -8 -22 9 -85 -69 -65 -81 12
-7 50 12 50 25 0 45 136 96 185 70 l25 -13 -23 -16 c-12 -8 -26 -21 -30 -28
-4 -7 -19 -13 -32 -13 -14 0 -25 -3 -25 -8 0 -4 -13 -13 -28 -20 -16 -6 -38
-21 -50 -32 -12 -11 -25 -20 -30 -20 -4 0 -13 -5 -20 -12 -14 -14 -60 -20 -67
-7 -9 14 -25 11 -25 -6 0 -8 -11 -17 -25 -21 -14 -3 -25 -10 -25 -15 0 -4 -20
-29 -45 -55 -24 -26 -43 -49 -41 -51 4 -4 -4 -13 -88 -105 -24 -26 -41 -50
-39 -52 2 -2 -2 -7 -9 -12 -7 -4 -10 -4 -6 0 8 10 -14 36 -24 29 -10 -5 -10
31 -1 41 4 3 8 14 9 24 12 74 4 86 -36 52 -52 -45 -27 -6 55 86 47 53 93 111
102 128 9 17 34 51 57 76 36 40 47 46 106 56 78 14 123 16 144 8z m56 -10 c0
-2 -7 -4 -15 -4 -8 0 -15 4 -15 10 0 5 7 7 15 4 8 -4 15 -8 15 -10z m164 -15
c-2 -5 -14 -1 -24 9 -26 22 -25 24 5 10 13 -6 22 -15 19 -19z m70 -7 c-6 -4
-16 -16 -22 -27 -11 -19 -11 -18 -12 8 0 21 5 27 23 27 12 0 17 -3 11 -8z
m-44 -17 c0 -8 -9 -15 -20 -15 -22 0 -27 15 -7 23 21 9 27 7 27 -8z m-270 -26
c-7 -11 -14 -19 -16 -16 -7 7 7 37 17 37 6 0 5 -9 -1 -21z m3798 -14 c-3 -3
-9 2 -12 12 -6 14 -5 15 5 6 7 -7 10 -15 7 -18z m92 -5 c0 -12 -8 -12 -35 0
-18 8 -17 9 8 9 15 1 27 -3 27 -9z m-2 -30 c2 -6 10 -10 17 -10 15 0 28 -27
16 -34 -4 -3 -18 4 -29 15 -25 23 -82 37 -82 20 0 -6 -5 -11 -12 -11 -6 0 -3
9 8 21 14 16 26 19 49 15 16 -4 32 -11 33 -16z m-4511 -272 c-3 -8 -6 -5 -6 6
-1 11 2 17 5 13 3 -3 4 -12 1 -19z m773 -77 c0 -6 -4 -12 -8 -15 -5 -3 -9 1
-9 9 0 8 4 15 9 15 4 0 8 -4 8 -9z m-1003 -118 c-4 -3 6 -14 21 -24 24 -14 28
-22 24 -48 -5 -39 -16 -32 -42 26 -23 53 -23 53 -8 53 6 0 8 -3 5 -7z m-187
-247 c0 -8 -4 -18 -10 -21 -5 -3 -10 -4 -10 -1 0 2 -3 11 -6 20 -4 11 -1 16
10 16 9 0 16 -6 16 -14z m-40 -6 c0 -5 -4 -10 -10 -10 -5 0 -10 5 -10 10 0 6
5 10 10 10 6 0 10 -4 10 -10z m1897 -15 c0 -8 -4 -15 -8 -15 -11 0 -20 16 -12
24 11 11 20 7 20 -9z"/>
<path d="M437 3144 c-18 -19 -5 -34 29 -34 28 0 35 3 32 18 -3 17 -48 29 -61
16z m48 -14 c4 -6 -5 -10 -20 -10 -15 0 -24 4 -20 10 3 6 12 10 20 10 8 0 17
-4 20 -10z"/>
<path d="M1400 3127 c0 -13 40 -37 60 -37 18 0 10 29 -9 40 -27 14 -51 13 -51
-3z m46 -13 c18 -14 18 -14 -6 -3 -31 14 -36 19 -24 19 6 0 19 -7 30 -16z"/>
<path d="M1353 3084 c-4 -10 1 -22 10 -29 10 -7 17 -17 17 -23 0 -5 16 -10 35
-10 28 0 35 4 35 19 0 13 -7 19 -24 19 -15 0 -26 7 -29 20 -6 24 -35 26 -44 4z
m34 -20 c-9 -9 -28 6 -21 18 4 6 10 6 17 -1 6 -6 8 -13 4 -17z m23 -18 c0 -3
-4 -8 -10 -11 -5 -3 -10 -1 -10 4 0 6 5 11 10 11 6 0 10 -2 10 -4z"/>
<path d="M807 3064 c-4 -4 -7 -16 -7 -26 0 -13 7 -18 26 -18 21 0 25 4 22 22
-3 23 -27 35 -41 22z m33 -25 c0 -5 -7 -9 -15 -9 -15 0 -20 12 -9 23 8 8 24
-1 24 -14z"/>
<path d="M1167 3053 c-13 -12 -7 -33 8 -33 8 0 15 -7 15 -15 0 -18 14 -19 41
-5 25 14 25 40 -1 40 -11 0 -20 5 -20 10 0 11 -33 14 -43 3z m33 -13 c0 -5 -7
-10 -16 -10 -8 0 -12 5 -9 10 3 6 10 10 16 10 5 0 9 -4 9 -10z m26 -25 c-21
-16 -32 -13 -21 4 3 6 14 11 23 11 15 -1 15 -2 -2 -15z"/>
<path d="M652 3033 c5 -26 38 -29 38 -4 0 15 -6 21 -21 21 -14 0 -19 -5 -17
-17z m28 -3 c0 -5 -2 -10 -4 -10 -3 0 -8 5 -11 10 -3 6 -1 10 4 10 6 0 11 -4
11 -10z"/>
<path d="M1270 3020 c0 -11 7 -20 15 -20 8 0 15 9 15 20 0 11 -7 20 -15 20 -8
0 -15 -9 -15 -20z"/>
<path d="M1920 2985 c0 -8 7 -15 15 -15 8 0 15 7 15 15 0 8 -7 15 -15 15 -8 0
-15 -7 -15 -15z"/>
<path d="M837 2973 c-14 -13 -6 -33 13 -33 13 0 20 7 20 20 0 19 -20 27 -33
13z m23 -13 c0 -5 -5 -10 -11 -10 -5 0 -7 5 -4 10 3 6 8 10 11 10 2 0 4 -4 4
-10z"/>
<path d="M1660 2965 c0 -8 7 -15 15 -15 8 0 15 7 15 15 0 8 -7 15 -15 15 -8 0
-15 -7 -15 -15z"/>
<path d="M1410 2955 c0 -8 9 -15 20 -15 11 0 20 7 20 15 0 8 -9 15 -20 15 -11
0 -20 -7 -20 -15z"/>
<path d="M1780 2923 c0 -10 -3 -28 -6 -40 -10 -37 20 -28 34 10 16 44 15 47
-8 47 -12 0 -20 -7 -20 -17z m24 -8 c-4 -8 -8 -15 -10 -15 -2 0 -4 7 -4 15 0
8 4 15 10 15 5 0 7 -7 4 -15z"/>
<path d="M1220 2901 c0 -49 12 -91 26 -91 7 0 15 8 17 18 4 16 5 16 6 0 1 -11
9 -18 21 -18 11 0 20 -7 20 -15 0 -8 7 -15 16 -15 12 0 15 6 10 23 -3 12 -6
30 -6 40 0 9 -7 17 -15 17 -8 0 -15 -4 -15 -10 0 -5 -7 -10 -15 -10 -15 0 -19
20 -15 68 1 17 -4 22 -24 22 -22 0 -26 -5 -26 -29z m38 7 c-6 -18 -28 -21 -28
-4 0 9 7 16 16 16 9 0 14 -5 12 -12z m-1 -54 c-9 -9 -28 6 -21 18 4 6 10 6 17
-1 6 -6 8 -13 4 -17z m60 -26 c-3 -8 -6 -5 -6 6 -1 11 2 17 5 13 3 -3 4 -12 1
-19z"/>
<path d="M1617 2913 c-13 -12 -7 -110 9 -141 12 -26 13 -35 2 -54 -16 -30 -26
-420 -12 -490 7 -34 44 -40 44 -8 0 11 3 20 8 20 4 0 8 34 8 76 1 51 5 78 14
84 11 7 10 15 -3 43 -26 54 -23 187 8 375 5 25 2 32 -10 32 -10 0 -15 10 -15
29 0 33 -33 54 -53 34z m41 -47 c-2 -24 1 -31 14 -30 9 1 14 -4 12 -11 -3 -7
-13 -12 -22 -11 -9 0 -16 -5 -14 -12 1 -8 -3 -12 -10 -10 -13 5 -23 80 -14
104 10 27 37 3 34 -30z m16 -107 c-12 -20 -25 -299 -14 -299 3 0 10 -11 17
-25 9 -20 8 -25 -1 -25 -8 0 -13 -15 -14 -37 -1 -21 -3 -49 -5 -63 -2 -14 2
-31 7 -39 8 -10 8 -15 -1 -18 -7 -3 -13 -13 -13 -24 0 -24 -16 -25 -22 -1 -2
9 -4 59 -4 110 1 55 -3 92 -9 92 -6 0 -6 3 1 8 5 4 11 27 11 52 3 119 3 147 0
170 -1 14 4 35 11 48 8 12 12 31 9 42 -4 15 0 20 15 20 12 0 17 -4 12 -11z"/>
<path d="M450 2895 c0 -8 7 -15 15 -15 8 0 15 7 15 15 0 8 -7 15 -15 15 -8 0
-15 -7 -15 -15z"/>
<path d="M850 2880 c0 -13 7 -20 20 -20 13 0 20 7 20 20 0 13 -7 20 -20 20
-13 0 -20 -7 -20 -20z m30 0 c0 -5 -4 -10 -10 -10 -5 0 -10 5 -10 10 0 6 5 10
10 10 6 0 10 -4 10 -10z"/>
<path d="M2250 2885 c0 -8 7 -15 15 -15 9 0 15 -9 15 -25 0 -16 6 -25 15 -25
8 0 15 9 15 20 0 11 5 20 10 20 6 0 10 7 10 15 0 8 -7 15 -15 15 -8 0 -15 -4
-15 -10 0 -5 -4 -10 -10 -10 -5 0 -10 7 -10 15 0 8 -7 15 -15 15 -8 0 -15 -7
-15 -15z m47 -47 c-3 -8 -6 -5 -6 6 -1 11 2 17 5 13 3 -3 4 -12 1 -19z"/>
<path d="M580 2864 c0 -33 33 -30 38 4 3 17 -2 22 -17 22 -16 0 -21 -6 -21
-26z m30 7 c0 -6 -4 -13 -10 -16 -5 -3 -10 1 -10 9 0 9 5 16 10 16 6 0 10 -4
10 -9z"/>
<path d="M682 2847 c-11 -12 -8 -293 4 -329 3 -10 12 -18 19 -18 11 0 14 15
12 59 -1 36 4 65 12 75 7 9 11 22 8 30 -3 8 1 40 9 71 15 55 14 58 -5 79 -12
12 -21 28 -21 34 0 16 -25 15 -38 -1z m24 -6 c-3 -4 5 -18 18 -30 23 -22 23
-24 9 -78 -8 -30 -12 -61 -10 -67 6 -15 -20 -52 -30 -42 -11 10 -10 198 1 214
9 13 20 17 12 3z m-2 -246 c-4 -8 -8 -15 -10 -15 -2 0 -4 7 -4 15 0 8 4 15 10
15 5 0 7 -7 4 -15z m6 -67 c0 -19 -2 -20 -10 -8 -13 19 -13 30 0 30 6 0 10
-10 10 -22z"/>
<path d="M2470 2835 c0 -8 9 -15 20 -15 11 0 20 7 20 15 0 8 -9 15 -20 15 -11
0 -20 -7 -20 -15z"/>
<path d="M1500 2825 c0 -8 9 -15 20 -15 11 0 20 7 20 15 0 8 -9 15 -20 15 -11
0 -20 -7 -20 -15z"/>
<path d="M2330 2795 c0 -49 17 -95 35 -95 16 0 26 98 14 123 -6 9 -19 17 -29
17 -17 0 -20 -7 -20 -45z m37 20 c11 -19 4 -85 -8 -85 -10 0 -11 1 -14 58 -3
43 7 54 22 27z"/>
<path d="M2490 2790 c0 -11 7 -20 15 -20 8 0 15 9 15 20 0 11 -7 20 -15 20 -8
0 -15 -9 -15 -20z"/>
<path d="M580 2778 c0 -13 -3 -33 -6 -45 -6 -21 -3 -23 30 -23 41 0 45 13 21
60 -18 36 -45 40 -45 8z m35 -18 c20 -38 19 -40 -8 -40 -20 0 -23 4 -19 35 2
19 6 35 8 35 2 0 10 -13 19 -30z"/>
<path d="M903 2786 c-15 -17 -5 -96 12 -96 11 0 35 69 35 99 0 15 -33 13 -47
-3z m33 -12 c-3 -9 -6 -22 -6 -30 0 -8 -5 -14 -11 -14 -5 0 -8 4 -4 9 3 5 1
12 -5 16 -6 4 -5 11 3 20 16 19 31 19 23 -1z"/>
<path d="M1030 2785 c0 -8 7 -15 15 -15 8 0 15 7 15 15 0 8 -7 15 -15 15 -8 0
-15 -7 -15 -15z"/>
<path d="M1500 2780 c0 -13 7 -20 20 -20 13 0 20 7 20 20 0 13 -7 20 -20 20
-13 0 -20 -7 -20 -20z m30 0 c0 -5 -4 -10 -10 -10 -5 0 -10 5 -10 10 0 6 5 10
10 10 6 0 10 -4 10 -10z"/>
<path d="M1140 2778 c0 -7 -3 -23 -6 -35 -5 -17 -2 -23 9 -23 8 0 17 10 21 23
9 35 7 47 -9 47 -8 0 -15 -6 -15 -12z"/>
<path d="M2260 2765 c0 -8 7 -15 15 -15 8 0 15 7 15 15 0 8 -7 15 -15 15 -8 0
-15 -7 -15 -15z"/>
<path d="M2680 2740 c0 -48 25 -56 35 -10 7 33 1 50 -21 50 -10 0 -14 -12 -14
-40z m30 9 c0 -5 -4 -9 -10 -9 -5 0 -10 7 -10 16 0 8 5 12 10 9 6 -3 10 -10
10 -16z"/>
<path d="M1310 2735 c0 -16 6 -25 15 -25 9 0 15 9 15 25 0 16 -6 25 -15 25 -9
0 -15 -9 -15 -25z m17 -7 c-3 -8 -6 -5 -6 6 -1 11 2 17 5 13 3 -3 4 -12 1 -19z"/>
<path d="M2490 2745 c0 -8 7 -15 15 -15 8 0 15 7 15 15 0 8 -7 15 -15 15 -8 0
-15 -7 -15 -15z"/>
<path d="M2610 2739 c0 -14 5 -19 17 -17 26 5 29 38 4 38 -15 0 -21 -6 -21
-21z m30 7 c0 -3 -4 -8 -10 -11 -5 -3 -10 -1 -10 4 0 6 5 11 10 11 6 0 10 -2
10 -4z"/>
<path d="M2180 2715 c0 -46 33 -85 58 -69 27 18 25 41 -6 73 -38 40 -52 39
-52 -4z m59 -52 c-10 -11 -15 -10 -30 6 -11 11 -19 24 -19 30 0 19 25 18 43
-1 13 -16 15 -24 6 -35z"/>
<path d="M1490 2725 c0 -8 7 -15 15 -15 8 0 15 7 15 15 0 8 -7 15 -15 15 -8 0
-15 -7 -15 -15z"/>
<path d="M2560 2710 c0 -20 5 -30 15 -30 10 0 15 10 15 30 0 20 -5 30 -15 30
-10 0 -15 -10 -15 -30z m17 -12 c-3 -7 -5 -2 -5 12 0 14 2 19 5 13 2 -7 2 -19
0 -25z"/>
<path d="M860 2710 c0 -11 7 -20 15 -20 8 0 15 9 15 20 0 11 -7 20 -15 20 -8
0 -15 -9 -15 -20z"/>
<path d="M1830 2686 c0 -70 10 -107 29 -104 11 2 16 15 17 40 1 20 4 44 8 53
11 29 -3 55 -30 55 -22 0 -24 -4 -24 -44z m42 22 c7 -18 -11 -78 -22 -78 -6 0
-10 20 -10 45 0 32 4 45 14 45 8 0 16 -6 18 -12z m-7 -97 c3 -5 1 -12 -5 -16
-5 -3 -10 1 -10 9 0 18 6 21 15 7z"/>
<path d="M1690 2695 c0 -16 6 -25 15 -25 8 0 15 -4 15 -10 0 -5 -8 -10 -19
-10 -16 0 -18 -9 -20 -67 -2 -107 6 -143 33 -143 21 0 24 6 29 68 12 119 9
182 -8 182 -8 0 -15 7 -15 15 0 8 -7 15 -15 15 -9 0 -15 -9 -15 -25z m17 -7
c-3 -8 -6 -5 -6 6 -1 11 2 17 5 13 3 -3 4 -12 1 -19z m17 -63 c16 -12 18 -22
10 -82 -4 -37 -6 -74 -5 -80 1 -7 -5 -13 -14 -13 -8 0 -16 10 -17 23 -4 48 -3
167 2 167 3 0 13 -7 24 -15z"/>
<path d="M474 2703 c-16 -3 -23 -14 -28 -45 -4 -24 -2 -46 4 -52 5 -5 10 -25
10 -43 0 -22 5 -33 14 -33 18 0 31 74 21 119 -5 24 -3 31 9 31 9 0 16 7 16 15
0 15 -6 16 -46 8z m6 -28 c0 -8 -4 -15 -10 -15 -5 0 -10 7 -10 15 0 8 5 15 10
15 6 0 10 -7 10 -15z m8 -63 c2 -18 0 -32 -5 -32 -11 0 -34 51 -27 62 11 18
29 1 32 -30z"/>
<path d="M1090 2695 c0 -8 7 -15 15 -15 8 0 15 7 15 15 0 8 -7 15 -15 15 -8 0
-15 -7 -15 -15z"/>
<path d="M1142 2681 c-11 -24 -11 -33 0 -50 16 -26 37 -27 44 -3 3 9 10 25 15
34 17 32 11 48 -19 48 -20 0 -30 -7 -40 -29z m58 10 c0 -18 -18 -21 -30 -6
-10 13 -9 15 9 15 11 0 21 -4 21 -9z m-25 -61 c-5 -8 -11 -6 -20 7 -17 23 -7
39 12 20 9 -8 12 -20 8 -27z"/>
<path d="M600 2686 c0 -8 8 -17 18 -19 14 -4 14 -5 1 -6 -13 -1 -16 -11 -16
-43 1 -24 -2 -55 -7 -70 -7 -23 -5 -28 8 -28 9 0 16 -4 16 -10 0 -5 7 -10 15
-10 18 0 20 30 3 30 -8 1 -6 6 5 14 18 14 23 36 8 36 -5 0 -7 8 -4 19 3 10 0
22 -6 25 -16 10 -13 36 4 36 8 0 15 9 15 20 0 16 -7 20 -30 20 -19 0 -30 -5
-30 -14z m50 -5 c0 -5 -9 -7 -20 -4 -11 3 -20 7 -20 9 0 2 9 4 20 4 11 0 20
-4 20 -9z m-15 -70 c3 -5 1 -12 -5 -16 -5 -3 -10 1 -10 9 0 18 6 21 15 7z m15
-46 c0 -7 -30 -13 -34 -7 -3 4 4 9 15 9 10 1 19 0 19 -2z"/>
<path d="M1962 2683 c2 -10 12 -18 23 -18 11 0 21 8 23 18 3 13 -3 17 -23 17
-20 0 -26 -4 -23 -17z m38 1 c0 -8 -19 -13 -24 -6 -3 5 1 9 9 9 8 0 15 -2 15
-3z"/>
<path d="M1270 2675 c0 -8 7 -15 15 -15 8 0 15 7 15 15 0 8 -7 15 -15 15 -8 0
-15 -7 -15 -15z"/>
<path d="M2020 2672 c0 -22 13 -42 27 -42 21 0 12 44 -9 48 -10 2 -18 -1 -18
-6z m28 -27 c-3 -3 -9 2 -12 12 -6 14 -5 15 5 6 7 -7 10 -15 7 -18z"/>
<path d="M2300 2660 c0 -11 7 -20 15 -20 8 0 15 9 15 20 0 11 -7 20 -15 20 -8
0 -15 -9 -15 -20z"/>
<path d="M1040 2645 c0 -8 7 -15 15 -15 8 0 15 7 15 15 0 8 -7 15 -15 15 -8 0
-15 -7 -15 -15z"/>
<path d="M1890 2630 c0 -11 7 -20 15 -20 8 0 15 9 15 20 0 11 -7 20 -15 20 -8
0 -15 -9 -15 -20z"/>
<path d="M1970 2625 c0 -16 6 -25 15 -25 9 0 15 9 15 25 0 16 -6 25 -15 25 -9
0 -15 -9 -15 -25z"/>
<path d="M2542 2603 c1 -46 14 -73 33 -73 22 0 21 96 -1 104 -29 11 -33 6 -32
-31z m38 1 c0 -8 -4 -14 -10 -14 -5 0 -10 2 -10 4 0 2 -3 12 -6 20 -5 12 -2
15 10 10 9 -3 16 -12 16 -20z m0 -44 c0 -11 -2 -20 -5 -20 -2 0 -9 9 -15 20
-9 16 -8 20 5 20 8 0 15 -9 15 -20z"/>
<path d="M2620 2620 c0 -11 7 -20 15 -20 8 0 15 9 15 20 0 11 -7 20 -15 20 -8
0 -15 -9 -15 -20z"/>
<path d="M2222 2608 c5 -34 38 -37 38 -4 0 20 -5 26 -21 26 -15 0 -20 -5 -17
-22z m28 -4 c0 -8 -4 -12 -10 -9 -5 3 -10 10 -10 16 0 5 5 9 10 9 6 0 10 -7
10 -16z"/>
<path d="M790 2605 c0 -8 7 -15 15 -15 8 0 15 7 15 15 0 8 -7 15 -15 15 -8 0
-15 -7 -15 -15z"/>
<path d="M1260 2596 c0 -13 -3 -44 -6 -70 -7 -46 -6 -48 17 -44 22 3 24 8 27
71 3 62 1 67 -18 67 -14 0 -20 -6 -20 -24z m30 -16 c0 -5 -5 -10 -11 -10 -5 0
-7 5 -4 10 3 6 8 10 11 10 2 0 4 -4 4 -10z m-4 -57 c-2 -15 -8 -29 -15 -31
-12 -4 -15 17 -5 42 10 26 23 18 20 -11z"/>
<path d="M1442 2612 c-18 -12 -1 -86 21 -90 14 -3 17 5 17 47 0 51 -9 61 -38
43z m28 -27 c0 -14 -5 -25 -11 -25 -5 0 -8 4 -4 9 3 5 0 13 -6 17 -8 4 -7 9 2
15 19 12 19 12 19 -16z m0 -45 c0 -5 -2 -10 -4 -10 -3 0 -8 5 -11 10 -3 6 -1
10 4 10 6 0 11 -4 11 -10z"/>
<path d="M90 2585 c0 -8 7 -15 15 -15 8 0 15 7 15 15 0 8 -7 15 -15 15 -8 0
-15 -7 -15 -15z"/>
<path d="M360 2554 c0 -25 -5 -54 -11 -65 -7 -15 -7 -28 3 -49 14 -32 42 -40
52 -14 9 23 7 74 -3 74 -4 0 -6 23 -3 50 4 46 3 50 -17 50 -18 0 -21 -6 -21
-46z m30 32 c0 -3 -4 -8 -10 -11 -5 -3 -10 -1 -10 4 0 6 5 11 10 11 6 0 10 -2
10 -4z m-1 -38 c0 -7 -4 -22 -9 -33 -7 -16 -9 -14 -7 13 1 17 5 32 9 32 4 0 8
-6 7 -12z m5 -85 c-1 -16 -2 -31 -3 -35 -2 -16 -16 -7 -28 17 -6 15 -7 25 -1
25 5 0 6 5 3 10 -3 6 2 10 12 10 14 0 19 -7 17 -27z"/>
<path d="M840 2579 c0 -25 33 -22 38 4 2 12 -3 17 -17 17 -15 0 -21 -6 -21
-21z m30 7 c0 -3 -4 -8 -10 -11 -5 -3 -10 -1 -10 4 0 6 5 11 10 11 6 0 10 -2
10 -4z"/>
<path d="M1040 2581 c0 -14 -5 -18 -19 -14 -17 4 -19 -3 -24 -84 -4 -48 -5
-113 -4 -143 2 -30 -1 -80 -4 -110 -4 -30 -10 -93 -13 -140 -4 -47 -11 -86
-16 -88 -27 -9 6 -52 39 -52 21 0 25 21 24 123 0 9 3 17 7 17 4 0 10 41 13 91
3 50 10 96 16 103 6 7 8 29 4 49 -4 25 0 44 11 62 21 31 34 155 17 155 -6 0
-11 11 -11 25 0 18 -5 25 -20 25 -13 0 -20 -7 -20 -19z m30 -6 c0 -8 -4 -15
-10 -15 -5 0 -10 7 -10 15 0 8 5 15 10 15 6 0 10 -7 10 -15z m-32 -31 c6 3 13
2 17 -3 3 -6 12 -8 21 -4 12 4 14 -2 11 -31 -2 -20 -6 -39 -10 -42 -3 -3 -3
-12 0 -20 2 -7 -2 -23 -11 -36 -9 -12 -16 -32 -16 -45 0 -12 -5 -25 -11 -29
-8 -4 -6 -10 6 -17 16 -8 16 -12 4 -21 -14 -11 -17 -31 -20 -138 -1 -32 -5
-58 -9 -58 -4 0 -8 -19 -8 -42 -1 -22 -7 -45 -14 -49 -10 -7 -10 -9 2 -10 10
0 8 -3 -5 -9 -26 -11 -44 -12 -27 -1 7 4 15 36 18 72 4 35 8 82 10 104 4 41
14 317 14 370 0 21 3 26 9 16 5 -7 13 -11 19 -7z m-28 -574 c0 -5 -8 -10 -17
-10 -15 0 -16 2 -3 10 19 12 20 12 20 0z"/>
<path d="M1540 2570 c0 -20 5 -30 15 -30 10 0 15 10 15 30 0 20 -5 30 -15 30
-10 0 -15 -10 -15 -30z"/>
<path d="M2030 2580 c0 -11 7 -20 15 -20 8 0 15 9 15 20 0 11 -7 20 -15 20 -8
0 -15 -9 -15 -20z"/>
<path d="M1167 2583 c-16 -15 -6 -34 15 -31 29 4 38 38 10 38 -10 0 -22 -3
-25 -7z m28 -13 c-3 -5 -11 -10 -16 -10 -6 0 -7 5 -4 10 3 6 11 10 16 10 6 0
7 -4 4 -10z"/>
<path d="M290 2510 c0 -11 7 -20 15 -20 8 0 15 9 15 20 0 11 -7 20 -15 20 -8
0 -15 -9 -15 -20z"/>
<path d="M2295 2508 c5 -13 9 -81 9 -153 1 -115 3 -130 19 -133 19 -4 19 -9
23 143 4 144 0 165 -33 165 -22 0 -24 -3 -18 -22z m39 -10 c9 -35 -8 -41 -21
-8 -9 24 -9 30 2 30 7 0 15 -10 19 -22z m6 -90 c0 -10 -5 -18 -12 -18 -6 0 -8
3 -5 6 3 4 2 14 -3 24 -5 10 -6 20 -3 24 9 8 23 -14 23 -36z m0 -54 c0 -8 -4
-12 -10 -9 -5 3 -10 10 -10 16 0 5 5 9 10 9 6 0 10 -7 10 -16z m-7 -99 c-3
-13 -9 -22 -14 -19 -10 6 -12 38 -3 47 13 12 21 -3 17 -28z"/>
<path d="M2490 2505 c0 -8 7 -15 15 -15 8 0 15 7 15 15 0 8 -7 15 -15 15 -8 0
-15 -7 -15 -15z"/>
<path d="M1170 2490 c0 -11 7 -20 15 -20 8 0 15 9 15 20 0 11 -7 20 -15 20 -8
0 -15 -9 -15 -20z"/>
<path d="M1544 2484 c-4 -17 -2 -29 7 -35 11 -7 11 -9 -3 -9 -14 0 -17 -9 -16
-45 0 -39 4 -46 25 -51 33 -9 37 -1 24 38 -8 22 -8 34 -1 36 12 4 14 32 2 32
-5 0 -7 14 -4 30 6 39 -25 42 -34 4z m22 -10 c-4 -9 -9 -15 -11 -12 -3 3 -3
13 1 22 4 9 9 15 11 12 3 -3 3 -13 -1 -22z m-11 -53 c3 -5 1 -12 -5 -16 -5 -3
-10 1 -10 9 0 18 6 21 15 7z m20 -69 c-1 -1 -10 0 -19 4 -13 5 -14 9 -4 21 10
13 13 13 19 -4 3 -10 5 -19 4 -21z"/>
<path d="M2630 2495 c0 -8 7 -15 15 -15 8 0 15 7 15 15 0 8 -7 15 -15 15 -8 0
-15 -7 -15 -15z"/>
<path d="M1427 2483 c-16 -15 -6 -34 15 -31 29 4 38 38 10 38 -10 0 -22 -3
-25 -7z m28 -13 c-3 -5 -11 -10 -16 -10 -6 0 -7 5 -4 10 3 6 11 10 16 10 6 0
7 -4 4 -10z"/>
<path d="M2500 2400 c0 -61 3 -80 14 -80 17 0 28 67 20 120 -4 24 -12 40 -20
40 -11 0 -14 -19 -14 -80z m21 -36 l-10 -39 1 40 c2 42 9 67 15 49 2 -6 -1
-28 -6 -50z"/>
<path d="M280 2430 c0 -11 7 -20 15 -20 8 0 15 9 15 20 0 11 -7 20 -15 20 -8
0 -15 -9 -15 -20z"/>
<path d="M471 2418 c1 -18 -1 -40 -5 -49 -11 -25 11 -71 32 -67 23 4 30 111 8
133 -24 24 -38 18 -35 -17z m37 -48 c0 -28 -4 -53 -9 -56 -14 -8 -28 39 -17
53 6 7 8 19 5 27 -3 8 -1 17 6 20 7 2 13 5 13 5 1 1 2 -22 2 -49z"/>
<path d="M847 2443 c-14 -13 -6 -33 13 -33 13 0 20 7 20 20 0 19 -20 27 -33
13z m23 -13 c0 -5 -5 -10 -11 -10 -5 0 -7 5 -4 10 3 6 8 10 11 10 2 0 4 -4 4
-10z"/>
<path d="M1250 2425 c0 -8 7 -15 15 -15 8 0 15 7 15 15 0 8 -7 15 -15 15 -8 0
-15 -7 -15 -15z"/>
<path d="M1450 2430 c0 -5 -7 -10 -15 -10 -8 0 -15 -6 -15 -14 0 -7 -3 -28 -6
-45 -6 -29 -4 -31 21 -31 24 0 27 3 23 25 -3 13 -2 26 3 27 4 2 11 15 14 31 6
21 4 27 -9 27 -9 0 -16 -4 -16 -10z m10 -36 c0 -2 -7 -4 -15 -4 -8 0 -15 4
-15 10 0 5 7 7 15 4 8 -4 15 -8 15 -10z m-10 -45 c0 -5 -7 -9 -15 -9 -15 0
-20 12 -9 23 8 8 24 -1 24 -14z"/>
<path d="M1156 2414 c-11 -29 -6 -44 14 -44 16 0 20 7 20 30 0 32 -23 42 -34
14z m21 -14 c-1 -11 -5 -20 -9 -20 -10 0 -10 4 -2 24 8 22 13 20 11 -4z"/>
<path d="M840 2378 c0 -7 -3 -23 -6 -35 -5 -19 -2 -23 15 -23 17 0 21 6 21 35
0 24 -5 35 -15 35 -8 0 -15 -6 -15 -12z m20 -38 c0 -5 -5 -10 -11 -10 -5 0 -7
5 -4 10 3 6 8 10 11 10 2 0 4 -4 4 -10z"/>
<path d="M2090 2375 c0 -8 7 -15 15 -15 8 0 15 7 15 15 0 8 -7 15 -15 15 -8 0
-15 -7 -15 -15z"/>
<path d="M290 2360 c0 -11 7 -20 15 -20 8 0 15 9 15 20 0 11 -7 20 -15 20 -8
0 -15 -9 -15 -20z"/>
<path d="M670 2335 c0 -8 9 -15 20 -15 11 0 20 7 20 15 0 8 -9 15 -20 15 -11
0 -20 -7 -20 -15z"/>
<path d="M1416 2279 c-7 -44 -2 -59 18 -59 15 0 28 62 19 86 -10 28 -31 14
-37 -27z m28 16 c3 -8 1 -15 -4 -15 -6 0 -10 7 -10 15 0 8 2 15 4 15 2 0 6 -7
10 -15z m-4 -47 c0 -16 -3 -19 -11 -11 -6 6 -8 16 -5 22 11 17 16 13 16 -11z"/>
<path d="M2505 2268 c8 -50 18 -63 40 -54 30 11 -1 96 -35 96 -8 0 -10 -13 -5
-42z m38 -41 c-7 -12 -23 3 -23 22 0 28 14 35 21 9 3 -13 4 -26 2 -31z"/>
<path d="M1250 2288 c0 -30 13 -58 27 -58 22 0 13 64 -9 68 -10 2 -18 -2 -18
-10z m29 -31 c0 -21 -1 -21 -9 -2 -12 28 -12 37 0 30 6 -3 10 -16 9 -28z"/>
<path d="M1416 2169 c-11 -54 -8 -69 14 -69 17 0 20 7 20 50 0 58 -23 71 -34
19z m20 -57 c-12 -12 -18 8 -10 35 l8 28 4 -28 c2 -16 1 -31 -2 -35z"/>
<path d="M820 2175 c0 -8 7 -15 15 -15 8 0 15 7 15 15 0 8 -7 15 -15 15 -8 0
-15 -7 -15 -15z"/>
<path d="M270 2145 c0 -16 6 -25 15 -25 9 0 15 9 15 25 0 16 -6 25 -15 25 -9
0 -15 -9 -15 -25z m17 -7 c-3 -8 -6 -5 -6 6 -1 11 2 17 5 13 3 -3 4 -12 1 -19z"/>
<path d="M1600 2150 c0 -11 3 -20 8 -20 4 0 6 -18 4 -40 -5 -54 20 -55 36 -1
20 65 16 81 -18 81 -23 0 -30 -4 -30 -20z m50 0 c0 -5 -9 -10 -20 -10 -11 0
-20 5 -20 10 0 6 9 10 20 10 11 0 20 -4 20 -10z m-7 -32 c-4 -7 -8 -16 -8 -20
0 -11 -15 -22 -15 -10 0 19 12 42 22 42 5 0 6 -6 1 -12z"/>
<path d="M2312 2148 c2 -12 11 -24 21 -26 14 -3 18 1 15 20 -2 12 -11 24 -21
26 -14 3 -18 -1 -15 -20z m28 -9 c0 -6 -4 -7 -10 -4 -5 3 -10 11 -10 16 0 6 5
7 10 4 6 -3 10 -11 10 -16z"/>
<path d="M2700 2155 c0 -8 5 -15 10 -15 6 0 10 -7 10 -15 0 -8 7 -15 15 -15 8
0 15 7 15 15 0 8 -4 15 -10 15 -5 0 -10 7 -10 15 0 8 -7 15 -15 15 -8 0 -15
-7 -15 -15z"/>
<path d="M2090 2145 c0 -8 9 -15 20 -15 11 0 20 7 20 15 0 8 -9 15 -20 15 -11
0 -20 -7 -20 -15z"/>
<path d="M2514 2119 c3 -17 6 -52 6 -76 0 -40 2 -44 23 -41 19 3 22 10 24 50
1 26 -2 50 -7 53 -6 3 -10 15 -10 26 0 13 -7 19 -21 19 -19 0 -21 -4 -15 -31z
m26 11 c0 -5 -4 -10 -10 -10 -5 0 -10 5 -10 10 0 6 5 10 10 10 6 0 10 -4 10
-10z m16 -77 c-2 -57 -23 -52 -23 6 0 37 4 48 12 41 7 -5 11 -26 11 -47z"/>
<path d="M450 2119 c0 -25 33 -22 38 4 2 12 -3 17 -17 17 -15 0 -21 -6 -21
-21z m30 7 c0 -3 -4 -8 -10 -11 -5 -3 -10 -1 -10 4 0 6 5 11 10 11 6 0 10 -2
10 -4z"/>
<path d="M1240 2115 c0 -8 7 -15 15 -15 8 0 15 7 15 15 0 8 -7 15 -15 15 -8 0
-15 -7 -15 -15z"/>
<path d="M1770 2115 c0 -8 9 -15 20 -15 11 0 20 7 20 15 0 8 -9 15 -20 15 -11
0 -20 -7 -20 -15z"/>
<path d="M2680 2110 c0 -11 7 -20 15 -20 8 0 15 9 15 20 0 11 -7 20 -15 20 -8
0 -15 -9 -15 -20z"/>
<path d="M270 2039 c0 -14 5 -19 17 -17 26 5 29 38 4 38 -15 0 -21 -6 -21 -21z
m30 7 c0 -3 -4 -8 -10 -11 -5 -3 -10 -1 -10 4 0 6 5 11 10 11 6 0 10 -2 10 -4z"/>
<path d="M1604 2027 c-3 -8 -4 -49 -2 -93 3 -71 5 -79 23 -79 18 0 19 8 22 93
2 86 1 92 -18 92 -11 0 -22 -6 -25 -13z m32 -49 c-3 -29 -5 -59 -6 -65 0 -7
-5 -13 -11 -13 -9 0 -12 105 -2 123 13 23 23 0 19 -45z m-2 -109 c-6 -11 -24
-2 -24 11 0 5 7 7 15 4 8 -4 12 -10 9 -15z"/>
<path d="M1540 2015 c0 -8 7 -15 15 -15 8 0 15 7 15 15 0 8 -7 15 -15 15 -8 0
-15 -7 -15 -15z"/>
<path d="M2097 1986 c-10 -25 5 -96 19 -96 10 0 14 15 14 55 0 40 -4 55 -14
55 -8 0 -16 -6 -19 -14z m23 -11 c0 -8 -4 -15 -10 -15 -5 0 -7 7 -4 15 4 8 8
15 10 15 2 0 4 -7 4 -15z"/>
<path d="M1400 1975 c0 -8 7 -15 15 -15 8 0 15 7 15 15 0 8 -7 15 -15 15 -8 0
-15 -7 -15 -15z"/>
<path d="M2530 1950 c0 -11 7 -20 15 -20 8 0 15 9 15 20 0 11 -7 20 -15 20 -8
0 -15 -9 -15 -20z"/>
<path d="M4800 1945 c0 -8 7 -15 15 -15 8 0 15 7 15 15 0 8 -7 15 -15 15 -8 0
-15 -7 -15 -15z"/>
<path d="M1392 1914 c0 -47 31 -44 36 4 3 26 0 32 -16 32 -16 0 -20 -7 -20
-36z m19 -17 c-10 -9 -11 -8 -5 6 3 10 9 15 12 12 3 -3 0 -11 -7 -18z"/>
<path d="M962 1888 c3 -37 38 -55 38 -20 0 31 -11 52 -27 52 -10 0 -13 -9 -11
-32z m28 -14 c0 -8 -5 -12 -10 -9 -6 4 -8 11 -5 16 9 14 15 11 15 -7z"/>
<path d="M250 1880 c0 -13 7 -20 20 -20 13 0 20 7 20 20 0 13 -7 20 -20 20
-13 0 -20 -7 -20 -20z m30 0 c0 -5 -4 -10 -10 -10 -5 0 -10 5 -10 10 0 6 5 10
10 10 6 0 10 -4 10 -10z"/>
<path d="M2530 1885 c0 -8 7 -15 15 -15 8 0 15 7 15 15 0 8 -7 15 -15 15 -8 0
-15 -7 -15 -15z"/>
<path d="M1230 1864 c0 -33 33 -30 38 4 3 17 -2 22 -17 22 -16 0 -21 -6 -21
-26z m30 7 c0 -6 -4 -13 -10 -16 -5 -3 -10 1 -10 9 0 9 5 16 10 16 6 0 10 -4
10 -9z"/>
<path d="M1400 1850 c0 -11 7 -20 15 -20 8 0 15 9 15 20 0 11 -7 20 -15 20 -8
0 -15 -9 -15 -20z"/>
<path d="M450 1835 c0 -8 7 -15 15 -15 8 0 15 7 15 15 0 8 -7 15 -15 15 -8 0
-15 -7 -15 -15z"/>
<path d="M967 1833 c-14 -13 -6 -33 13 -33 13 0 20 7 20 20 0 19 -20 27 -33
13z m23 -13 c0 -5 -5 -10 -11 -10 -5 0 -7 5 -4 10 3 6 8 10 11 10 2 0 4 -4 4
-10z"/>
<path d="M1600 1815 c0 -18 5 -25 20 -25 21 0 24 8 14 34 -10 25 -34 19 -34
-9z m24 0 c3 -8 1 -15 -4 -15 -6 0 -10 7 -10 15 0 8 2 15 4 15 2 0 6 -7 10
-15z"/>
<path d="M3210 1825 c0 -8 9 -15 20 -15 11 0 20 7 20 15 0 8 -9 15 -20 15 -11
0 -20 -7 -20 -15z"/>
<path d="M3860 1825 c0 -8 7 -15 15 -15 8 0 15 7 15 15 0 8 -7 15 -15 15 -8 0
-15 -7 -15 -15z"/>
<path d="M4950 1815 c0 -8 7 -15 15 -15 8 0 15 7 15 15 0 8 -7 15 -15 15 -8 0
-15 -7 -15 -15z"/>
<path d="M253 1783 c-4 -9 -2 -18 4 -20 6 -2 9 -13 6 -23 -4 -13 0 -20 10 -20
19 0 29 25 21 56 -7 28 -32 32 -41 7z m27 -3 c0 -5 -5 -10 -11 -10 -5 0 -7 5
-4 10 3 6 8 10 11 10 2 0 4 -4 4 -10z"/>
<path d="M1240 1785 c0 -8 7 -15 15 -15 8 0 15 7 15 15 0 8 -7 15 -15 15 -8 0
-15 -7 -15 -15z"/>
<path d="M970 1770 c0 -11 7 -20 15 -20 8 0 15 9 15 20 0 11 -7 20 -15 20 -8
0 -15 -9 -15 -20z"/>
<path d="M2320 1745 c0 -8 7 -15 15 -15 8 0 15 7 15 15 0 8 -7 15 -15 15 -8 0
-15 -7 -15 -15z"/>
<path d="M956 1714 c-8 -31 -3 -39 19 -31 19 8 20 57 1 57 -8 0 -17 -12 -20
-26z m16 -16 c-8 -8 -9 -4 -5 13 4 13 8 18 11 10 2 -7 -1 -18 -6 -23z"/>
<path d="M3150 1715 c0 -8 7 -15 15 -15 8 0 15 7 15 15 0 8 -7 15 -15 15 -8 0
-15 -7 -15 -15z"/>
<path d="M1590 1685 c0 -8 7 -15 15 -15 8 0 15 7 15 15 0 8 -7 15 -15 15 -8 0
-15 -7 -15 -15z"/>
<path d="M1370 1665 c0 -18 5 -25 20 -25 15 0 20 7 20 25 0 18 -5 25 -20 25
-15 0 -20 -7 -20 -25z m30 0 c0 -8 -4 -15 -10 -15 -5 0 -10 7 -10 15 0 8 5 15
10 15 6 0 10 -7 10 -15z"/>
<path d="M253 1643 c-7 -2 -13 -11 -13 -19 0 -22 54 -14 58 9 3 17 -17 22 -45
10z m32 -13 c-3 -5 -14 -10 -23 -10 -15 0 -15 2 -2 10 20 13 33 13 25 0z"/>
<path d="M1580 1635 c0 -8 7 -15 15 -15 8 0 15 7 15 15 0 8 -7 15 -15 15 -8 0
-15 -7 -15 -15z"/>
<path d="M2330 1615 c0 -8 7 -15 15 -15 8 0 15 7 15 15 0 8 -7 15 -15 15 -8 0
-15 -7 -15 -15z"/>
<path d="M240 1575 c0 -8 7 -15 15 -15 8 0 15 7 15 15 0 8 -7 15 -15 15 -8 0
-15 -7 -15 -15z"/>
<path d="M2550 1525 c0 -8 7 -15 15 -15 8 0 15 7 15 15 0 8 -7 15 -15 15 -8 0
-15 -7 -15 -15z"/>
<path d="M1360 1465 c0 -8 7 -15 15 -15 8 0 15 7 15 15 0 8 -7 15 -15 15 -8 0
-15 -7 -15 -15z"/>
<path d="M3840 1435 c0 -8 7 -15 15 -15 8 0 15 7 15 15 0 8 -7 15 -15 15 -8 0
-15 -7 -15 -15z"/>
<path d="M2557 1433 c-14 -13 -6 -33 13 -33 13 0 20 7 20 20 0 19 -20 27 -33
13z m23 -13 c0 -5 -5 -10 -11 -10 -5 0 -7 5 -4 10 3 6 8 10 11 10 2 0 4 -4 4
-10z"/>
<path d="M2940 1335 c0 -8 7 -15 15 -15 8 0 15 7 15 15 0 8 -7 15 -15 15 -8 0
-15 -7 -15 -15z"/>
<path d="M3210 1320 c0 -11 7 -20 15 -20 8 0 15 9 15 20 0 11 -7 20 -15 20 -8
0 -15 -9 -15 -20z"/>
<path d="M3830 1295 c0 -8 7 -15 15 -15 8 0 15 7 15 15 0 8 -7 15 -15 15 -8 0
-15 -7 -15 -15z"/>
<path d="M3900 1275 c0 -8 9 -15 20 -15 11 0 20 7 20 15 0 8 -9 15 -20 15 -11
0 -20 -7 -20 -15z"/>
<path d="M5550 1255 c0 -8 7 -15 15 -15 8 0 15 7 15 15 0 8 -7 15 -15 15 -8 0
-15 -7 -15 -15z"/>
<path d="M1340 1195 c0 -8 9 -15 20 -15 11 0 20 7 20 15 0 8 -9 15 -20 15 -11
0 -20 -7 -20 -15z"/>
<path d="M3810 1185 c0 -8 7 -15 15 -15 8 0 15 7 15 15 0 8 -7 15 -15 15 -8 0
-15 -7 -15 -15z"/>
<path d="M3850 1175 c0 -8 7 -15 15 -15 8 0 15 7 15 15 0 8 -7 15 -15 15 -8 0
-15 -7 -15 -15z"/>
<path d="M2903 1165 c-15 -17 -17 -35 -4 -35 23 0 41 14 41 31 0 22 -20 24
-37 4z"/>
<path d="M3990 1165 c0 -8 7 -15 15 -15 8 0 15 7 15 15 0 8 -7 15 -15 15 -8 0
-15 -7 -15 -15z"/>
<path d="M5890 950 c0 -11 7 -20 15 -20 8 0 15 9 15 20 0 11 -7 20 -15 20 -8
0 -15 -9 -15 -20z"/>
<path d="M5930 895 c0 -8 7 -15 15 -15 8 0 15 7 15 15 0 8 -7 15 -15 15 -8 0
-15 -7 -15 -15z"/>
<path d="M2695 1740 c-3 -5 -1 -10 4 -10 6 0 11 5 11 10 0 6 -2 10 -4 10 -3 0
-8 -4 -11 -10z"/>
<path d="M2702 1676 c1 -26 5 -46 9 -46 4 0 6 -11 5 -25 -2 -14 5 -32 15 -41
16 -15 19 -15 19 -2 0 9 7 21 15 28 13 11 15 8 16 -21 1 -19 1 -40 0 -46 -1
-7 7 -13 19 -13 21 0 29 33 10 45 -6 4 -10 16 -9 28 5 59 -1 97 -16 97 -9 0
-18 -7 -21 -15 -9 -23 -19 -18 -29 17 -15 50 -33 46 -33 -6z m45 -36 c9 0 22
8 29 18 12 15 13 14 14 -15 0 -19 -5 -33 -12 -33 -6 0 -20 -7 -30 -17 -17 -15
-18 -14 -18 15 0 18 -4 32 -9 32 -5 0 -6 10 -3 23 l7 22 3 -22 c2 -13 10 -23
19 -23z"/>
<path d="M3260 1640 c-13 -9 -13 -10 0 -10 10 0 8 -6 -9 -19 l-24 -18 27 -5
c22 -4 27 -1 32 19 8 30 -5 46 -26 33z"/>
<path d="M3181 1604 c0 -11 3 -14 6 -6 3 7 2 16 -1 19 -3 4 -6 -2 -5 -13z"/>
<path d="M3170 1564 c0 -8 -8 -14 -17 -14 -15 0 -16 -2 -3 -9 8 -6 18 -7 24
-4 5 3 6 1 2 -5 -3 -6 -2 -13 3 -16 17 -11 36 4 37 28 1 18 -4 25 -22 29 -16
3 -24 0 -24 -9z m30 -19 c0 -8 -2 -15 -4 -15 -2 0 -6 7 -10 15 -3 8 -1 15 4
15 6 0 10 -7 10 -15z"/>
<path d="M3245 1540 c3 -5 10 -10 16 -10 5 0 9 5 9 10 0 6 -7 10 -16 10 -8 0
-12 -4 -9 -10z"/>
<path d="M3281 1472 c-1 -7 -12 -17 -26 -22 -26 -10 -34 -30 -12 -30 17 0 49
39 43 53 -3 9 -5 8 -5 -1z"/>
<path d="M2675 3300 c-3 -5 1 -10 9 -10 9 0 16 5 16 10 0 6 -4 10 -9 10 -6 0
-13 -4 -16 -10z"/>
<path d="M1960 3290 c0 -6 7 -10 15 -10 8 0 15 2 15 4 0 2 -7 6 -15 10 -8 3
-15 1 -15 -4z"/>
<path d="M1197 3276 c-18 -14 -18 -14 0 -18 10 -2 33 -2 52 1 l34 4 -24 13
c-30 17 -40 17 -62 0z"/>
<path d="M2128 3283 c6 -2 18 -2 25 0 6 3 1 5 -13 5 -14 0 -19 -2 -12 -5z"/>
<path d="M1130 3270 c0 -6 7 -10 15 -10 8 0 15 2 15 4 0 2 -7 6 -15 10 -8 3
-15 1 -15 -4z"/>
<path d="M1398 3273 c7 -3 16 -2 19 1 4 3 -2 6 -13 5 -11 0 -14 -3 -6 -6z"/>
<path d="M1053 3263 c9 -2 25 -2 35 0 9 3 1 5 -18 5 -19 0 -27 -2 -17 -5z"/>
<path d="M2693 3249 c-3 -10 -9 -16 -14 -13 -5 3 -6 10 -3 16 4 7 2 8 -4 4
-30 -18 -5 -43 50 -51 l48 -7 -11 30 c-13 37 -58 51 -66 21z m51 -15 c8 -22 5
-24 -22 -17 -12 3 -22 12 -22 19 0 20 37 17 44 -2z"/>
<path d="M693 3253 c9 -2 23 -2 30 0 6 3 -1 5 -18 5 -16 0 -22 -2 -12 -5z"/>
<path d="M773 3253 c9 -2 23 -2 30 0 6 3 -1 5 -18 5 -16 0 -22 -2 -12 -5z"/>
<path d="M2480 3230 c0 -5 7 -10 15 -10 8 0 15 -4 15 -10 0 -5 -5 -10 -12 -10
-6 0 -9 -2 -7 -5 3 -2 15 -2 27 2 23 6 23 6 3 24 -22 21 -41 25 -41 9z"/>
<path d="M1760 3200 c-8 -5 -12 -12 -9 -15 8 -8 39 5 39 16 0 11 -11 11 -30
-1z"/>
<path d="M1035 3184 c-19 -14 -19 -15 -1 -32 18 -16 19 -16 12 2 -4 12 -2 23
6 27 7 4 10 10 8 13 -3 2 -14 -2 -25 -10z"/>
<path d="M2050 3164 c0 -8 5 -12 10 -9 6 4 8 11 5 16 -9 14 -15 11 -15 -7z"/>
<path d="M3090 2691 c-14 -9 -23 -61 -10 -59 11 2 58 -21 65 -32 4 -6 0 -19
-9 -29 -9 -10 -16 -22 -16 -28 0 -12 -49 -27 -58 -19 -3 3 3 15 13 26 14 15
15 20 4 20 -28 0 -43 -19 -44 -53 -1 -26 2 -34 12 -30 15 6 8 -21 -11 -46 -9
-11 -6 -13 13 -6 19 6 23 4 18 -9 -7 -18 8 -32 18 -16 9 15 25 2 25 -21 0 -10
7 -19 15 -19 18 0 20 16 3 23 -10 3 -8 10 5 23 16 18 18 18 48 0 23 -13 34
-15 42 -7 8 8 5 11 -10 11 -25 0 -56 27 -47 41 3 5 13 5 25 -1 15 -8 21 -7 25
4 3 8 3 20 -1 26 -3 5 1 10 9 10 9 0 16 5 16 11 0 8 5 7 15 -1 13 -10 19 -10
33 3 14 13 39 15 140 12 67 -1 128 -7 135 -13 15 -13 65 -16 95 -7 18 6 20 10
10 16 -8 6 -1 9 22 9 19 0 51 4 70 9 77 20 100 21 100 6 0 -8 5 -15 10 -15 6
0 10 5 10 10 0 6 9 10 20 10 13 0 18 -5 14 -15 -10 -26 37 -61 86 -63 24 -2
47 -5 51 -8 4 -2 19 7 33 21 21 21 34 26 64 23 32 -3 40 -8 60 -47 13 -25 22
-54 21 -65 0 -12 0 -23 1 -26 1 -3 4 -36 5 -75 2 -38 6 -83 9 -100 2 -16 7
-61 10 -100 4 -38 9 -86 13 -105 3 -19 7 -43 8 -52 1 -10 4 -20 6 -22 2 -2 4
57 4 132 0 84 5 149 12 167 10 25 19 80 22 143 1 17 14 15 37 -5 26 -24 68
-29 60 -7 -3 8 -6 20 -6 25 0 6 -4 8 -9 5 -11 -7 -33 18 -25 27 4 3 -5 12 -20
18 -26 12 -35 29 -16 29 18 0 11 22 -16 46 -14 13 -31 24 -39 24 -7 0 -17 9
-20 20 -3 11 -11 20 -17 20 -7 0 -6 6 2 15 10 12 7 17 -16 26 -105 42 -165 43
-301 9 -18 -4 -51 -3 -78 3 -41 10 -49 9 -60 -6 -12 -17 -14 -17 -30 0 -14 13
-33 17 -86 16 -42 -2 -69 2 -69 8 0 7 -12 8 -30 4 -17 -4 -54 -1 -81 5 -28 7
-75 13 -105 14 -39 1 -53 5 -49 14 2 6 0 12 -5 12 -6 0 -10 -7 -10 -16 0 -12
-6 -15 -22 -10 -13 3 -40 9 -60 12 -21 4 -38 10 -38 13 0 4 -8 8 -17 9 -10 1
-34 4 -53 7 -19 3 -42 1 -50 -4z m138 -30 c41 -11 107 -20 147 -20 40 0 94 -5
119 -12 25 -6 59 -9 76 -7 16 3 30 1 30 -4 0 -4 34 -8 75 -8 41 0 75 -4 75 -9
0 -19 41 -23 54 -6 10 14 18 15 53 6 41 -11 56 -9 169 18 41 11 94 2 94 -15 0
-8 9 -14 20 -14 11 0 20 -4 20 -10 0 -5 7 -10 15 -10 8 0 15 -4 15 -10 0 -5 7
-10 15 -10 8 0 15 7 15 15 0 8 -7 15 -15 15 -8 0 -15 5 -15 10 0 6 -7 10 -17
10 -9 0 -14 3 -10 6 3 3 21 0 40 -7 26 -9 33 -17 29 -31 -2 -10 1 -18 7 -18 7
0 9 -9 5 -26 -6 -25 -5 -26 17 -21 13 3 31 2 39 -3 10 -7 11 -10 3 -10 -8 0
-13 -13 -13 -29 0 -22 6 -30 25 -35 27 -7 36 -46 11 -46 -10 0 -17 -15 -20
-42 -3 -24 -8 -59 -11 -78 -3 -19 -9 -52 -12 -72 -12 -87 -27 -26 -38 164 -4
53 -12 91 -28 120 -21 41 -25 43 -70 46 -39 3 -52 -1 -66 -17 -23 -27 -74 -27
-121 -2 -30 16 -35 23 -32 50 3 23 -1 31 -12 31 -9 0 -16 -5 -16 -11 0 -7 -10
-9 -25 -5 -14 4 -57 0 -97 -9 -40 -8 -85 -15 -99 -15 -15 0 -29 -7 -33 -15 -6
-17 -61 -21 -71 -5 -3 6 -17 10 -31 10 -13 0 -24 5 -24 11 0 7 -14 8 -42 3
-24 -4 -75 -7 -115 -6 -40 1 -75 -3 -78 -8 -4 -6 -17 -7 -31 -4 -14 4 -24 2
-24 -5 0 -6 -7 -11 -16 -11 -11 0 -15 -6 -11 -20 4 -17 1 -19 -20 -14 -19 5
-25 2 -29 -13 -3 -10 -14 -24 -24 -30 -15 -10 -17 -9 -13 8 4 13 0 19 -11 19
-9 0 -16 -7 -16 -16 0 -14 -2 -14 -15 0 -8 8 -12 22 -9 31 4 9 1 20 -5 25 -8
4 3 10 27 14 25 4 42 12 46 23 3 10 11 25 17 34 16 22 5 47 -26 59 -31 12 -43
38 -24 51 15 10 17 10 127 -20z m917 -51 c3 -5 1 -10 -4 -10 -6 0 -11 5 -11
10 0 6 2 10 4 10 3 0 8 -4 11 -10z m185 -150 c0 -4 -6 -10 -13 -13 -7 -3 -13
3 -13 13 0 10 6 16 13 13 7 -3 13 -9 13 -13z m54 -95 c11 -8 15 -15 10 -15 -6
0 -19 7 -30 15 -10 8 -14 14 -9 14 6 0 19 -6 29 -14z"/>
<path d="M3940 2535 c0 -8 7 -15 15 -15 8 0 15 7 15 15 0 8 -7 15 -15 15 -8 0
-15 -7 -15 -15z"/>
<path d="M4120 2665 c0 -8 7 -15 15 -15 8 0 15 4 15 9 0 5 -7 11 -15 15 -9 3
-15 0 -15 -9z"/>
<path d="M2896 2635 c4 -8 7 -15 9 -15 2 0 5 7 9 15 3 9 0 15 -9 15 -9 0 -12
-6 -9 -15z"/>
<path d="M3030 2642 c0 -6 -11 -13 -24 -16 -13 -3 -27 -13 -30 -22 -5 -13 -3
-14 6 -7 7 6 25 13 41 17 28 7 35 20 17 31 -5 3 -10 2 -10 -3z"/>
<path d="M2950 2570 c0 -5 5 -10 11 -10 5 0 7 5 4 10 -3 6 -8 10 -11 10 -2 0
-4 -4 -4 -10z"/>
<path d="M4275 2560 c-3 -5 1 -10 9 -10 9 0 16 5 16 10 0 6 -4 10 -9 10 -6 0
-13 -4 -16 -10z"/>
<path d="M3020 2335 c7 -8 17 -12 22 -9 6 4 5 10 -3 15 -22 14 -33 10 -19 -6z"/>
<path d="M4426 2319 c-15 -18 -20 -19 -27 -8 -7 11 -9 10 -9 -3 0 -10 3 -18 8
-18 4 0 16 -14 27 -30 21 -31 38 -41 29 -15 -4 10 0 15 15 15 24 0 29 -28 6
-36 -23 -9 10 -53 35 -47 23 6 27 33 5 33 -8 0 -15 9 -15 20 0 11 5 20 12 20
15 0 -20 33 -45 43 -11 4 -20 1 -23 -8 -4 -8 -10 -15 -15 -15 -4 0 -1 16 7 35
17 41 15 43 -10 14z m51 -45 c-3 -3 -12 -4 -19 -1 -8 3 -5 6 6 6 11 1 17 -2
13 -5z m40 -80 c-3 -3 -12 -4 -19 -1 -8 3 -5 6 6 6 11 1 17 -2 13 -5z"/>
<path d="M2990 2280 c0 -5 7 -10 15 -10 8 0 15 5 15 10 0 6 -7 10 -15 10 -8 0
-15 -4 -15 -10z"/>
<path d="M3070 2219 c0 -5 5 -7 10 -4 6 3 10 8 10 11 0 2 -4 4 -10 4 -5 0 -10
-5 -10 -11z"/>
<path d="M4585 2190 c3 -5 8 -10 11 -10 2 0 4 5 4 10 0 6 -5 10 -11 10 -5 0
-7 -4 -4 -10z"/>
<path d="M4655 2100 c-3 -5 -1 -10 4 -10 6 0 11 5 11 10 0 6 -2 10 -4 10 -3 0
-8 -4 -11 -10z"/>
<path d="M4280 1849 c0 -27 2 -30 15 -19 11 9 12 16 5 25 -5 6 -7 15 -3 18 3
4 1 7 -5 7 -7 0 -12 -14 -12 -31z"/>
<path d="M5197 1743 c-4 -3 -7 -11 -7 -17 0 -6 5 -5 12 2 6 6 9 14 7 17 -3 3
-9 2 -12 -2z"/>
<path d="M4691 1724 c0 -11 3 -14 6 -6 3 7 2 16 -1 19 -3 4 -6 -2 -5 -13z"/>
<path d="M3795 1640 c-3 -5 -1 -10 4 -10 6 0 11 5 11 10 0 6 -2 10 -4 10 -3 0
-8 -4 -11 -10z"/>
<path d="M4702 1610 c0 -14 2 -19 5 -12 2 6 2 18 0 25 -3 6 -5 1 -5 -13z"/>
<path d="M4711 1494 c0 -11 3 -14 6 -6 3 7 2 16 -1 19 -3 4 -6 -2 -5 -13z"/>
<path d="M4020 1410 c0 -5 5 -10 11 -10 5 0 7 5 4 10 -3 6 -8 10 -11 10 -2 0
-4 -4 -4 -10z"/>
<path d="M5770 1229 c0 -5 5 -7 10 -4 6 3 10 8 10 11 0 2 -4 4 -10 4 -5 0 -10
-5 -10 -11z"/>
<path d="M5790 1210 c0 -5 5 -10 10 -10 6 0 10 5 10 10 0 6 -4 10 -10 10 -5 0
-10 -4 -10 -10z"/>
<path d="M5896 1153 c-11 -11 -6 -23 9 -23 8 0 15 4 15 9 0 13 -16 22 -24 14z"/>
<path d="M6180 1031 c0 -8 -8 -11 -20 -8 -14 4 -20 0 -20 -12 0 -12 8 -17 28
-16 21 0 26 4 24 20 -5 24 -12 34 -12 16z"/>
<path d="M6072 1007 c-10 -12 -9 -16 4 -21 23 -9 42 -8 28 2 -6 4 -13 13 -15
21 -4 11 -7 10 -17 -2z"/>
<path d="M6105 940 c3 -5 8 -10 11 -10 2 0 4 5 4 10 0 6 -5 10 -11 10 -5 0 -7
-4 -4 -10z"/>
<path d="M6225 910 c3 -5 8 -10 11 -10 2 0 4 5 4 10 0 6 -5 10 -11 10 -5 0 -7
-4 -4 -10z"/>
<path d="M6270 880 c0 -5 5 -10 11 -10 5 0 7 5 4 10 -3 6 -8 10 -11 10 -2 0
-4 -4 -4 -10z"/>
<path d="M6355 870 c3 -5 8 -10 11 -10 2 0 4 5 4 10 0 6 -5 10 -11 10 -5 0 -7
-4 -4 -10z"/>
<path d="M2050 860 c0 -5 5 -10 11 -10 5 0 7 5 4 10 -3 6 -8 10 -11 10 -2 0
-4 -4 -4 -10z"/>
<path d="M6300 860 c0 -5 4 -10 9 -10 6 0 13 5 16 10 3 6 -1 10 -9 10 -9 0
-16 -4 -16 -10z"/>
<path d="M1976 792 c-3 -6 -1 -14 5 -17 15 -10 25 3 12 16 -7 7 -13 7 -17 1z"/>
<path d="M1925 733 c-14 -2 -26 -19 -37 -51 -9 -25 -15 -49 -12 -52 10 -9 73
71 71 91 -1 10 -1 18 -2 18 0 -1 -9 -4 -20 -6z m5 -21 c0 -5 -7 -17 -16 -28
-14 -17 -15 -17 -10 -1 3 10 6 23 6 28 0 5 5 9 10 9 6 0 10 -4 10 -8z"/>
<path d="M1635 420 c-3 -5 -1 -10 4 -10 6 0 11 5 11 10 0 6 -2 10 -4 10 -3 0
-8 -4 -11 -10z"/>
<path d="M1600 405 c-10 -12 -10 -15 4 -15 9 0 16 7 16 15 0 8 -2 15 -4 15 -2
0 -9 -7 -16 -15z"/>
<path d="M105 200 l-50 -7 58 -1 c37 -1 56 2 52 8 -3 6 -7 9 -8 8 -1 0 -24 -4
-52 -8z"/>
<path d="M230 200 c0 -5 5 -10 10 -10 6 0 10 5 10 10 0 6 -4 10 -10 10 -5 0
-10 -4 -10 -10z"/>
<path d="M0 179 c0 -5 5 -7 10 -4 5 3 10 8 10 11 0 2 -4 4 -10 4 -5 0 -10 -5
-10 -11z"/>
<path d="M1008 157 c-25 -20 -56 -77 -42 -77 11 0 92 89 86 94 -9 10 -16 7
-44 -17z"/>
<path d="M1032 120 c-11 -18 -10 -20 12 -20 19 0 23 4 19 20 -3 11 -8 20 -12
20 -3 0 -12 -9 -19 -20z"/>
<path d="M1110 96 c-5 -5 -10 -16 -10 -23 0 -10 5 -10 25 -1 14 6 25 16 25 23
0 14 -26 15 -40 1z"/>
<path d="M973 33 c-21 -7 -15 -33 7 -33 11 0 20 3 20 8 0 15 -15 29 -27 25z"/>
<path d="M1044 23 c-11 -12 -13 -18 -5 -21 19 -6 41 6 41 23 0 20 -14 19 -36
-2z"/>
<path d="M840 10 c0 -5 7 -10 15 -10 8 0 15 5 15 10 0 6 -7 10 -15 10 -8 0
-15 -4 -15 -10z"/>
</g>
</svg>
