<?xml version="1.0" standalone="no"?>
<!DOCTYPE svg PUBLIC "-//W3C//DTD SVG 20010904//EN"
 "http://www.w3.org/TR/2001/REC-SVG-20010904/DTD/svg10.dtd">
<svg version="1.0" xmlns="http://www.w3.org/2000/svg"
 width="640.000000pt" height="360.000000pt" viewBox="0 0 640.000000 360.000000"
 preserveAspectRatio="xMidYMid meet">
<metadata>
Created by potrace 1.16, written by Peter Selinger 2001-2019
</metadata>
<g transform="translate(0.000000,360.000000) scale(0.100000,-0.100000)"
fill="#000000" stroke="none">
<path d="M940 1475 c0 -16 2 -17 10 -5 7 11 10 11 10 2 0 -10 3 -10 14 0 18
16 11 27 -14 25 -13 -1 -20 -8 -20 -22z"/>
<path d="M1285 1229 c-16 -11 -40 -24 -52 -29 -31 -13 -29 -30 7 -43 19 -7 38
-27 54 -57 14 -25 34 -62 46 -82 25 -46 92 -113 134 -135 73 -38 233 -8 373
71 40 22 13 25 -35 4 -157 -68 -273 -84 -335 -48 -80 47 -176 215 -163 285 4
19 11 35 16 35 6 0 10 5 10 10 0 16 -23 12 -55 -11z m18 -39 c-4 -24 1 -54 11
-80 21 -53 13 -51 -14 4 -14 29 -29 46 -45 50 -26 7 -35 26 -12 26 6 0 23 9
37 20 14 11 26 20 27 20 0 0 -1 -18 -4 -40z"/>
<path d="M1057 1234 c-12 -12 -8 -34 7 -34 8 0 17 -6 19 -12 4 -9 6 -8 6 3 1
20 -22 52 -32 43z"/>
<path d="M1080 1111 c0 -5 7 -11 15 -15 9 -3 15 0 15 9 0 8 -7 15 -15 15 -8 0
-15 -4 -15 -9z"/>
<path d="M1115 1060 c-3 -5 -1 -10 4 -10 6 0 11 5 11 10 0 6 -2 10 -4 10 -3 0
-8 -4 -11 -10z"/>
<path d="M1904 1008 l-19 -23 23 19 c21 18 27 26 19 26 -2 0 -12 -10 -23 -22z"/>
<path d="M1137 967 c-2 -7 8 -35 23 -64 15 -29 30 -71 34 -94 9 -56 24 -83 39
-71 9 8 12 3 13 -14 3 -43 -47 -22 -114 49 -15 15 -48 49 -73 76 -25 26 -53
48 -62 48 -9 0 -14 -4 -10 -9 7 -12 -90 -7 -98 5 -4 5 -16 4 -28 -3 -15 -7
-26 -8 -34 -2 -8 7 -19 4 -36 -9 -13 -10 -20 -19 -17 -19 4 0 2 -10 -5 -21 -8
-15 -8 -19 0 -15 7 4 11 -1 11 -12 0 -11 18 -38 40 -61 36 -36 45 -41 86 -41
41 0 53 -5 91 -40 24 -23 64 -50 89 -61 25 -10 65 -33 89 -50 39 -28 48 -31
94 -24 65 9 100 -11 148 -84 20 -29 44 -56 53 -58 18 -5 17 -43 -1 -43 -5 0
-9 -6 -9 -13 0 -7 -18 -23 -40 -36 -22 -12 -40 -19 -40 -15 0 3 -6 2 -13 -4
-7 -6 -39 -25 -71 -42 -32 -17 -74 -44 -93 -60 -18 -17 -39 -30 -46 -30 -18 0
-117 -69 -163 -112 l-39 -38 2569 0 2569 0 -8 43 c-3 23 -9 53 -11 67 -3 14
-5 35 -5 48 1 12 -4 22 -10 22 -5 0 -7 5 -4 10 10 16 -6 100 -22 115 -13 13
-12 15 4 15 14 0 15 2 4 9 -8 5 -11 16 -7 26 3 9 1 25 -4 35 -8 16 -15 18 -35
10 -14 -5 -25 -8 -25 -5 0 2 -13 0 -30 -5 -23 -7 -32 -5 -40 8 -5 10 -10 12
-10 5 0 -7 -5 -13 -11 -13 -5 0 -7 6 -3 13 5 8 2 8 -9 -2 -15 -12 -17 -11 -17
2 0 9 8 21 18 27 13 8 7 9 -25 5 -32 -5 -43 -3 -43 7 -1 8 -8 4 -19 -10 -13
-15 -21 -18 -24 -10 -3 8 -6 6 -6 -4 -1 -21 19 -23 39 -6 12 11 12 10 4 -2
-11 -17 -11 -60 0 -133 5 -35 4 -48 -6 -52 -26 -8 -128 -13 -133 -5 -2 4 -36
5 -74 2 l-69 -5 -12 39 c-7 21 -22 47 -34 57 -19 17 -19 18 -2 13 15 -5 17 -2
12 16 -3 13 -6 26 -6 31 0 4 -8 7 -17 7 -15 0 -16 2 -3 10 13 8 12 10 -3 10
-10 0 -15 5 -12 10 3 6 -5 10 -19 10 -15 0 -30 -8 -36 -20 -12 -22 -29 -22
-47 0 -11 13 -12 12 -7 -5 5 -19 5 -19 -9 -2 -15 18 -32 24 -22 7 3 -6 -1 -7
-10 -3 -9 3 -13 9 -8 12 11 8 16 34 4 27 -5 -4 -12 0 -14 6 -4 9 -6 9 -6 1 -1
-12 -41 -6 -41 7 0 15 -32 20 -53 8 -12 -7 -25 -11 -29 -10 -5 1 -8 -2 -8 -6
0 -5 -7 -9 -15 -9 -9 0 -14 5 -12 12 7 17 -52 17 -70 0 -11 -11 -28 -14 -64
-11 -27 2 -49 1 -49 -3 0 -5 -12 -7 -27 -6 -41 3 -41 3 -45 27 -2 11 -11 22
-20 24 -10 1 -15 -3 -12 -10 3 -7 -2 -13 -11 -13 -9 0 -14 6 -11 14 7 17 -15
12 -34 -8 -22 -23 -76 -49 -85 -41 -5 4 -5 2 -1 -5 3 -6 2 -14 -4 -18 -5 -3
-10 -2 -10 3 0 5 -9 12 -20 15 -14 4 -18 10 -13 23 5 13 3 16 -10 11 -9 -3
-16 -3 -14 1 3 9 -12 10 -35 4 -10 -2 -18 -8 -18 -13 0 -5 -5 -9 -11 -9 -5 0
-8 4 -5 8 3 4 -15 -1 -39 -12 -35 -16 -44 -25 -41 -41 7 -33 18 -55 27 -55 5
0 9 -7 9 -15 0 -9 7 -18 15 -21 8 -4 15 -10 15 -16 0 -8 22 -46 112 -195 15
-25 16 -33 6 -33 -8 0 -25 18 -38 40 -14 22 -30 40 -37 40 -17 0 -44 30 -38
41 4 5 1 9 -4 9 -6 0 -11 6 -11 14 0 8 -3 16 -7 18 -13 5 -63 76 -63 87 0 6
-4 11 -10 11 -5 0 -10 7 -10 16 0 21 -22 42 -39 36 -8 -3 -11 0 -7 7 8 12 0
14 -62 11 -28 -1 -51 -9 -63 -21 -10 -10 -14 -19 -9 -19 6 0 10 -4 10 -10 0
-5 -11 -10 -25 -10 -17 0 -25 6 -25 18 0 13 -2 14 -9 3 -6 -9 -11 -10 -15 -2
-5 8 -15 7 -34 -2 -29 -14 -62 -12 -62 4 0 6 -4 8 -9 5 -12 -8 -61 17 -61 30
0 19 -30 25 -46 9 -13 -13 -42 -20 -67 -16 -4 0 -6 -4 -5 -11 3 -13 -40 -20
-47 -8 -8 13 6 40 18 33 6 -3 7 -1 3 5 -11 18 -36 15 -30 -3 7 -17 -49 -45
-78 -40 -11 2 -18 -2 -18 -11 0 -11 -6 -13 -20 -9 -34 11 -100 -4 -93 -21 3
-9 -2 -14 -16 -14 -12 0 -21 4 -21 9 0 5 -10 7 -22 3 -13 -3 -19 -1 -15 5 4 6
-10 10 -33 11 -26 1 -40 -3 -40 -10 0 -7 -7 -2 -16 10 -10 15 -22 21 -33 18
-14 -5 -13 -4 2 8 24 18 22 29 -3 14 -11 -7 -20 -19 -20 -26 0 -7 -4 -10 -10
-7 -5 3 -10 1 -10 -5 0 -21 -20 1 -21 23 0 12 -3 16 -6 9 -2 -6 -8 -10 -12 -8
-4 3 -27 6 -52 7 -59 2 -79 8 -75 22 1 7 1 9 -1 5 -3 -5 -13 -4 -22 2 -10 5
-22 6 -26 2 -5 -4 -5 -1 -1 6 4 6 17 12 28 12 37 0 14 9 -39 16 -33 4 -53 2
-58 -6 -5 -8 -11 -7 -23 2 -13 11 -15 11 -7 -2 4 -8 -2 -5 -14 7 -11 12 -21
27 -21 32 0 5 -13 9 -30 9 -26 -1 -28 -2 -12 -14 9 -7 13 -16 9 -20 -4 -5 -12
-3 -16 4 -4 7 -12 12 -17 11 -24 -4 -55 2 -50 10 3 5 15 7 26 4 11 -3 20 -1
20 5 0 5 -9 12 -19 15 -14 3 -19 12 -17 31 2 14 -1 23 -5 20 -5 -3 -9 -1 -9 5
0 6 -7 8 -15 5 -10 -4 -13 -2 -10 8 4 10 -4 14 -27 16 -33 2 -33 2 -9 -12 25
-14 18 -25 -12 -21 -10 2 -25 -8 -35 -23 -52 -83 -170 -178 -192 -156 -8 8 -8
15 2 25 7 8 14 25 16 39 1 13 7 27 13 30 22 14 19 57 -7 85 -24 26 -26 35 -13
85 2 8 -2 14 -8 13 -7 -2 -16 11 -20 27 -5 17 -12 29 -18 28 -5 -2 -28 -39
-50 -83 -23 -46 -49 -85 -62 -91 -13 -6 -21 -13 -18 -16 7 -7 -34 -44 -69 -62
-26 -13 -31 -13 -44 1 -12 12 -13 19 -4 32 17 23 25 41 21 45 -2 2 -38 -4 -79
-15 -41 -11 -106 -19 -145 -19 -38 0 -95 0 -125 -1 -32 -1 -56 3 -58 10 -2 6
-9 9 -15 5 -7 -3 -1 5 13 17 24 22 25 22 3 16 -13 -3 -23 -2 -23 3 0 8 130 56
170 63 45 7 150 42 150 50 0 4 -34 5 -76 2 -58 -4 -84 -11 -112 -30 -36 -24
-92 -34 -92 -16 0 5 12 12 28 16 15 3 34 12 42 19 13 12 36 20 75 27 6 1 15
14 21 28 16 37 52 71 74 71 25 0 35 17 19 36 -13 15 -21 15 -94 -1 -32 -7
-105 -50 -105 -63 0 -4 -29 -19 -65 -32 -70 -26 -155 -94 -155 -123 0 -31 -29
-77 -50 -77 -11 0 -31 18 -50 44 -16 25 -39 48 -50 51 -11 4 -18 11 -14 16 5
8 -51 26 -68 21 -5 -1 -8 3 -8 9 0 5 -13 15 -30 20 -16 6 -28 16 -27 21 1 6
-7 14 -18 17 -11 3 -39 18 -62 34 -24 15 -46 27 -51 27 -10 0 -82 75 -159 164
-50 58 -78 76 -86 53z m47 -29 c28 -40 179 -198 189 -198 5 0 29 -13 54 -30
24 -16 51 -30 59 -30 7 0 14 -6 14 -14 0 -8 14 -19 30 -25 17 -5 30 -15 30
-20 0 -6 14 -11 30 -11 18 0 33 -6 36 -15 3 -8 14 -17 25 -20 10 -4 33 -26 49
-51 25 -35 37 -44 60 -44 23 0 33 7 45 30 8 16 15 38 15 48 0 28 81 92 150
120 33 13 74 37 91 53 17 16 43 32 58 35 14 3 38 10 53 16 26 10 48 5 48 -11
0 -5 -12 -11 -28 -14 -18 -4 -36 -19 -52 -46 -24 -38 -56 -61 -84 -61 -8 0
-19 -6 -25 -14 -7 -8 -26 -18 -42 -21 -36 -8 -42 -45 -6 -46 15 0 9 -5 -20
-16 -39 -13 -43 -18 -43 -48 0 -31 4 -35 37 -44 59 -17 260 -2 368 26 16 4 18
3 8 -8 -32 -33 -2 -84 42 -73 45 11 134 103 167 172 17 34 33 62 37 62 17 0
36 -38 33 -67 -2 -22 3 -38 17 -52 20 -20 29 -71 13 -71 -11 0 -44 -99 -37
-110 10 -16 45 -12 79 9 36 23 118 106 134 137 12 24 80 40 96 24 7 -7 6 -10
-2 -10 -7 0 -12 -7 -12 -15 0 -8 4 -15 9 -15 5 0 7 -8 4 -18 -3 -14 6 -20 42
-30 61 -16 65 -16 66 11 0 13 3 16 6 8 17 -43 71 -68 88 -41 11 17 37 11 42
-10 3 -11 13 -20 22 -20 9 0 25 -7 35 -15 12 -9 42 -15 73 -15 40 0 57 -5 72
-21 18 -20 23 -21 52 -9 28 12 33 11 44 -3 14 -19 32 -22 37 -6 3 8 18 6 51
-5 59 -20 97 -21 97 -2 0 17 42 28 76 20 14 -4 29 -3 33 3 10 14 80 32 87 22
9 -15 56 -10 75 7 24 22 66 20 121 -5 26 -11 52 -21 57 -21 6 0 11 -4 11 -10
0 -5 -4 -10 -10 -10 -5 0 -10 -9 -10 -20 0 -15 7 -20 25 -20 18 0 25 5 25 19
0 16 6 18 45 13 30 -3 45 -1 45 7 0 6 8 11 18 11 10 0 24 8 31 19 8 11 21 16
32 14 13 -4 19 0 19 11 0 9 8 16 20 16 11 0 20 -4 20 -9 0 -5 11 -12 25 -15
16 -4 25 -13 25 -26 0 -11 5 -20 10 -20 6 0 10 -5 10 -11 0 -9 45 -75 61 -89
3 -3 11 -20 18 -38 8 -18 23 -35 35 -38 11 -3 35 -27 51 -54 32 -53 50 -62 60
-30 4 14 -13 52 -59 130 -36 60 -66 114 -66 120 0 5 -5 10 -10 10 -6 0 -14 8
-17 18 -4 9 -13 23 -20 31 -27 26 -11 55 35 65 23 6 42 13 42 18 0 15 30 8 47
-12 10 -11 23 -20 30 -20 7 0 13 -4 13 -9 0 -5 21 -9 48 -8 40 2 47 5 47 22 0
11 5 25 10 31 14 14 75 5 94 -13 9 -10 28 -13 53 -11 34 3 38 1 38 -19 0 -14
6 -23 15 -23 8 0 15 5 15 10 0 6 14 10 30 10 21 0 30 5 30 16 0 22 28 47 45
40 8 -3 15 -10 15 -16 0 -15 43 -12 66 5 21 16 54 20 54 6 0 -5 11 -12 25 -15
20 -5 25 -13 25 -36 0 -20 5 -30 15 -30 8 0 15 -4 15 -10 0 -5 7 -10 15 -10 8
0 15 7 15 15 0 10 10 15 30 15 19 0 33 7 40 20 6 11 15 20 20 20 5 0 12 -9 15
-20 3 -11 13 -20 21 -20 8 0 14 -7 14 -15 0 -8 -4 -15 -10 -15 -17 0 -11 -28
8 -42 11 -7 25 -30 31 -51 l13 -38 71 2 c71 2 72 1 69 -22 -2 -13 0 -48 3 -76
l6 -53 104 0 c57 0 106 3 108 8 3 4 2 33 -1 66 -4 51 -8 60 -31 70 -25 11 -26
15 -30 103 -2 51 0 93 4 93 10 0 45 -40 46 -54 1 -6 1 -17 0 -24 -2 -15 23
-42 38 -42 6 0 11 -4 11 -10 0 -5 23 -10 50 -10 43 0 50 3 50 19 0 11 -7 26
-14 34 -20 19 -6 71 19 76 16 3 17 -2 12 -42 -4 -28 -2 -47 4 -49 14 -5 29
-78 22 -106 -3 -13 -1 -22 7 -22 6 0 9 -4 5 -10 -3 -5 1 -39 10 -75 8 -37 15
-68 15 -71 0 -2 -1146 -4 -2547 -4 l-2547 0 30 28 c36 36 135 102 150 102 7 0
31 15 53 34 23 19 88 58 146 86 58 28 105 58 105 65 0 7 4 15 9 17 5 1 12 15
16 29 5 21 2 27 -13 31 -10 3 -35 30 -55 59 -20 30 -48 61 -63 70 -27 16 -27
17 -6 23 25 8 29 41 6 50 -37 14 -54 7 -54 -23 0 -26 -4 -29 -42 -35 -36 -6
-47 -3 -84 24 -23 16 -63 39 -88 49 -25 11 -65 38 -89 61 -38 35 -50 40 -91
40 -41 0 -50 5 -86 41 -40 42 -53 89 -29 105 6 3 59 6 117 5 101 -1 108 -3
135 -29 16 -15 35 -39 43 -55 13 -24 53 -56 115 -93 11 -6 16 -13 13 -17 -3
-3 -3 -15 1 -26 5 -15 15 -21 36 -21 29 0 30 2 24 33 -4 17 -11 36 -16 42 -5
5 -9 20 -9 33 0 19 -4 23 -20 19 -16 -4 -22 2 -30 31 -5 21 -10 46 -10 58 0
11 -4 24 -9 30 -17 16 -42 84 -32 84 6 0 17 -10 25 -22z m88 -273 c4 -19 1
-25 -13 -25 -21 0 -29 19 -17 43 11 22 24 15 30 -18z m883 -54 c-11 -5 -36
-12 -55 -16 -33 -7 -34 -6 -15 9 11 8 36 15 55 15 28 0 31 -2 15 -8z m-795
-21 c17 -11 11 -19 -19 -25 -16 -3 -21 1 -21 16 0 20 16 24 40 9z m3660 -180
c0 -5 -9 -10 -20 -10 -11 0 -20 5 -20 10 0 6 9 10 20 10 11 0 20 -4 20 -10z
m-280 -4 c0 -3 -4 -8 -10 -11 -5 -3 -10 -1 -10 4 0 6 5 11 10 11 6 0 10 -2 10
-4z m1192 -36 c10 0 18 -6 18 -12 0 -9 4 -8 11 2 9 12 10 11 4 -5 -14 -42 -14
-54 1 -48 10 4 12 0 7 -13 -4 -12 -3 -15 5 -10 7 4 12 3 12 -2 0 -5 -18 -10
-40 -10 -23 -1 -38 3 -35 9 4 5 -4 9 -17 10 -22 0 -22 1 -3 9 17 7 16 9 -10
10 -29 1 -29 1 -11 15 11 8 16 15 11 15 -5 0 -1 6 10 13 11 9 14 16 7 21 -6 3
-17 0 -25 -9 -13 -12 -16 -12 -20 0 -7 16 32 26 48 13 5 -4 17 -8 27 -8z
m-1727 -60 c4 -6 -6 -10 -22 -10 -22 0 -25 2 -13 10 19 12 27 12 35 0z m-85
-30 c0 -5 -7 -10 -15 -10 -8 0 -15 5 -15 10 0 6 7 10 15 10 8 0 15 -4 15 -10z
m1658 -77 c-10 -2 -28 -2 -40 0 -13 2 -5 4 17 4 22 1 32 -1 23 -4z m54 -15
c11 -8 18 -31 20 -63 l2 -50 -96 -3 -96 -3 -7 50 c-8 60 -3 71 33 67 21 -3 82
4 123 13 3 0 13 -5 21 -11z"/>
<path d="M1810 486 c0 -26 12 -46 29 -47 10 0 11 -2 4 -6 -21 -8 -16 -43 6
-43 11 0 23 -4 26 -10 3 -5 21 -10 40 -10 18 0 35 -6 38 -12 2 -9 27 -13 73
-14 38 -1 81 -4 96 -9 17 -4 47 -1 81 10 74 23 84 31 71 52 -17 28 -61 35
-211 34 -122 -1 -143 1 -143 14 0 8 -7 15 -15 15 -8 0 -19 9 -25 20 -13 24
-70 29 -70 6z m55 -6 c4 -6 -5 -10 -19 -10 -14 0 -26 5 -26 10 0 6 9 10 19 10
11 0 23 -4 26 -10z m36 -38 c-7 -2 -18 1 -23 6 -8 8 -4 9 13 5 13 -4 18 -8 10
-11z m10 -24 c16 0 29 -4 29 -9 0 -5 7 -9 16 -9 8 0 13 4 10 8 -6 10 -10 10
128 12 62 2 111 -2 115 -7 3 -6 14 -9 23 -8 9 2 22 -3 28 -10 8 -9 -1 -16 -37
-30 -26 -10 -58 -17 -72 -17 -14 1 -61 3 -104 4 -56 2 -80 7 -87 18 -6 9 -21
14 -40 12 -19 -2 -32 2 -36 11 -3 9 -13 13 -25 10 -11 -3 -19 0 -19 6 0 7 5 9
10 6 6 -3 10 -1 10 5 0 6 5 8 11 4 7 -4 25 -7 40 -6z"/>
<path d="M5010 365 c0 -8 7 -15 15 -15 8 0 15 7 15 15 0 8 -7 15 -15 15 -8 0
-15 -7 -15 -15z"/>
<path d="M2600 305 c0 -8 7 -15 15 -15 8 0 15 7 15 15 0 8 -7 15 -15 15 -8 0
-15 -7 -15 -15z"/>
<path d="M2255 800 c-19 -8 -19 -9 3 -9 12 -1 22 4 22 9 0 6 -1 10 -2 9 -2 0
-12 -4 -23 -9z"/>
<path d="M487 759 c7 -7 15 -10 18 -7 3 3 -2 9 -12 12 -14 6 -15 5 -6 -5z"/>
<path d="M203 745 c-17 -7 -35 -10 -39 -7 -4 4 -4 1 0 -5 7 -12 -12 -18 -37
-14 -5 1 -6 -2 -3 -7 9 -15 90 -13 111 3 11 8 15 14 9 13 -7 -2 -11 2 -10 7 0
6 4 9 9 8 4 -2 7 2 7 7 0 13 -8 12 -47 -5z m7 -25 c0 -5 -7 -10 -16 -10 -8 0
-12 5 -9 10 3 6 10 10 16 10 5 0 9 -4 9 -10z"/>
<path d="M474 731 c7 -11 -49 -25 -64 -16 -5 3 -10 2 -10 -2 0 -5 -11 -10 -25
-11 -46 -3 -55 -5 -55 -12 0 -4 -16 -6 -35 -5 -19 1 -35 -2 -35 -7 0 -15 -39
-52 -47 -44 -4 4 -1 12 7 17 13 9 12 10 -2 5 -10 -3 -20 -1 -23 4 -4 6 -11 10
-17 10 -6 0 -6 -6 2 -15 11 -13 10 -14 -5 -9 -13 5 -16 4 -11 -4 4 -7 3 -12
-3 -12 -5 0 -11 3 -14 8 -2 4 -2 1 -1 -5 2 -8 -6 -13 -20 -13 -20 0 -36 -16
-36 -35 0 -2 21 -7 48 -11 52 -7 90 -28 73 -39 -6 -3 -11 -4 -11 -1 0 3 -8 -2
-18 -11 -17 -17 -15 -19 43 -42 53 -22 76 -24 207 -25 80 -1 149 2 153 6 4 3
1 17 -6 30 -7 12 -14 26 -15 31 -1 4 -3 10 -4 15 -1 4 -2 14 -1 23 1 9 -8 19
-20 22 -18 5 -20 9 -10 21 10 12 9 16 -6 25 -14 7 -15 13 -6 21 8 9 8 21 -3
47 -8 19 -11 32 -5 29 5 -4 12 -2 16 4 4 6 -5 10 -20 10 -14 0 -24 -4 -21 -9z
m21 -70 c-3 -6 -13 -11 -21 -11 -8 0 -14 -7 -14 -15 0 -9 9 -15 24 -15 19 0
23 -4 19 -21 -4 -15 0 -22 15 -26 18 -4 19 -9 10 -34 -9 -25 -7 -32 11 -49 22
-18 22 -18 -44 -25 -79 -9 -208 2 -254 21 -28 12 -32 18 -27 38 9 38 -2 56
-38 56 -39 0 -76 10 -76 20 0 9 54 21 95 21 19 0 37 8 50 23 11 13 36 26 55
29 19 3 64 12 100 19 59 12 67 12 84 -3 10 -10 15 -22 11 -28z"/>
<path d="M901 652 c19 -22 42 -49 52 -61 23 -29 40 -17 32 22 -10 47 -42 77
-83 77 l-34 0 33 -38z m46 6 c20 -23 37 -69 25 -67 -4 0 -22 20 -39 45 -34 46
-23 63 14 22z"/>
<path d="M5030 479 c0 -5 9 -9 20 -9 11 0 20 2 20 4 0 2 -9 6 -20 9 -11 3 -20
1 -20 -4z"/>
<path d="M5486 434 c-6 -16 17 -29 34 -19 16 10 12 22 -9 28 -12 3 -22 -1 -25
-9z"/>
<path d="M5306 428 c4 -5 12 -7 19 -4 7 2 18 0 24 -5 8 -6 8 -5 1 3 -11 14
-52 19 -44 6z"/>
<path d="M5892 425 c3 -4 30 -8 59 -10 37 -3 49 -1 39 5 -16 10 -108 14 -98 5z"/>
<path d="M3558 343 c7 -3 16 -2 19 1 4 3 -2 6 -13 5 -11 0 -14 -3 -6 -6z"/>
</g>
</svg>
