<?xml version="1.0" standalone="no"?>
<!DOCTYPE svg PUBLIC "-//W3C//DTD SVG 20010904//EN"
 "http://www.w3.org/TR/2001/REC-SVG-20010904/DTD/svg10.dtd">
<svg version="1.0" xmlns="http://www.w3.org/2000/svg"
 width="640.000000pt" height="360.000000pt" viewBox="0 0 640.000000 360.000000"
 preserveAspectRatio="xMidYMid meet">
<metadata>
Created by potrace 1.16, written by Peter Selinger 2001-2019
</metadata>
<g transform="translate(0.000000,360.000000) scale(0.100000,-0.100000)"
fill="#000000" stroke="none">
<path d="M3056 2925 c-3 -8 -12 -15 -21 -15 -8 0 -15 -5 -15 -11 0 -5 5 -7 10
-4 6 3 10 -1 10 -10 0 -9 -4 -14 -8 -11 -5 3 -24 8 -42 11 l-33 6 17 -26 c17
-25 17 -26 -4 -13 -11 7 -20 17 -20 23 -1 5 -7 -1 -14 -15 -8 -14 -12 -28 -10
-32 3 -5 1 -8 -5 -8 -5 0 -14 7 -19 16 -8 14 -10 14 -16 -2 -4 -11 -2 -20 3
-22 6 -2 11 -8 11 -13 0 -6 -4 -7 -10 -4 -5 3 -20 -1 -32 -9 -18 -13 -19 -16
-6 -16 9 0 20 -5 24 -11 4 -8 -3 -9 -26 -4 -18 4 -38 8 -44 9 -6 1 -16 5 -22
9 -15 9 -74 -3 -74 -14 0 -5 -11 -14 -25 -19 -14 -5 -25 -16 -25 -24 0 -7 -7
-17 -16 -20 -12 -4 -15 -2 -10 9 3 9 0 15 -10 15 -11 0 -14 -6 -10 -16 4 -11
1 -14 -12 -10 -11 4 -23 -4 -37 -23 -10 -16 -22 -28 -26 -25 -8 4 -105 -137
-101 -148 1 -5 -2 -8 -7 -8 -5 0 -26 -28 -47 -62 -38 -62 -60 -68 -29 -8 9 18
15 34 12 36 -7 8 -39 -72 -41 -105 -1 -17 -8 -37 -15 -44 -11 -10 -11 -8 -1
11 6 13 10 26 7 28 -6 6 -50 -105 -86 -214 -50 -153 -52 -203 -6 -129 26 41
64 46 106 16 22 -15 27 -25 20 -32 -6 -6 -11 -19 -11 -28 0 -21 39 -70 40 -50
0 8 -7 19 -17 26 -19 14 -8 39 13 31 10 -4 14 2 14 20 0 14 4 33 10 43 5 10
12 33 15 52 15 84 26 114 64 177 92 152 206 264 308 302 32 12 72 27 88 35 17
7 46 18 65 25 19 7 44 16 55 21 53 23 83 33 110 36 17 1 53 7 80 13 95 18 165
13 165 -11 0 -5 6 -9 13 -9 30 -1 114 -101 158 -189 24 -50 30 -78 35 -153 3
-51 2 -112 -3 -136 l-8 -43 -40 34 c-51 43 -126 60 -178 40 -34 -14 -58 -43
-36 -43 6 0 8 -4 5 -9 -7 -10 41 -21 94 -21 20 0 40 -3 44 -7 7 -7 76 -33 89
-33 4 0 7 7 7 15 0 8 4 15 9 15 12 0 21 -26 21 -60 0 -22 6 -30 29 -38 l30
-11 -4 128 c-4 145 -20 222 -70 351 -40 105 -119 235 -137 224 -6 -4 -8 -3 -4
4 3 6 -2 15 -11 21 -10 6 -14 11 -8 11 5 0 -2 8 -15 17 -14 10 -36 16 -51 15
-15 -2 -34 4 -44 14 -15 16 -30 20 -72 23 -7 1 -13 8 -13 16 0 8 -5 15 -11 15
-5 0 -8 4 -4 9 3 5 -7 18 -22 29 -21 14 -35 17 -55 11 -16 -4 -28 -3 -28 1 0
5 10 11 23 13 20 4 19 4 -4 6 -16 0 -29 -5 -33 -14z m95 -45 c16 -16 29 -34
29 -39 0 -6 17 -13 37 -17 21 -4 44 -13 51 -21 7 -7 22 -13 33 -13 31 0 89
-38 89 -58 0 -5 9 -12 20 -15 16 -4 19 -11 15 -29 -5 -18 0 -27 24 -41 18 -11
40 -39 56 -73 26 -54 29 -89 4 -42 -30 58 -113 147 -136 148 -7 0 -13 4 -13 8
0 21 -49 30 -116 21 -38 -5 -91 -12 -119 -15 -27 -3 -59 -9 -70 -14 -54 -23
-93 -39 -125 -50 -19 -7 -48 -18 -65 -25 -16 -8 -56 -23 -88 -35 -33 -12 -82
-41 -110 -64 -107 -87 -239 -277 -252 -363 -5 -33 -12 -47 -26 -50 -19 -5 -27
-39 -10 -45 6 -2 6 -17 1 -38 -4 -19 -8 -27 -9 -18 -3 44 -112 77 -141 43 -23
-27 -21 -10 11 86 42 132 50 149 63 149 7 0 17 15 24 33 15 41 102 177 114
177 4 0 8 5 8 11 0 15 83 139 94 139 4 0 17 11 28 25 11 14 30 25 43 25 34 0
55 10 55 26 0 22 48 36 84 25 40 -12 106 -13 106 -2 0 5 11 12 25 15 20 5 25
13 26 39 2 31 2 31 6 4 4 -26 7 -28 36 -22 18 4 36 11 42 16 14 13 25 11 25
-5 0 -8 -9 -18 -20 -21 -18 -6 -29 -35 -13 -35 15 0 73 25 73 31 0 4 9 5 21 2
17 -5 20 -2 17 13 -2 12 -12 19 -26 18 -12 0 -22 3 -22 8 0 4 9 8 20 8 15 0
20 7 20 25 0 23 -4 25 -40 25 -22 0 -40 4 -40 9 0 5 9 7 20 4 15 -4 20 0 20
15 0 19 13 26 59 31 8 0 27 -12 42 -29z m-187 -39 c3 -5 -1 -14 -9 -21 -13
-10 -15 -9 -15 9 0 21 14 28 24 12z m72 -13 c-5 8 1 12 21 11 15 0 22 -3 14
-6 -11 -5 -11 -7 0 -14 10 -6 7 -9 -11 -10 -14 -1 -29 -1 -34 0 -4 1 -19 -5
-32 -14 -13 -8 -29 -15 -36 -15 -10 0 -10 2 0 9 8 4 13 12 11 17 -1 5 9 14 22
21 18 9 27 9 38 0 12 -9 13 -9 7 1z m-99 -50 c-3 -8 -6 -5 -6 6 -1 11 2 17 5
13 3 -3 4 -12 1 -19z m-42 1 c11 -17 -1 -21 -15 -4 -8 9 -8 15 -2 15 6 0 14
-5 17 -11z m155 -20 c0 -5 -4 -9 -10 -9 -5 0 -10 7 -10 16 0 8 5 12 10 9 6 -3
10 -10 10 -16z m-270 2 c0 -5 -6 -11 -13 -14 -8 -3 -14 1 -14 9 0 8 6 14 14
14 7 0 13 -4 13 -9z m70 -21 c0 -5 -4 -10 -9 -10 -6 0 -13 5 -16 10 -3 6 1 10
9 10 9 0 16 -4 16 -10z m611 -77 c13 -17 13 -17 -6 -3 -11 8 -22 16 -24 17 -2
2 0 3 6 3 6 0 17 -8 24 -17z m89 -198 c0 -5 -5 -3 -10 5 -5 8 -10 20 -10 25 0
6 5 3 10 -5 5 -8 10 -19 10 -25z m35 -117 c15 -69 27 -298 15 -298 -29 1 -32
22 -34 194 0 97 0 176 1 176 1 0 9 -33 18 -72z m-99 -166 c18 -15 33 -35 33
-44 1 -18 4 -19 -74 13 -11 4 -44 10 -74 12 -61 5 -82 25 -48 45 36 20 123 7
163 -26z"/>
<path d="M3120 2845 c0 -8 7 -15 15 -15 8 0 15 7 15 15 0 8 -7 15 -15 15 -8 0
-15 -7 -15 -15z"/>
<path d="M2988 2813 c7 -3 16 -2 19 1 4 3 -2 6 -13 5 -11 0 -14 -3 -6 -6z"/>
<path d="M2515 2668 l-40 -43 43 40 c39 36 47 45 39 45 -2 0 -21 -19 -42 -42z"/>
<path d="M2403 2528 c-15 -20 -25 -38 -20 -38 3 0 12 11 21 25 17 26 16 35 -1
13z"/>
<path d="M2723 2291 l-22 -18 23 -12 c12 -7 28 -13 36 -14 8 -2 21 -6 28 -10
6 -5 17 -5 22 -2 6 4 16 2 23 -3 7 -6 39 -17 72 -26 46 -12 61 -12 67 -3 11
18 11 20 -18 50 -33 36 -56 44 -140 51 -58 5 -73 3 -91 -13z m153 -6 c31 -5
84 -48 84 -67 0 -13 -65 -2 -102 17 -15 7 -47 16 -70 20 -54 9 -62 14 -48 30
10 13 61 13 136 0z"/>
<path d="M2640 2162 l35 -5 -35 -7 c-25 -5 -8 -8 56 -9 50 0 107 -3 125 -6
l34 -5 -30 10 c-16 5 -56 11 -87 12 -32 2 -58 6 -58 11 0 4 -17 6 -37 5 l-38
-1 35 -5z"/>
<path d="M2895 2116 c107 -34 141 -71 131 -140 -9 -56 -62 -144 -105 -173 -28
-19 -47 -23 -110 -23 -78 0 -160 17 -198 40 -37 23 -56 69 -61 147 -3 45 -8
70 -15 66 -17 -10 0 -131 25 -176 19 -35 34 -46 83 -66 71 -28 200 -39 260
-22 46 13 84 62 133 172 31 69 45 82 73 68 22 -11 36 -49 54 -144 8 -44 19
-81 24 -83 4 -1 7 -15 5 -30 -2 -15 -1 -19 2 -10 5 16 8 16 34 -3 58 -43 226
-63 294 -35 18 7 43 26 55 42 l23 29 -7 -50 c-3 -27 -11 -63 -17 -78 -10 -25
-12 -26 -27 -13 -16 14 -20 9 -56 -67 -48 -101 -114 -207 -129 -207 -9 0 -46
-66 -46 -82 0 -9 -69 -110 -93 -136 -11 -12 -25 -22 -29 -22 -5 0 -15 -6 -23
-13 -7 -7 -28 -12 -46 -11 -20 1 -42 -5 -56 -16 -19 -15 -30 -16 -75 -8 -29 5
-55 11 -57 14 -2 2 -12 -1 -23 -7 -15 -8 -24 -7 -38 6 -9 8 -33 17 -51 19 -19
1 -47 10 -64 18 -16 8 -56 25 -87 38 -32 12 -58 25 -58 29 0 4 -10 8 -22 8
-13 1 -24 7 -26 13 -2 5 -10 10 -17 10 -8 0 -26 17 -40 38 -20 29 -22 38 -11
40 9 2 12 10 9 19 -3 8 -1 18 4 22 15 9 26 51 14 51 -5 0 -8 13 -6 29 3 26 0
31 -25 36 -33 7 -55 29 -45 45 3 5 0 10 -8 10 -21 0 -44 65 -46 129 -1 30 -4
58 -7 62 -2 4 -7 42 -10 86 -6 99 -10 109 -28 93 -15 -12 -17 -20 -17 -82 0
-51 3 -68 12 -68 4 0 6 -12 5 -27 -2 -16 -5 -28 -6 -28 -1 0 -3 -10 -4 -22 -3
-29 -7 -32 -35 -35 -26 -3 -26 -3 -72 102 -18 41 -38 78 -44 82 -7 4 -10 19
-7 35 2 16 2 25 -2 22 -3 -3 -9 -37 -11 -75 -3 -38 -10 -116 -15 -174 -5 -58
-10 -113 -10 -123 -1 -10 -11 -36 -23 -57 -25 -43 -176 -230 -187 -230 -9 0
-80 -64 -80 -73 0 -10 76 -46 140 -66 36 -12 58 -25 65 -39 6 -13 19 -22 32
-22 12 0 36 -8 52 -18 l29 -18 -53 -47 c-49 -43 -58 -47 -104 -47 -27 0 -74
-5 -103 -11 -112 -22 -131 -40 -118 -111 4 -21 4 -41 -1 -43 -6 -4 -273 -62
-374 -82 -32 -6 -240 -85 -285 -108 -36 -19 -141 -129 -198 -207 -47 -65 -81
-130 -125 -245 l-25 -63 1934 0 1933 0 -15 35 c-8 19 -21 67 -29 106 -8 39
-21 79 -28 89 -45 64 -320 238 -427 270 -41 12 -106 35 -144 51 -37 16 -96 36
-129 45 -35 9 -67 24 -75 35 -7 11 -29 26 -47 33 -22 10 -39 26 -48 48 -8 18
-31 49 -51 67 -43 41 -49 76 -12 69 19 -4 22 -1 18 14 -3 15 2 18 29 19 19 0
28 3 22 6 -17 6 9 33 32 33 9 0 13 5 10 10 -4 6 -15 8 -25 5 -13 -4 -29 4 -51
24 -17 17 -39 33 -49 36 -22 7 -34 35 -21 48 7 7 18 4 32 -9 l22 -19 -17 33
c-9 17 -21 32 -26 32 -5 0 -12 21 -16 47 -4 26 -24 85 -45 131 -22 46 -39 98
-39 116 0 34 28 127 41 136 7 5 11 28 25 130 3 19 9 58 13 85 5 28 9 63 10 79
2 47 28 137 47 157 17 19 13 49 -6 49 -6 0 -8 -4 -5 -10 10 -16 -6 -12 -59 15
-27 14 -59 25 -70 24 -14 0 -16 -2 -6 -5 56 -19 93 -41 101 -61 12 -31 -7
-126 -37 -185 -35 -69 -66 -82 -180 -76 -115 6 -160 26 -192 86 -32 57 -42
180 -19 216 17 25 82 45 155 47 20 0 46 4 57 9 26 11 -81 1 -160 -14 -49 -10
-60 -16 -67 -36 -6 -21 -7 -19 -5 10 l2 35 -60 6 c-33 3 -71 11 -85 18 -21 10
-22 10 -9 -1 18 -16 32 -48 20 -48 -5 0 -12 7 -15 15 -7 19 -123 75 -151 74
-11 0 -2 -6 20 -13z m265 -76 c0 -9 2 -39 5 -66 l6 -49 -15 40 c-25 64 -60 81
-96 45 l-20 -20 0 20 c0 11 5 20 11 20 6 0 9 8 7 18 -4 15 2 17 49 14 43 -3
53 -7 53 -22z m500 -64 c0 -11 -19 -15 -25 -6 -3 5 1 10 9 10 9 0 16 -2 16 -4z
m-1272 -336 c9 -81 27 -140 42 -140 4 0 10 -9 13 -20 3 -11 19 -25 35 -31 25
-8 30 -17 35 -52 3 -23 2 -43 -4 -45 -5 -2 -9 -12 -9 -22 0 -10 -6 -20 -12
-23 -17 -6 21 -77 48 -92 11 -5 21 -13 24 -16 3 -3 46 -23 95 -43 50 -21 99
-44 110 -51 11 -6 35 -12 54 -13 18 0 41 -8 51 -17 13 -12 28 -15 47 -11 15 4
52 2 82 -4 44 -8 59 -7 77 5 13 8 42 16 66 18 23 2 44 9 46 15 2 7 9 12 16 12
7 0 22 10 33 22 24 26 93 127 93 136 0 16 37 82 46 82 15 0 81 106 124 198 23
49 39 71 48 67 7 -3 18 -5 23 -5 10 0 0 -82 -11 -90 -17 -12 -39 -113 -45
-205 -7 -104 4 -154 43 -197 9 -11 11 -18 4 -18 -21 0 -12 -30 18 -62 17 -17
30 -34 30 -39 0 -4 8 -10 18 -13 10 -4 34 -21 54 -39 29 -26 33 -34 22 -45 -7
-6 -20 -12 -29 -12 -8 0 -15 -7 -15 -15 0 -8 -9 -15 -20 -15 -35 0 -26 -51 16
-91 20 -18 43 -49 51 -67 9 -22 26 -38 48 -48 18 -7 40 -22 47 -33 8 -11 40
-26 75 -35 33 -9 92 -29 129 -45 38 -16 103 -39 144 -51 107 -32 382 -206 427
-270 7 -10 19 -49 27 -87 8 -38 19 -81 25 -96 l11 -27 -1914 0 -1914 0 24 65
c51 139 113 236 226 353 34 35 74 70 88 77 84 43 271 106 390 130 74 15 167
35 205 44 l70 16 -3 57 c-3 51 -1 58 20 69 34 18 135 38 196 39 49 0 58 4 108
47 29 27 54 53 54 58 0 14 -57 45 -83 45 -13 0 -26 9 -32 21 -6 13 -28 27 -55
36 -40 12 -128 50 -139 60 -5 4 60 63 69 63 11 0 163 187 188 232 18 32 25 65
33 171 5 73 13 147 17 165 7 32 8 31 40 -45 48 -111 46 -108 82 -106 38 2 47
13 56 72 5 31 2 53 -10 77 -14 29 -14 41 -3 75 l12 40 7 -73 c3 -40 11 -111
16 -158z m1170 -397 c43 -121 46 -157 10 -115 -26 29 -48 92 -48 139 0 56 12
49 38 -24z m52 -153 c0 -5 -2 -10 -4 -10 -3 0 -8 5 -11 10 -3 6 -1 10 4 10 6
0 11 -4 11 -10z m-11 -30 c12 -18 13 -22 2 -19 -8 3 -21 16 -30 29 -12 18 -13
22 -2 19 8 -3 21 -16 30 -29z"/>
<path d="M2365 933 c-4 -21 -9 -50 -11 -65 -3 -16 3 -43 15 -67 14 -27 21 -59
21 -100 0 -72 8 -79 106 -88 36 -3 71 -12 78 -19 9 -9 49 -11 157 -7 l144 4
38 39 c20 22 37 45 37 52 -1 26 -52 51 -114 55 -37 3 -78 14 -106 28 -25 13
-57 27 -72 30 -16 3 -28 12 -28 19 0 8 -9 16 -20 19 -12 3 -20 14 -20 26 0 25
-34 45 -66 38 -16 -3 -29 2 -37 12 -16 22 -80 61 -100 61 -11 0 -18 -12 -22
-37z m55 10 c14 -9 28 -22 32 -27 4 -6 8 -7 8 -3 0 4 12 -5 26 -20 17 -19 27
-24 31 -15 6 16 25 15 48 -2 18 -13 18 -14 -8 -9 -34 7 -37 -14 -2 -23 13 -3
29 -12 36 -20 6 -8 15 -11 20 -8 5 3 9 -2 9 -10 0 -9 12 -18 28 -21 15 -3 48
-17 75 -31 31 -17 68 -27 107 -29 41 -3 68 -10 86 -24 l26 -20 -39 -40 -38
-40 -110 -3 c-60 -1 -116 2 -124 6 -8 5 -16 4 -21 -4 -7 -11 -11 -10 -23 2 -9
9 -43 18 -81 21 -98 9 -106 16 -106 88 0 41 -7 73 -21 100 -14 29 -17 44 -10
53 6 7 8 16 5 19 -8 8 5 77 14 77 4 0 19 -8 32 -17z"/>
<path d="M3240 566 c0 -13 28 -26 58 -26 18 0 15 27 -4 34 -27 10 -54 7 -54
-8z m50 -6 c18 -12 2 -12 -25 0 -13 6 -15 9 -5 9 8 0 22 -4 30 -9z"/>
<path d="M1930 415 c0 -8 7 -15 15 -15 8 0 15 7 15 15 0 8 -7 15 -15 15 -8 0
-15 -7 -15 -15z"/>
<path d="M3423 2053 c9 -2 23 -2 30 0 6 3 -1 5 -18 5 -16 0 -22 -2 -12 -5z"/>
<path d="M2768 2033 c7 -3 16 -2 19 1 4 3 -2 6 -13 5 -11 0 -14 -3 -6 -6z"/>
<path d="M2980 1930 c-23 -44 -27 -75 -7 -45 15 22 38 85 32 85 -3 0 -14 -18
-25 -40z"/>
<path d="M3360 1940 c0 -5 5 -10 11 -10 5 0 7 5 4 10 -3 6 -8 10 -11 10 -2 0
-4 -4 -4 -10z"/>
<path d="M2930 1645 c0 -16 20 -19 57 -9 33 9 18 24 -23 24 -24 0 -34 -5 -34
-15z m37 -1 c-3 -3 -12 -4 -19 -1 -8 3 -5 6 6 6 11 1 17 -2 13 -5z"/>
<path d="M3130 1640 c-8 -5 -27 -10 -42 -10 -54 0 -27 -16 27 -16 45 -1 55 2
53 14 -4 20 -19 24 -38 12z"/>
<path d="M2915 1544 c-8 -9 -15 -12 -15 -9 0 4 -11 0 -25 -9 -17 -11 -43 -16
-75 -15 -39 2 -55 -3 -83 -24 -19 -14 -37 -35 -40 -46 -4 -17 -1 -20 22 -18
15 2 31 6 37 10 20 12 98 36 105 32 4 -3 42 4 84 15 63 16 86 18 117 10 21 -6
43 -8 48 -5 5 3 14 -4 20 -15 6 -11 19 -20 28 -20 18 0 61 -29 98 -67 29 -31
54 -30 54 2 0 27 -43 75 -67 75 -8 0 -35 22 -61 49 l-47 49 -37 -18 c-33 -16
-39 -16 -58 -3 -12 8 -24 13 -26 10 -3 -3 -19 -1 -35 3 -21 6 -33 5 -44 -6z
m88 -19 c40 -13 47 -13 76 1 l32 16 37 -40 c20 -21 54 -47 75 -57 37 -17 67
-58 54 -72 -4 -3 -17 5 -30 18 -38 40 -80 69 -99 69 -9 0 -22 9 -28 21 -6 11
-19 19 -28 18 -9 -2 -36 1 -58 5 -29 5 -59 2 -95 -8 -29 -9 -67 -16 -83 -16
-17 0 -56 -9 -86 -20 -77 -28 -92 -25 -50 10 29 26 43 30 92 30 31 0 60 5 63
10 3 6 15 10 26 10 10 0 19 5 19 10 0 14 32 12 83 -5z"/>
<path d="M2860 1409 c-19 -4 -45 -5 -57 -2 -15 3 -23 1 -23 -7 0 -10 15 -11
57 -6 31 4 59 9 62 11 9 10 -5 11 -39 4z"/>
<path d="M3090 1379 c14 -6 37 -17 52 -25 14 -8 37 -14 50 -13 l23 0 -25 12
c-14 6 -28 15 -31 20 -3 5 -26 11 -50 13 -39 4 -41 3 -19 -7z"/>
<path d="M3003 1373 c9 -2 25 -2 35 0 9 3 1 5 -18 5 -19 0 -27 -2 -17 -5z"/>
<path d="M2892 1260 c-34 -14 -25 -48 18 -72 60 -33 210 -9 202 33 -6 30 -172
59 -220 39z m171 -22 c20 -6 37 -14 37 -17 0 -14 -40 -30 -91 -36 -43 -5 -61
-2 -88 13 -19 10 -37 24 -39 30 -10 31 89 36 181 10z"/>
</g>
</svg>
