<?xml version="1.0" standalone="no"?>
<!DOCTYPE svg PUBLIC "-//W3C//DTD SVG 20010904//EN"
 "http://www.w3.org/TR/2001/REC-SVG-20010904/DTD/svg10.dtd">
<svg version="1.0" xmlns="http://www.w3.org/2000/svg"
 width="640.000000pt" height="480.000000pt" viewBox="0 0 640.000000 480.000000"
 preserveAspectRatio="xMidYMid meet">
<metadata>
Created by potrace 1.16, written by Peter Selinger 2001-2019
</metadata>
<g transform="translate(0.000000,480.000000) scale(0.100000,-0.100000)"
fill="#000000" stroke="none">
<path d="M6347 3852 c9 -6 6 -18 -13 -46 -15 -21 -29 -34 -33 -30 -3 5 -13 8
-21 8 -8 -1 -25 -2 -38 -3 -14 -1 -20 -5 -17 -12 4 -6 13 -8 21 -5 8 3 14 -1
14 -9 0 -8 -3 -14 -7 -13 -5 1 -18 -3 -30 -10 -24 -13 -32 -55 -13 -67 17 -11
11 -32 -11 -38 -12 -3 -18 -10 -15 -16 3 -5 -2 -11 -11 -14 -15 -3 -14 -6 6
-14 14 -6 20 -12 14 -16 -6 -4 -9 -17 -6 -30 3 -16 2 -18 -5 -8 -8 11 -14 11
-38 0 -35 -18 -44 -39 -12 -32 18 4 20 3 8 -6 -12 -8 -9 -12 19 -17 25 -5 37
-15 47 -40 17 -40 17 -47 4 -39 -16 10 -12 -11 5 -25 8 -7 15 -18 15 -24 0 -7
-3 -6 -8 2 -7 9 -15 6 -36 -15 -26 -26 -26 -27 -8 -34 25 -9 62 0 62 15 0 6 4
5 9 -3 8 -12 12 -12 25 -2 9 7 23 11 31 7 17 -6 45 2 45 14 0 4 -16 11 -35 14
-36 7 -45 20 -21 29 8 3 20 -1 26 -9 7 -8 18 -14 25 -14 8 0 15 -6 18 -12 3
-10 7 -10 19 0 12 10 16 36 17 113 1 68 -2 99 -9 94 -5 -3 -10 -1 -10 4 0 6 5
11 10 11 6 0 10 50 10 130 0 97 -3 130 -12 130 -9 0 -8 3 2 10 11 7 9 11 -13
19 -33 13 -47 14 -30 3z m32 -50 c-12 -5 -11 -32 1 -32 6 0 10 -40 10 -100 0
-60 -4 -100 -10 -100 -5 0 -10 -9 -10 -20 0 -11 5 -20 10 -20 11 0 14 -99 4
-148 -7 -33 -22 -34 -57 -4 -14 12 -22 13 -43 4 -13 -7 -31 -12 -38 -12 -14 0
-31 68 -28 107 2 13 -4 23 -15 26 -14 4 -13 5 5 6 15 1 22 7 22 21 0 11 -6 20
-12 20 -8 0 -14 15 -15 35 -1 25 3 35 13 35 17 0 18 33 2 60 -10 15 -10 22 0
32 9 9 12 9 12 0 0 -7 11 -12 25 -12 24 0 25 2 19 37 -6 33 -5 36 12 28 43
-17 54 -17 54 -1 0 9 5 16 10 16 6 0 10 11 10 25 0 22 2 24 14 13 8 -7 10 -14
5 -16z m-109 -88 c0 -2 -7 -4 -15 -4 -8 0 -15 4 -15 10 0 5 7 7 15 4 8 -4 15
-8 15 -10z m-50 -184 c0 -5 -2 -10 -4 -10 -3 0 -8 5 -11 10 -3 6 -1 10 4 10 6
0 11 -4 11 -10z m-53 -16 c-3 -3 -12 -4 -19 -1 -8 3 -5 6 6 6 11 1 17 -2 13
-5z m133 -178 c0 -2 -9 -6 -20 -9 -11 -3 -18 -1 -14 4 5 9 34 13 34 5z m-70
-16 c0 -5 -9 -10 -20 -10 -11 0 -20 5 -20 10 0 6 9 10 20 10 11 0 20 -4 20
-10z"/>
<path d="M6300 3595 c0 -8 6 -15 13 -16 6 0 -3 -5 -20 -10 -18 -5 -33 -16 -33
-23 0 -15 52 -29 75 -20 17 7 21 54 5 54 -5 0 -10 7 -10 15 0 8 -7 15 -15 15
-8 0 -15 -7 -15 -15z m37 -47 c-3 -8 -6 -5 -6 6 -1 11 2 17 5 13 3 -3 4 -12 1
-19z m-19 -6 c2 -7 -2 -10 -12 -6 -9 3 -16 11 -16 16 0 13 23 5 28 -10z"/>
<path d="M6313 3455 c-3 -9 -3 -18 0 -22 11 -10 57 7 57 22 0 20 -49 20 -57 0z
m37 -5 c-20 -13 -33 -13 -25 0 3 6 14 10 23 10 15 0 15 -2 2 -10z"/>
<path d="M6146 3261 c-7 -11 14 -20 32 -14 6 3 12 9 12 14 0 12 -37 12 -44 0z"/>
<path d="M6171 3206 c-10 -11 -9 -14 1 -12 14 2 23 15 15 22 -2 2 -10 -2 -16
-10z"/>
<path d="M6368 3213 c-10 -2 -18 -10 -18 -18 0 -7 -10 -15 -21 -18 -17 -5 -21
-12 -17 -36 2 -16 2 -30 -1 -29 -3 0 -15 -3 -27 -7 -16 -5 -20 -14 -20 -40 1
-19 5 -37 8 -40 4 -4 4 -13 1 -21 -3 -8 -1 -14 5 -14 5 0 12 9 15 21 4 14 12
19 24 17 19 -4 20 -10 7 -42 -6 -15 -4 -17 6 -11 8 5 11 4 6 -3 -3 -6 -22 -16
-41 -22 -19 -6 -35 -16 -35 -21 0 -5 -10 -14 -22 -19 -13 -5 -17 -9 -10 -9 6
-1 12 -8 12 -16 0 -20 40 -35 63 -23 9 5 17 15 17 23 0 8 5 15 10 15 6 0 10 9
10 20 0 16 5 19 25 16 19 -4 25 0 25 14 0 13 -5 17 -20 13 -17 -5 -20 -1 -19
28 0 19 3 28 6 22 2 -7 13 -13 24 -13 18 0 19 8 19 110 0 61 -3 109 -7 109 -5
-1 -16 -3 -25 -6z m22 -108 c0 -52 -4 -95 -9 -95 -5 0 -11 5 -13 12 -3 7 -23
12 -46 12 -39 1 -42 3 -42 28 0 21 6 29 26 34 22 6 24 10 19 36 -6 24 -3 30
14 35 12 3 21 12 21 19 0 8 7 14 15 14 12 0 15 -17 15 -95z m-85 -223 c-6 -15
-47 -13 -52 3 -2 6 7 21 19 34 l21 24 9 -23 c5 -13 6 -30 3 -38z"/>
<path d="M6300 2999 c0 -11 5 -17 10 -14 6 3 10 13 10 21 0 8 -4 14 -10 14 -5
0 -10 -9 -10 -21z"/>
<path d="M6256 2775 c10 -43 20 -60 28 -46 4 6 3 11 -3 11 -6 0 -8 6 -5 13 2
7 -2 21 -11 32 -15 19 -15 18 -9 -10z"/>
<path d="M311 2401 c-9 -6 -7 -10 8 -14 12 -3 21 -1 21 3 0 14 -15 19 -29 11z"/>
<path d="M350 2400 c0 -5 9 -9 20 -7 31 5 36 17 7 17 -15 0 -27 -4 -27 -10z"/>
<path d="M438 2393 c7 -3 16 -2 19 1 4 3 -2 6 -13 5 -11 0 -14 -3 -6 -6z"/>
<path d="M3630 2390 c0 -5 5 -10 11 -10 5 0 7 5 4 10 -3 6 -8 10 -11 10 -2 0
-4 -4 -4 -10z"/>
<path d="M3560 2376 c0 -2 8 -10 18 -17 15 -13 16 -12 3 4 -13 16 -21 21 -21
13z"/>
<path d="M295 2360 c-3 -6 1 -7 9 -4 18 7 21 14 7 14 -6 0 -13 -4 -16 -10z"/>
<path d="M3751 2304 c0 -11 3 -14 6 -6 3 7 2 16 -1 19 -3 4 -6 -2 -5 -13z"/>
<path d="M3690 2292 c0 -5 11 -12 25 -15 16 -3 24 0 22 7 -4 14 -47 21 -47 8z"/>
<path d="M3770 2273 c8 -3 18 -11 22 -17 9 -14 22 -1 13 13 -3 6 -16 11 -28
10 -15 0 -17 -2 -7 -6z"/>
<path d="M3820 2266 c0 -9 5 -16 10 -16 6 0 10 4 10 9 0 6 -4 13 -10 16 -5 3
-10 -1 -10 -9z"/>
<path d="M3758 2213 c-10 -2 -18 -9 -18 -14 0 -14 16 -11 30 6 7 8 11 14 9 14
-2 -1 -12 -3 -21 -6z"/>
<path d="M3805 2210 c4 -6 11 -8 16 -5 14 9 11 15 -7 15 -8 0 -12 -5 -9 -10z"/>
<path d="M3792 2129 c3 -8 17 -14 31 -13 32 0 35 -11 7 -28 -11 -7 -20 -17
-20 -22 0 -6 5 -5 11 1 6 6 18 9 25 6 9 -3 14 2 14 15 0 12 8 25 18 31 14 8
12 10 -13 9 -17 -1 -41 2 -54 7 -17 5 -22 4 -19 -6z"/>
<path d="M498 2108 c15 -15 52 -18 52 -4 0 6 -14 12 -32 13 -24 2 -29 0 -20
-9z"/>
<path d="M3901 2104 c0 -11 3 -14 6 -6 3 7 2 16 -1 19 -3 4 -6 -2 -5 -13z"/>
<path d="M353 2063 c-7 -2 -13 -9 -13 -15 0 -8 46 -7 88 1 1 1 2 6 2 11 0 10
-55 13 -77 3z"/>
<path d="M3846 2034 c-3 -8 -2 -13 3 -10 5 3 11 -3 14 -14 3 -10 13 -19 23
-18 11 0 31 -3 47 -7 17 -5 27 -3 27 4 0 6 -6 11 -12 11 -10 0 -9 3 1 9 8 5
10 14 6 21 -6 9 -13 6 -27 -11 -12 -14 -18 -17 -15 -8 4 11 -3 20 -19 28 -33
15 -41 14 -48 -5z"/>
<path d="M490 1990 c-9 -6 -7 -9 6 -13 25 -6 89 -9 83 -3 -11 11 -78 23 -89
16z"/>
<path d="M3825 1990 c-3 -5 2 -10 12 -10 17 -1 17 -1 -1 -11 -14 -9 -16 -13
-5 -20 22 -13 4 -21 -55 -21 -59 -1 -65 -12 -14 -26 18 -4 34 -14 36 -21 3 -8
0 -11 -6 -7 -6 3 -13 2 -17 -4 -4 -6 5 -10 20 -10 14 0 37 -7 50 -16 14 -9 30
-12 37 -8 9 5 9 3 -1 -10 -10 -11 -22 -15 -38 -11 -21 5 -22 4 -11 -14 8 -13
15 -16 19 -9 9 13 69 21 69 8 0 -6 7 -10 16 -10 8 0 12 -4 9 -10 -3 -5 -1 -10
5 -10 7 0 10 -7 6 -15 -3 -8 -1 -15 3 -15 5 0 8 -29 7 -65 0 -36 -3 -65 -6
-65 -3 0 -7 -12 -8 -27 -1 -16 -4 -40 -6 -55 -2 -16 1 -28 5 -28 15 0 10 -21
-12 -52 -18 -25 -20 -34 -10 -55 10 -23 8 -28 -19 -55 -17 -16 -28 -33 -25
-38 3 -5 -1 -26 -10 -46 -8 -20 -13 -40 -10 -44 2 -4 -6 -19 -19 -33 -29 -31
-58 -29 -92 8 -21 23 -36 29 -56 26 -5 0 -8 3 -8 7 0 4 -8 8 -17 9 -51 3 -73
9 -73 19 0 14 -39 26 -56 16 -7 -4 -12 -11 -11 -17 1 -5 -31 -11 -73 -13 -104
-4 -102 -3 -107 -23 -4 -15 -63 -46 -63 -33 0 3 -10 -1 -22 -8 -13 -7 -28 -12
-35 -13 -16 0 -55 -53 -48 -65 4 -6 -1 -7 -12 -3 -14 5 -15 3 -7 -6 9 -10 17
-10 33 -2 12 7 21 16 21 21 0 6 8 10 18 10 10 0 27 6 37 14 10 7 27 11 37 8
19 -5 87 24 100 43 14 20 248 -5 248 -27 0 -4 6 -5 14 -2 7 3 20 -1 28 -8 23
-21 58 -39 58 -29 0 17 29 20 55 7 20 -11 22 -15 11 -19 -9 -4 -13 -13 -10
-22 3 -8 1 -15 -5 -15 -6 0 -11 -9 -11 -19 0 -11 -5 -23 -10 -26 -6 -4 -8 -10
-5 -15 3 -5 -4 -11 -15 -15 -11 -4 -20 -15 -20 -27 0 -17 -2 -19 -16 -8 -12
11 -15 11 -12 -1 2 -8 8 -17 13 -21 7 -5 6 -11 -1 -15 -6 -5 -13 -16 -17 -26
-4 -11 -12 -15 -18 -11 -8 4 -9 3 -5 -4 4 -7 -6 -13 -28 -17 -19 -4 -37 -13
-40 -21 -3 -7 -12 -11 -21 -8 -8 3 -15 1 -15 -6 0 -6 -4 -8 -10 -5 -5 3 -10 2
-10 -3 0 -13 -108 -30 -119 -19 -6 6 -38 11 -72 12 -48 1 -65 5 -76 21 -8 10
-19 18 -25 16 -5 -1 -16 3 -24 9 -8 7 -17 9 -21 5 -3 -3 -15 1 -25 11 -13 11
-18 12 -18 3 0 -10 -3 -10 -15 0 -8 7 -24 10 -34 7 -26 -6 -62 19 -55 38 4 10
0 15 -11 15 -17 0 -17 9 0 55 5 11 4 17 0 13 -8 -8 -32 19 -33 36 0 5 -6 13
-14 17 -10 7 -9 9 4 9 26 0 12 23 -23 39 -24 10 -28 16 -18 23 11 7 11 8 -1 7
-8 -1 -27 4 -43 11 -25 12 -26 15 -11 31 21 23 9 90 -18 97 -11 3 -17 10 -14
19 3 7 -3 22 -14 33 -11 11 -20 27 -20 35 0 8 -4 15 -9 15 -5 0 -11 10 -13 23
-2 12 -9 21 -17 19 -11 -2 -12 0 -3 10 6 8 9 24 5 36 -4 17 -11 21 -36 18 -17
-2 -33 -9 -35 -15 -2 -6 -11 -11 -20 -12 -11 0 -12 -2 -4 -6 6 -2 12 -12 12
-22 0 -9 -6 -23 -12 -30 -11 -11 -9 -13 10 -8 12 3 22 2 22 -3 0 -4 9 -10 21
-13 12 -3 18 -10 14 -16 -3 -6 -11 -9 -16 -6 -5 4 -9 1 -9 -6 0 -8 -4 -8 -15
1 -12 10 -15 10 -15 -1 0 -7 -8 -4 -21 10 -20 21 -22 21 -45 6 -13 -8 -24 -13
-24 -9 0 4 -8 0 -17 -7 -11 -10 -14 -10 -9 -1 4 7 1 12 -8 12 -9 0 -16 -4 -16
-8 0 -5 -9 -8 -20 -8 -10 1 -18 -3 -17 -9 1 -5 22 -11 47 -11 89 -2 100 -4
100 -15 0 -7 -14 -9 -37 -6 -26 3 -48 -1 -70 -15 -18 -10 -34 -15 -37 -9 -3 5
-15 7 -25 4 -16 -4 -17 -8 -8 -18 9 -9 14 -10 19 -1 6 8 8 8 8 -1 0 -8 7 -10
18 -6 15 6 15 5 3 -10 -7 -9 -22 -17 -33 -17 -10 0 -17 -4 -14 -9 3 -5 -2 -8
-12 -7 -11 0 -17 -6 -17 -18 0 -13 -11 -23 -34 -31 -39 -13 -31 -25 12 -20 21
3 27 0 23 -10 -3 -8 -1 -17 4 -20 6 -4 10 -1 10 6 0 9 3 9 14 0 21 -17 26 -49
10 -62 -18 -15 -18 -29 1 -29 9 0 15 -9 15 -25 0 -16 6 -25 15 -25 8 0 15 -4
15 -10 0 -5 -4 -10 -10 -10 -5 0 -10 -5 -10 -11 0 -5 5 -7 10 -4 6 3 10 2 10
-3 0 -6 -8 -13 -17 -17 -17 -6 -17 -7 1 -20 16 -12 17 -17 6 -30 -7 -8 -16
-13 -20 -10 -4 3 -10 -2 -14 -10 -3 -8 -12 -15 -20 -15 -9 0 -20 -9 -26 -21
-7 -11 -18 -18 -25 -15 -16 6 -45 -24 -45 -46 0 -13 7 -14 33 -9 17 4 49 6 70
5 20 -2 37 1 37 7 0 5 11 9 24 9 13 0 27 7 30 16 5 13 11 11 39 -10 19 -14 38
-26 44 -26 13 0 63 -46 63 -58 0 -5 -18 -12 -39 -16 -22 -3 -47 -14 -57 -23
-13 -13 -19 -14 -22 -5 -2 7 -8 10 -12 7 -5 -3 -24 1 -42 8 -18 8 -39 12 -45
10 -7 -3 -13 0 -13 5 0 6 8 13 18 15 9 3 -1 3 -23 2 -23 -3 -43 1 -47 8 -5 8
-8 5 -8 -8 -1 -20 -1 -20 -15 -1 -9 12 -15 15 -15 7 0 -8 -6 -11 -16 -7 -13 5
-15 2 -11 -14 3 -11 2 -18 -3 -15 -4 3 -11 -2 -14 -11 -3 -8 -11 -12 -18 -8
-8 5 -9 0 -6 -14 5 -19 3 -21 -19 -16 -32 8 -28 -15 6 -32 l22 -11 -23 -7
c-13 -4 -18 -10 -12 -12 7 -3 10 -13 7 -23 -7 -26 17 -38 33 -17 15 21 60 19
86 -2 15 -13 18 -13 24 2 3 9 11 16 18 15 37 -4 86 3 98 14 7 8 19 12 27 9 8
-3 11 0 7 7 -5 7 1 11 13 11 12 0 21 4 21 9 0 5 7 8 16 7 11 0 18 7 19 21 1
13 -2 23 -7 23 -4 0 -8 4 -8 8 0 5 18 8 40 8 22 -1 40 -4 40 -8 0 -14 37 -8
50 7 11 13 8 15 -18 15 -24 0 -30 4 -26 15 4 9 0 15 -7 15 -10 1 -10 3 2 10
11 7 33 1 75 -20 33 -16 63 -25 69 -20 19 15 53 5 78 -22 18 -19 31 -25 47
-21 15 4 21 2 16 -5 -3 -6 7 -19 24 -28 16 -10 30 -22 30 -26 0 -4 7 -8 16 -8
8 0 12 -4 9 -10 -3 -5 -1 -10 5 -10 7 0 9 -8 5 -21 -6 -17 -4 -20 6 -13 8 5
24 10 37 12 20 2 23 0 17 -18 -4 -11 -2 -20 4 -20 6 0 11 6 11 13 0 8 4 7 11
-3 8 -11 12 -12 16 -3 5 14 50 8 67 -8 14 -13 28 -11 20 3 -4 7 -3 8 4 4 6 -4
8 -14 5 -23 -4 -11 -3 -14 5 -9 7 4 12 2 12 -3 0 -17 28 -13 39 6 5 11 23 18
46 20 20 1 43 7 51 14 12 10 16 9 20 -8 6 -21 34 -22 60 -1 6 4 18 6 26 3 9
-4 22 1 31 9 9 9 18 16 22 16 4 0 13 6 20 14 9 9 32 13 62 12 27 -2 64 3 83 9
l34 12 -34 8 c-27 6 -30 9 -15 12 11 3 25 10 32 15 7 6 28 10 48 11 21 1 35 6
35 14 0 7 12 16 28 19 15 4 39 13 54 20 27 14 27 14 12 51 -14 33 -14 38 0 49
9 6 16 16 16 22 0 15 51 25 63 13 8 -8 6 -11 -6 -11 -9 0 -20 -8 -26 -17 -8
-15 -1 -20 52 -33 61 -16 112 -16 86 1 -8 5 2 11 29 19 23 6 42 16 42 22 0 21
35 37 79 38 52 0 48 6 -31 47 -32 17 -55 33 -52 36 3 3 -6 13 -20 22 -14 10
-26 25 -26 35 0 10 -7 20 -15 24 -9 3 -15 18 -15 35 0 16 -4 32 -10 36 -5 3
-6 15 -1 28 5 12 8 40 8 62 0 22 3 50 7 62 10 32 16 103 8 100 -4 -1 -18 6
-32 15 l-24 18 32 6 c32 7 45 34 16 34 -8 0 -12 5 -9 10 3 6 -1 13 -10 16 -12
5 -13 10 -4 20 6 8 16 11 21 8 5 -3 4 3 -4 15 -7 12 -22 21 -33 21 -19 1 -19
1 -2 14 9 7 17 21 17 30 0 10 5 14 12 10 7 -4 8 -3 4 5 -4 6 -11 9 -16 6 -5
-3 -11 -1 -14 4 -3 4 -19 11 -36 15 -21 4 -29 10 -24 17 4 8 3 9 -4 5 -7 -4
-12 -4 -12 -1 0 8 32 41 37 38 10 -8 21 -1 26 16 3 14 -2 21 -16 25 -17 4 -19
8 -9 18 16 16 16 31 -1 25 -6 -2 -18 2 -25 9 -12 13 -8 18 11 15 14 -2 7 27
-8 33 -8 3 -15 12 -15 20 0 16 -44 48 -54 39 -3 -3 -1 -12 4 -18 8 -10 0 -11
-32 -8 -24 3 -45 7 -47 9 -9 8 26 35 47 37 12 1 22 5 22 9 0 11 -33 26 -46 21
-6 -2 -14 4 -18 13 -4 12 -2 15 9 10 8 -3 15 0 15 6 0 6 3 8 7 5 3 -4 12 5 20
19 15 30 16 34 6 33 -34 -5 -82 3 -79 14 1 6 1 9 -1 5 -3 -5 -9 -8 -14 -8 -6
0 -7 6 -3 13 4 6 -2 4 -13 -5 -11 -10 -28 -18 -39 -17 -15 0 -16 2 -4 7 23 10
23 32 0 32 -11 0 -20 6 -20 14 0 8 -7 17 -16 20 -21 8 -22 8 -29 -4z m57 -48
c-6 -2 -12 -11 -12 -19 0 -13 8 -15 41 -10 35 5 42 2 46 -14 3 -11 15 -20 27
-20 17 -1 17 -2 4 -6 -31 -8 -17 -53 16 -54 14 0 16 -2 6 -6 -8 -3 -23 -12
-32 -21 -12 -10 -18 -11 -18 -4 0 7 -7 12 -15 12 -8 0 -15 5 -15 10 0 6 -7 10
-15 10 -8 0 -15 7 -15 15 0 8 -8 15 -18 15 -30 0 -68 22 -79 47 -10 21 -9 23
18 23 22 0 29 5 29 19 0 15 5 18 22 13 12 -3 17 -7 10 -10z m203 -212 c21 -8
24 -14 19 -35 -3 -14 -2 -25 4 -25 5 0 15 -13 21 -30 5 -16 15 -30 20 -30 6 0
11 -4 11 -10 0 -5 -7 -10 -16 -10 -22 0 -46 -27 -42 -48 2 -9 18 -22 36 -28
46 -15 62 -33 40 -45 -24 -14 -23 -39 2 -39 23 0 24 -3 8 -31 -10 -17 -10 -23
0 -26 6 -3 12 -11 12 -19 0 -8 8 -14 18 -15 9 0 2 -5 -15 -10 -40 -12 -41 -24
-7 -52 23 -17 25 -25 20 -61 -3 -23 -8 -62 -10 -87 -2 -26 -7 -61 -11 -77 -3
-18 -2 -33 4 -37 6 -3 11 -20 11 -36 0 -17 6 -32 15 -35 8 -4 15 -14 15 -25 0
-10 9 -23 20 -29 11 -6 20 -16 20 -23 0 -7 23 -23 51 -37 43 -21 48 -25 28
-28 -35 -4 -69 -23 -69 -38 0 -7 -18 -18 -39 -24 -22 -6 -41 -16 -43 -22 -3
-8 -19 -7 -59 4 -46 14 -51 18 -31 24 38 11 23 39 -21 38 -30 -1 -37 2 -37 17
0 21 -63 37 -83 21 -6 -6 -23 -12 -37 -14 -19 -2 -26 -10 -28 -30 -2 -20 1
-28 12 -28 9 0 16 -4 16 -9 0 -5 19 -12 43 -16 23 -4 34 -10 25 -12 -11 -3
-18 -14 -18 -30 0 -22 4 -25 25 -21 57 11 16 -18 -52 -37 -13 -3 -23 -10 -23
-15 0 -5 -22 -12 -50 -16 -27 -4 -50 -10 -50 -15 0 -5 -7 -9 -15 -9 -18 0 -20
-26 -2 -33 6 -3 -16 -6 -50 -6 -38 -1 -67 -6 -76 -15 -8 -8 -24 -12 -40 -9
-19 4 -27 1 -27 -8 0 -8 -11 -19 -25 -26 -21 -9 -25 -9 -25 4 0 11 -9 14 -35
11 -19 -2 -35 0 -35 4 0 4 -7 8 -15 8 -8 0 -15 -7 -15 -15 0 -9 -9 -15 -25
-15 -15 0 -29 -8 -36 -22 l-12 -22 -13 26 c-12 22 -22 27 -79 33 -36 3 -65 11
-65 16 0 5 -13 9 -29 9 -21 0 -32 6 -36 20 -3 11 -13 20 -21 20 -9 0 -14 11
-14 30 0 20 -5 30 -15 30 -8 0 -15 -4 -15 -10 0 -5 -4 -10 -10 -10 -5 0 -10 7
-10 15 0 10 -10 15 -29 15 -20 0 -34 8 -46 26 -15 23 -22 26 -61 21 -33 -3
-55 1 -91 20 -27 13 -56 22 -66 19 -10 -2 -29 6 -44 20 -14 13 -30 24 -36 24
-6 0 -25 11 -43 25 -18 14 -37 25 -43 25 -6 0 -11 9 -11 20 0 11 -7 20 -15 20
-8 0 -15 5 -15 10 0 6 14 10 30 10 20 0 30 5 30 15 0 9 -9 15 -22 15 -24 0
-63 20 -40 20 7 0 12 14 12 35 0 26 -4 35 -17 36 -17 1 -17 2 0 6 26 7 21 30
-9 37 -20 5 -23 10 -14 20 16 20 3 60 -28 87 l-27 24 28 3 c25 3 28 7 23 27
-5 21 -2 25 29 31 32 6 51 34 24 34 -8 0 -8 5 1 15 7 8 25 15 41 15 22 0 29
-5 29 -20 0 -11 7 -20 15 -20 8 0 15 4 15 9 0 5 3 23 6 40 6 28 4 31 -20 31
-29 0 -35 17 -10 27 10 4 20 0 26 -10 17 -30 98 -15 98 19 0 8 -8 18 -17 21
-25 10 -48 33 -33 33 8 0 10 9 6 25 -4 14 -2 25 4 25 5 0 10 -4 10 -10 0 -5 6
-10 14 -10 9 0 12 -7 9 -20 -4 -14 0 -20 11 -20 9 0 16 -8 16 -19 0 -11 3 -21
8 -23 10 -4 42 -67 42 -83 0 -7 8 -15 19 -18 24 -6 34 -57 15 -78 -25 -28 -22
-31 81 -91 16 -10 24 -18 17 -18 -19 0 -14 -24 10 -55 14 -18 21 -40 20 -62
-2 -18 2 -33 8 -33 5 0 10 -7 10 -15 0 -20 46 -49 66 -41 9 4 22 2 28 -3 6 -4
36 -14 66 -21 30 -7 60 -20 66 -28 7 -10 34 -17 75 -20 35 -2 69 -8 75 -13 19
-16 167 20 189 46 6 6 26 15 45 21 20 5 39 19 45 32 5 12 13 22 17 22 4 0 10
16 14 35 4 21 13 37 25 40 11 4 21 20 25 41 3 19 10 34 15 34 5 0 9 9 9 20 0
11 5 20 10 20 20 0 10 28 -12 35 -17 4 -19 8 -9 12 31 13 57 54 70 111 8 36
23 70 38 87 22 23 24 32 16 54 -7 20 -6 32 8 51 22 34 34 90 19 90 -9 0 -10
10 -5 33 6 31 13 103 14 161 1 28 2 28 40 22 22 -3 51 -10 66 -16z m-495 -495
c0 -9 9 -15 23 -15 42 0 120 -30 142 -54 13 -14 20 -27 17 -30 -10 -10 -50 -6
-54 5 -10 30 -297 70 -316 44 -13 -19 -78 -46 -94 -40 -10 4 -27 0 -40 -9 -25
-18 -48 -21 -48 -6 0 6 8 10 18 10 10 0 22 4 27 8 6 5 29 14 53 21 23 6 42 18
42 26 0 18 50 29 123 27 42 -1 59 3 64 13 7 20 43 19 43 0z m-974 -428 c1 -20
-2 -22 -37 -19 -42 4 -51 17 -19 27 11 3 20 10 20 15 0 19 35 -3 36 -23z
m1412 7 c24 -7 30 -24 8 -24 -7 0 -16 -13 -19 -28 -5 -25 -9 -28 -36 -24 -17
2 -28 8 -25 13 3 5 -4 9 -16 9 -31 0 -22 34 10 38 14 2 29 8 35 13 11 11 13
11 43 3z m-1440 -41 c-10 -2 -18 -8 -18 -11 0 -4 -27 -8 -60 -8 -51 -2 -59 0
-49 12 8 10 32 14 78 13 36 -1 58 -3 49 -6z m1432 -94 c0 -5 -4 -9 -10 -9 -5
0 -10 7 -10 16 0 8 5 12 10 9 6 -3 10 -10 10 -16z m-1237 -26 c-7 -2 -21 -2
-30 0 -10 3 -4 5 12 5 17 0 24 -2 18 -5z m-178 -13 l20 -9 -20 0 c-11 0 -29 4
-40 9 l-20 9 20 0 c11 0 29 -4 40 -9z m-165 -9 c0 -5 -7 -12 -16 -15 -14 -5
-15 -4 -4 9 14 17 20 19 20 6z m82 -4 c35 1 51 -4 55 -14 5 -11 8 -12 14 -2 6
10 13 10 31 2 19 -10 16 -15 -8 -12 -4 0 -10 -4 -13 -10 -5 -7 -15 -6 -31 2
-14 7 -41 12 -60 12 -35 -2 -60 10 -60 27 0 5 5 6 12 2 6 -4 33 -7 60 -7z
m186 -13 c17 -5 15 -24 -3 -24 -8 0 -15 -4 -15 -10 0 -5 -8 -10 -18 -10 -11 0
-29 -9 -42 -20 -30 -26 -140 -30 -140 -5 0 8 -7 15 -15 15 -8 0 -15 -7 -15
-15 0 -8 -7 -15 -15 -15 -25 0 -19 47 8 54 34 9 83 7 113 -4 46 -18 116 25 72
43 -14 6 48 -2 70 -9z m-253 -14 c-3 -5 -10 -10 -16 -10 -5 0 -9 5 -9 10 0 6
7 10 16 10 8 0 12 -4 9 -10z m-55 -70 c0 -11 -4 -20 -9 -20 -5 0 -7 9 -4 20 3
11 7 20 9 20 2 0 4 -9 4 -20z m1260 -34 c0 -3 -4 -8 -10 -11 -5 -3 -10 -1 -10
4 0 6 5 11 10 11 6 0 10 -2 10 -4z"/>
<path d="M4140 1215 c0 -8 7 -15 15 -15 8 0 15 7 15 15 0 8 -7 15 -15 15 -8 0
-15 -7 -15 -15z"/>
<path d="M2640 1205 c0 -8 7 -15 15 -15 8 0 15 7 15 15 0 8 -7 15 -15 15 -8 0
-15 -7 -15 -15z"/>
<path d="M296 1975 c-8 -8 -20 -15 -26 -15 -7 0 -10 -7 -6 -15 6 -16 5 -17
-36 -19 -16 -1 -28 2 -28 7 0 5 -7 4 -15 -3 -8 -6 -19 -9 -24 -5 -6 3 -8 0 -5
-8 4 -10 23 -13 75 -12 38 1 72 -2 75 -7 3 -4 16 -8 29 -8 19 0 23 -4 18 -17
-4 -11 -3 -14 5 -9 7 4 12 2 12 -3 0 -6 -9 -11 -20 -11 -11 0 -20 4 -20 10 0
5 -8 6 -17 3 -11 -4 -13 -8 -5 -11 7 -2 10 -8 7 -12 -3 -5 16 -11 42 -15 27
-3 55 -10 64 -15 13 -7 18 -4 22 11 3 11 13 18 24 18 16 -1 16 -2 1 -6 -22 -6
-24 -23 -2 -23 8 0 13 -4 10 -9 -3 -5 3 -11 14 -14 11 -3 20 -1 20 3 0 5 9 8
20 7 13 -1 19 -6 15 -15 -2 -7 -1 -11 4 -8 5 3 11 -5 13 -19 3 -13 0 -26 -6
-28 -6 -2 4 -4 23 -5 l33 -1 -21 20 c-22 21 -28 35 -11 24 6 -3 10 -1 10 4 0
6 -4 11 -10 11 -5 0 -10 4 -10 10 0 5 7 7 15 4 8 -4 15 -1 15 5 0 6 -5 11 -10
11 -6 0 -10 8 -8 17 2 12 -4 18 -17 18 -14 0 -19 6 -18 20 1 11 0 15 -3 8 -4
-10 -8 -10 -19 0 -16 15 -10 27 16 27 10 0 19 5 19 10 0 10 -13 14 -36 11 -6
-1 -17 5 -23 13 -9 10 -20 12 -42 6 -17 -5 -29 -5 -29 1 0 5 -4 9 -9 9 -5 0
-7 -10 -3 -22 3 -14 2 -19 -6 -14 -7 4 -12 15 -12 24 0 15 -2 15 -10 2 -5 -8
-10 -11 -10 -6 0 5 -7 3 -15 -4 -8 -7 -15 -9 -15 -5 0 5 -10 0 -22 -11 -12
-10 -18 -13 -14 -6 5 8 1 21 -9 32 -17 19 -17 20 0 26 10 4 21 1 26 -7 7 -11
9 -11 9 2 0 23 -26 31 -44 14z m199 -55 c3 -5 -1 -10 -9 -10 -9 0 -16 -9 -16
-20 0 -14 7 -20 23 -20 12 0 28 -9 35 -20 7 -11 19 -20 27 -20 33 0 12 -18
-25 -22 -36 -3 -40 -1 -40 19 0 18 -6 23 -24 23 -14 0 -28 -4 -31 -10 -3 -5
-22 -10 -41 -10 -32 0 -34 2 -20 15 8 8 24 15 35 15 12 0 21 6 21 15 0 8 -7
15 -16 15 -8 0 -22 7 -30 15 -9 8 -11 15 -5 15 5 0 13 -4 16 -10 10 -16 55
-12 55 5 0 17 35 21 45 5z m-111 -36 c3 -8 2 -12 -4 -9 -6 3 -10 10 -10 16 0
14 7 11 14 -7z m116 6 c0 -5 -4 -10 -10 -10 -5 0 -10 5 -10 10 0 6 5 10 10 10
6 0 10 -4 10 -10z"/>
<path d="M385 1980 c-3 -5 -1 -10 4 -10 6 0 11 5 11 10 0 6 -2 10 -4 10 -3 0
-8 -4 -11 -10z"/>
<path d="M356 1965 c-9 -26 -7 -32 5 -12 6 10 9 21 6 23 -2 3 -7 -2 -11 -11z"/>
<path d="M584 1958 c-3 -5 -3 -12 0 -15 3 -4 6 -2 6 4 0 6 9 9 20 6 11 -3 20
-3 20 0 0 10 -40 15 -46 5z"/>
<path d="M562 1931 c9 -7 14 -19 11 -30 -4 -16 -1 -19 17 -14 17 4 19 8 8 15
-9 6 -6 7 9 3 12 -3 24 -1 28 4 3 6 -7 13 -22 17 -15 3 -37 8 -48 10 -17 4
-18 4 -3 -5z"/>
<path d="M3665 1910 c-4 -6 -11 -8 -16 -5 -5 4 -5 -3 -1 -16 7 -18 16 -22 61
-22 29 0 57 5 64 12 8 8 3 11 -21 11 -18 0 -32 5 -32 11 0 5 -4 8 -9 4 -5 -3
-12 -1 -16 5 -3 5 -10 10 -15 10 -5 0 -12 -5 -15 -10z m35 -20 c12 -8 9 -10
-13 -10 -16 0 -26 4 -22 10 8 12 16 12 35 0z"/>
<path d="M650 1900 c0 -13 11 -13 30 0 12 8 11 10 -7 10 -13 0 -23 -4 -23 -10z"/>
<path d="M263 1873 c1 -28 22 -38 24 -12 1 11 -2 17 -7 14 -4 -3 -10 1 -13 7
-3 7 -4 3 -4 -9z"/>
<path d="M620 1880 c0 -5 5 -10 11 -10 5 0 7 5 4 10 -3 6 -8 10 -11 10 -2 0
-4 -4 -4 -10z"/>
<path d="M3608 1864 c-34 -18 -35 -24 -5 -24 31 0 55 17 42 29 -6 6 -20 4 -37
-5z"/>
<path d="M215 1850 c-3 -5 -1 -10 4 -10 6 0 11 5 11 10 0 6 -2 10 -4 10 -3 0
-8 -4 -11 -10z"/>
<path d="M3560 1759 c0 -5 5 -7 10 -4 6 3 10 8 10 11 0 2 -4 4 -10 4 -5 0 -10
-5 -10 -11z"/>
<path d="M3512 1740 c0 -14 2 -19 5 -12 2 6 2 18 0 25 -3 6 -5 1 -5 -13z"/>
<path d="M3860 1752 c0 -5 7 -9 15 -9 8 0 15 4 15 9 0 4 -7 8 -15 8 -8 0 -15
-4 -15 -8z"/>
<path d="M3480 1741 c0 -6 5 -13 10 -16 6 -3 10 1 10 9 0 9 -4 16 -10 16 -5 0
-10 -4 -10 -9z"/>
<path d="M3720 1719 c0 -5 5 -7 10 -4 6 3 10 8 10 11 0 2 -4 4 -10 4 -5 0 -10
-5 -10 -11z"/>
<path d="M466 1663 c-13 -13 -5 -23 18 -23 13 0 32 -3 40 -6 14 -5 14 -9 4
-22 -11 -13 -10 -15 5 -9 11 4 17 2 17 -8 0 -18 13 -26 28 -16 9 5 7 13 -8 29
-11 11 -20 28 -20 37 0 8 -5 15 -11 15 -5 0 -7 -4 -4 -10 3 -5 2 -10 -4 -10
-5 0 -11 5 -13 12 -5 13 -42 21 -52 11z"/>
<path d="M622 1644 c6 -13 19 -24 30 -24 28 0 21 24 -11 37 -29 10 -29 10 -19
-13z"/>
<path d="M583 1653 c-20 -7 -15 -19 7 -19 11 0 20 4 20 8 0 10 -13 16 -27 11z"/>
<path d="M290 1640 c-23 -7 -23 -8 -3 -9 12 -1 25 4 28 9 3 6 5 10 3 9 -2 -1
-14 -5 -28 -9z"/>
<path d="M324 1598 c-2 -3 4 -9 13 -12 10 -3 5 -4 -10 -2 -16 2 -31 -2 -33 -9
-3 -6 -10 -12 -17 -13 -7 -1 -25 -3 -42 -4 -16 -2 -36 -7 -42 -11 -7 -5 -17
-5 -23 -2 -5 3 -10 1 -10 -5 0 -7 -6 -10 -13 -7 -24 9 -77 -20 -77 -43 0 -12
4 -19 9 -16 5 3 14 0 20 -8 11 -13 58 -8 111 11 8 3 20 7 25 9 6 1 28 10 50
19 43 19 153 27 171 13 8 -5 13 -1 17 12 6 24 -12 35 -44 27 -16 -4 -18 -3 -8
9 6 8 24 14 40 14 16 0 29 4 29 10 0 5 -7 6 -17 3 -9 -4 -14 -2 -11 3 4 5 -24
9 -64 9 -38 0 -72 -3 -74 -7z m83 -33 c-8 -16 -20 -25 -35 -25 -23 0 -135 -34
-162 -49 -9 -5 -35 -12 -58 -16 -35 -6 -42 -4 -42 9 0 9 6 16 14 16 8 0 16 4
18 10 3 9 109 40 140 40 10 0 18 5 18 10 0 6 20 10 45 10 25 0 45 5 45 10 0 6
6 10 14 10 11 0 12 -5 3 -25z m50 -21 c-3 -3 -12 -4 -19 -1 -8 3 -5 6 6 6 11
1 17 -2 13 -5z m-357 -44 c0 -5 -4 -10 -10 -10 -5 0 -10 5 -10 10 0 6 5 10 10
10 6 0 10 -4 10 -10z"/>
<path d="M495 1560 c-3 -5 -1 -10 4 -10 6 0 11 5 11 10 0 6 -2 10 -4 10 -3 0
-8 -4 -11 -10z"/>
<path d="M605 1519 c-4 -6 -5 -12 -2 -15 2 -3 7 2 10 11 7 17 1 20 -8 4z"/>
<path d="M682 1518 c-7 -7 -12 -8 -12 -2 0 5 -5 2 -10 -6 -9 -13 -11 -13 -20
0 -8 13 -11 12 -16 -7 -5 -16 -12 -20 -31 -17 -58 11 -75 7 -71 -13 3 -18 -18
-46 -43 -56 -8 -3 -3 -6 11 -7 14 -1 19 -4 13 -7 -7 -2 -13 -12 -13 -21 0 -13
-2 -14 -8 -4 -9 13 -72 20 -90 8 -5 -3 -13 0 -16 6 -3 9 -9 7 -20 -6 -9 -11
-16 -15 -16 -9 0 8 -9 7 -27 -3 -22 -11 -30 -11 -38 -1 -12 14 -45 19 -45 5 0
-5 -4 -7 -10 -3 -5 3 -25 -1 -45 -9 -19 -8 -35 -12 -35 -8 0 3 -5 1 -12 -6 -7
-7 -25 -12 -40 -12 -15 0 -28 -4 -28 -10 0 -5 -6 -7 -14 -4 -9 4 -15 -4 -18
-25 -2 -16 -1 -28 4 -25 4 3 8 1 8 -4 0 -17 149 1 161 19 4 6 40 18 80 25 122
22 131 24 152 39 13 9 26 11 37 5 19 -10 92 -5 154 11 22 6 52 11 66 11 19 -1
26 5 27 19 1 10 -2 19 -8 19 -14 0 -11 20 4 20 6 0 20 7 31 15 17 13 17 14 -5
12 -13 0 -27 -6 -31 -12 -5 -6 -8 -3 -8 8 0 10 7 17 18 17 28 0 34 11 15 32
-19 21 -34 23 -51 6z m29 -26 c-19 -3 -22 -9 -19 -45 3 -40 1 -43 -32 -54 -19
-7 -56 -16 -81 -19 -45 -6 -47 -5 -57 25 -9 25 -8 32 5 40 10 5 14 15 9 26 -5
15 -1 16 44 10 34 -5 50 -3 50 4 0 6 8 11 18 11 10 0 27 6 38 14 14 11 22 12
33 3 12 -10 11 -13 -8 -15z m-286 -125 c-24 -16 -92 -33 -163 -43 -30 -4 -60
-13 -67 -21 -19 -18 -146 -23 -152 -5 -3 6 2 12 11 12 9 0 16 5 16 10 0 6 11
10 24 10 14 0 37 5 53 11 45 18 107 28 118 19 11 -9 95 -1 95 9 0 3 19 7 42 8
38 3 40 1 23 -10z"/>
<path d="M2775 1490 c-3 -6 1 -7 9 -4 18 7 21 14 7 14 -6 0 -13 -4 -16 -10z"/>
<path d="M3595 1480 c-4 -6 6 -10 22 -10 22 0 25 2 13 10 -19 12 -27 12 -35 0z"/>
<path d="M68 1443 c6 -2 18 -2 25 0 6 3 1 5 -13 5 -14 0 -19 -2 -12 -5z"/>
<path d="M679 1286 c-2 -3 -40 -8 -84 -11 -44 -4 -87 -11 -97 -16 -22 -12 -31
-11 -23 1 4 6 -5 5 -22 -1 -15 -7 -41 -11 -58 -11 -16 0 -24 -2 -17 -4 6 -3
12 -10 12 -15 0 -6 -7 -6 -18 0 -11 6 -28 5 -49 -4 -17 -7 -56 -16 -85 -20
-29 -4 -62 -8 -73 -11 -11 -2 -36 -6 -55 -9 -60 -9 -65 -10 -77 -18 -14 -9 3
-57 20 -57 5 0 4 -6 -3 -14 -6 -8 -17 -13 -25 -10 -7 3 -16 1 -20 -5 -4 -7 5
-11 23 -11 22 0 32 6 37 23 6 18 8 19 12 5 4 -15 -22 -68 -30 -61 -4 4 -47 -9
-47 -15 0 -9 35 -31 49 -32 11 0 9 4 -5 16 -17 14 -17 15 -1 10 10 -3 25 -6
33 -6 25 0 15 -29 -17 -45 -17 -9 -29 -19 -26 -21 11 -11 73 -8 95 4 12 7 35
15 50 17 15 1 45 6 66 10 28 6 37 5 32 -4 -4 -6 -2 -9 7 -5 8 3 18 -3 22 -13
7 -17 8 -17 15 2 7 17 9 17 9 3 1 -10 5 -18 10 -18 5 0 11 -9 14 -20 4 -15 0
-20 -13 -20 -10 0 -21 -7 -24 -16 -9 -23 4 -66 18 -61 7 3 22 -6 35 -19 13
-13 27 -21 32 -18 5 3 6 -2 3 -10 -5 -12 0 -16 19 -16 13 0 39 -3 56 -6 24 -5
31 -3 31 10 0 15 15 20 53 17 9 -1 20 5 23 14 5 12 9 13 20 4 12 -9 13 -9 9 3
-5 12 4 18 32 26 l38 10 -32 1 c-22 1 -39 10 -57 32 -14 17 -26 28 -26 25 0
-3 -14 0 -32 6 -27 10 -29 13 -15 23 15 11 15 13 -1 28 -15 16 -15 17 1 17 23
0 22 12 -3 28 -12 7 -20 8 -20 2 0 -5 -7 -10 -15 -10 -8 0 -15 -3 -15 -7 0 -5
-22 -9 -50 -11 -42 -3 -49 0 -44 13 12 31 63 75 100 87 28 9 40 19 42 36 2 13
8 20 14 16 7 -5 9 -2 5 8 -3 10 0 15 11 14 10 0 16 5 14 13 -2 9 4 12 18 8 11
-3 20 -1 20 3 0 5 19 11 43 15 23 4 47 12 54 17 7 5 17 7 22 4 15 -10 23 12
12 32 -7 13 -7 22 1 30 9 9 8 12 -4 12 -9 0 -23 2 -30 5 -8 3 -16 4 -19 1z
m31 -25 c0 -5 2 -15 5 -23 6 -16 -29 -32 -107 -49 -32 -7 -58 -16 -58 -21 0
-4 -7 -8 -15 -8 -8 0 -18 -14 -23 -32 -6 -26 -16 -36 -46 -46 -36 -12 -88 -56
-99 -85 -4 -11 -29 -14 -99 -14 -65 0 -105 -5 -135 -18 -50 -20 -82 -15 -35 6
42 18 41 36 -3 45 -35 6 -35 7 -20 30 22 34 20 74 -4 74 -17 0 -37 27 -28 37
8 7 283 55 320 55 20 0 37 4 37 8 0 8 36 20 80 26 14 2 52 8 85 12 84 13 145
14 145 3z m-208 -298 c0 -10 0 -28 -1 -39 -1 -16 7 -25 31 -33 18 -6 42 -21
55 -33 l22 -21 -21 -22 c-12 -13 -27 -21 -34 -18 -6 2 -28 -3 -49 -11 -48 -20
-85 -21 -85 -1 0 8 -7 15 -15 15 -8 0 -23 9 -32 20 -10 11 -23 20 -29 20 -7 0
-14 6 -17 13 -7 20 4 37 25 37 17 0 19 5 14 25 -6 22 -3 25 19 25 14 0 25 5
25 10 0 6 16 10 35 10 19 0 35 5 35 10 0 18 20 11 22 -7z m-142 -3 c0 -5 -2
-10 -4 -10 -3 0 -8 5 -11 10 -3 6 -1 10 4 10 6 0 11 -4 11 -10z"/>
<path d="M250 1105 c0 -9 9 -15 25 -15 16 0 25 6 25 15 0 9 -9 15 -25 15 -16
0 -25 -6 -25 -15z m37 -1 c-3 -3 -12 -4 -19 -1 -8 3 -5 6 6 6 11 1 17 -2 13
-5z"/>
<path d="M180 1005 c0 -9 9 -15 25 -15 16 0 25 6 25 15 0 9 -9 15 -25 15 -16
0 -25 -6 -25 -15z m37 -1 c-3 -3 -12 -4 -19 -1 -8 3 -5 6 6 6 11 1 17 -2 13
-5z"/>
<path d="M520 865 c0 -8 7 -15 15 -15 8 0 15 7 15 15 0 8 -7 15 -15 15 -8 0
-15 -7 -15 -15z"/>
<path d="M2440 1103 c0 -10 4 -11 19 -3 14 7 21 6 24 -3 4 -7 6 -6 6 4 1 11
-7 17 -24 17 -15 0 -25 -6 -25 -15z"/>
<path d="M3563 1089 c-6 -6 -45 -12 -87 -12 -63 -1 -76 -3 -76 -17 0 -9 9 -17
23 -18 50 -4 91 -1 111 10 12 7 32 13 46 14 14 1 26 3 28 4 4 4 21 7 47 9 14
0 25 6 25 11 0 14 -103 13 -117 -1z m-46 -31 c-16 -10 -77 -10 -77 0 0 4 20 7
44 7 24 0 39 -3 33 -7z"/>
<path d="M6360 1091 c0 -11 26 -22 34 -14 12 12 5 23 -14 23 -11 0 -20 -4 -20
-9z"/>
<path d="M6301 1044 c0 -11 3 -14 6 -6 3 7 2 16 -1 19 -3 4 -6 -2 -5 -13z"/>
<path d="M6326 1043 c-5 -11 -1 -13 15 -8 14 5 19 3 15 -3 -3 -6 4 -5 19 1 34
16 31 23 -9 24 -22 1 -37 -4 -40 -14z"/>
<path d="M6256 1040 c-16 -5 -34 -6 -39 -3 -6 3 -7 1 -3 -5 3 -5 1 -12 -6 -14
-8 -3 -8 -7 -2 -11 6 -3 21 0 35 7 13 7 30 11 37 8 6 -2 12 3 12 12 0 9 -1 16
-2 15 -2 0 -16 -5 -32 -9z"/>
<path d="M2375 1018 c-14 -17 -12 -18 18 -18 39 1 90 26 67 34 -27 9 -70 1
-85 -16z m42 -4 c-3 -3 -12 -4 -19 -1 -8 3 -5 6 6 6 11 1 17 -2 13 -5z"/>
<path d="M6379 1013 c-1 -5 0 -12 1 -18 1 -5 -2 -7 -6 -3 -4 4 -13 3 -21 -3
-7 -6 -22 -9 -34 -6 -13 3 -19 1 -16 -6 2 -7 18 -12 35 -12 22 1 34 -5 38 -17
3 -10 10 -18 15 -18 13 0 11 17 -3 24 -10 5 -10 7 0 12 14 7 16 54 2 54 -5 0
-11 -3 -11 -7z"/>
<path d="M5922 982 c2 -13 18 -17 73 -19 53 -3 66 -1 52 7 -9 6 -22 8 -27 5
-5 -3 -20 0 -32 6 -37 20 -70 21 -66 1z"/>
<path d="M5882 971 c-7 -4 -24 -6 -38 -3 -17 3 -24 0 -24 -12 0 -10 -6 -13
-17 -9 -15 5 -16 3 -6 -7 7 -7 26 -13 42 -13 19 0 27 -5 24 -12 -2 -8 8 -14
26 -17 17 -3 31 -3 31 -1 0 2 -11 16 -25 31 -20 21 -22 28 -10 30 8 2 15 8 15
13 0 11 -1 11 -18 0z"/>
<path d="M6180 970 c0 -5 5 -10 11 -10 5 0 7 5 4 10 -3 6 -8 10 -11 10 -2 0
-4 -4 -4 -10z"/>
<path d="M6118 963 c-29 -3 -36 -8 -35 -23 1 -14 4 -16 14 -8 9 7 13 7 13 0 0
-5 10 -8 21 -5 14 4 26 0 35 -11 14 -20 27 -6 18 19 -4 9 -13 14 -21 10 -11
-3 -13 -1 -9 10 3 8 4 14 3 13 -1 -1 -19 -3 -39 -5z"/>
<path d="M5666 951 c-3 -5 0 -11 7 -13 17 -7 38 2 31 13 -7 12 -31 12 -38 0z"/>
<path d="M2383 935 c0 -12 7 -15 22 -13 11 3 26 -1 32 -8 14 -14 5 -27 -11
-17 -18 11 -80 2 -98 -14 -9 -8 -22 -12 -28 -8 -9 6 -9 2 0 -15 6 -12 14 -19
17 -16 4 3 11 2 17 -3 36 -28 143 -12 114 17 -14 14 -7 23 20 25 11 0 20 4 19
7 -1 3 4 14 10 25 10 19 8 20 -30 21 -23 1 -51 4 -63 8 -15 6 -21 3 -21 -9z
m97 -19 c0 -3 -4 -8 -10 -11 -5 -3 -10 -1 -10 4 0 6 5 11 10 11 6 0 10 -2 10
-4z m-54 -41 c10 -24 -13 -43 -44 -37 -39 7 -55 21 -41 38 16 19 78 18 85 -1z"/>
<path d="M6194 915 c1 -22 5 -31 14 -28 6 3 12 1 12 -4 0 -5 15 -7 32 -5 27 4
30 6 13 12 -11 4 -20 15 -20 25 0 11 -10 21 -26 25 -23 7 -25 5 -25 -25z m33
-7 c-3 -8 -6 -5 -6 6 -1 11 2 17 5 13 3 -3 4 -12 1 -19z"/>
<path d="M3470 928 c-84 -9 -108 -15 -67 -18 31 -3 36 -4 58 -14 22 -10 97 0
115 14 32 28 12 31 -106 18z m51 -20 c-30 -7 -47 -6 -54 1 -8 8 4 11 44 10
l54 -1 -44 -10z"/>
<path d="M5973 921 c-17 -11 -34 -18 -37 -15 -3 2 -2 -2 4 -8 8 -9 13 -9 22 0
8 8 15 9 25 1 10 -9 13 -8 13 5 0 10 9 16 25 16 14 0 25 5 25 10 0 16 -43 11
-77 -9z"/>
<path d="M6310 930 c0 -5 7 -10 15 -10 8 0 15 5 15 10 0 6 -7 10 -15 10 -8 0
-15 -4 -15 -10z"/>
<path d="M5670 921 l-25 -7 25 -7 c39 -10 50 -8 44 8 -7 16 -7 16 -44 6z"/>
<path d="M5578 909 c-7 -4 -3 -11 10 -18 27 -14 29 -14 34 7 5 18 -21 25 -44
11z"/>
<path d="M5770 916 c0 -2 9 -6 20 -9 11 -3 20 -1 20 4 0 5 -9 9 -20 9 -11 0
-20 -2 -20 -4z"/>
<path d="M5542 898 c2 -6 10 -14 16 -16 7 -2 10 2 6 12 -7 18 -28 22 -22 4z"/>
<path d="M5836 903 c-2 -3 -2 -11 1 -19 5 -15 39 -19 47 -6 5 8 -40 32 -48 25z"/>
<path d="M5480 890 c-9 -6 -10 -10 -3 -10 6 0 15 5 18 10 8 12 4 12 -15 0z"/>
<path d="M5673 856 c3 -8 1 -17 -6 -20 -7 -2 -4 -5 6 -5 22 -1 22 -10 0 -27
-12 -8 -22 -9 -29 -3 -8 6 -14 4 -18 -6 -8 -21 23 -19 52 3 20 15 22 22 13 45
-6 15 -13 27 -17 27 -3 0 -4 -6 -1 -14z"/>
<path d="M5904 863 c11 -11 45 -13 51 -3 4 6 -7 10 -26 10 -18 0 -29 -3 -25
-7z"/>
<path d="M5527 853 c-30 -8 -13 -28 24 -27 33 1 39 4 39 24 0 10 -30 12 -63 3z
m50 -9 c-3 -3 -12 -4 -19 -1 -8 3 -5 6 6 6 11 1 17 -2 13 -5z"/>
<path d="M5700 851 c0 -16 93 -23 125 -10 30 13 30 13 5 17 -13 2 -26 -1 -28
-7 -5 -14 -39 -14 -47 -1 -8 12 -55 13 -55 1z"/>
<path d="M6106 846 c5 -13 1 -23 -12 -33 -18 -14 -18 -14 6 -11 19 2 24 8 22
23 -2 11 -8 25 -13 30 -7 7 -8 3 -3 -9z"/>
<path d="M5960 843 c-8 -2 -22 -7 -30 -10 -8 -4 -18 -5 -22 -5 -5 1 -8 0 -8
-3 0 -8 51 -28 79 -31 13 -2 27 -7 30 -13 4 -5 14 -3 26 6 14 11 16 17 7 20
-6 3 -10 10 -6 16 3 7 -1 4 -9 -5 -8 -10 -17 -15 -20 -11 -4 3 -2 12 4 20 8 8
8 13 1 13 -6 0 -16 2 -24 4 -7 3 -20 2 -28 -1z m30 -23 c0 -5 -9 -10 -19 -10
-11 0 -23 5 -26 10 -4 6 5 10 19 10 14 0 26 -4 26 -10z"/>
<path d="M2145 830 c3 -5 8 -10 11 -10 2 0 4 5 4 10 0 6 -5 10 -11 10 -5 0 -7
-4 -4 -10z"/>
<path d="M5310 831 c0 -10 58 -12 64 -2 3 4 -11 8 -30 8 -19 1 -34 -2 -34 -6z"/>
<path d="M5408 833 c7 -3 16 -2 19 1 4 3 -2 6 -13 5 -11 0 -14 -3 -6 -6z"/>
<path d="M5850 830 c0 -5 7 -10 16 -10 8 0 12 5 9 10 -3 6 -10 10 -16 10 -5 0
-9 -4 -9 -10z"/>
<path d="M6220 832 c0 -10 66 -9 76 1 4 4 -11 7 -34 7 -23 0 -42 -4 -42 -8z"/>
<path d="M6177 793 c4 -11 2 -14 -5 -9 -8 4 -10 2 -6 -8 3 -8 12 -12 20 -9 8
3 14 -1 14 -11 0 -9 -8 -16 -20 -16 -11 0 -20 -4 -20 -8 0 -5 -12 -15 -27 -22
-17 -8 -23 -14 -15 -17 19 -7 64 6 57 17 -3 5 11 6 32 3 37 -6 38 -6 21 14
-24 26 -23 33 7 33 48 0 22 41 -28 46 -30 2 -35 0 -30 -13z m43 -13 c0 -5 -7
-7 -15 -4 -8 4 -15 8 -15 10 0 2 7 4 15 4 8 0 15 -4 15 -10z"/>
<path d="M5048 792 c-10 -2 -18 -11 -18 -21 0 -18 -49 -41 -88 -41 -12 0 -22
-5 -22 -10 0 -19 28 -22 53 -5 14 9 29 15 33 14 32 -5 46 2 41 22 -4 15 -2 19
8 15 8 -3 16 -2 19 2 8 13 -8 28 -26 24z"/>
<path d="M5155 790 c3 -5 8 -10 11 -10 2 0 4 5 4 10 0 6 -5 10 -11 10 -5 0 -7
-4 -4 -10z"/>
<path d="M5325 790 c-11 -5 -15 -9 -10 -10 6 -1 21 -3 33 -6 15 -3 22 0 20 8
-6 16 -19 18 -43 8z"/>
<path d="M5500 785 c-20 -24 3 -40 55 -36 l20 2 -20 11 c-11 6 -25 18 -31 26
-8 12 -12 11 -24 -3z"/>
<path d="M5545 790 c-3 -5 -1 -10 4 -10 6 0 11 5 11 10 0 6 -2 10 -4 10 -3 0
-8 -4 -11 -10z"/>
<path d="M2157 769 c4 -15 2 -18 -11 -13 -12 5 -15 2 -10 -10 3 -9 12 -16 20
-16 8 0 14 -4 14 -10 0 -5 8 -10 18 -10 13 0 14 2 3 9 -22 14 -4 33 19 21 15
-8 18 -7 14 2 -2 7 -20 21 -38 30 -33 16 -34 16 -29 -3z"/>
<path d="M5585 780 c-3 -5 -2 -10 4 -10 5 0 13 5 16 10 3 6 2 10 -4 10 -5 0
-13 -4 -16 -10z"/>
<path d="M6051 777 c-9 -12 -7 -16 9 -20 21 -5 25 0 11 21 -6 10 -10 10 -20
-1z"/>
<path d="M6080 781 c0 -5 5 -13 10 -16 6 -3 10 -2 10 4 0 5 -4 13 -10 16 -5 3
-10 2 -10 -4z"/>
<path d="M5225 770 c3 -5 8 -10 11 -10 2 0 4 5 4 10 0 6 -5 10 -11 10 -5 0 -7
-4 -4 -10z"/>
<path d="M5380 770 c0 -5 5 -10 10 -10 6 0 10 5 10 10 0 6 -4 10 -10 10 -5 0
-10 -4 -10 -10z"/>
<path d="M5415 770 c3 -5 8 -10 11 -10 2 0 4 5 4 10 0 6 -5 10 -11 10 -5 0 -7
-4 -4 -10z"/>
<path d="M4926 761 c-4 -5 1 -8 9 -7 21 3 31 16 12 16 -9 0 -18 -4 -21 -9z"/>
<path d="M5332 748 c-17 -17 -15 -24 8 -24 11 0 20 4 20 8 0 4 10 4 23 1 12
-3 32 -6 44 -7 12 0 25 -4 29 -8 4 -5 12 -8 18 -8 26 0 -26 33 -56 35 -18 1
-42 5 -53 8 -12 4 -26 2 -33 -5z"/>
<path d="M5203 722 c-13 -2 -23 -8 -23 -13 0 -14 38 -11 43 4 4 10 6 10 6 0 1
-15 21 -18 21 -4 0 12 -20 18 -47 13z"/>
<path d="M381 692 c-18 -20 -27 -23 -54 -17 -18 3 -37 8 -44 9 -7 1 -15 5 -18
8 -3 3 -20 3 -38 1 -18 -3 -36 -4 -42 -4 -5 1 -32 3 -60 4 -27 1 -55 5 -61 9
-5 4 -21 1 -35 -5 l-24 -13 -3 -292 c-2 -215 1 -291 9 -290 6 2 14 -3 16 -10
3 -7 -1 -11 -9 -10 -9 2 -14 -10 -16 -40 l-3 -42 95 0 c77 0 94 3 90 14 -3 7
6 23 20 34 14 11 26 25 26 31 0 6 5 11 10 11 21 0 8 16 -22 28 -28 10 -35 10
-44 -3 -9 -13 -13 -13 -17 -3 -4 9 -6 7 -6 -4 -1 -11 -6 -15 -16 -12 -8 4 -15
2 -15 -3 0 -5 -18 -9 -41 -10 -27 -1 -39 2 -36 10 2 7 17 11 35 9 18 -2 32 1
32 7 0 6 -10 11 -22 11 -21 1 -21 2 -5 11 10 6 25 8 32 5 8 -3 18 2 23 11 7
11 20 14 51 10 23 -2 44 -1 47 4 2 4 12 5 21 2 12 -5 14 -3 8 7 -6 10 -3 12
13 8 13 -4 23 0 26 8 3 8 12 14 21 14 8 0 15 7 15 16 0 11 5 14 17 10 16 -6
16 -6 0 12 -19 21 -23 37 -7 27 13 -8 42 14 34 26 -3 5 2 9 10 9 9 0 16 5 16
10 0 6 9 10 19 10 22 0 36 26 18 33 -7 3 0 8 16 12 15 4 27 13 27 21 0 8 4 14
10 14 5 0 7 7 4 15 -4 10 0 13 15 10 12 -2 21 1 21 6 0 6 14 15 30 20 34 12
39 29 10 36 -33 9 4 36 41 31 22 -3 33 0 39 13 6 10 27 20 50 24 40 7 56 25
22 25 -32 0 -43 20 -25 46 16 25 6 32 -16 12 -11 -11 -12 -10 -6 1 6 11 2 12
-21 6 -34 -9 -76 -8 -83 3 -6 7 -24 10 -83 13 -20 1 -35 6 -33 9 3 4 -5 10
-18 14 -17 5 -19 8 -9 15 10 6 8 10 -11 13 -17 3 -30 -3 -46 -20z m53 -17 c16
-17 34 -25 57 -25 54 0 78 -10 81 -33 4 -25 38 -37 38 -13 0 9 3 16 8 16 4 0
17 3 28 6 17 5 25 -1 38 -27 20 -40 20 -39 -4 -39 -11 0 -23 -7 -26 -15 -4 -9
-19 -15 -41 -15 -49 0 -88 -44 -45 -52 13 -3 8 -8 -17 -21 -19 -9 -40 -17 -47
-17 -7 0 -15 -13 -19 -29 -4 -20 -14 -31 -32 -36 -19 -4 -24 -11 -20 -25 4
-15 0 -20 -14 -20 -10 0 -19 -4 -19 -10 0 -5 -7 -10 -15 -10 -8 0 -15 -7 -15
-15 0 -8 -9 -15 -20 -15 -16 0 -20 -7 -20 -34 0 -23 -5 -35 -17 -39 -10 -4
-36 -13 -58 -21 -22 -9 -59 -16 -82 -16 -24 0 -43 -4 -43 -10 0 -5 -11 -10
-23 -10 -13 0 -34 -9 -46 -19 -47 -41 -51 -25 -51 190 0 170 2 199 15 199 8 0
15 7 15 15 0 8 -7 15 -15 15 -19 0 -22 113 -2 127 6 5 39 8 72 6 33 -2 85 -5
115 -6 30 -2 78 -7 106 -11 45 -7 54 -6 70 12 24 26 21 26 48 -3z m166 -65 c0
-5 -2 -10 -4 -10 -3 0 -8 5 -11 10 -3 6 -1 10 4 10 6 0 11 -4 11 -10z m-384
-515 c4 -9 -4 -23 -20 -36 -14 -11 -26 -27 -26 -35 0 -11 -17 -14 -80 -14
l-80 0 0 30 c0 30 1 30 54 30 56 0 116 16 116 31 0 15 30 10 36 -6z"/>
<path d="M4270 711 c0 -5 9 -7 20 -4 11 3 20 7 20 9 0 2 -9 4 -20 4 -11 0 -20
-4 -20 -9z"/>
<path d="M4050 690 c0 -6 5 -10 11 -10 5 0 7 -5 3 -12 -5 -7 -2 -9 9 -5 25 9
10 -19 -16 -31 l-22 -10 25 -10 c17 -6 29 -6 38 0 6 6 12 7 12 3 0 -4 6 -3 13
2 6 6 19 10 27 11 8 0 31 3 50 5 19 3 39 6 43 6 5 1 5 6 2 11 -3 6 -21 10 -40
10 -18 0 -35 5 -37 12 -2 6 -13 13 -24 15 -64 10 -94 11 -94 3z m110 -32 c0
-5 8 -9 18 -9 9 -1 -1 -5 -23 -8 -22 -4 -51 -11 -65 -15 -23 -8 -23 -8 -6 9
10 10 16 25 13 35 -4 14 0 15 29 6 19 -6 34 -14 34 -18z"/>
<path d="M5040 680 c-7 -4 -19 -6 -27 -3 -8 3 -13 -2 -13 -12 0 -12 6 -16 20
-12 10 3 20 1 22 -4 2 -6 18 -12 37 -14 18 -2 44 -11 57 -19 12 -9 24 -11 26
-6 2 5 17 12 33 14 101 13 74 60 -28 49 -32 -4 -52 -1 -64 8 -11 9 -14 10 -9
2 9 -15 1 -16 -23 -4 -9 5 -23 6 -31 1z m188 -20 c27 0 1 -18 -35 -24 -36 -5
-143 12 -143 24 0 3 37 4 82 3 46 -1 89 -2 96 -3z"/>
<path d="M5427 680 c13 -13 56 -23 49 -12 -3 5 -17 12 -32 15 -14 2 -22 1 -17
-3z"/>
<path d="M2153 655 c0 -14 5 -25 12 -25 6 0 17 -11 23 -25 6 -14 8 -24 4 -24
-4 1 -18 0 -32 -1 -18 -2 -20 -4 -7 -7 9 -2 17 -11 17 -19 0 -17 8 -17 40 1
30 17 40 18 40 5 0 -6 -5 -9 -11 -8 -6 2 -14 -3 -16 -9 -3 -7 2 -13 11 -13 9
0 16 -6 16 -14 0 -17 34 -11 50 9 17 20 1 47 -24 39 -21 -6 -20 -6 2 19 15 16
20 27 13 32 -6 3 -11 -2 -12 -12 0 -10 -3 -13 -5 -6 -3 7 -12 9 -21 6 -8 -3
-19 0 -24 8 -13 21 -11 29 9 29 15 1 15 2 -3 16 -11 8 -25 12 -32 10 -7 -3
-15 -1 -18 4 -12 19 -32 10 -32 -15z m57 -11 c0 -2 -9 -4 -20 -4 -11 0 -20 4
-20 9 0 5 9 7 20 4 11 -3 20 -7 20 -9z m10 -43 c0 -5 10 -11 23 -13 20 -3 20
-4 -5 -9 -20 -5 -28 -2 -31 13 -3 10 -1 18 4 18 5 0 9 -4 9 -9z m68 -63 c-6
-18 -28 -21 -28 -4 0 9 7 16 16 16 9 0 14 -5 12 -12z"/>
<path d="M6240 656 c0 -9 -7 -12 -20 -9 -25 7 -26 -5 -2 -23 10 -8 12 -13 5
-14 -20 0 -15 -20 5 -20 14 0 15 -2 2 -10 -12 -8 -11 -10 8 -10 16 0 22 -6 22
-21 0 -18 -2 -19 -15 -9 -12 10 -15 10 -15 -4 0 -10 8 -16 24 -16 19 0 22 4
18 25 -4 21 -1 24 13 19 14 -6 16 -4 7 12 -12 22 -12 24 -12 64 0 23 -4 30
-20 30 -11 0 -20 -6 -20 -14z m30 -11 c0 -8 -4 -15 -10 -15 -5 0 -10 7 -10 15
0 8 5 15 10 15 6 0 10 -7 10 -15z m0 -55 c0 -5 -4 -10 -10 -10 -5 0 -10 5 -10
10 0 6 5 10 10 10 6 0 10 -4 10 -10z"/>
<path d="M4940 650 c0 -5 5 -10 10 -10 6 0 10 5 10 10 0 6 -4 10 -10 10 -5 0
-10 -4 -10 -10z"/>
<path d="M5385 643 c-18 -18 -20 -27 -2 -16 6 4 21 9 31 10 28 5 30 10 6 16
-11 3 -27 -1 -35 -10z"/>
<path d="M5520 650 c0 -5 -7 -7 -15 -4 -9 4 -15 0 -15 -10 0 -9 7 -16 15 -16
8 0 15 -4 15 -10 0 -5 5 -10 10 -10 6 0 10 14 10 30 0 17 -4 30 -10 30 -5 0
-10 -4 -10 -10z"/>
<path d="M4975 640 c3 -5 8 -10 11 -10 2 0 4 5 4 10 0 6 -5 10 -11 10 -5 0 -7
-4 -4 -10z"/>
<path d="M5466 633 c-6 -14 -5 -15 5 -6 7 7 10 15 7 18 -3 3 -9 -2 -12 -12z"/>
<path d="M5558 643 c7 -3 16 -2 19 1 4 3 -2 6 -13 5 -11 0 -14 -3 -6 -6z"/>
<path d="M6167 630 c10 -11 21 -20 26 -20 5 0 4 6 -2 13 -6 8 -8 17 -4 20 3 4
-3 7 -15 7 -21 0 -21 -1 -5 -20z"/>
<path d="M5280 619 c0 -5 5 -7 10 -4 6 3 10 8 10 11 0 2 -4 4 -10 4 -5 0 -10
-5 -10 -11z"/>
<path d="M5340 619 c0 -6 -7 -9 -15 -5 -8 3 -15 1 -15 -4 0 -6 -11 -10 -25
-10 -14 0 -25 5 -25 12 0 6 -6 3 -14 -8 -8 -10 -18 -16 -22 -12 -4 4 -16 -2
-27 -15 l-19 -22 7 23 c6 21 5 23 -13 13 -14 -7 -23 -8 -27 -1 -7 11 -88 12
-125 0 l-25 -7 31 -14 c17 -8 29 -19 27 -26 -3 -7 3 -11 15 -8 28 5 46 -10 39
-35 -4 -16 0 -23 19 -31 14 -5 22 -14 19 -19 -3 -6 2 -13 12 -17 20 -7 63 -51
63 -65 0 -4 7 -8 16 -8 8 0 12 -4 9 -10 -3 -5 1 -10 9 -10 9 0 16 8 17 18 0 9
3 12 5 6 8 -18 69 -1 68 19 -1 9 2 15 6 12 16 -10 22 16 8 32 -7 9 -8 14 -2
10 22 -13 62 17 74 56 9 30 17 39 41 44 20 4 26 9 18 13 -7 5 -19 5 -28 2 -13
-5 -14 -3 -3 10 11 13 9 16 -13 20 -27 6 -32 -1 -13 -20 17 -17 -4 -15 -28 3
-10 8 -26 15 -35 15 -12 0 -15 7 -11 25 2 15 0 25 -7 25 -6 0 -11 -5 -11 -11z
m-4 -54 c-6 -28 -4 -35 9 -35 9 0 19 9 23 19 6 17 9 18 26 6 17 -13 17 -15 3
-21 -25 -9 -21 -34 6 -35 15 -1 17 -3 6 -6 -10 -2 -19 -13 -22 -24 -8 -29 -77
-23 -77 7 0 8 -7 14 -15 14 -8 0 -15 -6 -15 -14 0 -9 -14 -16 -37 -19 -21 -3
-48 -8 -60 -12 -18 -6 -23 -3 -23 10 0 9 -9 19 -20 22 -14 4 -20 14 -20 33 0
24 5 28 40 34 22 3 40 11 40 16 0 5 7 7 16 3 10 -4 20 0 26 10 12 23 28 21 28
-3 0 -11 7 -20 15 -20 8 0 15 9 15 19 0 18 12 28 34 30 4 1 5 -15 2 -34z
m-246 18 c0 -14 -20 -39 -20 -25 0 6 -7 12 -16 12 -8 0 -12 5 -9 10 7 12 45
14 45 3z m49 -8 c32 0 19 -21 -14 -22 -32 -1 -34 1 -24 20 6 11 14 16 18 11 3
-5 12 -9 20 -9z m281 -55 c0 -5 -8 -10 -17 -10 -15 0 -16 2 -3 10 19 12 20 12
20 0z m-133 -86 c2 -7 -28 -9 -82 -5 -5 1 -3 6 5 11 18 12 72 8 77 -6z m56
-21 c-7 -3 -13 -13 -13 -24 0 -23 -38 -27 -46 -5 -9 23 17 43 45 38 15 -3 20
-7 14 -9z m-83 -3 c-8 -5 -22 -10 -30 -10 -13 0 -13 1 0 10 8 5 22 10 30 10
13 0 13 -1 0 -10z"/>
<path d="M5160 515 c0 -8 5 -15 10 -15 6 0 10 -7 10 -15 0 -8 7 -15 15 -15 8
0 15 7 15 15 0 8 -4 15 -10 15 -5 0 -10 7 -10 15 0 8 -7 15 -15 15 -8 0 -15
-7 -15 -15z"/>
<path d="M5270 515 c0 -8 7 -15 15 -15 8 0 15 7 15 15 0 8 -7 15 -15 15 -8 0
-15 -7 -15 -15z"/>
<path d="M5375 600 c-3 -5 -1 -10 4 -10 6 0 11 5 11 10 0 6 -2 10 -4 10 -3 0
-8 -4 -11 -10z"/>
<path d="M4107 594 c-3 -3 -23 -6 -44 -6 -21 0 -46 -4 -55 -9 -10 -6 -19 -5
-23 1 -9 14 -27 12 -22 -2 2 -7 21 -14 43 -15 21 -1 56 -2 78 -3 23 -1 42 3
47 11 12 20 -7 40 -24 23z m6 -21 c-7 -2 -19 -2 -25 0 -7 3 -2 5 12 5 14 0 19
-2 13 -5z"/>
<path d="M5496 571 c-4 -5 1 -8 9 -7 21 3 31 16 12 16 -9 0 -18 -4 -21 -9z"/>
<path d="M5548 573 c7 -3 16 -2 19 1 4 3 -2 6 -13 5 -11 0 -14 -3 -6 -6z"/>
<path d="M2195 510 c3 -5 8 -10 11 -10 2 0 4 5 4 10 0 6 -5 10 -11 10 -5 0 -7
-4 -4 -10z"/>
<path d="M2468 493 c6 -2 9 -10 6 -15 -4 -7 -2 -8 5 -4 13 9 5 26 -12 25 -9 0
-8 -2 1 -6z"/>
<path d="M912 445 c-11 -12 -10 -15 3 -15 8 0 15 7 15 15 0 18 -2 18 -18 0z"/>
<path d="M846 441 c-14 -5 -16 -10 -7 -15 15 -9 41 -1 41 14 0 11 -7 12 -34 1z"/>
<path d="M940 440 c0 -5 5 -10 10 -10 6 0 10 5 10 10 0 6 -4 10 -10 10 -5 0
-10 -4 -10 -10z"/>
<path d="M1010 430 c0 -5 5 -10 11 -10 5 0 7 5 4 10 -3 6 -8 10 -11 10 -2 0
-4 -4 -4 -10z"/>
<path d="M1103 428 c-2 -5 -1 -8 2 -8 4 0 -1 -7 -9 -16 -11 -11 -25 -14 -46
-9 -17 4 -30 3 -30 -2 0 -5 -9 -9 -20 -9 -11 0 -20 3 -20 7 0 4 -8 6 -17 4
-10 -1 -26 2 -37 7 -12 7 -22 6 -29 -1 -8 -8 -6 -11 6 -11 9 0 17 -4 17 -10 0
-10 -50 -8 -68 4 -7 4 -30 9 -52 12 -30 4 -40 1 -40 -10 0 -7 -6 -13 -12 -12
-7 0 -13 -3 -13 -9 0 -5 6 -8 15 -7 11 3 12 1 4 -7 -7 -8 -19 -9 -34 -3 -15 6
-19 11 -12 16 14 9 16 26 3 26 -5 0 -12 -8 -16 -19 -4 -12 -13 -17 -30 -15
-14 1 -25 -2 -25 -7 0 -5 5 -9 10 -9 6 0 10 -4 10 -10 0 -5 -7 -10 -15 -10 -8
0 -15 -7 -15 -15 0 -8 -9 -19 -20 -25 -17 -9 -19 -14 -8 -33 6 -12 11 -23 10
-24 -1 -2 -2 -9 -2 -15 0 -9 4 -8 11 2 8 12 9 10 4 -7 -8 -29 2 -29 26 0 17
20 18 20 12 2 -3 -11 -11 -23 -17 -27 -15 -10 -84 -10 -90 0 -3 4 8 7 25 6 16
-1 29 2 29 7 0 5 -5 9 -11 9 -5 0 -8 4 -4 9 7 12 -32 34 -45 26 -5 -3 -13 2
-18 11 -6 11 -11 13 -16 5 -4 -6 -1 -11 6 -11 8 -1 7 -5 -5 -14 -10 -8 -16
-20 -15 -27 2 -9 -8 -15 -25 -17 -24 -3 -27 -7 -21 -25 5 -17 3 -19 -6 -11
-15 15 -9 49 9 49 8 0 16 6 19 13 3 9 -4 11 -25 6 -36 -9 -53 -22 -53 -43 0
-13 2 -13 9 -3 6 10 11 5 20 -19 14 -39 14 -42 1 -34 -5 3 -10 -3 -10 -14 0
-22 -16 -29 -22 -9 -4 12 -58 19 -58 7 0 -4 -9 -9 -21 -12 -20 -5 -24 -30 -5
-27 16 3 29 -31 17 -43 -8 -8 -11 -8 -11 0 0 6 -9 9 -20 6 -39 -10 -19 -23 36
-23 41 0 60 5 69 16 8 12 18 14 35 9 17 -6 20 -9 9 -16 -8 -5 204 -9 504 -9
560 0 525 -3 518 48 -2 9 7 13 26 12 15 -1 33 -1 38 0 6 1 26 1 46 0 21 -1 40
4 44 9 3 6 10 9 14 7 4 -3 8 6 9 19 1 13 -5 26 -13 29 -29 11 -15 24 20 19 22
-3 35 0 35 7 0 6 4 9 9 5 5 -3 12 -1 16 4 5 9 -53 31 -80 31 -6 0 -16 9 -23
21 -11 18 -11 20 0 17 7 -3 19 2 26 11 12 14 12 14 8 -4 -5 -16 -1 -20 18 -21
18 -1 25 4 29 24 3 15 -1 31 -9 39 -8 8 -14 18 -14 23 0 4 -9 10 -20 13 -13 3
-21 -1 -25 -15 -5 -15 -10 -17 -21 -7 -8 6 -14 7 -14 2 0 -5 -8 -9 -17 -10
-10 0 -38 -4 -63 -8 -39 -7 -43 -6 -32 8 9 10 10 17 2 22 -6 3 -7 11 -4 17 5
7 -2 9 -20 6 -21 -4 -24 -3 -15 8 8 10 6 13 -8 12 -10 0 -26 3 -35 6 -11 5
-24 0 -37 -13 -19 -19 -21 -19 -22 -3 -1 9 -1 22 0 29 1 7 -7 9 -21 5 -22 -5
-22 -5 -6 11 9 9 25 17 35 18 15 0 15 2 -3 9 -12 5 -25 13 -29 19 -4 8 -13 7
-27 -4 -16 -11 -25 -12 -35 -3 -7 6 -13 7 -13 4 0 -4 -10 -2 -21 5 -15 8 -19
8 -15 0 4 -6 0 -11 -8 -11 -9 0 -16 3 -16 8 0 4 -16 7 -36 7 -20 0 -38 -3 -41
-7z m111 -18 c42 0 4 -12 -54 -17 -57 -4 -61 -3 -49 11 10 12 24 15 49 11 19
-2 44 -5 54 -5z m96 -5 c0 -10 -10 -15 -32 -15 l-33 1 30 14 c17 7 31 14 33
14 1 1 2 -6 2 -14z m-70 -19 c0 -2 -7 -7 -16 -10 -8 -3 -12 -2 -9 4 6 10 25
14 25 6z m-279 -15 c-20 -13 -6 -41 21 -41 13 0 33 -3 46 -6 18 -5 22 -2 22
16 0 16 4 20 16 16 9 -3 27 -9 40 -12 31 -8 31 -22 -1 -30 -14 -3 -25 -13 -25
-21 0 -13 9 -14 42 -10 24 3 44 11 46 16 2 6 16 11 32 11 38 0 60 9 60 26 0
16 -86 21 -92 5 -1 -4 -12 -5 -23 0 -19 7 -19 8 2 8 12 1 24 5 27 10 8 13 139
2 148 -12 12 -18 9 -27 -7 -27 -23 0 -18 -27 6 -33 11 -3 23 -15 26 -26 6 -23
33 -29 33 -8 0 9 3 8 9 -2 10 -16 51 -6 51 14 0 17 -51 30 -60 15 -5 -8 -9 -5
-12 8 -4 15 -1 18 13 15 10 -3 32 0 49 5 32 11 35 8 30 -32 -1 -17 4 -18 82
-11 54 5 86 12 91 21 12 21 22 17 35 -11 15 -32 15 -45 2 -45 -5 0 -10 7 -10
15 0 8 -4 15 -8 15 -17 0 -62 -25 -62 -35 1 -21 26 -43 58 -49 17 -4 32 -12
32 -18 0 -6 -8 -7 -17 -3 -10 4 -44 9 -75 12 -40 4 -58 10 -58 19 0 8 -7 14
-15 14 -8 0 -15 -9 -15 -20 0 -11 5 -20 10 -20 6 0 10 -6 10 -14 0 -16 41 -29
64 -20 8 3 24 -1 36 -9 l20 -14 -20 -18 c-19 -17 -26 -18 -68 -6 -32 8 -48 9
-50 2 -2 -6 -12 -11 -23 -11 -14 0 -19 -7 -19 -30 l0 -30 -491 0 c-423 0 -493
2 -505 15 -10 10 -11 15 -4 15 7 0 10 8 7 20 -4 16 0 20 21 20 44 0 72 11 72
28 0 12 -10 14 -55 9 -31 -3 -55 -2 -55 4 0 5 5 9 10 9 6 0 10 8 10 19 0 23
56 37 76 20 10 -8 41 -9 99 -4 75 6 85 9 85 26 0 10 -7 19 -15 19 -8 0 -15 7
-15 15 0 17 -14 19 -40 5 -14 -7 -23 -6 -34 6 -22 22 -20 33 9 40 14 3 25 10
25 15 0 5 18 9 40 9 30 0 40 4 40 16 0 11 5 14 16 10 9 -3 24 -6 35 -6 12 0
19 -7 19 -20 0 -21 24 -27 36 -9 3 6 17 8 31 4 34 -8 63 3 63 25 0 10 -10 21
-22 25 -20 6 -20 8 -5 12 9 2 17 9 17 14 0 5 10 9 23 9 16 0 19 -3 8 -9z m99
5 c0 -2 -7 -7 -16 -10 -8 -3 -12 -2 -9 4 6 10 25 14 25 6z m104 -6 c-10 -9
-37 -13 -69 -11 -14 1 -16 4 -8 9 17 11 87 12 77 2z m-304 -9 c0 -5 9 -11 21
-14 13 -4 18 -10 14 -17 -5 -9 -1 -10 14 -5 13 4 21 2 21 -5 0 -6 -4 -9 -9 -6
-5 4 -11 0 -14 -6 -3 -10 -7 -10 -20 1 -14 11 -21 11 -42 -3 -26 -17 -34 -9
-13 12 9 9 3 12 -28 13 -38 1 -38 1 -11 11 15 5 25 14 21 19 -3 5 6 9 20 9 14
0 26 -4 26 -9z m153 -6 c-3 -9 -8 -14 -10 -11 -3 3 -2 9 2 15 9 16 15 13 8 -4z
m-33 -5 c0 -5 -2 -10 -4 -10 -3 0 -8 5 -11 10 -3 6 -1 10 4 10 6 0 11 -4 11
-10z m260 -20 c-18 -12 -60 -13 -60 -2 0 4 17 9 38 10 27 2 33 0 22 -8z m174
-5 c-4 -8 -8 -15 -10 -15 -2 0 -4 7 -4 15 0 8 4 15 10 15 5 0 7 -7 4 -15z
m-684 -5 c0 -5 -8 -10 -17 -10 -15 0 -16 2 -3 10 19 12 20 12 20 0z m428 -15
c-3 -3 -9 2 -12 12 -6 14 -5 15 5 6 7 -7 10 -15 7 -18z m232 15 c0 -5 -2 -10
-4 -10 -3 0 -8 5 -11 10 -3 6 -1 10 4 10 6 0 11 -4 11 -10z m-830 -110 c0 -5
-4 -10 -9 -10 -6 0 -13 5 -16 10 -3 6 1 10 9 10 9 0 16 -4 16 -10z m160 -20
c0 -5 -12 -10 -26 -10 -14 0 -23 4 -19 10 3 6 15 10 26 10 10 0 19 -4 19 -10z
m884 -40 c-10 -9 -29 -13 -57 -11 -33 2 -9 17 28 18 21 1 33 -3 29 -7z m-1055
-44 c-10 -11 -70 -16 -64 -6 3 5 20 10 37 10 17 0 29 -2 27 -4z m-166 -35 c-3
-10 0 -22 6 -25 16 -10 1 -36 -20 -36 -12 0 -19 7 -19 19 0 11 -7 26 -15 35
-13 13 -13 15 3 19 39 10 50 7 45 -12z m70 -5 c4 -10 -3 -13 -23 -12 -16 1
-32 5 -37 10 -4 5 -3 6 4 2 6 -3 14 -2 18 4 9 15 32 12 38 -4z"/>
<path d="M1010 295 c0 -8 7 -15 15 -15 8 0 15 7 15 15 0 8 -7 15 -15 15 -8 0
-15 -7 -15 -15z"/>
<path d="M1220 249 c0 -14 5 -19 17 -17 26 5 29 38 4 38 -15 0 -21 -6 -21 -21z
m30 7 c0 -3 -4 -8 -10 -11 -5 -3 -10 -1 -10 4 0 6 5 11 10 11 6 0 10 -2 10 -4z"/>
<path d="M878 243 c-10 -2 -18 -11 -18 -20 0 -11 -6 -14 -26 -9 -27 7 -54 -7
-54 -29 0 -19 110 -17 117 1 3 8 11 14 19 14 8 0 14 10 14 25 0 25 -11 29 -52
18z m42 -19 c0 -8 -4 -12 -10 -9 -5 3 -10 10 -10 16 0 5 5 9 10 9 6 0 10 -7
10 -16z m-100 -29 c0 -8 -7 -15 -16 -15 -14 0 -14 3 -4 15 7 8 14 15 16 15 2
0 4 -7 4 -15z m65 -4 c-3 -6 -11 -11 -17 -11 -6 0 -6 6 2 15 14 17 26 13 15
-4z"/>
<path d="M1027 233 c-4 -3 -7 -15 -7 -26 0 -15 5 -18 23 -13 12 3 28 6 35 6 6
0 12 9 12 20 0 15 -7 20 -28 20 -16 0 -32 -3 -35 -7z m33 -12 c0 -5 -7 -11
-15 -15 -15 -5 -20 5 -8 17 9 10 23 9 23 -2z"/>
<path d="M1267 226 c-3 -8 -19 -17 -36 -21 -40 -9 -41 -35 -2 -35 17 0 32 4
35 9 3 4 19 11 36 14 21 5 30 12 30 27 0 15 -7 20 -29 20 -16 0 -31 -6 -34
-14z m53 -8 c0 -4 -3 -8 -7 -9 -5 0 -16 -2 -25 -4 -10 -2 -15 2 -12 9 5 13 44
16 44 4z m-60 -22 c0 -3 -4 -8 -10 -11 -5 -3 -10 -1 -10 4 0 6 5 11 10 11 6 0
10 -2 10 -4z"/>
<path d="M610 125 c0 -8 9 -15 20 -15 11 0 20 7 20 15 0 8 -9 15 -20 15 -11 0
-20 -7 -20 -15z"/>
<path d="M840 95 c0 -8 7 -15 15 -15 8 0 15 7 15 15 0 8 -7 15 -15 15 -8 0
-15 -7 -15 -15z"/>
<path d="M3450 420 c0 -5 5 -10 10 -10 6 0 10 5 10 10 0 6 -4 10 -10 10 -5 0
-10 -4 -10 -10z"/>
<path d="M645 390 c-3 -5 1 -10 10 -10 9 0 13 5 10 10 -3 6 -8 10 -10 10 -2 0
-7 -4 -10 -10z"/>
<path d="M1345 360 c-3 -5 -1 -10 4 -10 6 0 11 5 11 10 0 6 -2 10 -4 10 -3 0
-8 -4 -11 -10z"/>
<path d="M1551 341 c-15 -9 -4 -18 19 -16 8 1 24 3 35 4 17 1 18 3 5 11 -19
12 -41 12 -59 1z"/>
<path d="M454 289 c-6 -11 27 -20 47 -14 11 4 19 10 19 15 0 10 -60 9 -66 -1z"/>
<path d="M4833 212 c-15 -10 -27 -82 -13 -82 6 0 8 -5 4 -12 -4 -7 -9 -21 -10
-32 -2 -12 -6 -36 -10 -53 l-6 -33 75 0 c51 0 77 4 80 13 4 9 6 9 6 0 1 -7 5
-13 10 -13 5 0 4 11 -2 25 -7 14 -15 25 -20 25 -4 0 -5 12 -1 28 4 18 3 23 -4
13 -8 -11 -14 -11 -33 0 -13 7 -26 12 -29 11 -3 -1 -5 4 -5 11 0 8 11 11 33 9
38 -4 43 15 7 24 -14 3 -22 10 -19 15 3 5 -1 10 -8 11 -7 0 -17 2 -23 2 -5 1
-16 6 -24 10 -12 8 -11 11 4 16 10 4 14 9 9 13 -6 3 -15 3 -21 -1z m47 -61 c0
-4 -9 -17 -20 -29 -28 -29 -25 -42 9 -42 39 0 61 -9 61 -26 0 -8 4 -14 10 -14
5 0 7 -7 4 -15 -5 -11 -22 -15 -70 -15 -69 0 -86 15 -29 26 39 7 47 31 13 36
-19 2 -23 8 -20 36 1 17 -2 32 -8 32 -5 0 -7 6 -4 14 5 13 54 11 54 -3z m-45
-90 c3 -5 1 -12 -5 -16 -5 -3 -10 1 -10 9 0 18 6 21 15 7z"/>
<path d="M5840 183 c0 -13 3 -23 8 -24 4 0 15 -2 25 -4 9 -2 17 1 17 6 0 5 -8
13 -17 16 -10 4 -21 11 -25 17 -4 6 -8 1 -8 -11z"/>
<path d="M5767 173 c-4 -3 -7 -16 -7 -27 1 -19 1 -20 11 -3 6 9 14 15 20 12 5
-4 9 1 9 9 0 16 -21 22 -33 9z"/>
<path d="M5780 129 c0 -5 5 -7 10 -4 6 3 10 8 10 11 0 2 -4 4 -10 4 -5 0 -10
-5 -10 -11z"/>
<path d="M4985 101 c3 -2 0 -10 -7 -18 -8 -11 -7 -12 6 -7 9 3 16 1 16 -5 0
-6 9 -11 20 -11 11 0 20 5 20 10 0 6 -5 10 -11 10 -6 0 -9 7 -5 15 4 11 -1 14
-19 13 -13 -1 -22 -4 -20 -7z"/>
<path d="M6020 70 c0 -5 -7 -10 -16 -10 -11 0 -14 -8 -12 -27 2 -23 8 -29 36
-31 36 -4 43 15 17 42 -8 8 -15 18 -15 21 0 4 7 5 15 1 8 -3 15 -1 15 4 0 6
-9 10 -20 10 -11 0 -20 -4 -20 -10z m14 -36 c20 -19 20 -24 1 -24 -8 0 -15 6
-15 14 0 8 -6 17 -12 19 -9 4 -10 6 -1 6 6 1 19 -6 27 -15z"/>
<path d="M5086 35 c4 -8 11 -15 16 -15 6 0 5 6 -2 15 -7 8 -14 15 -16 15 -2 0
-1 -7 2 -15z"/>
<path d="M5260 10 c0 -5 5 -10 11 -10 5 0 7 5 4 10 -3 6 -8 10 -11 10 -2 0 -4
-4 -4 -10z"/>
</g>
</svg>
