<?xml version="1.0" encoding="UTF-8"?>
<svg xmlns="http://www.w3.org/2000/svg" xmlns:xlink="http://www.w3.org/1999/xlink" width="141.732283pt" height="141.732283pt" viewBox="0 0 141.732283 141.732283" version="1.1">
<g id="surface47">
<path style=" stroke:none;fill-rule:nonzero;fill:rgb(3.529412%,58.431373%,86.666667%);fill-opacity:1;" d="M 51.25 45.15625 L 53.726562 45.15625 L 53.726562 57.695312 L 51.25 57.695312 Z M 51.25 45.15625 "/>
<path style=" stroke:none;fill-rule:nonzero;fill:rgb(3.529412%,58.431373%,86.666667%);fill-opacity:1;" d="M 55.308594 45.160156 L 58.15625 45.160156 L 60.191406 53.308594 L 60.21875 53.308594 L 60.21875 45.160156 L 62.519531 45.160156 L 62.519531 57.699219 L 59.71875 57.699219 L 57.550781 49.058594 L 57.519531 49.058594 L 57.519531 57.699219 L 55.308594 57.699219 Z M 55.308594 45.160156 "/>
<path style=" stroke:none;fill-rule:nonzero;fill:rgb(3.529412%,58.431373%,86.666667%);fill-opacity:1;" d="M 68.507812 48.96875 C 68.507812 48.160156 68.433594 46.878906 67.519531 46.878906 C 66.5 46.878906 66.382812 48.109375 66.382812 51.445312 C 66.382812 54.871094 66.53125 55.976562 67.519531 55.976562 C 68.359375 55.976562 68.65625 55.0625 68.65625 53.34375 L 68.65625 52.941406 L 67.492188 52.941406 L 67.492188 50.972656 L 70.957031 50.972656 L 70.957031 57.699219 L 69.261719 57.699219 L 69.203125 56.503906 L 69.171875 56.503906 C 68.789062 57.628906 67.859375 57.945312 66.898438 57.945312 C 64.257812 57.945312 63.816406 55.609375 63.816406 51.691406 C 63.816406 47.582031 64.050781 44.910156 67.5625 44.910156 C 70.765625 44.914062 70.898438 47.546875 70.898438 48.96875 Z M 68.507812 48.96875 "/>
<path style=" stroke:none;fill-rule:nonzero;fill:rgb(3.529412%,58.431373%,86.666667%);fill-opacity:1;" d="M 72.253906 45.160156 L 78.347656 45.160156 L 78.347656 47.546875 L 74.734375 47.546875 L 74.734375 50.058594 L 78.125 50.058594 L 78.125 52.449219 L 74.734375 52.449219 L 74.734375 55.3125 L 78.511719 55.3125 L 78.507812 57.699219 L 72.253906 57.699219 Z M 72.253906 45.160156 "/>
<path style=" stroke:none;fill-rule:nonzero;fill:rgb(3.529412%,58.431373%,86.666667%);fill-opacity:1;" d="M 79.628906 45.160156 L 82.476562 45.160156 L 84.511719 53.308594 L 84.542969 53.308594 L 84.542969 45.160156 L 86.84375 45.160156 L 86.84375 57.699219 L 84.039062 57.699219 L 81.871094 49.058594 L 81.84375 49.058594 L 81.84375 57.699219 L 79.628906 57.699219 Z M 79.628906 45.160156 "/>
<path style=" stroke:none;fill-rule:nonzero;fill:rgb(3.529412%,58.431373%,86.666667%);fill-opacity:1;" d="M 88.417969 45.15625 L 90.894531 45.15625 L 90.894531 57.695312 L 88.417969 57.695312 Z M 88.417969 45.15625 "/>
<path style=" stroke:none;fill-rule:nonzero;fill:rgb(3.529412%,58.431373%,86.666667%);fill-opacity:1;" d="M 92.476562 45.160156 L 98.570312 45.160156 L 98.570312 47.546875 L 94.953125 47.546875 L 94.953125 50.058594 L 98.347656 50.058594 L 98.347656 52.449219 L 94.953125 52.449219 L 94.953125 55.3125 L 98.730469 55.3125 L 98.730469 57.699219 L 92.476562 57.699219 Z M 92.476562 45.160156 "/>
<path style=" stroke:none;fill-rule:nonzero;fill:rgb(3.529412%,58.431373%,86.666667%);fill-opacity:1;" d="M 102.328125 50.445312 L 103.09375 50.445312 C 104.097656 50.445312 104.363281 49.550781 104.363281 48.8125 C 104.363281 47.863281 104.066406 47.230469 103.078125 47.230469 L 102.328125 47.230469 Z M 99.851562 45.160156 L 104.011719 45.160156 C 106.121094 45.160156 106.84375 46.707031 106.84375 48.425781 C 106.84375 50.253906 106.222656 51.148438 105.074219 51.480469 L 105.074219 51.515625 C 106.652344 51.777344 106.742188 52.957031 106.769531 54.640625 C 106.8125 57.117188 106.886719 57.363281 107.242188 57.539062 L 107.242188 57.695312 L 104.570312 57.699219 C 104.378906 57.277344 104.304688 56.574219 104.304688 55.152344 C 104.304688 52.972656 104.054688 52.519531 103.273438 52.519531 L 102.328125 52.519531 L 102.328125 57.699219 L 99.851562 57.699219 Z M 99.851562 45.160156 "/>
<path style=" stroke:none;fill-rule:nonzero;fill:rgb(3.529412%,58.431373%,86.666667%);fill-opacity:1;" d="M 109.4375 41.890625 L 111.738281 41.890625 L 110.265625 44.386719 L 108.703125 44.386719 Z M 108.359375 45.15625 L 110.835938 45.15625 L 110.835938 57.695312 L 108.359375 57.695312 Z M 108.359375 45.15625 "/>
<path style=" stroke:none;fill-rule:nonzero;fill:rgb(3.529412%,58.431373%,86.666667%);fill-opacity:1;" d="M 115.871094 47.441406 L 115.839844 47.441406 L 114.96875 53.027344 L 116.769531 53.027344 Z M 114.367188 45.15625 L 117.464844 45.15625 L 120.089844 57.695312 L 117.519531 57.699219 L 117.136719 55.308594 L 114.613281 55.308594 L 114.246094 57.699219 L 111.679688 57.699219 Z M 114.367188 45.15625 "/>
<path style=" stroke:none;fill-rule:nonzero;fill:rgb(3.529412%,58.431373%,86.666667%);fill-opacity:1;" d="M 51.207031 63.90625 L 57.300781 63.90625 L 57.300781 66.292969 L 53.6875 66.292969 L 53.6875 68.804688 L 57.078125 68.804688 L 57.078125 71.195312 L 53.6875 71.195312 L 53.6875 74.058594 L 57.464844 74.058594 L 57.460938 76.445312 L 51.207031 76.445312 Z M 51.207031 63.90625 "/>
<path style=" stroke:none;fill-rule:nonzero;fill:rgb(3.529412%,58.431373%,86.666667%);fill-opacity:1;" d="M 58.582031 63.90625 L 61.058594 63.90625 L 61.058594 74.058594 L 64.644531 74.058594 L 64.644531 76.445312 L 58.582031 76.445312 Z M 58.582031 63.90625 "/>
<path style=" stroke:none;fill-rule:nonzero;fill:rgb(3.529412%,58.431373%,86.666667%);fill-opacity:1;" d="M 65.410156 63.90625 L 71.503906 63.90625 L 71.503906 66.292969 L 67.890625 66.292969 L 67.890625 68.804688 L 71.28125 68.804688 L 71.28125 71.195312 L 67.890625 71.195312 L 67.890625 74.058594 L 71.667969 74.058594 L 71.664062 76.445312 L 65.410156 76.445312 Z M 65.410156 63.90625 "/>
<path style=" stroke:none;fill-rule:nonzero;fill:rgb(3.529412%,58.431373%,86.666667%);fill-opacity:1;" d="M 77.195312 68.261719 C 77.195312 66.433594 77.019531 65.628906 76.191406 65.628906 C 75.203125 65.628906 75.113281 66.753906 75.113281 70.039062 C 75.113281 73.761719 75.214844 74.730469 76.25 74.730469 C 77.164062 74.730469 77.269531 73.484375 77.28125 71.535156 L 79.671875 71.535156 L 79.671875 71.972656 C 79.671875 74.675781 79.039062 76.695312 75.96875 76.695312 C 72.796875 76.695312 72.546875 73.867188 72.546875 70.089844 C 72.546875 66.875 72.695312 63.660156 76.207031 63.660156 C 78.390625 63.660156 79.585938 64.785156 79.585938 67.734375 L 79.585938 68.261719 Z M 77.195312 68.261719 "/>
<path style=" stroke:none;fill-rule:nonzero;fill:rgb(3.529412%,58.431373%,86.666667%);fill-opacity:1;" d="M 82.242188 66.292969 L 80.027344 66.292969 L 80.027344 63.90625 L 86.929688 63.90625 L 86.929688 66.292969 L 84.71875 66.292969 L 84.71875 76.445312 L 82.242188 76.445312 Z M 82.242188 66.292969 "/>
<path style=" stroke:none;fill-rule:nonzero;fill:rgb(3.529412%,58.431373%,86.666667%);fill-opacity:1;" d="M 90.265625 69.191406 L 91.03125 69.191406 C 92.035156 69.191406 92.300781 68.296875 92.300781 67.558594 C 92.300781 66.609375 92.003906 65.976562 91.015625 65.976562 L 90.265625 65.976562 Z M 87.789062 63.90625 L 91.949219 63.90625 C 94.058594 63.90625 94.78125 65.453125 94.78125 67.171875 C 94.78125 69 94.160156 69.894531 93.011719 70.226562 L 93.011719 70.261719 C 94.589844 70.523438 94.679688 71.703125 94.707031 73.386719 C 94.75 75.863281 94.824219 76.109375 95.179688 76.285156 L 95.179688 76.441406 L 92.507812 76.445312 C 92.316406 76.023438 92.242188 75.320312 92.242188 73.898438 C 92.242188 71.71875 91.992188 71.265625 91.210938 71.265625 L 90.265625 71.265625 L 90.265625 76.445312 L 87.789062 76.445312 Z M 87.789062 63.90625 "/>
<path style=" stroke:none;fill-rule:nonzero;fill:rgb(3.529412%,58.431373%,86.666667%);fill-opacity:1;" d="M 99.554688 60.640625 L 101.859375 60.640625 L 100.382812 63.132812 L 98.820312 63.132812 Z M 99.703125 74.726562 C 100.707031 74.726562 100.855469 73.621094 100.855469 70.179688 C 100.855469 66.738281 100.707031 65.628906 99.703125 65.628906 C 98.730469 65.628906 98.582031 66.734375 98.582031 70.179688 C 98.582031 73.621094 98.730469 74.726562 99.703125 74.726562 M 99.71875 76.695312 C 96.457031 76.695312 96.015625 74.167969 96.015625 70.179688 C 96.015625 66.191406 96.457031 63.664062 99.71875 63.664062 C 103.230469 63.664062 103.421875 66.703125 103.421875 70.179688 C 103.421875 73.65625 103.230469 76.695312 99.71875 76.695312 "/>
<path style=" stroke:none;fill-rule:nonzero;fill:rgb(3.529412%,58.431373%,86.666667%);fill-opacity:1;" d="M 104.71875 63.90625 L 107.566406 63.90625 L 109.601562 72.054688 L 109.628906 72.054688 L 109.628906 63.90625 L 111.929688 63.90625 L 111.929688 76.445312 L 109.128906 76.445312 L 106.960938 67.804688 L 106.929688 67.804688 L 106.929688 76.445312 L 104.71875 76.445312 Z M 104.71875 63.90625 "/>
<path style=" stroke:none;fill-rule:nonzero;fill:rgb(3.529412%,58.431373%,86.666667%);fill-opacity:1;" d="M 113.507812 63.902344 L 115.984375 63.902344 L 115.984375 76.441406 L 113.507812 76.441406 Z M 113.507812 63.902344 "/>
<path style=" stroke:none;fill-rule:nonzero;fill:rgb(3.529412%,58.431373%,86.666667%);fill-opacity:1;" d="M 121.976562 68.261719 C 121.976562 66.433594 121.800781 65.628906 120.972656 65.628906 C 119.984375 65.628906 119.894531 66.753906 119.894531 70.039062 C 119.894531 73.761719 120 74.730469 121.03125 74.730469 C 121.945312 74.730469 122.050781 73.484375 122.0625 71.535156 L 124.453125 71.535156 L 124.453125 71.972656 C 124.453125 74.675781 123.820312 76.695312 120.75 76.695312 C 117.578125 76.695312 117.328125 73.867188 117.328125 70.089844 C 117.328125 66.875 117.476562 63.660156 120.988281 63.660156 C 123.171875 63.660156 124.367188 64.785156 124.367188 67.734375 L 124.363281 68.261719 Z M 121.976562 68.261719 "/>
<path style=" stroke:none;fill-rule:nonzero;fill:rgb(3.529412%,58.431373%,86.666667%);fill-opacity:1;" d="M 128.9375 66.1875 L 128.90625 66.1875 L 128.035156 71.773438 L 129.835938 71.773438 Z M 127.433594 63.902344 L 130.53125 63.902344 L 133.15625 76.441406 L 130.589844 76.445312 L 130.207031 74.054688 L 127.683594 74.054688 L 127.316406 76.445312 L 124.75 76.445312 Z M 127.433594 63.902344 "/>
<path style=" stroke:none;fill-rule:nonzero;fill:rgb(3.529412%,58.431373%,86.666667%);fill-opacity:1;" d="M 11.058594 86.699219 C 10.933594 86.839844 10.769531 86.933594 10.570312 86.980469 C 10.46875 87.003906 10.351562 87.019531 10.230469 87.019531 L 9.792969 87.019531 L 9.792969 84.332031 L 9.964844 84.332031 C 10.191406 84.332031 10.394531 84.367188 10.570312 84.441406 C 10.726562 84.503906 10.863281 84.597656 10.976562 84.71875 C 11.222656 84.980469 11.347656 85.339844 11.347656 85.789062 C 11.347656 86.1875 11.25 86.484375 11.058594 86.699219 M 11.238281 84.207031 C 11.089844 84.089844 10.917969 84.003906 10.738281 83.953125 C 10.6875 83.9375 10.632812 83.925781 10.570312 83.914062 C 10.410156 83.886719 10.214844 83.875 9.976562 83.875 L 9.023438 83.875 L 9.023438 84.097656 C 9.089844 84.109375 9.136719 84.125 9.160156 84.15625 C 9.1875 84.1875 9.199219 84.253906 9.199219 84.347656 L 9.199219 87.003906 C 9.199219 87.105469 9.1875 87.167969 9.160156 87.199219 C 9.136719 87.226562 9.09375 87.246094 9.023438 87.257812 L 9.023438 87.480469 L 10.230469 87.480469 C 10.355469 87.480469 10.46875 87.476562 10.570312 87.46875 C 10.710938 87.457031 10.832031 87.4375 10.929688 87.414062 C 11.097656 87.371094 11.25 87.292969 11.382812 87.191406 C 11.5625 87.046875 11.703125 86.859375 11.800781 86.617188 C 11.90625 86.375 11.953125 86.109375 11.953125 85.816406 C 11.953125 85.488281 11.886719 85.179688 11.757812 84.894531 C 11.636719 84.605469 11.460938 84.375 11.238281 84.207031 "/>
<path style=" stroke:none;fill-rule:nonzero;fill:rgb(3.529412%,58.431373%,86.666667%);fill-opacity:1;" d="M 16.960938 86.964844 C 16.910156 87.015625 16.796875 87.042969 16.621094 87.042969 L 15.757812 87.042969 L 15.757812 84.347656 C 15.757812 84.269531 15.773438 84.207031 15.804688 84.160156 C 15.839844 84.117188 15.886719 84.097656 15.949219 84.097656 L 15.949219 83.875 L 14.992188 83.875 L 14.992188 84.097656 C 15.0625 84.105469 15.105469 84.121094 15.132812 84.15625 C 15.160156 84.191406 15.167969 84.253906 15.167969 84.347656 L 15.167969 87.003906 C 15.167969 87.097656 15.15625 87.160156 15.132812 87.191406 C 15.105469 87.226562 15.0625 87.246094 14.992188 87.253906 L 14.992188 87.480469 L 17.296875 87.480469 L 17.296875 86.664062 L 17.09375 86.664062 C 17.058594 86.816406 17.015625 86.914062 16.960938 86.964844 "/>
<path style=" stroke:none;fill-rule:nonzero;fill:rgb(3.529412%,58.431373%,86.666667%);fill-opacity:1;" d="M 23.054688 65.972656 L 23.054688 58.066406 L 23.066406 58.066406 C 23.058594 57.9375 23.054688 57.808594 23.054688 57.675781 C 23.054688 56.867188 23.253906 56.109375 23.59375 55.472656 C 24.207031 54.332031 25.277344 53.574219 26.496094 53.574219 C 27.886719 53.574219 29.085938 54.5625 29.632812 55.980469 C 29.832031 56.496094 29.941406 57.070312 29.941406 57.675781 C 29.941406 57.808594 29.933594 57.9375 29.925781 58.066406 L 29.941406 58.066406 L 29.941406 66.136719 L 29.9375 66.136719 C 29.921875 66.679688 29.8125 67.195312 29.632812 67.664062 C 29.089844 69.082031 27.886719 70.070312 26.496094 70.070312 C 25.277344 70.070312 24.207031 69.3125 23.59375 68.171875 C 23.273438 67.578125 23.082031 66.882812 23.054688 66.136719 Z M 31.355469 70.941406 L 31.355469 72.992188 L 27.90625 72.992188 L 27.90625 70.941406 Z M 17.382812 76.226562 L 30.140625 76.226562 C 30.355469 76.226562 30.5625 76.207031 30.769531 76.167969 C 31.261719 76.074219 31.722656 75.871094 32.136719 75.582031 C 32.707031 75.179688 33.191406 74.617188 33.53125 73.9375 C 33.886719 73.238281 34.09375 72.417969 34.09375 71.542969 L 34.085938 63.453125 L 34.085938 43.496094 L 13.425781 43.496094 L 13.425781 71.542969 C 13.425781 74.121094 15.207031 76.226562 17.382812 76.226562 "/>
<path style=" stroke:none;fill-rule:nonzero;fill:rgb(3.529412%,58.431373%,86.666667%);fill-opacity:1;" d="M 35.976562 78.765625 L 36.148438 78.765625 C 36.378906 78.765625 36.578125 78.800781 36.753906 78.875 C 36.910156 78.945312 37.046875 79.035156 37.160156 79.15625 C 37.410156 79.414062 37.53125 79.773438 37.53125 80.230469 C 37.53125 80.621094 37.433594 80.925781 37.242188 81.136719 C 37.117188 81.273438 36.953125 81.367188 36.753906 81.414062 C 36.652344 81.441406 36.539062 81.453125 36.414062 81.453125 L 35.976562 81.453125 Z M 36.753906 81.90625 C 36.898438 81.894531 37.015625 81.875 37.113281 81.851562 C 37.28125 81.808594 37.433594 81.730469 37.566406 81.621094 C 37.75 81.480469 37.890625 81.292969 37.988281 81.050781 C 38.089844 80.808594 38.136719 80.542969 38.136719 80.25 C 38.136719 79.917969 38.074219 79.613281 37.945312 79.328125 C 37.824219 79.042969 37.648438 78.8125 37.425781 78.644531 C 37.273438 78.523438 37.105469 78.441406 36.921875 78.386719 C 36.871094 78.375 36.816406 78.363281 36.753906 78.351562 C 36.59375 78.324219 36.398438 78.3125 36.164062 78.3125 L 35.210938 78.3125 L 35.210938 78.53125 C 35.277344 78.542969 35.324219 78.5625 35.347656 78.589844 C 35.371094 78.621094 35.382812 78.683594 35.382812 78.78125 L 35.382812 81.4375 C 35.382812 81.539062 35.371094 81.597656 35.347656 81.628906 C 35.324219 81.660156 35.277344 81.679688 35.210938 81.6875 L 35.210938 81.90625 L 36.417969 81.90625 C 36.542969 81.90625 36.65625 81.902344 36.757812 81.898438 "/>
<path style=" stroke:none;fill-rule:nonzero;fill:rgb(3.529412%,58.431373%,86.666667%);fill-opacity:1;" d="M 14.4375 86.972656 C 14.375 87.019531 14.261719 87.042969 14.097656 87.042969 L 12.996094 87.042969 L 12.996094 85.648438 L 13.898438 85.648438 C 14.003906 85.648438 14.078125 85.667969 14.113281 85.699219 C 14.152344 85.730469 14.171875 85.792969 14.1875 85.886719 L 14.359375 85.886719 L 14.355469 84.996094 L 14.179688 84.996094 C 14.167969 85.082031 14.132812 85.148438 14.089844 85.179688 C 14.039062 85.210938 13.9375 85.230469 13.785156 85.230469 L 12.996094 85.230469 L 12.996094 84.320312 L 14.074219 84.320312 C 14.222656 84.320312 14.316406 84.339844 14.359375 84.375 C 14.40625 84.410156 14.4375 84.480469 14.464844 84.585938 L 14.652344 84.585938 L 14.652344 83.871094 L 12.234375 83.875 L 12.234375 84.097656 C 12.300781 84.105469 12.347656 84.125 12.371094 84.15625 C 12.398438 84.191406 12.410156 84.253906 12.410156 84.347656 L 12.410156 87.003906 C 12.410156 87.097656 12.398438 87.160156 12.371094 87.191406 C 12.347656 87.226562 12.300781 87.246094 12.230469 87.253906 L 12.234375 87.480469 L 14.765625 87.480469 L 14.765625 86.722656 L 14.5625 86.722656 C 14.539062 86.84375 14.496094 86.925781 14.4375 86.972656 "/>
<path style=" stroke:none;fill-rule:nonzero;fill:rgb(3.529412%,58.431373%,86.666667%);fill-opacity:1;" d="M 10.097656 81.710938 C 10.203125 81.785156 10.324219 81.839844 10.457031 81.867188 C 10.488281 81.878906 10.527344 81.882812 10.570312 81.890625 C 10.703125 81.90625 10.886719 81.914062 11.117188 81.914062 L 12.320312 81.914062 L 12.316406 81.695312 C 12.25 81.6875 12.203125 81.65625 12.179688 81.613281 C 12.15625 81.5625 12.140625 81.464844 12.140625 81.300781 L 12.140625 78.773438 C 12.140625 78.695312 12.15625 78.636719 12.183594 78.601562 C 12.214844 78.5625 12.257812 78.539062 12.320312 78.53125 L 12.320312 78.3125 L 11.378906 78.3125 L 11.378906 78.539062 C 11.445312 78.542969 11.492188 78.5625 11.515625 78.59375 C 11.539062 78.625 11.550781 78.691406 11.550781 78.789062 L 11.550781 81.429688 L 11.246094 81.429688 C 10.996094 81.429688 10.820312 81.410156 10.714844 81.382812 C 10.664062 81.371094 10.617188 81.347656 10.570312 81.324219 C 10.523438 81.304688 10.484375 81.273438 10.449219 81.242188 C 10.332031 81.136719 10.242188 81 10.183594 80.832031 C 10.125 80.664062 10.09375 80.464844 10.09375 80.238281 C 10.09375 80.0625 10.109375 79.878906 10.148438 79.699219 C 10.183594 79.519531 10.242188 79.332031 10.316406 79.148438 C 10.386719 78.960938 10.457031 78.820312 10.53125 78.726562 C 10.546875 78.710938 10.558594 78.691406 10.574219 78.671875 C 10.636719 78.605469 10.703125 78.550781 10.777344 78.511719 L 10.773438 78.3125 L 9.878906 78.3125 L 9.878906 78.511719 C 9.9375 78.519531 9.976562 78.53125 10 78.539062 C 10.019531 78.546875 10.03125 78.566406 10.03125 78.589844 C 10.03125 78.640625 9.996094 78.730469 9.929688 78.875 C 9.871094 78.988281 9.828125 79.082031 9.800781 79.15625 C 9.691406 79.414062 9.617188 79.636719 9.578125 79.816406 C 9.535156 79.996094 9.515625 80.183594 9.515625 80.367188 C 9.515625 80.675781 9.5625 80.941406 9.660156 81.167969 C 9.757812 81.394531 9.902344 81.578125 10.097656 81.710938 "/>
<path style=" stroke:none;fill-rule:nonzero;fill:rgb(3.529412%,58.431373%,86.666667%);fill-opacity:1;" d="M 16.464844 78.601562 C 16.488281 78.5625 16.535156 78.542969 16.597656 78.53125 L 16.597656 78.308594 L 15.65625 78.308594 L 15.65625 78.535156 C 15.722656 78.542969 15.769531 78.5625 15.796875 78.589844 C 15.820312 78.625 15.835938 78.6875 15.835938 78.785156 L 15.835938 81.441406 C 15.835938 81.535156 15.820312 81.597656 15.796875 81.632812 C 15.773438 81.667969 15.726562 81.6875 15.65625 81.691406 L 15.65625 81.910156 L 16.597656 81.910156 L 16.597656 81.691406 C 16.535156 81.683594 16.488281 81.660156 16.464844 81.625 C 16.441406 81.589844 16.425781 81.53125 16.425781 81.453125 L 16.425781 78.777344 C 16.425781 78.695312 16.441406 78.636719 16.464844 78.601562 "/>
<path style=" stroke:none;fill-rule:nonzero;fill:rgb(3.529412%,58.431373%,86.666667%);fill-opacity:1;" d="M 28.789062 78.601562 C 28.8125 78.5625 28.859375 78.542969 28.921875 78.53125 L 28.921875 78.308594 L 27.980469 78.308594 L 27.980469 78.535156 C 28.046875 78.542969 28.089844 78.5625 28.117188 78.589844 C 28.140625 78.625 28.15625 78.6875 28.15625 78.785156 L 28.15625 81.441406 C 28.15625 81.535156 28.144531 81.597656 28.117188 81.632812 C 28.089844 81.667969 28.046875 81.6875 27.980469 81.691406 L 27.980469 81.914062 L 28.925781 81.914062 L 28.925781 81.695312 C 28.863281 81.6875 28.816406 81.664062 28.792969 81.628906 C 28.765625 81.59375 28.753906 81.535156 28.753906 81.457031 L 28.753906 78.78125 C 28.753906 78.699219 28.765625 78.640625 28.792969 78.605469 "/>
<path style=" stroke:none;fill-rule:nonzero;fill:rgb(3.529412%,58.431373%,86.666667%);fill-opacity:1;" d="M 13.371094 81.695312 C 13.308594 81.695312 13.261719 81.667969 13.238281 81.628906 C 13.214844 81.585938 13.203125 81.511719 13.203125 81.398438 L 13.203125 79.003906 L 14.738281 80.824219 L 14.738281 81.449219 C 14.738281 81.542969 14.730469 81.601562 14.703125 81.640625 C 14.679688 81.667969 14.628906 81.691406 14.5625 81.695312 L 14.5625 81.914062 L 15.328125 81.914062 L 15.328125 81.695312 C 15.265625 81.691406 15.222656 81.667969 15.195312 81.640625 C 15.175781 81.613281 15.164062 81.539062 15.164062 81.421875 L 15.164062 78.789062 C 15.164062 78.695312 15.175781 78.628906 15.203125 78.59375 C 15.230469 78.554688 15.273438 78.535156 15.332031 78.53125 L 15.332031 78.3125 L 14.574219 78.3125 L 14.574219 78.53125 C 14.644531 78.539062 14.691406 78.554688 14.714844 78.585938 C 14.738281 78.613281 14.75 78.667969 14.75 78.75 L 14.75 79.875 L 13.445312 78.3125 L 12.597656 78.3125 L 12.597656 78.53125 C 12.648438 78.539062 12.6875 78.554688 12.71875 78.582031 C 12.75 78.605469 12.761719 78.636719 12.761719 78.671875 L 12.765625 81.429688 C 12.765625 81.535156 12.753906 81.605469 12.726562 81.640625 C 12.703125 81.675781 12.65625 81.695312 12.585938 81.695312 L 12.574219 81.695312 L 12.574219 81.914062 L 13.371094 81.914062 Z M 13.371094 81.695312 "/>
<path style=" stroke:none;fill-rule:nonzero;fill:rgb(3.529412%,58.431373%,86.666667%);fill-opacity:1;" d="M 30.421875 81.453125 L 29.984375 81.453125 L 29.984375 78.765625 L 30.15625 78.765625 C 30.382812 78.765625 30.585938 78.804688 30.765625 78.875 C 30.917969 78.945312 31.054688 79.035156 31.167969 79.15625 C 31.414062 79.417969 31.539062 79.777344 31.539062 80.230469 C 31.539062 80.621094 31.445312 80.925781 31.25 81.136719 C 31.125 81.273438 30.960938 81.367188 30.765625 81.417969 C 30.660156 81.441406 30.546875 81.453125 30.421875 81.453125 M 31.574219 81.621094 C 31.757812 81.480469 31.894531 81.289062 31.996094 81.050781 C 32.0625 80.890625 32.105469 80.71875 32.128906 80.542969 C 32.140625 80.445312 32.144531 80.351562 32.144531 80.25 C 32.144531 80.148438 32.140625 80.050781 32.128906 79.957031 C 32.101562 79.734375 32.042969 79.527344 31.957031 79.328125 C 31.828125 79.042969 31.652344 78.8125 31.433594 78.644531 C 31.28125 78.527344 31.113281 78.441406 30.929688 78.386719 C 30.878906 78.375 30.824219 78.363281 30.765625 78.351562 C 30.601562 78.328125 30.402344 78.308594 30.171875 78.308594 L 29.21875 78.308594 L 29.21875 78.53125 C 29.285156 78.542969 29.332031 78.5625 29.355469 78.589844 C 29.378906 78.621094 29.390625 78.683594 29.390625 78.78125 L 29.390625 81.441406 C 29.390625 81.542969 29.378906 81.601562 29.355469 81.632812 C 29.332031 81.664062 29.285156 81.679688 29.21875 81.691406 L 29.21875 81.910156 L 29.628906 81.914062 L 30.421875 81.914062 C 30.546875 81.914062 30.660156 81.910156 30.761719 81.90625 C 30.902344 81.894531 31.023438 81.875 31.121094 81.851562 C 31.289062 81.808594 31.441406 81.730469 31.574219 81.621094 "/>
<path style=" stroke:none;fill-rule:nonzero;fill:rgb(3.529412%,58.431373%,86.666667%);fill-opacity:1;" d="M 33.527344 80.125 L 33.15625 80.125 L 33.527344 78.953125 L 33.527344 78.945312 L 33.898438 80.125 Z M 34.324219 81.523438 C 34.328125 81.539062 34.328125 81.550781 34.328125 81.5625 C 34.328125 81.601562 34.316406 81.625 34.289062 81.652344 C 34.261719 81.675781 34.222656 81.6875 34.175781 81.691406 L 34.175781 81.914062 L 35.105469 81.914062 L 35.105469 81.691406 C 35.03125 81.65625 34.972656 81.578125 34.933594 81.453125 C 34.925781 81.4375 34.925781 81.421875 34.921875 81.417969 L 33.929688 78.308594 L 33.324219 78.308594 L 32.316406 81.425781 C 32.289062 81.511719 32.261719 81.574219 32.226562 81.617188 C 32.199219 81.648438 32.167969 81.671875 32.128906 81.683594 C 32.128906 81.683594 32.117188 81.6875 32.109375 81.6875 L 32.109375 81.910156 L 32.910156 81.910156 L 32.910156 81.6875 C 32.859375 81.679688 32.820312 81.664062 32.792969 81.636719 C 32.765625 81.609375 32.75 81.570312 32.75 81.519531 C 32.75 81.503906 32.753906 81.476562 32.761719 81.445312 C 32.769531 81.410156 32.777344 81.378906 32.789062 81.34375 L 33.023438 80.605469 L 33.527344 80.601562 L 34.042969 80.601562 L 34.3125 81.46875 C 34.320312 81.488281 34.324219 81.503906 34.328125 81.519531 "/>
<path style=" stroke:none;fill-rule:nonzero;fill:rgb(3.529412%,58.431373%,86.666667%);fill-opacity:1;" d="M 29.871094 84.089844 C 29.941406 84.097656 29.984375 84.117188 30.011719 84.148438 C 30.035156 84.175781 30.046875 84.234375 30.046875 84.316406 L 30.046875 85.433594 L 29.628906 84.933594 L 28.742188 83.875 L 27.894531 83.875 L 27.894531 84.089844 C 27.945312 84.101562 27.988281 84.121094 28.019531 84.144531 C 28.050781 84.167969 28.0625 84.199219 28.0625 84.238281 L 28.0625 86.988281 C 28.0625 87.097656 28.050781 87.171875 28.027344 87.207031 C 28 87.238281 27.957031 87.261719 27.886719 87.261719 L 27.875 87.261719 L 27.875 87.484375 L 28.671875 87.484375 L 28.671875 87.261719 C 28.609375 87.261719 28.5625 87.234375 28.539062 87.191406 C 28.515625 87.152344 28.503906 87.074219 28.503906 86.964844 L 28.503906 84.570312 L 29.632812 85.902344 L 30.039062 86.386719 L 30.039062 87.011719 C 30.039062 87.101562 30.027344 87.167969 30.003906 87.199219 C 29.976562 87.230469 29.929688 87.25 29.863281 87.253906 L 29.863281 87.476562 L 30.628906 87.476562 L 30.628906 87.253906 C 30.5625 87.246094 30.519531 87.226562 30.496094 87.199219 C 30.472656 87.167969 30.460938 87.089844 30.460938 86.976562 L 30.460938 84.34375 C 30.460938 84.25 30.472656 84.1875 30.5 84.152344 C 30.523438 84.113281 30.566406 84.089844 30.628906 84.085938 L 30.628906 83.875 L 29.871094 83.875 Z M 29.871094 84.089844 "/>
<path style=" stroke:none;fill-rule:nonzero;fill:rgb(3.529412%,58.431373%,86.666667%);fill-opacity:1;" d="M 34.164062 84.097656 C 34.230469 84.105469 34.273438 84.125 34.300781 84.15625 C 34.328125 84.191406 34.339844 84.253906 34.339844 84.347656 L 34.339844 87.003906 C 34.339844 87.097656 34.328125 87.160156 34.300781 87.195312 C 34.273438 87.230469 34.230469 87.25 34.164062 87.257812 L 34.164062 87.480469 L 35.105469 87.480469 L 35.105469 87.257812 C 35.042969 87.25 34.996094 87.226562 34.972656 87.1875 C 34.945312 87.152344 34.933594 87.09375 34.933594 87.015625 L 34.933594 84.339844 C 34.933594 84.257812 34.949219 84.199219 34.972656 84.160156 C 34.996094 84.121094 35.042969 84.105469 35.105469 84.09375 L 35.105469 83.875 L 34.164062 83.875 Z M 34.164062 84.097656 "/>
<path style=" stroke:none;fill-rule:nonzero;fill:rgb(3.529412%,58.431373%,86.666667%);fill-opacity:1;" d="M 32.988281 86.699219 C 32.792969 86.910156 32.519531 87.015625 32.160156 87.015625 L 31.71875 87.015625 L 31.71875 84.328125 L 31.890625 84.328125 C 31.972656 84.328125 32.050781 84.332031 32.128906 84.34375 C 32.445312 84.382812 32.707031 84.511719 32.90625 84.722656 C 33.152344 84.980469 33.273438 85.339844 33.273438 85.789062 C 33.273438 86.1875 33.179688 86.484375 32.988281 86.699219 M 33.527344 84.589844 C 33.425781 84.4375 33.304688 84.308594 33.167969 84.207031 C 33.015625 84.089844 32.847656 84.003906 32.664062 83.953125 C 32.523438 83.914062 32.347656 83.886719 32.128906 83.878906 C 32.054688 83.878906 31.984375 83.875 31.90625 83.875 L 30.953125 83.875 L 30.953125 84.097656 C 31.015625 84.105469 31.0625 84.125 31.089844 84.15625 C 31.113281 84.183594 31.125 84.25 31.125 84.347656 L 31.125 87.003906 C 31.125 87.105469 31.113281 87.167969 31.089844 87.199219 C 31.066406 87.226562 31.019531 87.246094 30.953125 87.257812 L 30.953125 87.480469 L 32.160156 87.480469 C 32.457031 87.480469 32.691406 87.457031 32.859375 87.414062 C 33.027344 87.371094 33.179688 87.292969 33.3125 87.191406 C 33.394531 87.128906 33.464844 87.054688 33.527344 86.972656 C 33.609375 86.867188 33.679688 86.75 33.734375 86.617188 C 33.835938 86.375 33.882812 86.109375 33.882812 85.816406 C 33.882812 85.488281 33.820312 85.179688 33.691406 84.894531 C 33.644531 84.78125 33.585938 84.679688 33.527344 84.589844 "/>
<path style=" stroke:none;fill-rule:nonzero;fill:rgb(3.529412%,58.431373%,86.666667%);fill-opacity:1;" d="M 37.726562 86.714844 C 37.550781 86.96875 37.308594 87.097656 37.003906 87.097656 C 36.917969 87.097656 36.832031 87.085938 36.75 87.058594 C 36.574219 87.003906 36.425781 86.882812 36.296875 86.703125 C 36.113281 86.441406 36.015625 86.097656 36.015625 85.683594 C 36.015625 85.253906 36.109375 84.910156 36.292969 84.648438 C 36.417969 84.464844 36.570312 84.347656 36.75 84.292969 C 36.835938 84.265625 36.921875 84.253906 37.015625 84.253906 C 37.320312 84.253906 37.558594 84.378906 37.730469 84.632812 C 37.90625 84.882812 37.996094 85.226562 37.996094 85.671875 C 37.996094 86.109375 37.90625 86.453125 37.726562 86.714844 M 38.175781 84.320312 C 37.875 83.96875 37.492188 83.792969 37.027344 83.792969 C 36.933594 83.792969 36.839844 83.800781 36.753906 83.8125 C 36.402344 83.867188 36.097656 84.042969 35.851562 84.332031 C 35.542969 84.691406 35.390625 85.140625 35.390625 85.695312 C 35.390625 86.25 35.539062 86.699219 35.832031 87.042969 C 36.074219 87.332031 36.382812 87.496094 36.753906 87.550781 C 36.832031 87.558594 36.914062 87.566406 36.996094 87.566406 C 37.480469 87.566406 37.875 87.390625 38.171875 87.035156 C 38.472656 86.679688 38.621094 86.222656 38.621094 85.65625 C 38.621094 85.121094 38.472656 84.675781 38.175781 84.320312 "/>
<path style=" stroke:none;fill-rule:nonzero;fill:rgb(3.529412%,58.431373%,86.666667%);fill-opacity:1;" d="M 35.070312 82.597656 C 35.035156 82.597656 35 82.609375 34.960938 82.640625 C 34.921875 82.671875 34.882812 82.707031 34.84375 82.753906 L 34.261719 83.507812 L 34.417969 83.507812 L 35.054688 83.046875 C 35.125 83 35.167969 82.953125 35.191406 82.917969 C 35.21875 82.882812 35.234375 82.839844 35.234375 82.792969 C 35.234375 82.742188 35.21875 82.691406 35.183594 82.65625 C 35.152344 82.617188 35.113281 82.597656 35.070312 82.597656 "/>
<path style=" stroke:none;fill-rule:nonzero;fill:rgb(3.529412%,58.431373%,86.666667%);fill-opacity:1;" d="M 23.347656 79.917969 L 23.03125 79.917969 L 23.03125 78.742188 L 23.539062 78.742188 C 23.554688 78.742188 23.574219 78.746094 23.59375 78.746094 C 23.761719 78.753906 23.894531 78.804688 23.992188 78.898438 C 24.101562 79.003906 24.15625 79.148438 24.15625 79.328125 C 24.15625 79.546875 24.105469 79.699219 23.996094 79.789062 C 23.921875 79.855469 23.785156 79.890625 23.59375 79.910156 C 23.519531 79.917969 23.4375 79.917969 23.347656 79.917969 M 24.222656 81.914062 L 24.945312 81.914062 L 24.945312 81.710938 C 24.890625 81.703125 24.839844 81.679688 24.804688 81.640625 C 24.761719 81.601562 24.714844 81.542969 24.675781 81.457031 L 24.066406 80.242188 C 24.265625 80.203125 24.425781 80.089844 24.546875 79.917969 C 24.667969 79.742188 24.726562 79.53125 24.726562 79.285156 C 24.726562 78.988281 24.636719 78.746094 24.449219 78.574219 C 24.265625 78.398438 24.007812 78.308594 23.679688 78.308594 L 22.261719 78.308594 L 22.261719 78.535156 C 22.332031 78.542969 22.378906 78.5625 22.402344 78.589844 C 22.429688 78.625 22.441406 78.6875 22.441406 78.785156 L 22.441406 81.441406 C 22.441406 81.535156 22.425781 81.597656 22.402344 81.632812 C 22.378906 81.667969 22.332031 81.6875 22.261719 81.691406 L 22.261719 81.910156 L 23.207031 81.910156 L 23.207031 81.691406 C 23.140625 81.683594 23.09375 81.65625 23.070312 81.617188 C 23.046875 81.574219 23.035156 81.476562 23.035156 81.320312 L 23.035156 80.339844 L 23.464844 80.34375 L 23.59375 80.605469 Z M 24.222656 81.914062 "/>
<path style=" stroke:none;fill-rule:nonzero;fill:rgb(3.529412%,58.431373%,86.666667%);fill-opacity:1;" d="M 22.570312 86.113281 C 22.542969 86.25 22.503906 86.382812 22.449219 86.519531 C 22.304688 86.378906 22.179688 86.28125 22.074219 86.230469 C 21.96875 86.175781 21.855469 86.144531 21.742188 86.144531 C 21.699219 86.144531 21.660156 86.148438 21.621094 86.15625 C 21.566406 86.164062 21.511719 86.175781 21.453125 86.195312 C 21.359375 86.230469 21.269531 86.277344 21.179688 86.34375 L 21.308594 86.664062 C 21.367188 86.636719 21.421875 86.617188 21.46875 86.601562 C 21.515625 86.589844 21.558594 86.582031 21.601562 86.582031 L 21.621094 86.582031 C 21.707031 86.589844 21.792969 86.621094 21.882812 86.675781 C 21.980469 86.730469 22.070312 86.816406 22.148438 86.921875 C 22.070312 86.984375 21.984375 87.027344 21.902344 87.058594 C 21.816406 87.082031 21.726562 87.105469 21.621094 87.105469 C 21.335938 87.105469 21.097656 86.96875 20.914062 86.710938 C 20.726562 86.445312 20.636719 86.109375 20.636719 85.695312 C 20.636719 85.265625 20.726562 84.921875 20.914062 84.660156 C 21.09375 84.394531 21.332031 84.269531 21.625 84.265625 L 21.640625 84.265625 C 21.945312 84.265625 22.183594 84.390625 22.355469 84.644531 C 22.523438 84.882812 22.609375 85.226562 22.609375 85.671875 C 22.609375 85.828125 22.597656 85.976562 22.570312 86.113281 M 23.183594 86.949219 C 23.15625 86.976562 23.113281 86.996094 23.058594 86.996094 C 23.019531 86.996094 22.984375 86.988281 22.957031 86.976562 C 22.925781 86.960938 22.898438 86.9375 22.871094 86.910156 C 22.996094 86.722656 23.089844 86.527344 23.144531 86.324219 C 23.203125 86.125 23.234375 85.902344 23.234375 85.660156 C 23.234375 85.125 23.085938 84.679688 22.785156 84.324219 C 22.488281 83.972656 22.105469 83.792969 21.636719 83.792969 L 21.621094 83.792969 C 21.160156 83.792969 20.773438 83.976562 20.46875 84.328125 C 20.164062 84.6875 20.007812 85.140625 20.007812 85.6875 C 20.007812 85.984375 20.054688 86.25 20.148438 86.503906 C 20.242188 86.75 20.378906 86.96875 20.554688 87.148438 C 20.695312 87.292969 20.851562 87.394531 21.019531 87.457031 C 21.1875 87.527344 21.386719 87.558594 21.613281 87.558594 L 21.621094 87.558594 C 21.796875 87.558594 21.953125 87.535156 22.09375 87.492188 C 22.234375 87.453125 22.375 87.386719 22.511719 87.292969 C 22.59375 87.386719 22.683594 87.449219 22.769531 87.492188 C 22.859375 87.539062 22.960938 87.558594 23.078125 87.558594 C 23.128906 87.558594 23.183594 87.550781 23.234375 87.539062 C 23.289062 87.527344 23.34375 87.511719 23.398438 87.488281 L 23.398438 86.785156 L 23.230469 86.792969 C 23.222656 86.867188 23.207031 86.917969 23.183594 86.949219 "/>
<path style=" stroke:none;fill-rule:nonzero;fill:rgb(3.529412%,58.431373%,86.666667%);fill-opacity:1;" d="M 22.039062 81.914062 L 22.039062 81.164062 L 21.832031 81.164062 C 21.808594 81.28125 21.765625 81.363281 21.707031 81.410156 C 21.683594 81.429688 21.65625 81.4375 21.621094 81.449219 C 21.5625 81.46875 21.472656 81.480469 21.367188 81.480469 L 20.265625 81.480469 L 20.265625 80.089844 L 21.164062 80.089844 C 21.269531 80.089844 21.339844 80.105469 21.375 80.136719 C 21.414062 80.167969 21.4375 80.230469 21.445312 80.324219 L 21.621094 80.324219 L 21.625 79.433594 L 21.453125 79.433594 C 21.4375 79.519531 21.40625 79.585938 21.359375 79.617188 C 21.3125 79.648438 21.210938 79.667969 21.054688 79.667969 L 20.269531 79.667969 L 20.269531 78.757812 L 21.347656 78.757812 C 21.488281 78.757812 21.578125 78.769531 21.625 78.804688 C 21.625 78.804688 21.632812 78.808594 21.632812 78.8125 C 21.679688 78.847656 21.714844 78.917969 21.738281 79.023438 L 21.925781 79.023438 L 21.925781 78.308594 L 19.507812 78.308594 L 19.507812 78.535156 C 19.574219 78.542969 19.621094 78.5625 19.644531 78.59375 C 19.667969 78.628906 19.683594 78.691406 19.683594 78.789062 L 19.683594 81.441406 C 19.683594 81.535156 19.667969 81.601562 19.644531 81.632812 C 19.621094 81.667969 19.574219 81.691406 19.507812 81.695312 L 19.507812 81.914062 Z M 22.039062 81.914062 "/>
<path style=" stroke:none;fill-rule:nonzero;fill:rgb(3.529412%,58.431373%,86.666667%);fill-opacity:1;" d="M 27.40625 80.117188 C 27.246094 79.9375 26.992188 79.792969 26.636719 79.6875 C 26.578125 79.671875 26.492188 79.652344 26.386719 79.617188 C 25.96875 79.507812 25.761719 79.34375 25.761719 79.136719 C 25.761719 79.003906 25.8125 78.890625 25.917969 78.808594 C 26.019531 78.726562 26.160156 78.683594 26.335938 78.683594 C 26.527344 78.683594 26.683594 78.726562 26.816406 78.820312 C 26.941406 78.917969 27.003906 79.03125 27.003906 79.152344 C 27.003906 79.179688 27.003906 79.207031 26.996094 79.230469 C 26.992188 79.25 26.984375 79.28125 26.972656 79.316406 L 27.105469 79.457031 L 27.589844 78.921875 C 27.4375 78.6875 27.257812 78.511719 27.050781 78.394531 C 26.84375 78.277344 26.597656 78.226562 26.320312 78.226562 C 25.988281 78.226562 25.71875 78.320312 25.503906 78.515625 C 25.292969 78.707031 25.1875 78.949219 25.1875 79.242188 C 25.1875 79.5 25.253906 79.707031 25.390625 79.859375 C 25.523438 80.019531 25.753906 80.148438 26.082031 80.25 C 26.164062 80.277344 26.273438 80.308594 26.417969 80.351562 C 26.617188 80.40625 26.746094 80.449219 26.800781 80.484375 C 26.886719 80.539062 26.949219 80.605469 26.992188 80.679688 C 27.035156 80.753906 27.054688 80.832031 27.054688 80.929688 C 27.054688 81.109375 26.992188 81.25 26.863281 81.359375 C 26.734375 81.464844 26.5625 81.523438 26.34375 81.523438 C 26.144531 81.523438 25.984375 81.46875 25.863281 81.371094 C 25.738281 81.269531 25.675781 81.140625 25.675781 80.988281 C 25.675781 80.941406 25.683594 80.902344 25.699219 80.859375 C 25.710938 80.816406 25.738281 80.773438 25.769531 80.726562 L 25.644531 80.558594 L 25.015625 81.070312 C 25.175781 81.40625 25.359375 81.648438 25.570312 81.796875 C 25.777344 81.949219 26.039062 82.023438 26.355469 82.023438 C 26.746094 82.023438 27.058594 81.914062 27.292969 81.691406 C 27.527344 81.472656 27.644531 81.183594 27.644531 80.820312 C 27.644531 80.527344 27.566406 80.292969 27.40625 80.117188 "/>
<path style=" stroke:none;fill-rule:nonzero;fill:rgb(3.529412%,58.431373%,86.666667%);fill-opacity:1;" d="M 18.675781 78.53125 L 18.683594 78.53125 C 18.726562 78.53125 18.753906 78.539062 18.777344 78.5625 C 18.800781 78.582031 18.8125 78.617188 18.8125 78.65625 C 18.8125 78.671875 18.808594 78.699219 18.800781 78.730469 C 18.796875 78.765625 18.789062 78.800781 18.777344 78.84375 L 18.125 81.113281 L 17.480469 78.804688 C 17.472656 78.769531 17.464844 78.734375 17.460938 78.707031 C 17.453125 78.675781 17.453125 78.652344 17.453125 78.628906 C 17.453125 78.605469 17.464844 78.578125 17.492188 78.558594 C 17.515625 78.539062 17.550781 78.53125 17.601562 78.53125 L 17.601562 78.3125 L 16.640625 78.3125 L 16.640625 78.53125 C 16.691406 78.539062 16.738281 78.5625 16.773438 78.601562 C 16.808594 78.644531 16.835938 78.703125 16.855469 78.785156 L 17.738281 81.914062 L 18.335938 81.914062 L 19.234375 78.816406 C 19.265625 78.707031 19.292969 78.636719 19.324219 78.601562 C 19.355469 78.5625 19.398438 78.542969 19.457031 78.53125 L 19.457031 78.3125 L 18.675781 78.3125 Z M 18.675781 78.53125 "/>
<path style=" stroke:none;fill-rule:nonzero;fill:rgb(3.529412%,58.431373%,86.666667%);fill-opacity:1;" d="M 26.636719 84.097656 C 26.703125 84.105469 26.75 84.121094 26.773438 84.15625 C 26.800781 84.191406 26.8125 84.253906 26.8125 84.347656 L 26.8125 87.003906 C 26.8125 87.097656 26.800781 87.160156 26.773438 87.191406 C 26.75 87.230469 26.707031 87.25 26.636719 87.257812 L 26.636719 87.480469 L 27.578125 87.480469 L 27.578125 87.257812 C 27.515625 87.25 27.472656 87.226562 27.445312 87.1875 C 27.417969 87.152344 27.40625 87.09375 27.40625 87.015625 L 27.40625 84.339844 C 27.40625 84.257812 27.417969 84.199219 27.445312 84.160156 C 27.472656 84.121094 27.515625 84.105469 27.578125 84.09375 L 27.578125 83.875 L 26.636719 83.875 Z M 26.636719 84.097656 "/>
<path style=" stroke:none;fill-rule:nonzero;fill:rgb(3.529412%,58.431373%,86.666667%);fill-opacity:1;" d="M 25.441406 84.097656 C 25.507812 84.105469 25.554688 84.121094 25.578125 84.15625 C 25.601562 84.191406 25.613281 84.253906 25.613281 84.347656 L 25.613281 86.984375 L 25.308594 86.984375 C 25.058594 86.984375 24.882812 86.972656 24.777344 86.945312 C 24.671875 86.917969 24.585938 86.871094 24.511719 86.804688 C 24.394531 86.699219 24.304688 86.5625 24.246094 86.394531 C 24.1875 86.226562 24.15625 86.027344 24.15625 85.800781 C 24.15625 85.617188 24.175781 85.441406 24.210938 85.261719 C 24.25 85.078125 24.304688 84.894531 24.378906 84.710938 C 24.449219 84.523438 24.523438 84.382812 24.59375 84.289062 C 24.664062 84.195312 24.746094 84.125 24.839844 84.074219 L 24.835938 83.875 L 23.9375 83.875 L 23.9375 84.074219 C 24 84.082031 24.039062 84.089844 24.0625 84.105469 C 24.082031 84.109375 24.09375 84.132812 24.09375 84.15625 C 24.09375 84.203125 24.058594 84.296875 23.988281 84.4375 C 23.933594 84.550781 23.890625 84.644531 23.859375 84.722656 C 23.753906 84.980469 23.679688 85.199219 23.636719 85.382812 C 23.617188 85.472656 23.601562 85.5625 23.589844 85.652344 C 23.578125 85.742188 23.574219 85.835938 23.574219 85.929688 C 23.574219 86.035156 23.578125 86.132812 23.589844 86.226562 C 23.609375 86.414062 23.652344 86.582031 23.71875 86.730469 C 23.816406 86.957031 23.960938 87.136719 24.15625 87.273438 C 24.261719 87.351562 24.382812 87.398438 24.515625 87.429688 C 24.648438 87.460938 24.867188 87.480469 25.175781 87.480469 L 26.382812 87.480469 L 26.382812 87.257812 C 26.3125 87.25 26.265625 87.222656 26.242188 87.175781 C 26.214844 87.128906 26.203125 87.027344 26.203125 86.863281 L 26.203125 84.339844 C 26.203125 84.261719 26.21875 84.207031 26.246094 84.164062 C 26.277344 84.121094 26.316406 84.101562 26.378906 84.09375 L 26.382812 83.875 L 25.441406 83.875 Z M 25.441406 84.097656 "/>
<path style=" stroke:none;fill-rule:nonzero;fill:rgb(3.529412%,58.431373%,86.666667%);fill-opacity:1;" d="M 43.914062 87.570312 L 44.472656 87.570312 L 44.472656 43.398438 L 43.914062 43.398438 Z M 43.914062 87.570312 "/>
<path style=" stroke:none;fill-rule:nonzero;fill:rgb(3.529412%,58.431373%,86.666667%);fill-opacity:1;" d="M 51.199219 80.785156 L 54.484375 80.785156 L 54.484375 82.070312 L 52.535156 82.070312 L 52.535156 83.425781 L 54.363281 83.425781 L 54.363281 84.710938 L 52.535156 84.710938 L 52.535156 87.542969 L 51.199219 87.542969 Z M 51.199219 80.785156 "/>
<path style=" stroke:none;fill-rule:nonzero;fill:rgb(3.529412%,58.431373%,86.666667%);fill-opacity:1;" d="M 56.589844 82.015625 L 56.574219 82.015625 L 56.105469 85.023438 L 57.074219 85.023438 Z M 55.777344 80.785156 L 57.449219 80.785156 L 58.863281 87.542969 L 57.480469 87.542969 L 57.273438 86.253906 L 55.914062 86.253906 L 55.714844 87.542969 L 54.332031 87.542969 Z M 55.777344 80.785156 "/>
<path style=" stroke:none;fill-rule:nonzero;fill:rgb(3.529412%,58.431373%,86.666667%);fill-opacity:1;" d="M 61.527344 83.132812 C 61.527344 82.148438 61.433594 81.710938 60.988281 81.710938 C 60.457031 81.710938 60.40625 82.316406 60.40625 84.085938 C 60.40625 86.09375 60.460938 86.613281 61.019531 86.613281 C 61.511719 86.613281 61.566406 85.941406 61.574219 84.890625 L 62.863281 84.890625 L 62.863281 85.128906 C 62.863281 86.585938 62.519531 87.675781 60.867188 87.675781 C 59.15625 87.675781 59.023438 86.152344 59.023438 84.117188 C 59.023438 82.382812 59.101562 80.652344 60.996094 80.652344 C 62.171875 80.652344 62.816406 81.257812 62.816406 82.847656 L 62.816406 83.132812 Z M 61.527344 83.132812 "/>
<path style=" stroke:none;fill-rule:nonzero;fill:rgb(3.529412%,58.431373%,86.666667%);fill-opacity:1;" d="M 67.082031 85.308594 C 67.082031 86.632812 66.765625 87.675781 65.214844 87.675781 C 63.664062 87.675781 63.347656 86.632812 63.347656 85.308594 L 63.347656 80.78125 L 64.683594 80.78125 L 64.683594 85.769531 C 64.683594 86.300781 64.859375 86.613281 65.214844 86.613281 C 65.574219 86.613281 65.746094 86.300781 65.746094 85.769531 L 65.746094 80.785156 L 67.082031 80.785156 Z M 67.082031 85.308594 "/>
<path style=" stroke:none;fill-rule:nonzero;fill:rgb(3.529412%,58.431373%,86.666667%);fill-opacity:1;" d="M 67.835938 80.785156 L 69.171875 80.785156 L 69.171875 86.253906 L 71.105469 86.253906 L 71.105469 87.542969 L 67.835938 87.542969 Z M 67.835938 80.785156 "/>
<path style=" stroke:none;fill-rule:nonzero;fill:rgb(3.529412%,58.431373%,86.666667%);fill-opacity:1;" d="M 71.757812 82.070312 L 70.566406 82.070312 L 70.566406 80.785156 L 74.285156 80.785156 L 74.285156 82.070312 L 73.09375 82.070312 L 73.09375 87.542969 L 71.757812 87.542969 Z M 71.757812 82.070312 "/>
<path style=" stroke:none;fill-rule:nonzero;fill:rgb(3.529412%,58.431373%,86.666667%);fill-opacity:1;" d="M 76.167969 82.015625 L 76.152344 82.015625 L 75.683594 85.023438 L 76.65625 85.023438 Z M 75.359375 80.785156 L 77.027344 80.785156 L 78.441406 87.542969 L 77.058594 87.542969 L 76.851562 86.253906 L 75.492188 86.253906 L 75.292969 87.542969 L 73.910156 87.542969 Z M 75.359375 80.785156 "/>
<path style=" stroke:none;fill-rule:nonzero;fill:rgb(3.529412%,58.431373%,86.666667%);fill-opacity:1;" d="M 80.207031 86.371094 L 80.566406 86.371094 C 81.1875 86.371094 81.402344 86.078125 81.402344 84.050781 C 81.402344 82.402344 81.289062 81.957031 80.582031 81.957031 L 80.207031 81.960938 Z M 78.871094 80.785156 L 80.851562 80.785156 C 82.171875 80.785156 82.734375 81.597656 82.734375 83.949219 C 82.734375 86.402344 82.472656 87.546875 80.714844 87.546875 L 78.871094 87.546875 Z M 78.871094 80.785156 "/>
<path style=" stroke:none;fill-rule:nonzero;fill:rgb(3.529412%,58.431373%,86.666667%);fill-opacity:1;" d="M 86.835938 86.371094 L 87.195312 86.371094 C 87.816406 86.371094 88.03125 86.078125 88.03125 84.050781 C 88.03125 82.402344 87.917969 81.957031 87.210938 81.957031 L 86.835938 81.960938 Z M 85.5 80.785156 L 87.480469 80.785156 C 88.800781 80.785156 89.363281 81.597656 89.363281 83.949219 C 89.363281 86.402344 89.101562 87.546875 87.34375 87.546875 L 85.5 87.546875 Z M 85.5 80.785156 "/>
<path style=" stroke:none;fill-rule:nonzero;fill:rgb(3.529412%,58.431373%,86.666667%);fill-opacity:1;" d="M 90.066406 80.785156 L 93.347656 80.785156 L 93.347656 82.070312 L 91.398438 82.070312 L 91.398438 83.425781 L 93.230469 83.425781 L 93.230469 84.710938 L 91.398438 84.710938 L 91.398438 86.253906 L 93.433594 86.253906 L 93.433594 87.542969 L 90.066406 87.542969 Z M 90.066406 80.785156 "/>
<path style=" stroke:none;fill-rule:nonzero;fill:rgb(3.529412%,58.431373%,86.666667%);fill-opacity:1;" d="M 96.128906 80.78125 L 97.464844 80.78125 L 97.464844 87.542969 L 96.128906 87.542969 Z M 96.128906 80.78125 "/>
<path style=" stroke:none;fill-rule:nonzero;fill:rgb(3.529412%,58.431373%,86.666667%);fill-opacity:1;" d="M 98.316406 80.785156 L 99.851562 80.785156 L 100.949219 85.175781 L 100.964844 85.175781 L 100.964844 80.785156 L 102.207031 80.785156 L 102.207031 87.546875 L 100.695312 87.546875 L 99.523438 82.886719 L 99.507812 82.886719 L 99.507812 87.546875 L 98.316406 87.542969 Z M 98.316406 80.785156 "/>
<path style=" stroke:none;fill-rule:nonzero;fill:rgb(3.529412%,58.431373%,86.666667%);fill-opacity:1;" d="M 105.429688 82.839844 C 105.429688 82.402344 105.390625 81.714844 104.898438 81.714844 C 104.351562 81.714844 104.285156 82.378906 104.285156 84.175781 C 104.285156 86.023438 104.363281 86.617188 104.898438 86.617188 C 105.351562 86.617188 105.511719 86.125 105.511719 85.195312 L 105.511719 84.976562 L 104.882812 84.980469 L 104.882812 83.917969 L 106.75 83.917969 L 106.75 87.542969 L 105.835938 87.542969 L 105.804688 86.898438 L 105.789062 86.898438 C 105.582031 87.503906 105.082031 87.675781 104.5625 87.675781 C 103.140625 87.675781 102.902344 86.417969 102.902344 84.304688 C 102.902344 82.089844 103.03125 80.652344 104.921875 80.652344 C 106.648438 80.652344 106.71875 82.074219 106.71875 82.839844 Z M 105.429688 82.839844 "/>
<path style=" stroke:none;fill-rule:nonzero;fill:rgb(3.529412%,58.431373%,86.666667%);fill-opacity:1;" d="M 107.449219 80.785156 L 110.734375 80.785156 L 110.734375 82.070312 L 108.785156 82.070312 L 108.785156 83.425781 L 110.613281 83.425781 L 110.613281 84.710938 L 108.785156 84.710938 L 108.785156 86.253906 L 110.820312 86.253906 L 110.820312 87.542969 L 107.449219 87.542969 Z M 107.449219 80.785156 "/>
<path style=" stroke:none;fill-rule:nonzero;fill:rgb(3.529412%,58.431373%,86.666667%);fill-opacity:1;" d="M 111.425781 80.785156 L 112.960938 80.785156 L 114.058594 85.175781 L 114.074219 85.175781 L 114.074219 80.785156 L 115.316406 80.785156 L 115.316406 87.546875 L 113.804688 87.546875 L 112.632812 82.886719 L 112.617188 82.886719 L 112.617188 87.546875 L 111.425781 87.542969 Z M 111.425781 80.785156 "/>
<path style=" stroke:none;fill-rule:nonzero;fill:rgb(3.529412%,58.431373%,86.666667%);fill-opacity:1;" d="M 116.164062 80.78125 L 117.5 80.78125 L 117.5 87.542969 L 116.164062 87.542969 Z M 116.164062 80.78125 "/>
<path style=" stroke:none;fill-rule:nonzero;fill:rgb(3.529412%,58.431373%,86.666667%);fill-opacity:1;" d="M 118.347656 80.785156 L 121.632812 80.785156 L 121.632812 82.070312 L 119.683594 82.070312 L 119.683594 83.425781 L 121.511719 83.425781 L 121.511719 84.710938 L 119.683594 84.710938 L 119.683594 86.253906 L 121.71875 86.253906 L 121.71875 87.542969 L 118.347656 87.542969 Z M 118.347656 80.785156 "/>
<path style=" stroke:none;fill-rule:nonzero;fill:rgb(3.529412%,58.431373%,86.666667%);fill-opacity:1;" d="M 123.660156 83.632812 L 124.074219 83.632812 C 124.613281 83.632812 124.757812 83.148438 124.757812 82.753906 C 124.757812 82.242188 124.597656 81.902344 124.066406 81.902344 L 123.660156 81.902344 Z M 122.324219 80.785156 L 124.566406 80.785156 C 125.703125 80.785156 126.09375 81.617188 126.09375 82.546875 C 126.09375 83.53125 125.757812 84.015625 125.140625 84.195312 L 125.136719 84.210938 C 125.988281 84.351562 126.035156 84.988281 126.054688 85.894531 C 126.078125 87.230469 126.117188 87.363281 126.308594 87.457031 L 126.308594 87.542969 L 124.867188 87.542969 C 124.761719 87.316406 124.722656 86.9375 124.722656 86.171875 C 124.722656 84.996094 124.585938 84.75 124.164062 84.75 L 123.660156 84.75 L 123.660156 87.542969 L 122.324219 87.542969 Z M 122.324219 80.785156 "/>
<path style=" stroke:none;fill-rule:nonzero;fill:rgb(3.529412%,58.431373%,86.666667%);fill-opacity:1;" d="M 127.492188 79.023438 L 128.730469 79.023438 L 127.9375 80.367188 L 127.09375 80.367188 Z M 126.910156 80.785156 L 128.246094 80.785156 L 128.246094 87.546875 L 126.910156 87.546875 Z M 126.910156 80.785156 "/>
<path style=" stroke:none;fill-rule:nonzero;fill:rgb(3.529412%,58.431373%,86.666667%);fill-opacity:1;" d="M 130.957031 82.015625 L 130.941406 82.015625 L 130.472656 85.023438 L 131.441406 85.023438 Z M 130.144531 80.785156 L 131.816406 80.785156 L 133.230469 87.542969 L 131.847656 87.542969 L 131.640625 86.253906 L 130.28125 86.253906 L 130.082031 87.542969 L 128.699219 87.542969 Z M 130.144531 80.785156 "/>
</g>
</svg>
