<?xml version="1.0" encoding="UTF-8"?>
<svg xmlns="http://www.w3.org/2000/svg" xmlns:xlink="http://www.w3.org/1999/xlink" width="102.4pt" height="57.6pt" viewBox="0 0 102.4 57.6" version="1.1">
<defs>
<clipPath id="clip1">
  <path d="M 12 23 L 75 23 L 75 57.601562 L 12 57.601562 Z M 12 23 "/>
</clipPath>
</defs>
<g id="surface47">
<path style=" stroke:none;fill-rule:nonzero;fill:rgb(0%,0%,0%);fill-opacity:1;" d="M 48.894531 10.800781 C 48.847656 10.929688 48.703125 11.039062 48.558594 11.039062 C 48.429688 11.039062 48.320312 11.121094 48.320312 11.21875 C 48.320312 11.296875 48.398438 11.328125 48.476562 11.28125 C 48.574219 11.234375 48.636719 11.296875 48.636719 11.441406 C 48.636719 11.585938 48.574219 11.664062 48.507812 11.617188 C 48.429688 11.570312 48.125 11.488281 47.835938 11.441406 L 47.308594 11.34375 L 47.582031 11.761719 C 47.851562 12.160156 47.851562 12.175781 47.515625 11.96875 C 47.339844 11.855469 47.195312 11.695312 47.195312 11.601562 C 47.179688 11.519531 47.085938 11.617188 46.972656 11.839844 C 46.84375 12.0625 46.78125 12.289062 46.8125 12.351562 C 46.863281 12.433594 46.828125 12.480469 46.734375 12.480469 C 46.65625 12.480469 46.511719 12.367188 46.429688 12.226562 C 46.300781 12 46.269531 12 46.171875 12.257812 C 46.109375 12.433594 46.140625 12.578125 46.222656 12.609375 C 46.316406 12.640625 46.398438 12.734375 46.398438 12.816406 C 46.398438 12.910156 46.335938 12.929688 46.238281 12.878906 C 46.160156 12.832031 45.917969 12.894531 45.726562 13.023438 C 45.4375 13.230469 45.421875 13.28125 45.632812 13.28125 C 45.773438 13.28125 45.953125 13.359375 46.015625 13.457031 C 46.078125 13.585938 45.96875 13.601562 45.601562 13.519531 C 45.3125 13.457031 44.992188 13.390625 44.894531 13.375 C 44.800781 13.359375 44.640625 13.296875 44.542969 13.234375 C 44.304688 13.089844 43.359375 13.28125 43.359375 13.457031 C 43.359375 13.535156 43.183594 13.679688 42.960938 13.761719 C 42.734375 13.839844 42.558594 14.015625 42.558594 14.144531 C 42.558594 14.257812 42.445312 14.417969 42.304688 14.464844 C 42.109375 14.53125 42.0625 14.496094 42.144531 14.320312 C 42.191406 14.179688 42.144531 14.082031 41.984375 14.082031 C 41.808594 14.082031 41.761719 14.175781 41.824219 14.335938 C 41.890625 14.515625 41.839844 14.5625 41.632812 14.496094 C 41.457031 14.433594 41.265625 14.5625 41.039062 14.867188 C 40.882812 15.121094 40.6875 15.3125 40.625 15.265625 C 40.496094 15.203125 38.945312 17.457031 39.007812 17.632812 C 39.023438 17.714844 38.976562 17.761719 38.898438 17.761719 C 38.816406 17.761719 38.480469 18.210938 38.144531 18.753906 C 37.539062 19.746094 37.1875 19.84375 37.679688 18.882812 C 37.824219 18.59375 37.921875 18.339844 37.875 18.304688 C 37.761719 18.179688 37.25 19.457031 37.21875 19.984375 C 37.203125 20.257812 37.089844 20.578125 36.976562 20.691406 C 36.800781 20.851562 36.800781 20.820312 36.960938 20.515625 C 37.054688 20.304688 37.121094 20.097656 37.074219 20.066406 C 36.976562 19.96875 36.273438 21.746094 35.695312 23.488281 C 34.898438 25.9375 34.867188 26.738281 35.601562 25.554688 C 36.015625 24.898438 36.625 24.816406 37.296875 25.296875 C 37.648438 25.539062 37.726562 25.695312 37.617188 25.808594 C 37.523438 25.90625 37.441406 26.113281 37.441406 26.257812 C 37.441406 26.59375 38.0625 27.378906 38.082031 27.058594 C 38.082031 26.929688 37.96875 26.753906 37.808594 26.640625 C 37.503906 26.417969 37.679688 26.019531 38.015625 26.148438 C 38.175781 26.210938 38.242188 26.117188 38.242188 25.828125 C 38.242188 25.601562 38.304688 25.296875 38.398438 25.140625 C 38.480469 24.980469 38.59375 24.609375 38.640625 24.308594 C 38.882812 22.964844 39.054688 22.484375 39.664062 21.476562 C 41.136719 19.046875 42.960938 17.253906 44.59375 16.644531 C 45.105469 16.453125 45.742188 16.214844 46 16.085938 C 46.273438 15.972656 46.734375 15.796875 47.039062 15.6875 C 47.34375 15.574219 47.746094 15.429688 47.921875 15.351562 C 48.769531 14.980469 49.25 14.820312 49.679688 14.773438 C 49.953125 14.757812 50.527344 14.660156 50.960938 14.566406 C 52.480469 14.277344 53.601562 14.359375 53.601562 14.742188 C 53.601562 14.820312 53.695312 14.886719 53.808594 14.886719 C 54.289062 14.902344 55.632812 16.5 56.335938 17.910156 C 56.71875 18.710938 56.816406 19.15625 56.894531 20.359375 C 56.945312 21.171875 56.925781 22.148438 56.847656 22.535156 L 56.71875 23.222656 L 56.078125 22.679688 C 55.261719 21.992188 54.0625 21.71875 53.230469 22.039062 C 52.6875 22.261719 52.300781 22.726562 52.652344 22.726562 C 52.75 22.726562 52.78125 22.789062 52.734375 22.867188 C 52.621094 23.027344 53.390625 23.203125 54.238281 23.203125 C 54.558594 23.203125 54.878906 23.253906 54.941406 23.316406 C 55.054688 23.429688 56.15625 23.84375 56.367188 23.84375 C 56.429688 23.84375 56.476562 23.734375 56.476562 23.605469 C 56.476562 23.476562 56.542969 23.363281 56.621094 23.363281 C 56.8125 23.363281 56.957031 23.78125 56.957031 24.324219 C 56.957031 24.675781 57.054688 24.804688 57.421875 24.929688 L 57.902344 25.109375 L 57.835938 23.058594 C 57.773438 20.738281 57.515625 19.507812 56.71875 17.445312 C 56.078125 15.765625 54.8125 13.683594 54.523438 13.859375 C 54.429688 13.921875 54.398438 13.90625 54.460938 13.796875 C 54.507812 13.699219 54.429688 13.554688 54.285156 13.460938 C 54.125 13.363281 54.0625 13.28125 54.15625 13.28125 C 54.234375 13.28125 54.125 13.15625 53.914062 13.011719 C 53.691406 12.851562 53.339844 12.753906 53.101562 12.769531 C 52.859375 12.800781 52.554688 12.707031 52.394531 12.546875 C 52.15625 12.289062 51.914062 12.226562 51.242188 12.179688 C 51.132812 12.164062 51.035156 12.050781 51.035156 11.921875 C 51.035156 11.792969 50.957031 11.679688 50.859375 11.679688 C 50.78125 11.679688 50.730469 11.617188 50.796875 11.539062 C 50.84375 11.457031 50.683594 11.25 50.445312 11.074219 C 50.109375 10.851562 49.882812 10.800781 49.5625 10.898438 C 49.308594 10.960938 49.117188 10.945312 49.117188 10.882812 C 49.117188 10.800781 49.273438 10.703125 49.484375 10.671875 C 49.804688 10.609375 49.789062 10.609375 49.421875 10.578125 C 49.164062 10.578125 48.957031 10.65625 48.890625 10.800781 Z M 50.414062 11.519531 C 50.671875 11.777344 50.878906 12.0625 50.878906 12.144531 C 50.878906 12.238281 51.152344 12.351562 51.472656 12.414062 C 51.808594 12.480469 52.175781 12.625 52.289062 12.75 C 52.398438 12.863281 52.640625 12.960938 52.816406 12.960938 C 53.3125 12.960938 54.238281 13.566406 54.238281 13.886719 C 54.238281 13.96875 54.382812 14.078125 54.558594 14.128906 C 54.816406 14.191406 54.863281 14.304688 54.800781 14.59375 C 54.71875 14.878906 54.800781 15.023438 55.183594 15.25 C 55.472656 15.425781 55.824219 15.871094 56.078125 16.417969 C 56.496094 17.28125 56.542969 17.839844 56.144531 17.089844 C 55.664062 16.160156 54.335938 14.738281 53.96875 14.71875 C 53.855469 14.71875 53.757812 14.65625 53.757812 14.59375 C 53.757812 14.257812 52.976562 14.113281 51.902344 14.257812 C 51.296875 14.335938 50.445312 14.449219 50 14.496094 C 49.566406 14.546875 49.054688 14.640625 48.878906 14.71875 C 48.015625 15.089844 47.390625 15.34375 46.878906 15.519531 C 46.574219 15.632812 46.109375 15.808594 45.835938 15.921875 C 45.582031 16.046875 44.941406 16.289062 44.429688 16.480469 C 43.902344 16.671875 43.117188 17.136719 42.671875 17.503906 C 40.957031 18.894531 38.847656 21.933594 38.640625 23.3125 C 38.558594 23.839844 38.445312 24.0625 38.222656 24.109375 C 37.917969 24.191406 37.792969 24.734375 38.0625 24.832031 C 38.160156 24.863281 38.160156 25.101562 38.078125 25.4375 C 38.015625 25.742188 37.953125 25.871094 37.9375 25.726562 C 37.886719 25.023438 36.144531 24.496094 35.679688 25.039062 C 35.3125 25.46875 35.34375 25.199219 35.855469 23.664062 C 36.527344 21.550781 36.65625 21.277344 36.863281 21.277344 C 36.976562 21.277344 37.136719 21.039062 37.25 20.75 C 37.488281 20.09375 38.878906 17.917969 39.070312 17.917969 C 39.136719 17.917969 39.199219 17.839844 39.199219 17.742188 C 39.199219 17.5 40.527344 15.519531 40.703125 15.519531 C 40.769531 15.519531 40.976562 15.34375 41.152344 15.117188 C 41.328125 14.894531 41.632812 14.71875 41.839844 14.71875 C 42.382812 14.71875 42.71875 14.558594 42.71875 14.304688 C 42.71875 13.953125 43.488281 13.726562 44.0625 13.902344 C 44.703125 14.09375 45.757812 14.109375 45.757812 13.933594 C 45.757812 13.855469 45.9375 13.742188 46.160156 13.695312 C 46.480469 13.613281 46.558594 13.484375 46.574219 13.070312 C 46.605469 12.574219 46.605469 12.574219 46.671875 13.007812 C 46.734375 13.421875 46.78125 13.453125 47.246094 13.359375 C 47.535156 13.292969 47.824219 13.179688 47.917969 13.101562 C 48.140625 12.894531 48.320312 12.925781 48.320312 13.179688 C 48.320312 13.308594 48.175781 13.46875 48 13.515625 C 47.710938 13.613281 47.535156 14.078125 47.789062 14.078125 C 48.03125 14.078125 48.960938 13.675781 48.960938 13.582031 C 48.960938 13.515625 49.101562 13.5 49.296875 13.550781 C 49.566406 13.628906 49.617188 13.582031 49.566406 13.34375 C 49.535156 13.148438 49.375 13.039062 49.152344 13.054688 C 48.960938 13.054688 48.800781 13.007812 48.800781 12.925781 C 48.800781 12.863281 48.945312 12.796875 49.121094 12.796875 C 49.359375 12.796875 49.441406 12.6875 49.441406 12.398438 C 49.441406 12.03125 49.375 12 48.800781 12 C 48.449219 12 48.160156 11.933594 48.160156 11.855469 C 48.160156 11.773438 48.304688 11.742188 48.480469 11.789062 C 48.71875 11.855469 48.800781 11.789062 48.800781 11.550781 C 48.800781 11.246094 49.007812 11.132812 49.742188 11.054688 C 49.871094 11.054688 50.175781 11.246094 50.414062 11.519531 Z M 47.421875 12.144531 C 47.472656 12.222656 47.40625 12.367188 47.28125 12.480469 C 47.070312 12.640625 47.039062 12.625 47.039062 12.335938 C 47.039062 12 47.261719 11.886719 47.421875 12.144531 Z M 48.574219 12.351562 C 48.496094 12.222656 48.589844 12.160156 48.910156 12.175781 C 49.152344 12.175781 49.261719 12.222656 49.132812 12.269531 C 48.957031 12.351562 48.957031 12.382812 49.132812 12.492188 C 49.292969 12.589844 49.246094 12.636719 48.957031 12.652344 C 48.734375 12.667969 48.492188 12.667969 48.414062 12.652344 C 48.351562 12.636719 48.109375 12.734375 47.902344 12.875 C 47.695312 13.003906 47.4375 13.117188 47.324219 13.117188 C 47.164062 13.117188 47.164062 13.085938 47.324219 12.972656 C 47.453125 12.910156 47.53125 12.78125 47.5 12.703125 C 47.484375 12.621094 47.644531 12.476562 47.851562 12.367188 C 48.140625 12.222656 48.285156 12.222656 48.460938 12.367188 C 48.652344 12.507812 48.667969 12.507812 48.574219 12.351562 Z M 46.992188 13.152344 C 46.941406 13.28125 46.894531 13.230469 46.894531 13.054688 C 46.878906 12.878906 46.925781 12.785156 46.976562 12.847656 C 47.023438 12.898438 47.039062 13.039062 46.992188 13.152344 Z M 46.320312 13.136719 C 46.496094 13.40625 46.304688 13.472656 46.078125 13.199219 C 45.949219 13.054688 45.949219 12.960938 46.046875 12.960938 C 46.140625 12.960938 46.269531 13.039062 46.320312 13.136719 Z M 48.796875 13.457031 C 48.796875 13.535156 48.734375 13.601562 48.640625 13.601562 C 48.558594 13.601562 48.480469 13.488281 48.480469 13.34375 C 48.480469 13.214844 48.558594 13.152344 48.640625 13.199219 C 48.734375 13.25 48.796875 13.359375 48.796875 13.457031 Z M 44.476562 13.425781 C 44.476562 13.503906 44.382812 13.601562 44.269531 13.648438 C 44.140625 13.695312 44.046875 13.632812 44.046875 13.503906 C 44.046875 13.375 44.140625 13.28125 44.269531 13.28125 C 44.382812 13.28125 44.476562 13.34375 44.476562 13.425781 Z M 45.597656 13.761719 C 45.597656 13.839844 45.535156 13.921875 45.453125 13.921875 C 45.359375 13.921875 45.246094 13.839844 45.199219 13.761719 C 45.148438 13.664062 45.214844 13.601562 45.34375 13.601562 C 45.484375 13.601562 45.597656 13.664062 45.597656 13.761719 Z M 55.375 14.992188 C 55.582031 15.265625 55.582031 15.265625 55.28125 15.039062 C 55.101562 14.914062 54.929688 14.785156 54.894531 14.769531 C 54.863281 14.738281 54.894531 14.71875 54.992188 14.71875 C 55.085938 14.71875 55.261719 14.847656 55.375 14.992188 Z M 56.796875 18.160156 C 56.796875 18.242188 56.71875 18.210938 56.640625 18.082031 C 56.558594 17.953125 56.480469 17.761719 56.480469 17.679688 C 56.480469 17.585938 56.558594 17.632812 56.640625 17.761719 C 56.71875 17.890625 56.796875 18.066406 56.796875 18.160156 Z M 57.359375 20.03125 C 57.597656 21.136719 57.789062 24.800781 57.597656 24.800781 C 57.132812 24.785156 57.085938 24.449219 57.054688 21.695312 C 57.054688 20.144531 57.054688 18.882812 57.070312 18.882812 C 57.085938 18.882812 57.214844 19.410156 57.359375 20.03125 Z M 55.773438 22.6875 C 56.0625 22.929688 56.300781 23.25 56.300781 23.394531 C 56.316406 23.679688 56.367188 23.699219 55.117188 23.1875 C 54.941406 23.121094 54.414062 23.027344 53.933594 22.992188 C 52.957031 22.914062 52.621094 22.59375 53.164062 22.273438 C 53.742188 21.953125 55.132812 22.160156 55.773438 22.6875 Z M 55.773438 22.6875 "/>
<path style=" stroke:none;fill-rule:nonzero;fill:rgb(0%,0%,0%);fill-opacity:1;" d="M 49.921875 12.078125 C 49.921875 12.207031 50.03125 12.320312 50.160156 12.320312 C 50.289062 12.320312 50.402344 12.207031 50.402344 12.078125 C 50.402344 11.953125 50.289062 11.839844 50.160156 11.839844 C 50.03125 11.839844 49.921875 11.953125 49.921875 12.078125 Z M 49.921875 12.078125 "/>
<path style=" stroke:none;fill-rule:nonzero;fill:rgb(0%,0%,0%);fill-opacity:1;" d="M 47.808594 12.59375 C 47.921875 12.640625 48.0625 12.625 48.113281 12.578125 C 48.175781 12.527344 48.082031 12.480469 47.90625 12.496094 C 47.726562 12.496094 47.679688 12.546875 47.808594 12.59375 Z M 47.808594 12.59375 "/>
<path style=" stroke:none;fill-rule:nonzero;fill:rgb(0%,0%,0%);fill-opacity:1;" d="M 40.242188 14.914062 L 39.601562 15.601562 L 40.289062 14.960938 C 40.910156 14.382812 41.039062 14.238281 40.910156 14.238281 C 40.878906 14.238281 40.574219 14.542969 40.238281 14.910156 Z M 40.242188 14.914062 "/>
<path style=" stroke:none;fill-rule:nonzero;fill:rgb(0%,0%,0%);fill-opacity:1;" d="M 38.449219 17.152344 C 38.207031 17.472656 38.046875 17.757812 38.128906 17.757812 C 38.175781 17.757812 38.320312 17.582031 38.464844 17.359375 C 38.734375 16.945312 38.71875 16.800781 38.449219 17.152344 Z M 38.449219 17.152344 "/>
<path style=" stroke:none;fill-rule:nonzero;fill:rgb(0%,0%,0%);fill-opacity:1;" d="M 43.570312 20.945312 L 43.21875 21.230469 L 43.585938 21.421875 C 43.777344 21.535156 44.035156 21.632812 44.164062 21.648438 C 44.289062 21.679688 44.5 21.742188 44.609375 21.804688 C 44.707031 21.886719 44.882812 21.886719 44.960938 21.835938 C 45.058594 21.773438 45.21875 21.804688 45.332031 21.886719 C 45.445312 21.980469 45.953125 22.15625 46.484375 22.300781 C 47.21875 22.492188 47.460938 22.492188 47.554688 22.351562 C 47.730469 22.0625 47.730469 22.03125 47.265625 21.550781 C 46.738281 20.972656 46.371094 20.84375 45.027344 20.734375 C 44.097656 20.65625 43.859375 20.6875 43.570312 20.941406 Z M 46.015625 21.039062 C 46.511719 21.117188 47.359375 21.808594 47.359375 22.109375 C 47.359375 22.320312 46.320312 22.140625 45.730469 21.839844 C 45.488281 21.726562 44.976562 21.582031 44.609375 21.519531 C 43.746094 21.375 43.617188 21.296875 43.839844 21.039062 C 44 20.832031 44.816406 20.832031 46.015625 21.039062 Z M 46.015625 21.039062 "/>
<path style=" stroke:none;fill-rule:nonzero;fill:rgb(0%,0%,0%);fill-opacity:1;" d="M 42.242188 23.007812 L 42.800781 23.085938 L 42.242188 23.199219 C 41.839844 23.28125 42.113281 23.328125 43.136719 23.34375 C 43.9375 23.34375 44.847656 23.390625 45.136719 23.4375 L 45.679688 23.519531 L 45.199219 23.359375 C 44.945312 23.28125 44.304688 23.183594 43.808594 23.167969 C 43.296875 23.136719 42.878906 23.070312 42.878906 22.992188 C 42.878906 22.925781 42.609375 22.894531 42.289062 22.910156 L 41.679688 22.925781 L 42.238281 23.007812 Z M 42.242188 23.007812 "/>
<g clip-path="url(#clip1)" clip-rule="nonzero">
<path style=" stroke:none;fill-rule:nonzero;fill:rgb(0%,0%,0%);fill-opacity:1;" d="M 46.320312 23.742188 C 48.03125 24.289062 48.578125 24.878906 48.414062 25.984375 C 48.273438 26.878906 47.421875 28.289062 46.734375 28.753906 C 46.289062 29.058594 45.984375 29.121094 44.976562 29.121094 C 43.726562 29.121094 42.417969 28.851562 41.808594 28.480469 C 41.214844 28.113281 40.914062 27.375 40.832031 26.128906 C 40.78125 25.410156 40.703125 25.007812 40.589844 25.074219 C 40.320312 25.234375 40.589844 27.167969 40.992188 27.890625 C 41.296875 28.449219 41.535156 28.625 42.320312 28.945312 C 43.453125 29.394531 45.519531 29.570312 46.476562 29.296875 C 47.214844 29.089844 47.820312 28.304688 48.605469 26.546875 C 49.101562 25.441406 49.328125 25.234375 49.773438 25.457031 C 50.125 25.632812 50.351562 26.242188 50.640625 27.761719 C 50.765625 28.46875 50.945312 29.058594 51.023438 29.089844 C 51.085938 29.105469 51.136719 29.332031 51.101562 29.570312 C 51.070312 29.8125 51.085938 29.875 51.132812 29.730469 C 51.214844 29.472656 51.261719 29.472656 51.679688 29.777344 C 52.605469 30.464844 55.292969 30.785156 56.382812 30.335938 C 56.671875 30.226562 57.070312 29.921875 57.261719 29.664062 L 57.632812 29.203125 L 57.519531 30 C 57.46875 30.433594 57.34375 31.007812 57.246094 31.25 C 57.085938 31.648438 57.054688 31.664062 56.816406 31.457031 C 56.558594 31.234375 56.496094 31.3125 55.921875 32.53125 C 55.152344 34.144531 54.097656 35.84375 53.855469 35.84375 C 53.710938 35.84375 53.121094 36.898438 53.121094 37.15625 C 53.121094 37.296875 52.015625 38.914062 51.632812 39.332031 C 51.457031 39.523438 51.234375 39.683594 51.167969 39.683594 C 51.089844 39.683594 50.929688 39.777344 50.800781 39.890625 C 50.6875 40.003906 50.351562 40.082031 50.0625 40.066406 C 49.742188 40.050781 49.390625 40.148438 49.167969 40.324219 C 48.863281 40.5625 48.6875 40.578125 47.96875 40.453125 C 47.503906 40.371094 47.089844 40.273438 47.054688 40.226562 C 47.023438 40.195312 46.863281 40.242188 46.6875 40.339844 C 46.445312 40.46875 46.304688 40.453125 46.078125 40.246094 C 45.9375 40.117188 45.550781 39.972656 45.265625 39.941406 C 44.960938 39.925781 44.511719 39.78125 44.242188 39.652344 C 43.984375 39.523438 43.34375 39.253906 42.847656 39.046875 C 42.335938 38.851562 41.921875 38.644531 41.921875 38.582031 C 41.921875 38.515625 41.761719 38.453125 41.570312 38.453125 C 41.359375 38.4375 41.183594 38.339844 41.152344 38.246094 C 41.121094 38.164062 40.992188 38.085938 40.882812 38.085938 C 40.753906 38.085938 40.464844 37.8125 40.242188 37.476562 C 39.921875 37.015625 39.890625 36.871094 40.0625 36.835938 C 40.207031 36.804688 40.257812 36.679688 40.207031 36.53125 C 40.160156 36.40625 40.191406 36.246094 40.273438 36.179688 C 40.511719 36.039062 40.6875 35.367188 40.496094 35.367188 C 40.414062 35.367188 40.367188 35.15625 40.398438 34.902344 C 40.449219 34.484375 40.398438 34.40625 40 34.324219 C 39.472656 34.210938 39.121094 33.859375 39.28125 33.605469 C 39.328125 33.523438 39.28125 33.445312 39.152344 33.445312 C 38.816406 33.445312 38.445312 32.40625 38.414062 31.382812 C 38.398438 30.902344 38.351562 30.453125 38.304688 30.390625 C 38.273438 30.324219 38.191406 29.71875 38.144531 29.011719 C 38.046875 27.429688 37.984375 27.269531 37.695312 27.523438 C 37.453125 27.71875 37.421875 27.84375 37.421875 28.835938 C 37.421875 29.652344 37.472656 29.925781 37.617188 29.925781 C 37.679688 29.925781 37.710938 30.117188 37.695312 30.355469 C 37.664062 30.613281 37.617188 30.804688 37.601562 30.804688 C 37.585938 30.804688 37.550781 30.964844 37.535156 31.15625 C 37.488281 31.621094 37.421875 31.667969 36.976562 31.714844 C 36.5625 31.765625 36.5625 31.765625 35.824219 30.085938 C 35.539062 29.429688 35.21875 28.835938 35.121094 28.773438 C 35.007812 28.707031 34.960938 28.46875 35.007812 28.210938 C 35.039062 27.957031 35.039062 27.8125 34.976562 27.859375 C 34.929688 27.910156 34.832031 28.453125 34.800781 29.0625 C 34.75 29.667969 34.640625 30.917969 34.558594 31.84375 C 34.480469 32.773438 34.398438 33.652344 34.398438 33.8125 C 34.382812 33.972656 34.222656 34.390625 34.03125 34.726562 C 33.632812 35.414062 31.214844 38.40625 31.039062 38.40625 C 30.894531 38.40625 29.757812 39.429688 29.757812 39.574219 C 29.757812 39.734375 30.976562 40.3125 32 40.632812 C 32.578125 40.824219 32.929688 41.03125 33.039062 41.253906 C 33.136719 41.460938 33.34375 41.605469 33.554688 41.605469 C 33.746094 41.605469 34.128906 41.734375 34.382812 41.894531 L 34.847656 42.179688 L 34 42.933594 C 33.214844 43.621094 33.070312 43.683594 32.335938 43.683594 C 31.90625 43.683594 31.152344 43.765625 30.6875 43.859375 C 28.894531 44.210938 28.59375 44.5 28.800781 45.636719 C 28.863281 45.972656 28.863281 46.292969 28.785156 46.324219 C 28.6875 46.390625 24.414062 47.316406 22.800781 47.636719 C 22.289062 47.734375 18.960938 48.996094 18.242188 49.367188 C 17.664062 49.671875 15.984375 51.429688 15.070312 52.679688 C 14.320312 53.71875 13.777344 54.757812 13.070312 56.597656 L 12.671875 57.605469 L 74.542969 57.605469 L 74.304688 57.046875 C 74.175781 56.742188 73.96875 55.976562 73.839844 55.351562 C 73.710938 54.726562 73.503906 54.085938 73.390625 53.929688 C 72.671875 52.90625 68.269531 50.121094 66.558594 49.609375 C 65.902344 49.414062 64.863281 49.046875 64.253906 48.792969 C 63.664062 48.535156 62.71875 48.214844 62.191406 48.070312 C 61.632812 47.929688 61.117188 47.6875 60.992188 47.511719 C 60.878906 47.335938 60.527344 47.097656 60.238281 46.984375 C 59.886719 46.824219 59.617188 46.570312 59.46875 46.214844 C 59.34375 45.929688 58.976562 45.429688 58.65625 45.144531 C 57.96875 44.488281 57.871094 43.929688 58.460938 44.039062 C 58.765625 44.101562 58.8125 44.054688 58.75 43.816406 C 58.703125 43.574219 58.78125 43.527344 59.214844 43.511719 C 59.519531 43.511719 59.664062 43.460938 59.566406 43.414062 C 59.292969 43.320312 59.710938 42.886719 60.078125 42.886719 C 60.222656 42.886719 60.285156 42.808594 60.238281 42.726562 C 60.171875 42.632812 59.996094 42.601562 59.835938 42.648438 C 59.628906 42.710938 59.375 42.585938 59.023438 42.265625 C 58.75 41.992188 58.398438 41.734375 58.238281 41.6875 C 57.886719 41.574219 57.695312 41.128906 57.902344 40.917969 C 58.015625 40.804688 58.1875 40.855469 58.414062 41.0625 L 58.765625 41.367188 L 58.492188 40.839844 C 58.351562 40.566406 58.15625 40.328125 58.078125 40.328125 C 58 40.328125 57.886719 39.992188 57.820312 39.574219 C 57.757812 39.160156 57.4375 38.214844 57.101562 37.480469 C 56.75 36.742188 56.476562 35.910156 56.476562 35.625 C 56.476562 35.078125 56.925781 33.59375 57.132812 33.445312 C 57.246094 33.367188 57.3125 33 57.535156 31.367188 C 57.582031 31.0625 57.679688 30.4375 57.742188 30.007812 C 57.820312 29.558594 57.886719 29 57.902344 28.742188 C 57.933594 27.992188 58.351562 26.550781 58.652344 26.230469 C 58.925781 25.925781 58.859375 25.445312 58.558594 25.445312 C 58.460938 25.445312 58.429688 25.511719 58.476562 25.605469 C 58.636719 25.863281 58.382812 25.796875 57.535156 25.367188 C 57.101562 25.140625 56.589844 24.964844 56.414062 24.980469 C 56.191406 24.980469 56.15625 25.011719 56.320312 25.0625 C 57.214844 25.367188 57.804688 25.71875 57.933594 26.039062 C 58.125 26.53125 57.820312 28.054688 57.34375 28.996094 C 56.78125 30.101562 56.285156 30.308594 54.460938 30.210938 C 52.621094 30.117188 51.902344 29.796875 51.390625 28.835938 C 50.878906 27.921875 50.71875 25.957031 51.085938 25.378906 C 51.359375 24.980469 52.398438 24.660156 53.566406 24.628906 C 53.886719 24.628906 54.300781 24.5625 54.476562 24.484375 C 54.894531 24.308594 53.183594 24.46875 51.917969 24.707031 C 51.132812 24.867188 50.960938 24.964844 50.847656 25.285156 C 50.75 25.621094 50.734375 25.589844 50.765625 25.125 L 50.796875 24.566406 L 49.839844 24.46875 C 49.3125 24.421875 48.703125 24.292969 48.480469 24.183594 C 48.144531 24.023438 48.128906 24.023438 48.335938 24.199219 C 48.625 24.453125 48.847656 24.96875 48.65625 24.96875 C 48.578125 24.96875 48.464844 24.855469 48.414062 24.726562 C 48.304688 24.421875 46.445312 23.527344 46 23.542969 C 45.824219 23.542969 45.96875 23.636719 46.320312 23.75 Z M 50.5625 24.960938 C 50.5625 25.101562 50.59375 25.582031 50.640625 26.015625 L 50.734375 26.800781 L 50.496094 26.160156 C 50.09375 25.136719 49.535156 24.863281 48.960938 25.4375 L 48.640625 25.757812 L 48.640625 25.4375 C 48.640625 25.261719 48.71875 25.117188 48.816406 25.117188 C 48.910156 25.117188 48.960938 24.992188 48.929688 24.832031 C 48.863281 24.589844 48.960938 24.558594 49.710938 24.609375 C 50.398438 24.65625 50.5625 24.71875 50.5625 24.960938 Z M 58.5625 25.984375 C 58.5625 26.160156 58.257812 26.222656 58.160156 26.078125 C 58.113281 26 58.175781 25.917969 58.304688 25.917969 C 58.449219 25.917969 58.5625 25.949219 58.5625 25.984375 Z M 38.210938 31.359375 C 38.351562 32.65625 38.640625 33.601562 38.882812 33.601562 C 38.945312 33.601562 39.039062 33.742188 39.089844 33.921875 C 39.136719 34.097656 39.394531 34.320312 39.648438 34.414062 C 40.046875 34.542969 40.128906 34.6875 40.207031 35.246094 C 40.257812 35.617188 40.238281 35.933594 40.144531 35.96875 C 40.0625 36 40 36.160156 40 36.320312 C 40 36.476562 39.90625 36.640625 39.808594 36.6875 C 39.535156 36.78125 40.144531 37.917969 40.578125 38.160156 C 40.753906 38.238281 40.914062 38.367188 40.960938 38.414062 C 41.007812 38.464844 41.695312 38.785156 42.480469 39.101562 C 43.28125 39.4375 44.066406 39.808594 44.242188 39.917969 C 44.417969 40.015625 44.800781 40.109375 45.105469 40.125 C 45.390625 40.125 45.761719 40.253906 45.921875 40.398438 C 46.128906 40.589844 46.367188 40.640625 46.671875 40.574219 C 46.914062 40.511719 47.503906 40.542969 47.984375 40.640625 C 48.6875 40.765625 48.929688 40.75 49.214844 40.558594 C 49.421875 40.429688 49.886719 40.304688 50.273438 40.273438 C 50.640625 40.242188 50.976562 40.128906 51.007812 40.03125 C 51.039062 39.917969 51.152344 39.839844 51.265625 39.839844 C 51.375 39.839844 51.617188 39.679688 51.792969 39.488281 C 52.175781 39.070312 53.28125 37.457031 53.28125 37.3125 C 53.28125 37.054688 53.871094 36 54.015625 36 C 54.257812 36 55.3125 34.304688 56 32.828125 C 56.367188 32.046875 56.625 31.695312 56.769531 31.757812 C 56.882812 31.804688 57.054688 31.835938 57.136719 31.835938 C 57.296875 31.835938 57.136719 33.148438 56.960938 33.277344 C 56.6875 33.46875 56.335938 35.085938 56.242188 36.558594 C 56.128906 38.222656 56.304688 39.023438 56.929688 39.710938 C 57.070312 39.886719 57.105469 39.996094 56.992188 39.996094 C 56.65625 39.996094 56.800781 40.476562 57.28125 40.988281 C 57.550781 41.261719 57.757812 41.53125 57.757812 41.613281 C 57.757812 41.675781 57.886719 41.773438 58.046875 41.820312 C 58.207031 41.882812 58.589844 42.15625 58.910156 42.445312 C 59.375 42.859375 59.4375 42.988281 59.261719 43.164062 C 59.148438 43.257812 58.941406 43.355469 58.796875 43.355469 C 58.671875 43.355469 58.558594 43.46875 58.558594 43.597656 C 58.558594 43.726562 58.414062 43.835938 58.238281 43.835938 C 57.679688 43.835938 57.820312 44.652344 58.492188 45.292969 C 58.8125 45.582031 59.179688 46.078125 59.308594 46.367188 C 59.453125 46.71875 59.726562 46.972656 60.078125 47.132812 C 60.367188 47.246094 60.71875 47.484375 60.828125 47.664062 C 60.957031 47.839844 61.46875 48.078125 62.03125 48.222656 C 62.558594 48.367188 63.5 48.6875 64.09375 48.941406 C 64.703125 49.199219 65.742188 49.566406 66.398438 49.757812 C 68.109375 50.269531 72.511719 53.054688 73.230469 54.078125 C 73.34375 54.238281 73.535156 54.863281 73.660156 55.46875 C 73.789062 56.078125 73.964844 56.765625 74.0625 57.007812 L 74.238281 57.4375 L 12.992188 57.4375 L 13.375 56.398438 C 14.191406 54.171875 15.183594 52.621094 16.992188 50.75 C 17.535156 50.1875 18.175781 49.628906 18.398438 49.515625 C 19.742188 48.828125 22.734375 47.820312 24.640625 47.4375 C 25.824219 47.195312 27.3125 46.878906 27.917969 46.734375 L 29.039062 46.476562 L 28.992188 45.5625 C 28.941406 44.75 28.976562 44.636719 29.3125 44.460938 C 29.855469 44.171875 31.46875 43.851562 32.445312 43.835938 C 33.230469 43.835938 33.375 43.773438 34.175781 43.085938 C 34.640625 42.652344 35.039062 42.234375 35.039062 42.15625 C 35.039062 41.933594 34.125 41.4375 33.710938 41.4375 C 33.503906 41.4375 33.296875 41.292969 33.199219 41.101562 C 33.101562 40.890625 32.75 40.667969 32.320312 40.523438 C 31.679688 40.332031 30.269531 39.722656 30.09375 39.5625 C 30.015625 39.5 31.054688 38.554688 31.199219 38.554688 C 31.375 38.554688 33.808594 35.5625 34.207031 34.84375 C 34.496094 34.332031 34.609375 33.804688 34.734375 32.109375 C 34.816406 30.9375 34.945312 29.757812 35.007812 29.46875 C 35.121094 28.953125 35.136719 28.972656 35.648438 30.1875 C 36.417969 31.964844 36.382812 31.914062 36.960938 31.882812 C 37.570312 31.851562 37.710938 31.675781 37.855469 30.730469 C 37.9375 30.234375 37.886719 29.882812 37.695312 29.5 C 37.472656 29.035156 37.472656 28.84375 37.648438 28.300781 L 37.839844 27.660156 L 37.953125 28.828125 C 38 29.46875 38.128906 30.605469 38.210938 31.355469 Z M 56.929688 37.710938 C 57.617188 39.648438 57.664062 40.222656 57.089844 39.550781 C 56.671875 39.085938 56.320312 38.078125 56.320312 37.328125 C 56.320312 36.433594 56.511719 36.542969 56.929688 37.710938 Z M 57.761719 40.160156 C 57.761719 40.238281 57.730469 40.320312 57.695312 40.320312 C 57.648438 40.320312 57.570312 40.238281 57.519531 40.160156 C 57.472656 40.0625 57.503906 40 57.585938 40 C 57.679688 40 57.761719 40.0625 57.761719 40.160156 Z M 57.585938 40.640625 C 57.777344 40.925781 57.792969 40.992188 57.617188 40.945312 C 57.488281 40.894531 57.28125 40.6875 57.136719 40.480469 C 56.945312 40.191406 56.929688 40.128906 57.105469 40.175781 C 57.234375 40.222656 57.441406 40.429688 57.585938 40.640625 Z M 57.585938 40.640625 "/>
</g>
<path style=" stroke:none;fill-rule:nonzero;fill:rgb(0%,0%,0%);fill-opacity:1;" d="M 37.839844 42.671875 C 37.777344 43.007812 37.695312 43.472656 37.664062 43.710938 C 37.617188 43.96875 37.710938 44.398438 37.90625 44.785156 C 38.128906 45.214844 38.242188 45.726562 38.242188 46.382812 C 38.242188 47.535156 38.367188 47.648438 39.9375 47.792969 C 40.511719 47.839844 41.070312 47.984375 41.183594 48.097656 C 41.328125 48.242188 41.96875 48.273438 43.695312 48.210938 L 46 48.144531 L 46.609375 47.523438 C 46.929688 47.171875 47.203125 46.800781 47.203125 46.691406 C 47.1875 46.273438 46.371094 45.875 45.378906 45.8125 C 44.785156 45.761719 44.128906 45.585938 43.683594 45.363281 C 43.28125 45.15625 42.769531 44.929688 42.53125 44.882812 C 42.273438 44.835938 42.082031 44.691406 42.082031 44.578125 C 42.082031 44.449219 41.9375 44.320312 41.761719 44.273438 C 41.570312 44.226562 41.441406 44.050781 41.441406 43.859375 C 41.441406 43.457031 40.898438 43.136719 40.386719 43.25 C 40.128906 43.296875 39.921875 43.21875 39.792969 43.058594 C 39.539062 42.707031 38.515625 42.082031 38.195312 42.082031 C 38.015625 42.082031 37.90625 42.273438 37.84375 42.671875 Z M 38.71875 42.511719 C 38.945312 42.65625 39.167969 42.863281 39.234375 42.945312 C 39.296875 43.039062 39.359375 43.054688 39.359375 42.992188 C 39.359375 42.929688 39.554688 43.070312 39.777344 43.3125 C 40.046875 43.617188 40.207031 43.695312 40.273438 43.554688 C 40.367188 43.296875 40.671875 43.3125 41.039062 43.585938 C 41.328125 43.792969 41.328125 43.808594 40.914062 43.726562 C 40.367188 43.617188 40.320312 43.953125 40.882812 44.097656 C 41.089844 44.144531 41.34375 44.289062 41.457031 44.417969 C 41.554688 44.546875 41.699219 44.59375 41.777344 44.546875 C 41.859375 44.496094 41.921875 44.578125 41.921875 44.703125 C 41.921875 44.847656 42.113281 44.992188 42.371094 45.039062 C 42.609375 45.089844 43.140625 45.3125 43.570312 45.535156 C 44.066406 45.808594 44.65625 45.96875 45.28125 46 C 45.9375 46.046875 46.371094 46.160156 46.660156 46.382812 L 47.074219 46.703125 L 46.453125 47.34375 L 45.84375 47.984375 L 44.085938 48.035156 C 43.125 48.050781 42.226562 48.003906 42.101562 47.9375 C 41.972656 47.859375 41.84375 47.875 41.765625 48.003906 C 41.652344 48.179688 41.585938 48.164062 41.394531 47.972656 C 41.25 47.828125 40.707031 47.683594 40.101562 47.636719 C 38.53125 47.492188 38.40625 47.378906 38.40625 46.226562 C 38.40625 45.570312 38.292969 45.058594 38.070312 44.628906 C 37.84375 44.164062 37.796875 43.921875 37.910156 43.78125 C 38.003906 43.667969 38.039062 43.523438 37.988281 43.476562 C 37.859375 43.347656 38.070312 42.242188 38.210938 42.242188 C 38.277344 42.242188 38.515625 42.371094 38.726562 42.515625 Z M 38.71875 42.511719 "/>
<path style=" stroke:none;fill-rule:nonzero;fill:rgb(0%,0%,0%);fill-opacity:1;" d="M 51.839844 48.542969 C 51.839844 48.75 52.289062 48.960938 52.769531 48.960938 C 53.054688 48.960938 53.007812 48.527344 52.703125 48.414062 C 52.273438 48.257812 51.839844 48.304688 51.839844 48.542969 Z M 52.640625 48.640625 C 52.929688 48.832031 52.671875 48.832031 52.242188 48.640625 C 52.03125 48.542969 52 48.496094 52.160156 48.496094 C 52.289062 48.496094 52.511719 48.558594 52.640625 48.640625 Z M 52.640625 48.640625 "/>
<path style=" stroke:none;fill-rule:nonzero;fill:rgb(0%,0%,0%);fill-opacity:1;" d="M 30.878906 50.960938 C 30.878906 51.085938 30.992188 51.199219 31.121094 51.199219 C 31.25 51.199219 31.359375 51.085938 31.359375 50.960938 C 31.359375 50.832031 31.25 50.71875 31.121094 50.71875 C 30.992188 50.71875 30.878906 50.832031 30.878906 50.960938 Z M 30.878906 50.960938 "/>
<path style=" stroke:none;fill-rule:nonzero;fill:rgb(0%,0%,0%);fill-opacity:1;" d="M 54.769531 24.75 C 54.914062 24.78125 55.136719 24.78125 55.25 24.75 C 55.34375 24.703125 55.234375 24.671875 54.960938 24.671875 C 54.703125 24.671875 54.609375 24.703125 54.769531 24.75 Z M 54.769531 24.75 "/>
<path style=" stroke:none;fill-rule:nonzero;fill:rgb(0%,0%,0%);fill-opacity:1;" d="M 44.289062 25.070312 C 44.398438 25.121094 44.542969 25.101562 44.59375 25.054688 C 44.65625 25.007812 44.5625 24.960938 44.382812 24.976562 C 44.207031 24.976562 44.160156 25.023438 44.289062 25.070312 Z M 44.289062 25.070312 "/>
<path style=" stroke:none;fill-rule:nonzero;fill:rgb(0%,0%,0%);fill-opacity:1;" d="M 47.679688 26.71875 C 47.3125 27.425781 47.25 27.921875 47.566406 27.441406 C 47.808594 27.089844 48.175781 26.082031 48.078125 26.082031 C 48.03125 26.082031 47.855469 26.367188 47.679688 26.722656 Z M 47.679688 26.71875 "/>
<path style=" stroke:none;fill-rule:nonzero;fill:rgb(0%,0%,0%);fill-opacity:1;" d="M 53.757812 26.558594 C 53.757812 26.640625 53.839844 26.71875 53.9375 26.71875 C 54.015625 26.71875 54.046875 26.640625 54 26.558594 C 53.953125 26.464844 53.871094 26.398438 53.824219 26.398438 C 53.792969 26.398438 53.757812 26.464844 53.757812 26.558594 Z M 53.757812 26.558594 "/>
<path style=" stroke:none;fill-rule:nonzero;fill:rgb(0%,0%,0%);fill-opacity:1;" d="M 46.878906 31.28125 C 46.878906 31.535156 47.199219 31.585938 47.792969 31.421875 C 48.320312 31.28125 48.078125 31.039062 47.421875 31.039062 C 47.039062 31.039062 46.878906 31.117188 46.878906 31.28125 Z M 47.472656 31.296875 C 47.421875 31.34375 47.28125 31.359375 47.167969 31.3125 C 47.039062 31.261719 47.085938 31.214844 47.261719 31.214844 C 47.4375 31.199219 47.535156 31.246094 47.46875 31.296875 Z M 47.472656 31.296875 "/>
<path style=" stroke:none;fill-rule:nonzero;fill:rgb(0%,0%,0%);fill-opacity:1;" d="M 50.078125 31.359375 C 49.953125 31.4375 49.648438 31.519531 49.40625 31.519531 C 48.542969 31.519531 48.976562 31.773438 49.839844 31.773438 C 50.558594 31.789062 50.71875 31.742188 50.6875 31.550781 C 50.625 31.230469 50.382812 31.167969 50.078125 31.359375 Z M 50.078125 31.359375 "/>
<path style=" stroke:none;fill-rule:nonzero;fill:rgb(0%,0%,0%);fill-opacity:1;" d="M 46.640625 32.894531 C 46.511719 33.039062 46.398438 33.085938 46.398438 33.039062 C 46.398438 32.976562 46.222656 33.039062 46 33.183594 C 45.726562 33.359375 45.3125 33.4375 44.800781 33.421875 C 44.175781 33.390625 43.921875 33.472656 43.472656 33.808594 C 43.167969 34.03125 42.878906 34.367188 42.832031 34.542969 C 42.765625 34.816406 42.816406 34.863281 43.183594 34.832031 C 43.421875 34.800781 43.679688 34.734375 43.773438 34.671875 C 44.09375 34.480469 45.34375 34.09375 45.453125 34.160156 C 45.519531 34.207031 46.125 34.09375 46.796875 33.917969 C 47.804688 33.664062 48.175781 33.632812 48.671875 33.757812 C 49.007812 33.855469 49.359375 33.886719 49.4375 33.839844 C 49.519531 33.789062 49.664062 33.902344 49.757812 34.078125 C 49.855469 34.257812 50.0625 34.398438 50.207031 34.398438 C 50.496094 34.398438 51.183594 34.863281 51.777344 35.472656 C 52.242188 35.96875 52.640625 35.953125 52.640625 35.441406 C 52.640625 35.007812 51.953125 34.242188 51.570312 34.242188 C 51.441406 34.242188 51.007812 33.890625 50.59375 33.457031 L 49.839844 32.671875 L 49.25 32.960938 C 48.71875 33.214844 48.625 33.214844 48.320312 33.007812 C 48.128906 32.878906 47.9375 32.800781 47.90625 32.847656 C 47.855469 32.898438 47.601562 32.863281 47.34375 32.800781 C 47.007812 32.703125 46.816406 32.71875 46.640625 32.894531 Z M 48.046875 33.199219 C 48.6875 33.40625 48.800781 33.40625 49.265625 33.183594 L 49.777344 32.929688 L 50.367188 33.570312 C 50.6875 33.90625 51.234375 34.320312 51.570312 34.480469 C 52.160156 34.753906 52.640625 35.410156 52.433594 35.632812 C 52.367188 35.679688 52.160156 35.554688 51.953125 35.34375 C 51.34375 34.703125 50.671875 34.242188 50.367188 34.242188 C 50.226562 34.242188 50.015625 34.097656 49.921875 33.90625 C 49.824219 33.726562 49.617188 33.601562 49.472656 33.617188 C 49.328125 33.648438 48.894531 33.601562 48.542969 33.539062 C 48.078125 33.457031 47.601562 33.507812 47.023438 33.664062 C 46.558594 33.808594 45.953125 33.921875 45.695312 33.921875 C 45.421875 33.921875 44.800781 34.066406 44.320312 34.242188 C 43.085938 34.691406 42.847656 34.640625 43.519531 34.082031 C 43.984375 33.667969 44.207031 33.601562 44.992188 33.601562 C 45.484375 33.601562 45.949219 33.523438 46 33.445312 C 46.046875 33.347656 46.238281 33.285156 46.414062 33.285156 C 46.574219 33.285156 46.71875 33.203125 46.71875 33.125 C 46.71875 32.902344 47.230469 32.933594 48.046875 33.203125 Z M 48.046875 33.199219 "/>
<path style=" stroke:none;fill-rule:nonzero;fill:rgb(0%,0%,0%);fill-opacity:1;" d="M 45.757812 35.054688 C 45.453125 35.121094 45.039062 35.136719 44.847656 35.085938 C 44.605469 35.039062 44.476562 35.070312 44.476562 35.199219 C 44.476562 35.359375 44.71875 35.375 45.390625 35.296875 C 45.886719 35.230469 46.335938 35.152344 46.382812 35.117188 C 46.527344 34.960938 46.304688 34.941406 45.757812 35.054688 Z M 45.757812 35.054688 "/>
<path style=" stroke:none;fill-rule:nonzero;fill:rgb(0%,0%,0%);fill-opacity:1;" d="M 49.441406 35.535156 C 49.664062 35.632812 50.03125 35.808594 50.273438 35.9375 C 50.496094 36.0625 50.863281 36.160156 51.070312 36.144531 L 51.441406 36.144531 L 51.039062 35.953125 C 50.816406 35.855469 50.59375 35.710938 50.546875 35.632812 C 50.496094 35.550781 50.128906 35.453125 49.746094 35.421875 C 49.121094 35.359375 49.089844 35.375 49.441406 35.535156 Z M 49.441406 35.535156 "/>
<path style=" stroke:none;fill-rule:nonzero;fill:rgb(0%,0%,0%);fill-opacity:1;" d="M 48.046875 35.632812 C 48.191406 35.664062 48.449219 35.664062 48.609375 35.632812 C 48.75 35.582031 48.625 35.550781 48.320312 35.550781 C 48.015625 35.550781 47.890625 35.582031 48.046875 35.632812 Z M 48.046875 35.632812 "/>
<path style=" stroke:none;fill-rule:nonzero;fill:rgb(0%,0%,0%);fill-opacity:1;" d="M 46.273438 37.441406 C 45.726562 37.664062 45.871094 38.210938 46.558594 38.59375 C 47.519531 39.121094 49.917969 38.734375 49.789062 38.0625 C 49.695312 37.585938 47.039062 37.121094 46.269531 37.441406 Z M 49.007812 37.792969 C 49.328125 37.886719 49.601562 38.015625 49.601562 38.0625 C 49.601562 38.289062 48.960938 38.542969 48.144531 38.640625 C 47.457031 38.71875 47.167969 38.671875 46.734375 38.433594 C 46.429688 38.273438 46.144531 38.046875 46.113281 37.953125 C 45.953125 37.457031 47.535156 37.375 49.007812 37.792969 Z M 49.007812 37.792969 "/>
</g>
</svg>
