<?xml version="1.0" encoding="UTF-8"?>
<svg xmlns="http://www.w3.org/2000/svg" xmlns:xlink="http://www.w3.org/1999/xlink" width="28.346457pt" height="28.346457pt" viewBox="0 0 28.346457 28.346457" version="1.1">
<g id="surface47">
<path style=" stroke:none;fill-rule:nonzero;fill:rgb(3.529412%,58.431373%,86.666667%);fill-opacity:1;" d="M 7.8125 22.480469 L 8.253906 22.480469 L 8.253906 24.089844 L 7.8125 24.089844 Z M 7.8125 22.480469 "/>
<path style=" stroke:none;fill-rule:nonzero;fill:rgb(3.529412%,58.431373%,86.666667%);fill-opacity:1;" d="M 8.539062 22.480469 L 9.046875 22.480469 L 9.410156 23.527344 L 9.414062 23.527344 L 9.414062 22.480469 L 9.824219 22.480469 L 9.824219 24.089844 L 9.324219 24.089844 L 8.9375 22.980469 L 8.933594 22.980469 L 8.933594 24.089844 L 8.539062 24.089844 Z M 8.539062 22.480469 "/>
<path style=" stroke:none;fill-rule:nonzero;fill:rgb(3.529412%,58.431373%,86.666667%);fill-opacity:1;" d="M 10.890625 22.96875 C 10.890625 22.863281 10.878906 22.699219 10.714844 22.699219 C 10.535156 22.699219 10.511719 22.855469 10.511719 23.285156 C 10.511719 23.726562 10.539062 23.867188 10.714844 23.867188 C 10.863281 23.867188 10.917969 23.75 10.917969 23.527344 L 10.917969 23.476562 L 10.710938 23.476562 L 10.710938 23.222656 L 11.328125 23.226562 L 11.328125 24.089844 L 11.023438 24.089844 L 11.011719 23.9375 L 11.007812 23.9375 C 10.941406 24.082031 10.773438 24.121094 10.601562 24.121094 C 10.132812 24.121094 10.050781 23.820312 10.050781 23.316406 C 10.050781 22.789062 10.09375 22.445312 10.71875 22.445312 C 11.292969 22.449219 11.316406 22.785156 11.316406 22.96875 Z M 10.890625 22.96875 "/>
<path style=" stroke:none;fill-rule:nonzero;fill:rgb(3.529412%,58.431373%,86.666667%);fill-opacity:1;" d="M 11.558594 22.480469 L 12.644531 22.480469 L 12.644531 22.785156 L 12 22.785156 L 12 23.109375 L 12.605469 23.109375 L 12.605469 23.417969 L 12 23.414062 L 12 23.78125 L 12.671875 23.78125 L 12.671875 24.089844 L 11.558594 24.089844 Z M 11.558594 22.480469 "/>
<path style=" stroke:none;fill-rule:nonzero;fill:rgb(3.529412%,58.431373%,86.666667%);fill-opacity:1;" d="M 12.875 22.480469 L 13.378906 22.480469 L 13.742188 23.527344 L 13.75 23.527344 L 13.75 22.480469 L 14.160156 22.480469 L 14.160156 24.089844 L 13.660156 24.089844 L 13.273438 22.980469 L 13.269531 22.980469 L 13.269531 24.089844 L 12.875 24.089844 Z M 12.875 22.480469 "/>
<path style=" stroke:none;fill-rule:nonzero;fill:rgb(3.529412%,58.431373%,86.666667%);fill-opacity:1;" d="M 14.4375 22.480469 L 14.878906 22.480469 L 14.878906 24.089844 L 14.4375 24.089844 Z M 14.4375 22.480469 "/>
<path style=" stroke:none;fill-rule:nonzero;fill:rgb(3.529412%,58.431373%,86.666667%);fill-opacity:1;" d="M 15.164062 22.480469 L 16.25 22.480469 L 16.25 22.785156 L 15.605469 22.785156 L 15.605469 23.109375 L 16.210938 23.109375 L 16.210938 23.417969 L 15.605469 23.414062 L 15.605469 23.78125 L 16.277344 23.78125 L 16.277344 24.089844 L 15.164062 24.089844 Z M 15.164062 22.480469 "/>
<path style=" stroke:none;fill-rule:nonzero;fill:rgb(3.529412%,58.431373%,86.666667%);fill-opacity:1;" d="M 16.917969 23.15625 L 17.054688 23.15625 C 17.234375 23.15625 17.28125 23.042969 17.28125 22.945312 C 17.28125 22.824219 17.230469 22.742188 17.050781 22.742188 L 16.917969 22.742188 Z M 16.476562 22.476562 L 17.21875 22.476562 C 17.59375 22.476562 17.722656 22.675781 17.722656 22.894531 C 17.722656 23.128906 17.613281 23.242188 17.40625 23.285156 L 17.40625 23.289062 C 17.6875 23.324219 17.703125 23.472656 17.707031 23.691406 C 17.714844 24.007812 17.726562 24.039062 17.792969 24.0625 L 17.792969 24.082031 L 17.320312 24.085938 C 17.285156 24.03125 17.273438 23.941406 17.273438 23.757812 C 17.273438 23.476562 17.230469 23.417969 17.089844 23.417969 L 16.917969 23.421875 L 16.917969 24.085938 L 16.476562 24.085938 Z M 16.476562 22.476562 "/>
<path style=" stroke:none;fill-rule:nonzero;fill:rgb(3.529412%,58.431373%,86.666667%);fill-opacity:1;" d="M 18.1875 22.058594 L 18.597656 22.058594 L 18.332031 22.378906 L 18.054688 22.378906 Z M 17.996094 22.476562 L 18.4375 22.476562 L 18.4375 24.085938 L 17.996094 24.085938 Z M 17.996094 22.476562 "/>
<path style=" stroke:none;fill-rule:nonzero;fill:rgb(3.529412%,58.431373%,86.666667%);fill-opacity:1;" d="M 19.332031 22.773438 L 19.328125 22.773438 L 19.171875 23.492188 L 19.492188 23.492188 Z M 19.0625 22.480469 L 19.613281 22.480469 L 20.082031 24.089844 L 19.625 24.089844 L 19.558594 23.78125 L 19.109375 23.78125 L 19.042969 24.089844 L 18.585938 24.089844 Z M 19.0625 22.480469 "/>
<path style=" stroke:none;fill-rule:nonzero;fill:rgb(3.529412%,58.431373%,86.666667%);fill-opacity:1;" d="M 7.808594 24.886719 L 8.894531 24.886719 L 8.894531 25.191406 L 8.25 25.191406 L 8.25 25.515625 L 8.855469 25.515625 L 8.855469 25.824219 L 8.25 25.820312 L 8.25 26.1875 L 8.921875 26.1875 L 8.921875 26.496094 L 7.808594 26.496094 Z M 7.808594 24.886719 "/>
<path style=" stroke:none;fill-rule:nonzero;fill:rgb(3.529412%,58.431373%,86.666667%);fill-opacity:1;" d="M 9.121094 24.886719 L 9.5625 24.886719 L 9.5625 26.191406 L 10.203125 26.191406 L 10.203125 26.496094 L 9.121094 26.496094 Z M 9.121094 24.886719 "/>
<path style=" stroke:none;fill-rule:nonzero;fill:rgb(3.529412%,58.431373%,86.666667%);fill-opacity:1;" d="M 10.339844 24.886719 L 11.425781 24.886719 L 11.425781 25.191406 L 10.78125 25.191406 L 10.78125 25.515625 L 11.386719 25.515625 L 11.386719 25.824219 L 10.78125 25.820312 L 10.78125 26.1875 L 11.453125 26.1875 L 11.453125 26.496094 L 10.339844 26.496094 Z M 10.339844 24.886719 "/>
<path style=" stroke:none;fill-rule:nonzero;fill:rgb(3.529412%,58.431373%,86.666667%);fill-opacity:1;" d="M 12.441406 25.445312 C 12.441406 25.210938 12.410156 25.105469 12.261719 25.105469 C 12.085938 25.105469 12.070312 25.25 12.070312 25.671875 C 12.070312 26.148438 12.089844 26.273438 12.273438 26.273438 C 12.4375 26.273438 12.453125 26.113281 12.457031 25.863281 L 12.882812 25.863281 L 12.882812 25.917969 C 12.882812 26.265625 12.769531 26.523438 12.222656 26.523438 C 11.65625 26.523438 11.613281 26.160156 11.613281 25.675781 C 11.613281 25.261719 11.640625 24.851562 12.265625 24.851562 C 12.65625 24.851562 12.867188 24.996094 12.867188 25.375 L 12.867188 25.445312 Z M 12.441406 25.445312 "/>
<path style=" stroke:none;fill-rule:nonzero;fill:rgb(3.529412%,58.431373%,86.666667%);fill-opacity:1;" d="M 13.339844 25.191406 L 12.945312 25.191406 L 12.945312 24.886719 L 14.175781 24.886719 L 14.175781 25.191406 L 13.78125 25.191406 L 13.78125 26.496094 L 13.339844 26.496094 Z M 13.339844 25.191406 "/>
<path style=" stroke:none;fill-rule:nonzero;fill:rgb(3.529412%,58.431373%,86.666667%);fill-opacity:1;" d="M 14.769531 25.566406 L 14.90625 25.566406 C 15.085938 25.566406 15.132812 25.453125 15.132812 25.355469 C 15.132812 25.234375 15.082031 25.152344 14.902344 25.152344 L 14.769531 25.152344 Z M 14.328125 24.886719 L 15.070312 24.886719 C 15.445312 24.886719 15.574219 25.085938 15.574219 25.304688 C 15.574219 25.539062 15.464844 25.652344 15.257812 25.695312 L 15.257812 25.699219 C 15.539062 25.734375 15.554688 25.882812 15.558594 26.101562 C 15.566406 26.417969 15.578125 26.449219 15.644531 26.472656 L 15.644531 26.492188 L 15.167969 26.496094 C 15.132812 26.441406 15.121094 26.351562 15.121094 26.167969 C 15.121094 25.886719 15.078125 25.828125 14.9375 25.828125 L 14.769531 25.832031 L 14.769531 26.496094 L 14.328125 26.496094 Z M 14.328125 24.886719 "/>
<path style=" stroke:none;fill-rule:nonzero;fill:rgb(3.529412%,58.431373%,86.666667%);fill-opacity:1;" d="M 16.425781 24.46875 L 16.835938 24.46875 L 16.570312 24.785156 L 16.292969 24.785156 Z M 16.453125 26.277344 C 16.632812 26.277344 16.660156 26.136719 16.660156 25.691406 C 16.660156 25.25 16.632812 25.105469 16.453125 25.105469 C 16.28125 25.105469 16.253906 25.246094 16.253906 25.691406 C 16.253906 26.132812 16.28125 26.277344 16.453125 26.277344 M 16.457031 26.53125 C 15.875 26.53125 15.796875 26.207031 15.796875 25.695312 C 15.796875 25.183594 15.875 24.859375 16.457031 24.859375 C 17.082031 24.859375 17.117188 25.25 17.117188 25.695312 C 17.117188 26.140625 17.082031 26.53125 16.457031 26.53125 "/>
<path style=" stroke:none;fill-rule:nonzero;fill:rgb(3.529412%,58.431373%,86.666667%);fill-opacity:1;" d="M 17.34375 24.886719 L 17.851562 24.886719 L 18.214844 25.933594 L 18.21875 25.933594 L 18.21875 24.886719 L 18.628906 24.886719 L 18.628906 26.496094 L 18.132812 26.496094 L 17.746094 25.386719 L 17.738281 25.386719 L 17.738281 26.496094 L 17.34375 26.496094 Z M 17.34375 24.886719 "/>
<path style=" stroke:none;fill-rule:nonzero;fill:rgb(3.529412%,58.431373%,86.666667%);fill-opacity:1;" d="M 18.910156 24.886719 L 19.351562 24.886719 L 19.351562 26.496094 L 18.910156 26.496094 Z M 18.910156 24.886719 "/>
<path style=" stroke:none;fill-rule:nonzero;fill:rgb(3.529412%,58.431373%,86.666667%);fill-opacity:1;" d="M 20.421875 25.445312 C 20.421875 25.210938 20.390625 25.105469 20.242188 25.105469 C 20.066406 25.105469 20.050781 25.25 20.050781 25.671875 C 20.050781 26.148438 20.070312 26.273438 20.253906 26.273438 C 20.417969 26.273438 20.433594 26.113281 20.4375 25.863281 L 20.863281 25.863281 L 20.863281 25.917969 C 20.863281 26.265625 20.75 26.523438 20.203125 26.523438 C 19.636719 26.523438 19.59375 26.160156 19.59375 25.675781 C 19.59375 25.261719 19.621094 24.851562 20.246094 24.851562 C 20.636719 24.851562 20.847656 24.996094 20.847656 25.375 L 20.847656 25.445312 Z M 20.421875 25.445312 "/>
<path style=" stroke:none;fill-rule:nonzero;fill:rgb(3.529412%,58.431373%,86.666667%);fill-opacity:1;" d="M 21.660156 25.179688 L 21.65625 25.179688 L 21.5 25.898438 L 21.820312 25.898438 Z M 21.390625 24.886719 L 21.941406 24.886719 L 22.410156 26.496094 L 21.957031 26.496094 L 21.890625 26.1875 L 21.441406 26.1875 L 21.375 26.496094 L 20.917969 26.496094 Z M 21.390625 24.886719 "/>
<path style=" stroke:none;fill-rule:nonzero;fill:rgb(3.529412%,58.431373%,86.666667%);fill-opacity:1;" d="M 0.652344 27.8125 C 0.628906 27.832031 0.601562 27.84375 0.566406 27.847656 C 0.546875 27.851562 0.527344 27.851562 0.507812 27.851562 L 0.429688 27.851562 L 0.429688 27.507812 L 0.460938 27.507812 C 0.5 27.507812 0.539062 27.511719 0.570312 27.523438 C 0.59375 27.53125 0.617188 27.542969 0.636719 27.558594 C 0.679688 27.59375 0.703125 27.636719 0.703125 27.695312 C 0.703125 27.746094 0.6875 27.785156 0.652344 27.8125 M 0.683594 27.492188 C 0.65625 27.476562 0.625 27.46875 0.59375 27.460938 C 0.585938 27.457031 0.574219 27.457031 0.5625 27.457031 C 0.535156 27.453125 0.5 27.449219 0.457031 27.449219 L 0.289062 27.449219 L 0.289062 27.480469 C 0.300781 27.480469 0.308594 27.484375 0.3125 27.488281 C 0.316406 27.492188 0.320312 27.5 0.320312 27.511719 L 0.320312 27.851562 C 0.320312 27.863281 0.316406 27.871094 0.3125 27.875 C 0.308594 27.878906 0.300781 27.882812 0.289062 27.882812 L 0.289062 27.910156 L 0.503906 27.910156 C 0.527344 27.910156 0.546875 27.910156 0.5625 27.910156 C 0.585938 27.910156 0.609375 27.90625 0.625 27.902344 C 0.65625 27.898438 0.683594 27.886719 0.707031 27.875 C 0.738281 27.855469 0.765625 27.832031 0.78125 27.800781 C 0.800781 27.769531 0.808594 27.734375 0.808594 27.699219 C 0.808594 27.65625 0.796875 27.617188 0.773438 27.582031 C 0.753906 27.542969 0.722656 27.515625 0.683594 27.492188 "/>
<path style=" stroke:none;fill-rule:nonzero;fill:rgb(3.529412%,58.431373%,86.666667%);fill-opacity:1;" d="M 1.703125 27.847656 C 1.695312 27.855469 1.671875 27.859375 1.644531 27.859375 L 1.492188 27.859375 L 1.492188 27.511719 C 1.492188 27.5 1.496094 27.492188 1.5 27.488281 C 1.503906 27.480469 1.511719 27.480469 1.523438 27.480469 L 1.523438 27.449219 L 1.351562 27.449219 L 1.351562 27.480469 C 1.363281 27.480469 1.371094 27.484375 1.375 27.488281 C 1.378906 27.492188 1.382812 27.5 1.382812 27.511719 L 1.382812 27.851562 C 1.382812 27.863281 1.378906 27.871094 1.375 27.875 C 1.371094 27.878906 1.363281 27.882812 1.351562 27.882812 L 1.351562 27.914062 L 1.761719 27.914062 L 1.761719 27.808594 L 1.726562 27.808594 C 1.722656 27.828125 1.714844 27.839844 1.703125 27.847656 "/>
<path style=" stroke:none;fill-rule:nonzero;fill:rgb(3.529412%,58.431373%,86.666667%);fill-opacity:1;" d="M 2.789062 25.152344 L 2.789062 24.136719 L 2.792969 24.136719 C 2.789062 24.121094 2.789062 24.101562 2.789062 24.085938 C 2.789062 23.980469 2.824219 23.886719 2.886719 23.804688 C 2.996094 23.660156 3.1875 23.5625 3.402344 23.5625 C 3.648438 23.5625 3.863281 23.6875 3.960938 23.871094 C 3.996094 23.9375 4.015625 24.011719 4.015625 24.089844 C 4.015625 24.105469 4.015625 24.125 4.011719 24.140625 L 4.015625 24.140625 L 4.015625 25.171875 C 4.011719 25.242188 3.992188 25.308594 3.960938 25.367188 C 3.863281 25.550781 3.648438 25.675781 3.402344 25.675781 C 3.183594 25.675781 2.996094 25.578125 2.886719 25.433594 C 2.828125 25.359375 2.796875 25.269531 2.789062 25.171875 Z M 4.269531 25.789062 L 4.269531 26.050781 L 4.164062 26.054688 L 3.65625 26.054688 L 3.65625 25.792969 L 4.167969 25.792969 Z M 1.777344 26.46875 L 4.050781 26.46875 C 4.089844 26.46875 4.125 26.464844 4.164062 26.460938 C 4.25 26.449219 4.332031 26.421875 4.40625 26.386719 C 4.507812 26.335938 4.59375 26.261719 4.65625 26.175781 C 4.71875 26.085938 4.757812 25.980469 4.757812 25.867188 L 4.757812 22.265625 L 1.074219 22.265625 L 1.074219 25.867188 C 1.074219 26.199219 1.390625 26.46875 1.777344 26.46875 "/>
<path style=" stroke:none;fill-rule:nonzero;fill:rgb(3.529412%,58.431373%,86.666667%);fill-opacity:1;" d="M 5.09375 26.792969 L 5.125 26.792969 C 5.164062 26.792969 5.203125 26.796875 5.234375 26.808594 C 5.261719 26.816406 5.285156 26.828125 5.308594 26.84375 C 5.351562 26.878906 5.375 26.921875 5.375 26.980469 C 5.375 27.03125 5.359375 27.070312 5.324219 27.097656 C 5.296875 27.117188 5.265625 27.128906 5.230469 27.132812 C 5.214844 27.136719 5.191406 27.140625 5.171875 27.140625 L 5.09375 27.140625 Z M 5.230469 27.195312 C 5.257812 27.195312 5.277344 27.191406 5.292969 27.1875 C 5.324219 27.183594 5.351562 27.171875 5.375 27.15625 C 5.40625 27.136719 5.433594 27.113281 5.449219 27.082031 C 5.46875 27.050781 5.476562 27.015625 5.476562 26.980469 C 5.476562 26.9375 5.464844 26.898438 5.441406 26.863281 C 5.421875 26.828125 5.390625 26.800781 5.351562 26.777344 C 5.324219 26.761719 5.292969 26.753906 5.261719 26.746094 C 5.253906 26.746094 5.242188 26.742188 5.230469 26.742188 C 5.203125 26.738281 5.167969 26.734375 5.125 26.734375 L 4.957031 26.734375 L 4.957031 26.765625 C 4.96875 26.765625 4.976562 26.769531 4.980469 26.773438 C 4.984375 26.777344 4.988281 26.785156 4.988281 26.796875 L 4.988281 27.136719 C 4.988281 27.148438 4.984375 27.15625 4.980469 27.160156 C 4.976562 27.164062 4.96875 27.167969 4.957031 27.167969 L 4.957031 27.195312 L 5.171875 27.195312 C 5.195312 27.195312 5.214844 27.195312 5.230469 27.195312 "/>
<path style=" stroke:none;fill-rule:nonzero;fill:rgb(3.529412%,58.431373%,86.666667%);fill-opacity:1;" d="M 1.253906 27.847656 C 1.242188 27.855469 1.222656 27.855469 1.191406 27.855469 L 0.996094 27.855469 L 0.996094 27.675781 L 1.15625 27.675781 C 1.175781 27.675781 1.1875 27.679688 1.195312 27.683594 C 1.203125 27.6875 1.207031 27.695312 1.207031 27.707031 L 1.238281 27.707031 L 1.238281 27.59375 L 1.207031 27.59375 C 1.207031 27.605469 1.199219 27.613281 1.191406 27.617188 C 1.183594 27.621094 1.164062 27.625 1.136719 27.625 L 0.996094 27.625 L 0.996094 27.507812 L 1.1875 27.507812 C 1.214844 27.507812 1.230469 27.511719 1.238281 27.515625 C 1.246094 27.519531 1.253906 27.53125 1.257812 27.542969 L 1.289062 27.542969 L 1.289062 27.453125 L 0.859375 27.449219 L 0.859375 27.480469 C 0.871094 27.480469 0.882812 27.480469 0.886719 27.488281 C 0.890625 27.492188 0.890625 27.5 0.890625 27.511719 L 0.890625 27.851562 C 0.890625 27.863281 0.886719 27.871094 0.882812 27.875 C 0.878906 27.878906 0.871094 27.882812 0.859375 27.882812 L 0.859375 27.914062 L 1.3125 27.914062 L 1.3125 27.816406 L 1.277344 27.816406 C 1.273438 27.832031 1.265625 27.84375 1.253906 27.847656 "/>
<path style=" stroke:none;fill-rule:nonzero;fill:rgb(3.529412%,58.431373%,86.666667%);fill-opacity:1;" d="M 0.480469 27.171875 C 0.5 27.183594 0.519531 27.1875 0.542969 27.191406 C 0.550781 27.195312 0.554688 27.195312 0.5625 27.195312 C 0.589844 27.199219 0.621094 27.199219 0.660156 27.199219 L 0.875 27.199219 L 0.875 27.171875 C 0.863281 27.167969 0.855469 27.164062 0.851562 27.160156 C 0.847656 27.152344 0.84375 27.140625 0.84375 27.121094 L 0.84375 26.796875 C 0.84375 26.785156 0.847656 26.777344 0.851562 26.773438 C 0.855469 26.769531 0.863281 26.765625 0.875 26.765625 L 0.875 26.734375 L 0.707031 26.734375 L 0.707031 26.765625 C 0.71875 26.765625 0.726562 26.769531 0.734375 26.773438 C 0.738281 26.777344 0.738281 26.785156 0.738281 26.796875 L 0.738281 27.136719 L 0.683594 27.136719 C 0.640625 27.136719 0.609375 27.132812 0.589844 27.128906 C 0.582031 27.128906 0.574219 27.125 0.5625 27.125 C 0.554688 27.121094 0.550781 27.117188 0.542969 27.113281 C 0.523438 27.097656 0.507812 27.082031 0.496094 27.058594 C 0.484375 27.035156 0.480469 27.011719 0.480469 26.984375 C 0.480469 26.960938 0.484375 26.9375 0.488281 26.914062 C 0.496094 26.890625 0.503906 26.867188 0.519531 26.84375 C 0.53125 26.820312 0.542969 26.800781 0.558594 26.789062 C 0.5625 26.785156 0.5625 26.785156 0.566406 26.78125 C 0.578125 26.773438 0.589844 26.765625 0.601562 26.761719 L 0.601562 26.734375 L 0.441406 26.734375 L 0.441406 26.761719 C 0.453125 26.761719 0.457031 26.765625 0.460938 26.765625 C 0.464844 26.765625 0.46875 26.769531 0.46875 26.773438 C 0.46875 26.777344 0.460938 26.789062 0.449219 26.808594 C 0.441406 26.824219 0.433594 26.835938 0.425781 26.84375 C 0.40625 26.878906 0.394531 26.90625 0.386719 26.929688 C 0.378906 26.953125 0.375 26.976562 0.375 27 C 0.375 27.039062 0.386719 27.074219 0.402344 27.101562 C 0.417969 27.132812 0.445312 27.15625 0.480469 27.171875 "/>
<path style=" stroke:none;fill-rule:nonzero;fill:rgb(3.529412%,58.431373%,86.666667%);fill-opacity:1;" d="M 1.613281 26.773438 C 1.617188 26.769531 1.625 26.765625 1.636719 26.765625 L 1.636719 26.738281 L 1.46875 26.738281 L 1.46875 26.765625 C 1.480469 26.765625 1.488281 26.769531 1.492188 26.773438 C 1.496094 26.777344 1.5 26.785156 1.5 26.796875 L 1.5 27.136719 C 1.5 27.148438 1.496094 27.15625 1.492188 27.160156 C 1.488281 27.164062 1.480469 27.167969 1.46875 27.167969 L 1.46875 27.195312 L 1.636719 27.195312 L 1.636719 27.167969 C 1.625 27.167969 1.617188 27.164062 1.613281 27.160156 C 1.609375 27.15625 1.605469 27.148438 1.605469 27.136719 L 1.605469 26.792969 C 1.605469 26.78125 1.609375 26.773438 1.613281 26.769531 "/>
<path style=" stroke:none;fill-rule:nonzero;fill:rgb(3.529412%,58.431373%,86.666667%);fill-opacity:1;" d="M 3.8125 26.773438 C 3.816406 26.769531 3.824219 26.765625 3.835938 26.765625 L 3.835938 26.738281 L 3.667969 26.738281 L 3.667969 26.765625 C 3.679688 26.765625 3.6875 26.769531 3.691406 26.773438 C 3.695312 26.777344 3.699219 26.785156 3.699219 26.796875 L 3.699219 27.136719 C 3.699219 27.148438 3.695312 27.15625 3.691406 27.160156 C 3.6875 27.164062 3.679688 27.167969 3.667969 27.167969 L 3.667969 27.199219 L 3.835938 27.199219 L 3.835938 27.171875 C 3.824219 27.171875 3.816406 27.167969 3.8125 27.164062 C 3.808594 27.160156 3.804688 27.152344 3.804688 27.140625 L 3.804688 26.796875 C 3.804688 26.785156 3.808594 26.777344 3.8125 26.773438 "/>
<path style=" stroke:none;fill-rule:nonzero;fill:rgb(3.529412%,58.431373%,86.666667%);fill-opacity:1;" d="M 1.0625 27.171875 C 1.050781 27.171875 1.042969 27.167969 1.039062 27.160156 C 1.035156 27.15625 1.035156 27.148438 1.035156 27.132812 L 1.035156 26.824219 L 1.308594 27.058594 L 1.308594 27.140625 C 1.308594 27.152344 1.304688 27.160156 1.300781 27.164062 C 1.296875 27.167969 1.289062 27.171875 1.277344 27.171875 L 1.277344 27.199219 L 1.414062 27.199219 L 1.414062 27.171875 C 1.402344 27.171875 1.394531 27.167969 1.390625 27.164062 C 1.386719 27.160156 1.382812 27.148438 1.382812 27.136719 L 1.382812 26.796875 C 1.382812 26.785156 1.386719 26.777344 1.390625 26.773438 C 1.394531 26.769531 1.402344 26.765625 1.414062 26.765625 L 1.414062 26.738281 L 1.277344 26.734375 L 1.277344 26.765625 C 1.289062 26.765625 1.296875 26.765625 1.300781 26.769531 C 1.308594 26.773438 1.308594 26.78125 1.308594 26.792969 L 1.308594 26.9375 L 1.078125 26.734375 L 0.925781 26.734375 L 0.925781 26.761719 C 0.933594 26.761719 0.941406 26.765625 0.949219 26.769531 C 0.953125 26.773438 0.957031 26.777344 0.957031 26.78125 L 0.957031 27.136719 C 0.957031 27.148438 0.953125 27.160156 0.949219 27.164062 C 0.945312 27.167969 0.9375 27.171875 0.925781 27.171875 L 0.921875 27.171875 L 0.921875 27.199219 L 1.0625 27.199219 Z M 1.0625 27.171875 "/>
<path style=" stroke:none;fill-rule:nonzero;fill:rgb(3.529412%,58.431373%,86.666667%);fill-opacity:1;" d="M 4.101562 27.140625 L 4.023438 27.140625 L 4.023438 26.796875 L 4.054688 26.796875 C 4.09375 26.792969 4.132812 26.800781 4.164062 26.808594 C 4.191406 26.816406 4.214844 26.828125 4.234375 26.84375 C 4.28125 26.878906 4.300781 26.925781 4.300781 26.984375 C 4.300781 27.03125 4.285156 27.070312 4.25 27.097656 C 4.226562 27.117188 4.199219 27.128906 4.164062 27.132812 C 4.144531 27.136719 4.125 27.140625 4.101562 27.140625 M 4.308594 27.160156 C 4.339844 27.144531 4.367188 27.117188 4.382812 27.085938 C 4.394531 27.066406 4.402344 27.046875 4.40625 27.023438 C 4.410156 27.011719 4.410156 26.996094 4.410156 26.984375 C 4.410156 26.972656 4.410156 26.960938 4.40625 26.949219 C 4.402344 26.917969 4.390625 26.890625 4.375 26.867188 C 4.351562 26.828125 4.320312 26.800781 4.28125 26.777344 C 4.253906 26.761719 4.226562 26.753906 4.191406 26.746094 C 4.183594 26.746094 4.175781 26.742188 4.164062 26.742188 C 4.136719 26.738281 4.097656 26.734375 4.058594 26.734375 L 3.886719 26.734375 L 3.886719 26.765625 C 3.898438 26.765625 3.90625 26.769531 3.910156 26.773438 C 3.914062 26.777344 3.917969 26.785156 3.917969 26.796875 L 3.917969 27.136719 C 3.917969 27.148438 3.917969 27.15625 3.910156 27.160156 C 3.90625 27.164062 3.898438 27.167969 3.886719 27.167969 L 3.886719 27.195312 L 3.960938 27.199219 L 4.101562 27.199219 C 4.125 27.199219 4.144531 27.199219 4.164062 27.199219 C 4.1875 27.199219 4.210938 27.195312 4.226562 27.191406 C 4.257812 27.1875 4.285156 27.175781 4.308594 27.160156 "/>
<path style=" stroke:none;fill-rule:nonzero;fill:rgb(3.529412%,58.431373%,86.666667%);fill-opacity:1;" d="M 4.65625 26.96875 L 4.589844 26.96875 L 4.65625 26.816406 L 4.722656 26.96875 Z M 4.796875 27.148438 C 4.796875 27.148438 4.800781 27.152344 4.800781 27.152344 C 4.800781 27.160156 4.796875 27.160156 4.792969 27.164062 C 4.785156 27.167969 4.78125 27.167969 4.773438 27.167969 L 4.773438 27.195312 L 4.9375 27.195312 L 4.9375 27.167969 C 4.925781 27.164062 4.914062 27.15625 4.90625 27.140625 C 4.90625 27.136719 4.90625 27.136719 4.90625 27.132812 L 4.726562 26.734375 L 4.621094 26.734375 L 4.441406 27.136719 C 4.4375 27.148438 4.429688 27.15625 4.425781 27.160156 C 4.421875 27.164062 4.414062 27.167969 4.410156 27.167969 C 4.410156 27.167969 4.40625 27.167969 4.40625 27.167969 L 4.40625 27.195312 L 4.550781 27.195312 L 4.550781 27.167969 C 4.542969 27.167969 4.535156 27.164062 4.53125 27.160156 C 4.527344 27.15625 4.523438 27.152344 4.523438 27.144531 C 4.523438 27.140625 4.523438 27.140625 4.527344 27.136719 C 4.527344 27.132812 4.53125 27.128906 4.53125 27.125 L 4.574219 27.03125 L 4.746094 27.03125 L 4.792969 27.144531 C 4.792969 27.148438 4.792969 27.148438 4.796875 27.152344 "/>
<path style=" stroke:none;fill-rule:nonzero;fill:rgb(3.529412%,58.431373%,86.666667%);fill-opacity:1;" d="M 4.003906 27.476562 C 4.015625 27.480469 4.023438 27.480469 4.03125 27.484375 C 4.035156 27.488281 4.035156 27.496094 4.035156 27.507812 L 4.035156 27.652344 L 3.960938 27.585938 L 3.804688 27.449219 L 3.652344 27.449219 L 3.652344 27.476562 C 3.660156 27.476562 3.667969 27.480469 3.675781 27.484375 C 3.679688 27.488281 3.683594 27.492188 3.683594 27.496094 L 3.683594 27.847656 C 3.683594 27.863281 3.679688 27.871094 3.675781 27.875 C 3.671875 27.878906 3.664062 27.882812 3.652344 27.882812 L 3.648438 27.882812 L 3.648438 27.910156 L 3.789062 27.910156 L 3.789062 27.882812 C 3.777344 27.882812 3.769531 27.878906 3.765625 27.875 C 3.761719 27.871094 3.757812 27.859375 3.757812 27.847656 L 3.757812 27.539062 L 3.960938 27.710938 L 4.03125 27.773438 L 4.03125 27.855469 C 4.03125 27.867188 4.03125 27.875 4.023438 27.878906 C 4.019531 27.882812 4.011719 27.886719 4 27.886719 L 4 27.914062 L 4.136719 27.914062 L 4.136719 27.886719 C 4.125 27.886719 4.117188 27.882812 4.113281 27.878906 C 4.109375 27.875 4.105469 27.863281 4.105469 27.851562 L 4.105469 27.511719 C 4.105469 27.5 4.109375 27.492188 4.113281 27.488281 C 4.117188 27.484375 4.125 27.480469 4.136719 27.480469 L 4.140625 27.449219 L 4.003906 27.449219 Z M 4.003906 27.476562 "/>
<path style=" stroke:none;fill-rule:nonzero;fill:rgb(3.529412%,58.431373%,86.666667%);fill-opacity:1;" d="M 4.769531 27.480469 C 4.78125 27.480469 4.789062 27.480469 4.792969 27.488281 C 4.796875 27.492188 4.800781 27.5 4.800781 27.511719 L 4.800781 27.851562 C 4.800781 27.863281 4.796875 27.871094 4.792969 27.875 C 4.789062 27.882812 4.78125 27.882812 4.769531 27.882812 L 4.769531 27.910156 L 4.9375 27.910156 L 4.9375 27.882812 C 4.925781 27.882812 4.917969 27.878906 4.914062 27.875 C 4.910156 27.871094 4.90625 27.863281 4.90625 27.851562 L 4.90625 27.507812 C 4.90625 27.496094 4.910156 27.488281 4.914062 27.484375 C 4.917969 27.480469 4.925781 27.476562 4.9375 27.476562 L 4.9375 27.449219 L 4.769531 27.449219 Z M 4.769531 27.480469 "/>
<path style=" stroke:none;fill-rule:nonzero;fill:rgb(3.529412%,58.431373%,86.666667%);fill-opacity:1;" d="M 4.558594 27.8125 C 4.523438 27.839844 4.476562 27.851562 4.410156 27.851562 L 4.332031 27.851562 L 4.332031 27.507812 L 4.363281 27.507812 C 4.378906 27.507812 4.390625 27.507812 4.40625 27.507812 C 4.460938 27.511719 4.507812 27.527344 4.542969 27.554688 C 4.589844 27.59375 4.609375 27.636719 4.609375 27.695312 C 4.609375 27.746094 4.59375 27.785156 4.558594 27.8125 M 4.65625 27.542969 C 4.636719 27.523438 4.617188 27.507812 4.59375 27.492188 C 4.566406 27.476562 4.535156 27.46875 4.503906 27.460938 C 4.480469 27.457031 4.449219 27.453125 4.410156 27.453125 C 4.398438 27.453125 4.382812 27.453125 4.371094 27.453125 L 4.195312 27.449219 L 4.195312 27.480469 C 4.207031 27.480469 4.214844 27.480469 4.222656 27.488281 C 4.226562 27.488281 4.226562 27.5 4.226562 27.511719 L 4.226562 27.851562 C 4.226562 27.863281 4.222656 27.871094 4.21875 27.875 C 4.214844 27.878906 4.207031 27.882812 4.195312 27.882812 L 4.195312 27.910156 L 4.410156 27.910156 C 4.464844 27.910156 4.503906 27.90625 4.535156 27.902344 C 4.566406 27.898438 4.59375 27.886719 4.617188 27.875 C 4.632812 27.867188 4.644531 27.855469 4.65625 27.847656 C 4.671875 27.835938 4.683594 27.820312 4.691406 27.800781 C 4.710938 27.769531 4.71875 27.734375 4.71875 27.699219 C 4.71875 27.65625 4.707031 27.617188 4.683594 27.582031 C 4.675781 27.566406 4.667969 27.554688 4.65625 27.542969 "/>
<path style=" stroke:none;fill-rule:nonzero;fill:rgb(3.529412%,58.431373%,86.666667%);fill-opacity:1;" d="M 5.40625 27.816406 C 5.375 27.847656 5.332031 27.867188 5.277344 27.867188 C 5.261719 27.867188 5.246094 27.867188 5.230469 27.863281 C 5.199219 27.855469 5.171875 27.839844 5.148438 27.816406 C 5.117188 27.78125 5.097656 27.738281 5.097656 27.6875 C 5.097656 27.632812 5.113281 27.589844 5.148438 27.554688 C 5.171875 27.53125 5.199219 27.515625 5.230469 27.507812 C 5.246094 27.503906 5.261719 27.503906 5.277344 27.503906 C 5.332031 27.503906 5.375 27.519531 5.40625 27.550781 C 5.4375 27.578125 5.453125 27.625 5.453125 27.679688 C 5.453125 27.738281 5.4375 27.78125 5.40625 27.816406 M 5.484375 27.507812 C 5.429688 27.460938 5.363281 27.441406 5.28125 27.441406 C 5.261719 27.441406 5.246094 27.441406 5.230469 27.441406 C 5.167969 27.449219 5.113281 27.472656 5.070312 27.507812 C 5.015625 27.554688 4.988281 27.613281 4.988281 27.683594 C 4.988281 27.753906 5.015625 27.8125 5.066406 27.855469 C 5.109375 27.890625 5.164062 27.914062 5.230469 27.921875 C 5.246094 27.921875 5.257812 27.921875 5.273438 27.921875 C 5.359375 27.921875 5.429688 27.898438 5.484375 27.855469 C 5.539062 27.8125 5.5625 27.753906 5.5625 27.679688 C 5.5625 27.609375 5.539062 27.554688 5.484375 27.507812 "/>
<path style=" stroke:none;fill-rule:nonzero;fill:rgb(3.529412%,58.431373%,86.666667%);fill-opacity:1;" d="M 4.929688 27.285156 C 4.921875 27.285156 4.917969 27.285156 4.910156 27.289062 C 4.902344 27.292969 4.894531 27.296875 4.890625 27.304688 L 4.785156 27.402344 L 4.8125 27.402344 L 4.925781 27.34375 C 4.9375 27.335938 4.945312 27.332031 4.949219 27.328125 C 4.953125 27.324219 4.957031 27.316406 4.957031 27.3125 C 4.957031 27.304688 4.953125 27.300781 4.949219 27.292969 C 4.945312 27.289062 4.9375 27.285156 4.929688 27.285156 "/>
<path style=" stroke:none;fill-rule:nonzero;fill:rgb(3.529412%,58.431373%,86.666667%);fill-opacity:1;" d="M 2.839844 26.941406 L 2.785156 26.941406 L 2.785156 26.792969 L 2.875 26.792969 C 2.878906 26.792969 2.882812 26.792969 2.886719 26.792969 C 2.914062 26.792969 2.9375 26.800781 2.957031 26.8125 C 2.976562 26.824219 2.984375 26.84375 2.984375 26.867188 C 2.984375 26.894531 2.976562 26.914062 2.957031 26.925781 C 2.945312 26.933594 2.917969 26.9375 2.886719 26.941406 C 2.871094 26.941406 2.859375 26.941406 2.839844 26.941406 M 2.996094 27.199219 L 3.125 27.199219 L 3.125 27.171875 C 3.117188 27.171875 3.109375 27.167969 3.101562 27.164062 C 3.09375 27.160156 3.085938 27.152344 3.078125 27.140625 L 2.96875 26.984375 C 3.003906 26.980469 3.035156 26.964844 3.054688 26.941406 C 3.078125 26.917969 3.085938 26.894531 3.085938 26.859375 C 3.085938 26.824219 3.070312 26.792969 3.039062 26.769531 C 3.003906 26.746094 2.960938 26.734375 2.902344 26.734375 L 2.648438 26.734375 L 2.648438 26.761719 C 2.660156 26.761719 2.667969 26.765625 2.671875 26.769531 C 2.675781 26.773438 2.679688 26.78125 2.679688 26.792969 L 2.679688 27.132812 C 2.679688 27.144531 2.675781 27.152344 2.671875 27.15625 C 2.667969 27.160156 2.660156 27.164062 2.648438 27.164062 L 2.648438 27.191406 L 2.816406 27.191406 L 2.816406 27.164062 C 2.804688 27.164062 2.796875 27.160156 2.792969 27.15625 C 2.789062 27.152344 2.785156 27.136719 2.785156 27.117188 L 2.785156 26.992188 L 2.863281 26.996094 L 2.886719 27.03125 Z M 2.996094 27.199219 "/>
<path style=" stroke:none;fill-rule:nonzero;fill:rgb(3.529412%,58.431373%,86.666667%);fill-opacity:1;" d="M 2.703125 27.738281 C 2.699219 27.757812 2.691406 27.773438 2.679688 27.789062 C 2.652344 27.769531 2.632812 27.757812 2.613281 27.75 C 2.59375 27.742188 2.574219 27.738281 2.554688 27.738281 C 2.546875 27.738281 2.539062 27.738281 2.535156 27.738281 C 2.523438 27.738281 2.515625 27.742188 2.503906 27.742188 C 2.488281 27.746094 2.472656 27.753906 2.457031 27.761719 L 2.480469 27.804688 C 2.492188 27.800781 2.5 27.796875 2.507812 27.796875 C 2.515625 27.796875 2.523438 27.792969 2.53125 27.792969 L 2.535156 27.792969 C 2.550781 27.792969 2.566406 27.796875 2.582031 27.804688 C 2.597656 27.8125 2.613281 27.824219 2.628906 27.835938 C 2.613281 27.84375 2.601562 27.851562 2.585938 27.851562 C 2.570312 27.855469 2.554688 27.859375 2.535156 27.859375 C 2.484375 27.859375 2.441406 27.84375 2.410156 27.808594 C 2.375 27.773438 2.359375 27.730469 2.359375 27.679688 C 2.359375 27.625 2.375 27.582031 2.410156 27.546875 C 2.441406 27.511719 2.484375 27.496094 2.535156 27.496094 L 2.539062 27.496094 C 2.59375 27.496094 2.636719 27.511719 2.667969 27.542969 C 2.695312 27.578125 2.710938 27.625 2.710938 27.679688 C 2.710938 27.703125 2.707031 27.71875 2.703125 27.738281 M 2.8125 27.847656 C 2.808594 27.851562 2.800781 27.851562 2.789062 27.851562 C 2.78125 27.851562 2.777344 27.851562 2.769531 27.847656 C 2.765625 27.84375 2.757812 27.84375 2.753906 27.839844 C 2.777344 27.816406 2.792969 27.789062 2.804688 27.765625 C 2.816406 27.738281 2.820312 27.710938 2.820312 27.679688 C 2.820312 27.609375 2.792969 27.554688 2.738281 27.507812 C 2.683594 27.460938 2.617188 27.441406 2.535156 27.441406 C 2.453125 27.441406 2.382812 27.464844 2.328125 27.507812 C 2.273438 27.554688 2.246094 27.613281 2.246094 27.683594 C 2.246094 27.722656 2.253906 27.757812 2.269531 27.789062 C 2.285156 27.820312 2.308594 27.847656 2.34375 27.871094 C 2.367188 27.890625 2.394531 27.902344 2.425781 27.910156 C 2.457031 27.917969 2.492188 27.921875 2.53125 27.921875 C 2.5625 27.921875 2.589844 27.917969 2.617188 27.914062 C 2.640625 27.910156 2.667969 27.902344 2.691406 27.886719 C 2.707031 27.898438 2.722656 27.90625 2.738281 27.914062 C 2.753906 27.917969 2.773438 27.921875 2.792969 27.921875 C 2.800781 27.921875 2.8125 27.921875 2.820312 27.917969 C 2.828125 27.917969 2.839844 27.914062 2.847656 27.910156 L 2.847656 27.820312 L 2.820312 27.824219 C 2.820312 27.835938 2.816406 27.839844 2.8125 27.84375 "/>
<path style=" stroke:none;fill-rule:nonzero;fill:rgb(3.529412%,58.431373%,86.666667%);fill-opacity:1;" d="M 2.609375 27.199219 L 2.609375 27.101562 L 2.570312 27.101562 C 2.566406 27.117188 2.558594 27.128906 2.550781 27.132812 C 2.546875 27.136719 2.539062 27.136719 2.535156 27.140625 C 2.523438 27.140625 2.507812 27.144531 2.488281 27.144531 L 2.292969 27.144531 L 2.292969 26.964844 L 2.453125 26.964844 C 2.472656 26.964844 2.484375 26.964844 2.492188 26.972656 C 2.5 26.976562 2.503906 26.984375 2.503906 26.996094 L 2.535156 26.996094 L 2.535156 26.878906 L 2.503906 26.878906 C 2.5 26.890625 2.496094 26.898438 2.488281 26.902344 C 2.480469 26.90625 2.460938 26.910156 2.433594 26.910156 L 2.292969 26.910156 L 2.292969 26.792969 L 2.484375 26.792969 C 2.507812 26.792969 2.527344 26.792969 2.535156 26.800781 C 2.542969 26.804688 2.550781 26.816406 2.554688 26.828125 L 2.589844 26.828125 L 2.589844 26.734375 L 2.15625 26.734375 L 2.15625 26.765625 C 2.167969 26.765625 2.175781 26.769531 2.179688 26.773438 C 2.1875 26.777344 2.1875 26.785156 2.1875 26.796875 L 2.1875 27.136719 C 2.1875 27.148438 2.1875 27.160156 2.179688 27.164062 C 2.175781 27.167969 2.167969 27.167969 2.15625 27.171875 L 2.15625 27.199219 Z M 2.609375 27.199219 "/>
<path style=" stroke:none;fill-rule:nonzero;fill:rgb(3.529412%,58.431373%,86.666667%);fill-opacity:1;" d="M 3.566406 26.96875 C 3.539062 26.945312 3.492188 26.925781 3.429688 26.914062 C 3.417969 26.910156 3.402344 26.910156 3.386719 26.90625 C 3.3125 26.890625 3.277344 26.871094 3.277344 26.84375 C 3.277344 26.828125 3.285156 26.8125 3.304688 26.800781 C 3.324219 26.789062 3.347656 26.785156 3.378906 26.785156 C 3.414062 26.785156 3.441406 26.789062 3.464844 26.804688 C 3.480469 26.8125 3.492188 26.828125 3.492188 26.84375 C 3.492188 26.847656 3.492188 26.851562 3.492188 26.855469 C 3.492188 26.855469 3.488281 26.859375 3.488281 26.867188 L 3.511719 26.886719 L 3.597656 26.816406 C 3.570312 26.785156 3.539062 26.761719 3.5 26.75 C 3.464844 26.734375 3.417969 26.726562 3.371094 26.726562 C 3.3125 26.726562 3.261719 26.738281 3.226562 26.761719 C 3.1875 26.785156 3.167969 26.816406 3.167969 26.855469 C 3.167969 26.886719 3.179688 26.914062 3.203125 26.933594 C 3.226562 26.953125 3.269531 26.972656 3.328125 26.984375 C 3.34375 26.988281 3.363281 26.992188 3.386719 26.996094 C 3.421875 27.003906 3.445312 27.007812 3.453125 27.011719 C 3.46875 27.019531 3.480469 27.027344 3.488281 27.035156 C 3.496094 27.042969 3.5 27.054688 3.5 27.066406 C 3.5 27.089844 3.488281 27.109375 3.464844 27.121094 C 3.441406 27.136719 3.410156 27.140625 3.371094 27.140625 C 3.335938 27.140625 3.308594 27.132812 3.285156 27.121094 C 3.261719 27.109375 3.25 27.089844 3.25 27.070312 C 3.25 27.066406 3.25 27.058594 3.253906 27.054688 C 3.257812 27.050781 3.261719 27.042969 3.265625 27.039062 L 3.242188 27.015625 L 3.128906 27.082031 C 3.15625 27.125 3.191406 27.15625 3.226562 27.175781 C 3.261719 27.195312 3.308594 27.203125 3.367188 27.203125 C 3.4375 27.203125 3.492188 27.1875 3.535156 27.160156 C 3.578125 27.132812 3.597656 27.09375 3.597656 27.046875 C 3.609375 27.019531 3.59375 26.992188 3.566406 26.96875 "/>
<path style=" stroke:none;fill-rule:nonzero;fill:rgb(3.529412%,58.431373%,86.666667%);fill-opacity:1;" d="M 2.007812 26.765625 L 2.011719 26.765625 C 2.019531 26.765625 2.023438 26.765625 2.027344 26.769531 C 2.03125 26.769531 2.03125 26.773438 2.03125 26.78125 C 2.03125 26.78125 2.03125 26.785156 2.03125 26.789062 C 2.03125 26.792969 2.027344 26.800781 2.027344 26.804688 L 1.910156 27.097656 L 1.796875 26.800781 C 1.796875 26.796875 1.792969 26.792969 1.792969 26.789062 C 1.792969 26.785156 1.792969 26.78125 1.792969 26.777344 C 1.792969 26.773438 1.796875 26.769531 1.800781 26.769531 C 1.800781 26.765625 1.808594 26.765625 1.816406 26.765625 L 1.816406 26.734375 L 1.644531 26.734375 L 1.644531 26.765625 C 1.652344 26.765625 1.660156 26.769531 1.667969 26.773438 C 1.675781 26.777344 1.679688 26.785156 1.683594 26.796875 L 1.839844 27.199219 L 1.945312 27.199219 L 2.105469 26.800781 C 2.109375 26.785156 2.117188 26.777344 2.121094 26.773438 C 2.128906 26.769531 2.136719 26.765625 2.148438 26.765625 L 2.148438 26.734375 L 2.007812 26.734375 Z M 2.007812 26.765625 "/>
<path style=" stroke:none;fill-rule:nonzero;fill:rgb(3.529412%,58.431373%,86.666667%);fill-opacity:1;" d="M 3.429688 27.480469 C 3.441406 27.480469 3.449219 27.484375 3.453125 27.488281 C 3.457031 27.492188 3.460938 27.5 3.460938 27.511719 L 3.460938 27.851562 C 3.460938 27.863281 3.457031 27.871094 3.453125 27.875 C 3.449219 27.882812 3.441406 27.882812 3.429688 27.882812 L 3.429688 27.910156 L 3.597656 27.910156 L 3.597656 27.882812 C 3.585938 27.882812 3.578125 27.878906 3.574219 27.875 C 3.570312 27.871094 3.566406 27.863281 3.566406 27.851562 L 3.566406 27.507812 C 3.566406 27.496094 3.570312 27.488281 3.574219 27.484375 C 3.578125 27.480469 3.585938 27.476562 3.597656 27.476562 L 3.597656 27.449219 L 3.429688 27.449219 Z M 3.429688 27.480469 "/>
<path style=" stroke:none;fill-rule:nonzero;fill:rgb(3.529412%,58.431373%,86.666667%);fill-opacity:1;" d="M 3.214844 27.480469 C 3.226562 27.480469 3.234375 27.484375 3.238281 27.488281 C 3.242188 27.492188 3.246094 27.5 3.246094 27.511719 L 3.246094 27.851562 L 3.191406 27.851562 C 3.148438 27.851562 3.117188 27.851562 3.097656 27.847656 C 3.078125 27.84375 3.0625 27.839844 3.050781 27.828125 C 3.03125 27.8125 3.015625 27.796875 3.003906 27.777344 C 2.992188 27.753906 2.988281 27.730469 2.988281 27.703125 C 2.988281 27.679688 2.992188 27.65625 2.996094 27.632812 C 3.003906 27.609375 3.011719 27.585938 3.027344 27.5625 C 3.039062 27.539062 3.054688 27.519531 3.066406 27.507812 C 3.078125 27.496094 3.09375 27.488281 3.109375 27.480469 L 3.105469 27.449219 L 2.945312 27.449219 L 2.945312 27.476562 C 2.957031 27.476562 2.964844 27.476562 2.96875 27.480469 C 2.972656 27.480469 2.972656 27.484375 2.972656 27.488281 C 2.972656 27.496094 2.964844 27.507812 2.953125 27.523438 C 2.945312 27.539062 2.9375 27.550781 2.929688 27.558594 C 2.910156 27.589844 2.898438 27.621094 2.890625 27.644531 C 2.886719 27.65625 2.882812 27.667969 2.882812 27.679688 C 2.878906 27.691406 2.878906 27.703125 2.878906 27.714844 C 2.878906 27.726562 2.878906 27.742188 2.882812 27.753906 C 2.886719 27.777344 2.894531 27.800781 2.90625 27.820312 C 2.921875 27.847656 2.949219 27.871094 2.984375 27.890625 C 3.003906 27.902344 3.023438 27.90625 3.046875 27.910156 C 3.070312 27.914062 3.109375 27.917969 3.164062 27.917969 L 3.382812 27.914062 L 3.382812 27.882812 C 3.371094 27.882812 3.363281 27.878906 3.359375 27.875 C 3.351562 27.867188 3.351562 27.855469 3.351562 27.835938 L 3.351562 27.511719 C 3.351562 27.5 3.355469 27.496094 3.359375 27.488281 C 3.363281 27.484375 3.371094 27.480469 3.382812 27.480469 L 3.382812 27.449219 L 3.214844 27.449219 Z M 3.214844 27.480469 "/>
<path style=" stroke:none;fill-rule:nonzero;fill:rgb(3.529412%,58.431373%,86.666667%);fill-opacity:1;" d="M 6.507812 27.925781 L 6.605469 27.925781 L 6.605469 22.253906 L 6.507812 22.253906 Z M 6.507812 27.925781 "/>
<path style=" stroke:none;fill-rule:nonzero;fill:rgb(3.529412%,58.431373%,86.666667%);fill-opacity:1;" d="M 7.804688 27.054688 L 8.390625 27.054688 L 8.390625 27.21875 L 8.042969 27.21875 L 8.042969 27.394531 L 8.371094 27.394531 L 8.371094 27.558594 L 8.042969 27.558594 L 8.042969 27.921875 L 7.804688 27.921875 Z M 7.804688 27.054688 "/>
<path style=" stroke:none;fill-rule:nonzero;fill:rgb(3.529412%,58.431373%,86.666667%);fill-opacity:1;" d="M 8.765625 27.210938 L 8.679688 27.597656 L 8.851562 27.597656 Z M 8.621094 27.054688 L 8.917969 27.054688 L 9.171875 27.921875 L 8.925781 27.921875 L 8.890625 27.757812 L 8.648438 27.757812 L 8.613281 27.921875 L 8.367188 27.921875 Z M 8.621094 27.054688 "/>
<path style=" stroke:none;fill-rule:nonzero;fill:rgb(3.529412%,58.431373%,86.666667%);fill-opacity:1;" d="M 9.648438 27.355469 C 9.648438 27.230469 9.632812 27.171875 9.550781 27.171875 C 9.457031 27.171875 9.449219 27.25 9.449219 27.476562 C 9.449219 27.734375 9.460938 27.800781 9.558594 27.800781 C 9.644531 27.800781 9.65625 27.714844 9.65625 27.578125 L 9.886719 27.578125 L 9.886719 27.609375 C 9.886719 27.796875 9.824219 27.9375 9.53125 27.9375 C 9.226562 27.9375 9.203125 27.742188 9.203125 27.480469 C 9.203125 27.257812 9.21875 27.035156 9.554688 27.035156 C 9.765625 27.035156 9.878906 27.113281 9.878906 27.316406 L 9.875 27.355469 Z M 9.648438 27.355469 "/>
<path style=" stroke:none;fill-rule:nonzero;fill:rgb(3.529412%,58.431373%,86.666667%);fill-opacity:1;" d="M 10.636719 27.632812 C 10.636719 27.804688 10.578125 27.9375 10.304688 27.9375 C 10.027344 27.9375 9.972656 27.804688 9.972656 27.632812 L 9.972656 27.050781 L 10.210938 27.050781 L 10.210938 27.691406 C 10.210938 27.757812 10.242188 27.800781 10.304688 27.800781 C 10.367188 27.800781 10.398438 27.761719 10.398438 27.691406 L 10.398438 27.054688 L 10.636719 27.054688 Z M 10.636719 27.632812 "/>
<path style=" stroke:none;fill-rule:nonzero;fill:rgb(3.529412%,58.431373%,86.666667%);fill-opacity:1;" d="M 10.769531 27.054688 L 11.007812 27.054688 L 11.007812 27.757812 L 11.355469 27.757812 L 11.355469 27.921875 L 10.769531 27.921875 Z M 10.769531 27.054688 "/>
<path style=" stroke:none;fill-rule:nonzero;fill:rgb(3.529412%,58.431373%,86.666667%);fill-opacity:1;" d="M 11.46875 27.21875 L 11.257812 27.21875 L 11.257812 27.054688 L 11.921875 27.054688 L 11.921875 27.21875 L 11.707031 27.21875 L 11.707031 27.921875 L 11.46875 27.921875 Z M 11.46875 27.21875 "/>
<path style=" stroke:none;fill-rule:nonzero;fill:rgb(3.529412%,58.431373%,86.666667%);fill-opacity:1;" d="M 12.257812 27.210938 L 12.253906 27.210938 L 12.171875 27.597656 L 12.34375 27.597656 Z M 12.113281 27.054688 L 12.410156 27.054688 L 12.660156 27.921875 L 12.414062 27.921875 L 12.378906 27.757812 L 12.136719 27.757812 L 12.101562 27.921875 L 11.855469 27.921875 Z M 12.113281 27.054688 "/>
<path style=" stroke:none;fill-rule:nonzero;fill:rgb(3.529412%,58.431373%,86.666667%);fill-opacity:1;" d="M 12.976562 27.769531 L 13.039062 27.769531 C 13.148438 27.769531 13.1875 27.730469 13.1875 27.472656 C 13.1875 27.261719 13.167969 27.203125 13.042969 27.203125 L 12.976562 27.203125 Z M 12.738281 27.050781 L 13.089844 27.050781 C 13.324219 27.050781 13.425781 27.15625 13.425781 27.457031 C 13.425781 27.773438 13.378906 27.917969 13.066406 27.917969 L 12.738281 27.917969 Z M 12.738281 27.050781 "/>
<path style=" stroke:none;fill-rule:nonzero;fill:rgb(3.529412%,58.431373%,86.666667%);fill-opacity:1;" d="M 14.15625 27.769531 L 14.21875 27.769531 C 14.328125 27.769531 14.367188 27.730469 14.367188 27.472656 C 14.367188 27.261719 14.347656 27.203125 14.222656 27.203125 L 14.15625 27.203125 Z M 13.917969 27.050781 L 14.269531 27.050781 C 14.503906 27.050781 14.605469 27.15625 14.605469 27.457031 C 14.605469 27.773438 14.558594 27.917969 14.246094 27.917969 L 13.917969 27.917969 Z M 13.917969 27.050781 "/>
<path style=" stroke:none;fill-rule:nonzero;fill:rgb(3.529412%,58.431373%,86.666667%);fill-opacity:1;" d="M 14.734375 27.054688 L 15.320312 27.054688 L 15.320312 27.21875 L 14.972656 27.21875 L 14.972656 27.394531 L 15.296875 27.394531 L 15.296875 27.558594 L 14.972656 27.558594 L 14.972656 27.757812 L 15.335938 27.757812 L 15.335938 27.921875 L 14.734375 27.921875 Z M 14.734375 27.054688 "/>
<path style=" stroke:none;fill-rule:nonzero;fill:rgb(3.529412%,58.431373%,86.666667%);fill-opacity:1;" d="M 15.8125 27.054688 L 16.050781 27.054688 L 16.050781 27.921875 L 15.8125 27.921875 Z M 15.8125 27.054688 "/>
<path style=" stroke:none;fill-rule:nonzero;fill:rgb(3.529412%,58.431373%,86.666667%);fill-opacity:1;" d="M 16.203125 27.054688 L 16.476562 27.054688 L 16.671875 27.617188 L 16.675781 27.617188 L 16.675781 27.054688 L 16.898438 27.054688 L 16.898438 27.921875 L 16.628906 27.921875 L 16.417969 27.324219 L 16.417969 27.921875 L 16.203125 27.921875 Z M 16.203125 27.054688 "/>
<path style=" stroke:none;fill-rule:nonzero;fill:rgb(3.529412%,58.431373%,86.666667%);fill-opacity:1;" d="M 17.472656 27.316406 C 17.472656 27.261719 17.464844 27.171875 17.378906 27.171875 C 17.28125 27.171875 17.269531 27.257812 17.269531 27.488281 C 17.269531 27.726562 17.285156 27.800781 17.378906 27.800781 C 17.460938 27.800781 17.488281 27.738281 17.488281 27.617188 L 17.488281 27.589844 L 17.375 27.589844 L 17.375 27.457031 L 17.707031 27.457031 L 17.707031 27.921875 L 17.542969 27.921875 L 17.539062 27.839844 L 17.535156 27.839844 C 17.5 27.917969 17.410156 27.9375 17.316406 27.9375 C 17.0625 27.9375 17.019531 27.777344 17.019531 27.503906 C 17.019531 27.21875 17.042969 27.035156 17.378906 27.035156 C 17.6875 27.035156 17.699219 27.21875 17.699219 27.316406 Z M 17.472656 27.316406 "/>
<path style=" stroke:none;fill-rule:nonzero;fill:rgb(3.529412%,58.431373%,86.666667%);fill-opacity:1;" d="M 17.832031 27.054688 L 18.417969 27.054688 L 18.417969 27.21875 L 18.070312 27.21875 L 18.070312 27.394531 L 18.394531 27.394531 L 18.394531 27.558594 L 18.070312 27.558594 L 18.070312 27.757812 L 18.433594 27.757812 L 18.433594 27.921875 L 17.832031 27.921875 Z M 17.832031 27.054688 "/>
<path style=" stroke:none;fill-rule:nonzero;fill:rgb(3.529412%,58.431373%,86.666667%);fill-opacity:1;" d="M 18.539062 27.054688 L 18.8125 27.054688 L 19.007812 27.617188 L 19.011719 27.617188 L 19.011719 27.054688 L 19.234375 27.054688 L 19.234375 27.921875 L 18.964844 27.921875 L 18.753906 27.324219 L 18.753906 27.921875 L 18.539062 27.921875 Z M 18.539062 27.054688 "/>
<path style=" stroke:none;fill-rule:nonzero;fill:rgb(3.529412%,58.431373%,86.666667%);fill-opacity:1;" d="M 19.382812 27.054688 L 19.621094 27.054688 L 19.621094 27.921875 L 19.382812 27.921875 Z M 19.382812 27.054688 "/>
<path style=" stroke:none;fill-rule:nonzero;fill:rgb(3.529412%,58.431373%,86.666667%);fill-opacity:1;" d="M 19.773438 27.054688 L 20.359375 27.054688 L 20.359375 27.21875 L 20.011719 27.21875 L 20.011719 27.394531 L 20.339844 27.394531 L 20.339844 27.558594 L 20.011719 27.558594 L 20.011719 27.757812 L 20.375 27.757812 L 20.375 27.921875 L 19.773438 27.921875 Z M 19.773438 27.054688 "/>
<path style=" stroke:none;fill-rule:nonzero;fill:rgb(3.529412%,58.431373%,86.666667%);fill-opacity:1;" d="M 20.722656 27.417969 L 20.792969 27.417969 C 20.890625 27.417969 20.917969 27.355469 20.917969 27.304688 C 20.917969 27.242188 20.886719 27.195312 20.792969 27.195312 L 20.722656 27.195312 Z M 20.484375 27.054688 L 20.882812 27.054688 C 21.085938 27.054688 21.15625 27.160156 21.15625 27.28125 C 21.15625 27.40625 21.097656 27.46875 20.984375 27.492188 C 21.136719 27.511719 21.144531 27.59375 21.148438 27.710938 C 21.152344 27.882812 21.160156 27.898438 21.191406 27.910156 L 21.191406 27.921875 L 20.9375 27.921875 C 20.917969 27.894531 20.910156 27.84375 20.910156 27.746094 C 20.910156 27.59375 20.886719 27.5625 20.8125 27.5625 L 20.722656 27.5625 L 20.722656 27.921875 L 20.484375 27.921875 Z M 20.484375 27.054688 "/>
<path style=" stroke:none;fill-rule:nonzero;fill:rgb(3.529412%,58.431373%,86.666667%);fill-opacity:1;" d="M 21.402344 26.828125 L 21.625 26.828125 L 21.484375 27 L 21.332031 27 Z M 21.300781 27.054688 L 21.539062 27.054688 L 21.539062 27.921875 L 21.300781 27.921875 Z M 21.300781 27.054688 "/>
<path style=" stroke:none;fill-rule:nonzero;fill:rgb(3.529412%,58.431373%,86.666667%);fill-opacity:1;" d="M 22.023438 27.210938 L 22.019531 27.210938 L 21.933594 27.597656 L 22.109375 27.597656 Z M 21.878906 27.054688 L 22.175781 27.054688 L 22.425781 27.921875 L 22.179688 27.921875 L 22.144531 27.757812 L 21.902344 27.757812 L 21.867188 27.921875 L 21.621094 27.921875 Z M 21.878906 27.054688 "/>
</g>
</svg>
