<?xml version="1.0" standalone="no"?>
<!DOCTYPE svg PUBLIC "-//W3C//DTD SVG 20010904//EN"
 "http://www.w3.org/TR/2001/REC-SVG-20010904/DTD/svg10.dtd">
<svg version="1.0" xmlns="http://www.w3.org/2000/svg"
 width="640.000000pt" height="480.000000pt" viewBox="0 0 640.000000 480.000000"
 preserveAspectRatio="xMidYMid meet">
<metadata>
Created by potrace 1.16, written by Peter Selinger 2001-2019
</metadata>
<g transform="translate(0.000000,480.000000) scale(0.100000,-0.100000)"
fill="#000000" stroke="none">
<path d="M2058 3243 c-26 -4 -41 -33 -18 -33 6 0 10 -4 10 -10 0 -13 -63 -29
-74 -19 -6 5 -18 9 -28 9 -11 0 -15 5 -12 15 4 9 0 15 -10 15 -9 0 -16 -6 -16
-12 0 -10 -2 -10 -9 0 -5 9 -24 12 -60 9 -41 -3 -51 -1 -47 9 3 9 -2 14 -15
14 -17 0 -18 -3 -9 -21 14 -24 12 -26 -20 -32 -14 -3 -34 -9 -44 -13 -13 -5
-17 -4 -13 3 7 11 -12 23 -43 29 -8 2 -16 8 -18 14 -3 7 -10 1 -16 -12 -7 -12
-18 -22 -24 -20 -16 3 -15 -13 1 -27 10 -7 17 -7 24 0 6 6 17 8 23 4 8 -5 2
-13 -17 -25 -16 -10 -32 -14 -37 -9 -30 28 -72 -21 -61 -71 5 -25 11 -30 26
-25 11 4 19 2 19 -4 0 -6 -8 -11 -17 -11 -9 0 -25 -7 -35 -17 -16 -14 -18 -14
-18 0 0 8 6 17 13 20 6 2 9 8 5 12 -4 4 -18 -6 -32 -21 -13 -16 -27 -26 -31
-22 -9 9 4 50 15 43 4 -3 10 13 12 35 2 22 1 40 -3 40 -10 0 -29 -26 -23 -32
3 -3 -5 -8 -18 -11 -24 -6 -62 -60 -63 -87 0 -8 -7 -15 -15 -15 -17 0 -62 -74
-56 -92 3 -6 -6 -14 -18 -17 -29 -7 -38 -37 -24 -78 9 -25 8 -33 -4 -42 -14
-11 -14 -15 0 -46 9 -19 19 -46 22 -60 3 -14 11 -24 17 -23 20 4 45 -96 62
-247 l7 -65 7 50 c4 28 12 75 18 105 6 30 11 64 10 75 -1 35 28 87 90 163 13
16 24 15 42 -3 17 -16 108 -13 179 6 30 8 49 5 98 -11 34 -11 64 -18 69 -16
12 8 92 -19 101 -34 7 -12 15 -12 49 0 23 7 41 19 41 27 0 12 12 17 36 14 7
-1 22 10 35 24 28 29 51 32 70 7 8 -9 13 -16 12 -13 -3 5 24 31 33 31 3 0 4
-13 1 -30 -6 -27 -4 -30 18 -30 15 0 25 -6 25 -14 0 -8 7 -17 16 -20 18 -7 74
-8 74 -1 0 17 -36 75 -47 75 -7 0 -12 3 -11 8 0 4 -2 15 -7 25 -5 11 -3 23 5
30 10 10 12 8 6 -7 -5 -15 -2 -17 13 -13 12 3 29 -4 42 -16 20 -19 20 -21 5
-33 -16 -11 -16 -13 3 -19 12 -3 21 -13 21 -20 0 -8 7 -18 17 -23 10 -6 17
-24 17 -48 l2 -39 53 -3 c43 -3 54 -7 58 -22 3 -11 9 -17 14 -15 12 8 42 -42
35 -60 -3 -8 -2 -15 2 -15 4 0 8 -15 8 -32 1 -18 6 -62 13 -98 6 -38 8 -104 5
-160 -6 -85 -5 -93 9 -80 19 18 72 254 61 271 -3 5 0 9 7 9 8 0 7 6 -4 18 -15
16 -15 20 3 50 13 22 16 32 7 32 -8 0 -7 4 3 10 10 6 11 10 3 10 -7 0 -13 9
-13 21 0 16 5 20 26 17 25 -3 27 -1 31 51 4 46 2 53 -12 47 -10 -4 -14 -2 -9
6 5 7 0 9 -14 6 -25 -7 -50 16 -31 28 7 4 15 2 17 -4 4 -13 32 -17 32 -5 0 15
-43 51 -56 46 -17 -6 -58 32 -49 46 3 6 -1 18 -10 27 -13 13 -13 19 -3 32 10
12 10 16 1 19 -7 3 -13 13 -13 24 0 29 -14 23 -27 -11 -14 -36 -37 -39 -39 -5
-1 14 3 25 8 25 6 0 5 6 -2 15 -10 12 -10 15 1 16 8 0 5 4 -6 9 -11 5 -15 9
-8 9 6 1 9 10 6 21 -4 16 -14 20 -47 21 -22 1 -45 1 -50 0 -5 -1 -6 8 -3 19 4
17 3 19 -9 9 -9 -7 -30 -9 -60 -4 -37 5 -46 4 -42 -7 3 -7 2 -23 -3 -35 -7
-19 -16 -23 -46 -22 -51 1 -74 11 -64 27 4 7 12 12 17 11 21 -4 44 2 44 11 0
6 -8 10 -17 10 -12 0 -14 3 -6 8 6 4 14 19 18 33 8 34 -33 81 -59 67 -15 -8
-17 -7 -12 9 4 13 -2 22 -24 31 -16 8 -33 11 -38 8 -5 -3 -7 6 -4 19 2 14 8
22 13 19 5 -3 6 1 3 9 -4 13 -51 26 -106 30 -21 2 -21 2 -8 28 6 10 18 19 28
19 14 0 14 2 3 9 -11 7 -10 10 5 14 23 6 0 6 -38 0z m-168 -43 c0 -5 16 -12
35 -16 19 -3 38 -11 41 -16 3 -5 18 -7 32 -4 15 3 56 -1 92 -8 36 -8 57 -14
48 -15 -19 -1 -26 -31 -8 -31 6 0 10 -7 10 -16 0 -9 7 -14 18 -13 28 3 52 -12
52 -33 0 -15 5 -19 19 -15 27 7 61 -27 54 -53 -3 -11 -9 -20 -14 -20 -5 0 -9
-7 -9 -15 0 -8 -6 -15 -14 -15 -13 0 -26 -20 -26 -41 0 -5 17 -12 39 -15 31
-5 38 -10 34 -24 -6 -22 11 -33 37 -25 20 6 24 16 34 75 6 35 7 35 46 32 22
-2 40 -8 40 -13 0 -5 22 -9 49 -9 45 0 50 -2 49 -22 -1 -13 -1 -44 0 -70 2
-44 4 -48 27 -48 14 0 28 7 31 15 4 8 10 12 15 9 5 -3 7 -10 4 -15 -8 -12 15
-79 33 -99 7 -8 21 -31 30 -50 12 -24 27 -37 50 -44 27 -8 32 -13 28 -30 -3
-12 -6 -27 -6 -33 0 -7 -11 -13 -25 -13 -23 0 -25 -4 -25 -46 0 -25 -5 -54
-10 -65 -7 -12 -8 -32 -3 -52 12 -43 5 -77 -14 -77 -13 0 -14 -9 -9 -47 3 -30
0 -67 -9 -98 l-14 -50 5 80 c3 44 0 112 -6 150 -11 64 -14 89 -18 152 -1 12
-17 38 -34 58 -29 30 -39 35 -79 35 l-46 0 -6 42 c-3 23 -13 45 -21 50 -9 5
-16 16 -16 23 0 8 -4 15 -9 15 -5 0 -7 8 -4 19 5 20 -31 61 -54 61 -7 0 -13 5
-13 10 0 13 -27 13 -35 -1 -11 -16 4 -79 19 -79 13 0 40 -49 32 -57 -10 -11
-56 8 -56 22 0 8 -9 15 -20 15 -16 0 -20 7 -20 30 0 23 -4 30 -20 30 -11 0
-20 -5 -20 -12 0 -9 -3 -9 -12 0 -17 17 -67 15 -74 -3 -3 -8 -24 -20 -45 -25
-21 -6 -39 -16 -39 -23 0 -19 -62 -40 -71 -25 -9 14 -84 38 -121 38 -15 0 -46
7 -68 16 -35 14 -49 15 -98 4 -80 -16 -145 -18 -160 -3 -17 17 -48 17 -61 1
-64 -78 -91 -127 -91 -167 0 -14 -5 -44 -11 -65 -12 -45 -29 -33 -29 20 0 49
-29 134 -45 134 -8 0 -15 9 -15 20 0 12 -7 32 -16 45 -13 19 -14 28 -5 39 8 9
10 32 5 65 -6 48 -5 50 20 57 17 4 26 13 26 26 0 29 29 78 46 78 8 0 17 7 20
15 10 25 25 17 18 -10 -3 -14 -2 -25 4 -25 5 0 12 -9 15 -20 3 -11 12 -20 21
-20 15 0 20 18 19 73 0 17 8 21 38 18 9 -1 22 5 29 14 7 8 21 15 31 15 12 0
19 7 19 20 0 13 -7 20 -19 20 -27 0 -34 28 -16 57 13 20 19 22 31 12 12 -9 22
-8 49 7 39 21 45 43 15 51 -11 3 -17 9 -15 14 7 11 37 0 52 -19 10 -12 20 -12
62 -2 28 7 51 16 51 20 0 8 24 13 83 18 9 1 17 -2 17 -8z m-434 -156 c-9 -8
-16 -22 -16 -29 0 -20 -13 -25 -27 -10 -9 10 -7 17 8 34 11 11 27 21 35 21 14
0 14 -2 0 -16z m-4 -115 c-2 -16 -8 -26 -13 -24 -4 3 -6 12 -3 19 3 8 -2 16
-11 18 -14 3 -14 5 1 27 16 22 18 23 24 6 3 -9 4 -30 2 -46z m892 -73 c-7 -18
-32 -28 -39 -16 -3 5 3 13 12 19 25 14 33 13 27 -3z m366 -206 c0 -5 -4 -10
-10 -10 -5 0 -10 5 -10 10 0 6 5 10 10 10 6 0 10 -4 10 -10z m-17 -415 c-7
-21 -12 -19 -10 4 0 11 5 18 9 15 4 -3 5 -11 1 -19z"/>
<path d="M1660 3115 c0 -8 7 -15 15 -15 8 0 15 7 15 15 0 8 -7 15 -15 15 -8 0
-15 -7 -15 -15z"/>
<path d="M2027 3075 c-9 -20 -17 -42 -17 -50 0 -18 49 -21 51 -2 8 70 7 87 -5
87 -7 0 -20 -16 -29 -35z m27 -10 c3 -9 0 -15 -9 -15 -9 0 -12 6 -9 15 4 8 7
15 9 15 2 0 5 -7 9 -15z m-4 -35 c0 -5 -7 -10 -15 -10 -8 0 -15 5 -15 10 0 6
7 10 15 10 8 0 15 -4 15 -10z"/>
<path d="M1570 3085 c0 -8 9 -15 20 -15 11 0 20 7 20 15 0 8 -9 15 -20 15 -11
0 -20 -7 -20 -15z"/>
<path d="M2074 3035 c-9 -23 3 -45 24 -45 23 0 42 19 42 42 0 23 -58 26 -66 3z
m56 -4 c0 -5 -7 -14 -15 -21 -18 -15 -42 1 -31 19 8 13 46 15 46 2z"/>
<path d="M1734 3016 c-3 -14 -3 -30 1 -35 8 -13 45 -15 45 -2 0 5 9 11 21 14
13 4 20 12 17 24 -4 24 -35 29 -41 6 -4 -17 -5 -17 -6 0 -2 26 -30 21 -37 -7z
m31 -34 c-11 -11 -25 15 -19 33 7 17 8 16 16 -5 5 -13 6 -25 3 -28z m40 39 c3
-5 1 -12 -5 -16 -5 -3 -10 1 -10 9 0 18 6 21 15 7z"/>
<path d="M1927 2983 c-19 -19 12 -66 50 -76 10 -3 4 -5 -14 -6 -22 -1 -33 -6
-33 -16 0 -11 11 -15 40 -15 22 0 49 -6 60 -12 17 -11 22 -10 30 2 13 20 13
60 0 60 -5 0 -10 7 -10 15 0 8 -7 15 -15 15 -8 0 -19 9 -25 20 -7 14 -21 20
-44 20 -18 0 -36 -3 -39 -7z m78 -30 c9 -13 20 -21 25 -18 6 4 10 -1 10 -9 0
-9 -4 -16 -10 -16 -5 0 -9 -3 -7 -7 1 -5 -2 -9 -8 -10 -5 -1 -9 9 -8 23 2 21
-1 23 -17 14 -15 -8 -24 -6 -40 10 -25 25 -20 38 14 38 16 0 31 -10 41 -25z
m50 -73 c-5 -16 -10 -19 -18 -11 -7 7 -6 15 3 26 17 20 24 13 15 -15z"/>
<path d="M2080 2875 c0 -8 7 -15 15 -15 8 0 15 7 15 15 0 8 -7 15 -15 15 -8 0
-15 -7 -15 -15z"/>
<path d="M2412 2852 c-17 -37 -15 -42 15 -42 29 0 93 38 93 56 0 7 -19 12 -48
12 -41 0 -49 -4 -60 -26z m38 2 c0 -14 2 -14 22 0 33 24 45 19 14 -5 -14 -11
-39 -22 -53 -24 -25 -2 -25 -2 -9 10 10 8 15 18 11 24 -3 6 -1 11 4 11 6 0 11
-7 11 -16z"/>
<path d="M2710 2550 c0 -11 7 -20 15 -20 8 0 15 9 15 20 0 11 -7 20 -15 20 -8
0 -15 -9 -15 -20z"/>
<path d="M2308 3183 c7 -3 16 -2 19 1 4 3 -2 6 -13 5 -11 0 -14 -3 -6 -6z"/>
<path d="M1525 3170 c-3 -5 -1 -10 4 -10 6 0 11 5 11 10 0 6 -2 10 -4 10 -3 0
-8 -4 -11 -10z"/>
<path d="M2205 3130 c-3 -5 3 -10 14 -10 12 0 21 5 21 10 0 6 -6 10 -14 10 -8
0 -18 -4 -21 -10z"/>
<path d="M2293 3129 c-9 -9 -6 -17 12 -30 28 -23 35 -24 35 -3 0 12 7 14 31 9
24 -6 30 -4 27 6 -3 8 -18 14 -36 14 -18 -1 -32 3 -32 7 0 12 -24 10 -37 -3z
m31 -15 c3 -8 2 -12 -4 -9 -6 3 -10 10 -10 16 0 14 7 11 14 -7z"/>
<path d="M2340 3074 c-10 -12 -8 -14 14 -14 28 0 35 14 12 23 -8 3 -20 -1 -26
-9z"/>
<path d="M2300 3021 c0 -13 29 -35 37 -27 3 3 1 6 -5 6 -7 0 -12 7 -12 15 0 8
-4 15 -10 15 -5 0 -10 -4 -10 -9z"/>
<path d="M1352 3000 c0 -14 2 -19 5 -12 2 6 2 18 0 25 -3 6 -5 1 -5 -13z"/>
<path d="M2350 2970 c0 -5 4 -10 9 -10 6 0 13 5 16 10 3 6 -1 10 -9 10 -9 0
-16 -4 -16 -10z"/>
<path d="M2740 2705 c7 -8 16 -15 21 -15 5 0 9 7 9 15 0 9 -9 15 -21 15 -18 0
-19 -2 -9 -15z"/>
<path d="M1946 2626 c3 -9 11 -16 16 -16 13 0 5 23 -10 28 -7 2 -10 -2 -6 -12z"/>
<path d="M1427 2390 c-42 -33 -29 -44 54 -46 41 -1 87 -7 103 -13 41 -16 176
-27 176 -14 0 28 -95 63 -172 63 -25 0 -48 5 -50 11 -2 6 -22 3 -52 -11 -36
-15 -46 -17 -36 -6 22 28 6 38 -23 16z m250 -37 c96 -26 66 -45 -37 -23 -25 6
-72 15 -105 22 -42 8 -54 13 -41 18 27 9 122 1 183 -17z"/>
<path d="M2270 2329 c-69 -14 -72 -16 -60 -38 8 -16 18 -19 58 -16 79 6 192
38 179 51 -10 10 -134 12 -177 3z m120 -8 c21 -6 16 -9 -30 -18 -80 -17 -133
-20 -137 -6 -3 7 17 15 49 21 64 12 85 12 118 3z"/>
<path d="M1592 2249 c-15 -6 -19 -14 -15 -29 4 -15 9 -18 16 -11 18 18 77 14
77 -5 0 -12 -6 -15 -25 -10 -21 5 -25 3 -25 -15 0 -21 -1 -22 -20 -4 -18 16
-20 16 -20 2 0 -41 83 -40 96 0 3 10 9 25 14 34 7 14 1 20 -34 31 -25 8 -52
11 -64 7z m31 -16 c-7 -2 -19 -2 -25 0 -7 3 -2 5 12 5 14 0 19 -2 13 -5z"/>
<path d="M1493 2210 c-13 -5 -23 -14 -23 -20 0 -16 15 -12 35 10 20 22 20 23
-12 10z"/>
<path d="M2272 2179 c2 -7 20 -14 41 -15 21 0 40 -4 44 -8 10 -10 -17 -25 -33
-19 -6 2 -15 0 -19 -6 -10 -16 -23 -13 -28 7 -4 13 -5 12 -6 -5 -1 -27 29 -45
67 -41 21 2 28 9 30 31 4 34 27 35 58 2 28 -31 50 -34 32 -5 -17 27 -81 57
-142 66 -38 5 -48 4 -44 -7z m83 -68 c-8 -13 -45 -15 -45 -2 0 5 10 11 23 13
27 5 31 3 22 -11z"/>
<path d="M5170 2101 c0 -4 -19 -11 -41 -14 -51 -7 -101 -52 -118 -106 -10 -37
-9 -41 19 -71 16 -18 30 -38 30 -46 0 -22 69 -19 76 4 11 36 22 47 50 50 16 2
32 9 36 15 4 7 12 4 23 -7 13 -13 20 -14 31 -6 7 7 22 9 32 6 11 -4 24 0 31 8
15 18 5 56 -14 56 -11 0 -29 34 -26 53 1 4 -7 7 -16 7 -14 0 -15 2 -4 9 9 6
10 11 2 15 -6 4 -16 4 -21 1 -6 -4 -9 -1 -8 6 2 9 -9 13 -37 12 -38 -2 -38 -1
-10 7 l30 8 -32 1 c-18 0 -33 -3 -33 -8z m92 -53 c17 -18 35 -45 40 -60 6 -16
17 -28 26 -28 10 0 12 -3 7 -9 -14 -12 -85 -21 -85 -10 0 5 -9 9 -20 9 -11 0
-20 -4 -20 -10 0 -5 -13 -10 -29 -10 -31 0 -47 -14 -53 -45 -4 -24 -58 -35
-58 -12 0 8 -13 28 -28 45 -24 25 -26 34 -19 58 11 34 53 82 82 94 11 5 44 9
73 9 48 1 57 -2 84 -31z"/>
<path d="M5230 2015 c0 -8 7 -15 15 -15 8 0 15 7 15 15 0 8 -7 15 -15 15 -8 0
-15 -7 -15 -15z"/>
<path d="M1780 1790 c0 -13 34 -30 59 -30 26 0 27 16 2 30 -25 13 -61 13 -61
0z m50 -10 c8 -5 11 -10 5 -10 -5 0 -17 5 -25 10 -8 5 -10 10 -5 10 6 0 17 -5
25 -10z"/>
<path d="M2005 1791 c-3 -5 2 -16 10 -25 21 -21 82 -2 64 20 -13 16 -65 19
-74 5z m55 -11 c0 -5 -9 -10 -20 -10 -11 0 -20 5 -20 10 0 6 9 10 20 10 11 0
20 -4 20 -10z"/>
<path d="M5400 1761 c0 -11 5 -23 10 -26 6 -3 10 3 10 14 0 11 -4 23 -10 26
-5 3 -10 -3 -10 -14z"/>
<path d="M1804 1645 c-4 -8 -3 -23 0 -32 6 -15 9 -14 20 7 7 14 11 28 9 33 -7
12 -23 8 -29 -8z"/>
<path d="M5409 1652 c-2 -7 -14 -14 -27 -15 -20 -1 -32 -16 -14 -18 4 0 15 -2
25 -4 19 -4 32 16 25 37 -4 11 -5 11 -9 0z"/>
<path d="M4855 1580 c-5 -8 31 -29 53 -30 12 -1 49 -35 61 -57 6 -12 14 -50
18 -83 5 -53 3 -65 -16 -90 -27 -38 -28 -99 -1 -131 19 -22 21 -23 30 -6 6 9
20 17 30 17 11 0 20 7 20 15 0 9 12 18 30 22 30 6 42 23 16 23 -8 0 -20 14
-28 30 -7 17 -16 30 -20 30 -3 0 -9 19 -13 43 -4 23 -14 54 -21 69 -8 15 -14
36 -14 46 0 23 -38 74 -49 67 -5 -2 -25 4 -45 14 -21 11 -31 21 -24 24 8 4 7
6 -4 6 -9 1 -20 -4 -23 -9z m170 -227 c4 -24 10 -43 13 -43 4 0 13 -12 20 -28
10 -23 10 -29 -3 -38 -8 -6 -15 -16 -15 -23 0 -6 -9 -11 -19 -11 -11 0 -23 -5
-27 -12 -11 -17 -34 20 -34 55 0 16 9 40 20 54 13 17 20 41 20 72 1 54 14 40
25 -26z"/>
<path d="M2640 1545 c-7 -8 -21 -15 -31 -15 -13 0 -20 -10 -24 -37 -3 -21 -13
-53 -21 -71 -18 -42 -18 -45 6 -32 16 9 20 8 20 -6 0 -10 14 -29 31 -44 28
-23 30 -29 20 -48 -7 -13 -11 -42 -9 -65 3 -38 5 -42 28 -39 73 7 100 42 107
136 6 87 5 117 -7 131 -6 7 -9 17 -8 23 4 13 -67 82 -85 82 -8 0 -20 -7 -27
-15z m78 -39 c12 -14 22 -32 22 -39 0 -7 4 -17 10 -23 11 -11 12 -29 5 -113
-7 -91 -35 -131 -95 -131 -24 0 -27 35 -8 88 12 33 12 35 -20 61 -17 15 -32
35 -32 44 0 9 -5 17 -11 17 -6 0 -8 8 -6 18 3 9 8 34 12 55 4 27 11 37 24 37
10 0 24 7 31 15 14 17 35 9 68 -29z"/>
<path d="M6376 1544 c-5 -12 -13 -14 -32 -10 -24 6 -26 5 -20 -19 7 -29 4 -31
-29 -9 -15 10 -32 13 -46 9 l-23 -8 23 -18 c14 -11 20 -23 15 -31 -6 -10 -4
-10 9 0 9 8 20 11 26 8 5 -3 20 -2 34 3 21 8 26 7 31 -12 6 -22 6 -22 22 -2 9
13 11 21 4 23 -7 3 -7 9 1 19 10 12 10 16 -2 24 -12 7 -12 10 0 18 8 5 9 11 3
15 -5 3 -13 -1 -16 -10z m-3 -39 c1 -5 -6 -11 -15 -13 -11 -2 -18 3 -18 13 0
17 30 18 33 0z m-76 -21 c-7 -7 -37 7 -37 17 0 6 9 5 21 -1 11 -7 19 -14 16
-16z"/>
<path d="M1580 1525 c-17 -20 9 -21 36 0 19 14 19 14 -2 15 -12 0 -27 -7 -34
-15z"/>
<path d="M5860 1530 c-20 -6 -21 -8 -5 -8 11 0 29 3 40 8 25 11 -1 11 -35 0z"/>
<path d="M6059 1527 c5 -5 24 -7 42 -5 33 3 33 4 -8 8 -23 3 -39 2 -34 -3z"/>
<path d="M6163 1523 c9 -2 23 -2 30 0 6 3 -1 5 -18 5 -16 0 -22 -2 -12 -5z"/>
<path d="M2230 1495 c7 -8 17 -15 22 -15 5 0 3 7 -6 15 -8 8 -18 15 -22 15 -3
0 -1 -7 6 -15z"/>
<path d="M3301 1496 c-65 -24 -75 -50 -81 -206 -6 -154 2 -195 34 -176 10 6
32 23 47 37 l29 25 -40 54 c-44 59 -49 76 -22 83 15 4 14 6 -5 12 -23 8 -40
52 -24 68 5 5 30 12 55 14 41 5 49 2 82 -27 35 -30 38 -31 50 -15 7 9 17 14
23 10 14 -8 14 -42 1 -50 -6 -4 -8 -15 -5 -26 4 -10 2 -19 -2 -19 -14 0 -43
-66 -38 -88 2 -11 -4 -52 -14 -90 l-17 -70 28 21 c15 11 28 24 28 29 0 4 7 8
15 8 11 0 15 -11 15 -42 0 -39 1 -40 18 -25 14 13 21 14 30 5 9 -9 12 2 14 48
0 32 0 72 -1 88 -2 16 3 32 9 36 8 5 9 13 2 26 -5 11 -28 64 -51 119 -23 55
-51 112 -64 127 -26 33 -69 42 -116 24z m94 -17 c6 -4 21 -26 33 -48 19 -33
20 -41 8 -41 -8 0 -16 -6 -19 -12 -3 -9 -14 -4 -34 15 -16 15 -34 27 -41 27
-13 0 -15 22 -6 58 5 18 11 21 28 16 11 -4 26 -10 31 -15z m-74 -21 c-3 -21
-6 -26 -9 -15 -3 17 3 47 11 47 2 0 1 -15 -2 -32z m-21 -8 c0 -19 -5 -30 -14
-30 -8 0 -21 -3 -30 -6 -22 -8 -20 8 5 40 27 34 39 33 39 -4z m210 -217 c1
-10 2 -55 1 -99 -1 -73 -3 -82 -21 -87 -17 -4 -20 0 -20 24 0 23 -4 29 -21 29
-12 0 -28 -8 -36 -17 -13 -16 -14 -14 -8 17 4 19 9 53 12 75 6 49 22 95 34 95
5 0 9 11 9 23 0 41 14 40 32 -1 9 -22 17 -49 18 -59z m-230 -13 l32 -41 -27
-25 c-45 -42 -55 -27 -54 78 1 65 3 84 9 61 4 -17 22 -50 40 -73z"/>
<path d="M1361 1469 c-1 -41 16 -99 30 -99 12 0 11 14 -2 27 -5 5 -14 32 -18
59 -8 45 -9 46 -10 13z"/>
<path d="M4731 1461 c-49 -45 -53 -81 -11 -91 19 -5 25 -13 26 -35 2 -44 -7
-66 -25 -63 -10 2 -17 -5 -19 -19 -3 -18 2 -23 18 -23 18 0 21 -5 18 -25 -3
-13 -2 -24 1 -23 18 2 22 -3 13 -14 -12 -15 -4 -70 9 -62 5 3 9 14 9 25 0 12
7 19 19 19 15 0 18 5 14 21 -4 14 0 25 11 31 24 13 12 84 -19 118 -18 19 -24
38 -25 80 -2 30 1 63 5 73 13 32 -1 28 -44 -12z m29 -58 c0 -29 -2 -31 -27
-24 -35 9 -38 22 -12 55 25 32 39 21 39 -31z m54 -151 c4 -24 2 -34 -9 -38 -8
-4 -15 -17 -15 -30 0 -13 -3 -24 -7 -24 -9 0 -33 49 -33 67 0 7 -9 13 -20 13
-11 0 -20 5 -20 10 0 6 9 10 20 10 14 0 21 9 26 36 l7 36 22 -24 c12 -12 25
-38 29 -56z"/>
<path d="M6190 1492 c0 -4 14 -16 30 -25 17 -10 30 -15 30 -10 0 4 -14 16 -30
25 -17 9 -30 14 -30 10z"/>
<path d="M5590 1469 c-30 -12 -68 -25 -85 -29 -25 -7 -26 -8 -7 -9 13 -1 44 8
70 18 26 11 61 24 77 29 17 6 23 11 15 11 -8 0 -40 -9 -70 -20z"/>
<path d="M6149 1449 c18 -11 41 -17 50 -14 12 5 5 10 -24 21 -56 19 -66 17
-26 -7z"/>
<path d="M2160 1450 c8 -5 22 -10 30 -10 13 0 13 1 0 10 -8 5 -22 10 -30 10
-13 0 -13 -1 0 -10z"/>
<path d="M6318 1453 c-18 -5 -36 -49 -24 -60 3 -4 6 3 6 15 0 24 15 30 23 10
3 -9 9 -7 20 7 8 11 13 23 11 27 -5 8 -8 8 -36 1z"/>
<path d="M6060 1441 c0 -6 5 -13 10 -16 6 -3 10 1 10 9 0 9 -4 16 -10 16 -5 0
-10 -4 -10 -9z"/>
<path d="M6098 1423 c6 -3 10 -9 6 -14 -7 -12 -1 -11 31 5 l27 14 -39 0 c-21
0 -32 -3 -25 -5z"/>
<path d="M5425 1410 c-3 -6 1 -7 9 -4 18 7 21 14 7 14 -6 0 -13 -4 -16 -10z"/>
<path d="M5976 1412 c-9 -16 10 -27 49 -30 l40 -2 -33 20 c-35 22 -48 24 -56
12z"/>
<path d="M6320 1384 c-19 -10 -21 -14 -7 -14 25 0 31 3 33 18 1 6 2 12 1 11
-1 -1 -13 -7 -27 -15z"/>
<path d="M1400 1337 c0 -8 6 -20 14 -26 12 -10 13 -8 9 9 -7 25 -23 37 -23 17z"/>
<path d="M3320 1320 c0 -5 7 -10 15 -10 8 0 15 5 15 10 0 6 -7 10 -15 10 -8 0
-15 -4 -15 -10z"/>
<path d="M4700 1320 c0 -5 5 -10 10 -10 6 0 10 5 10 10 0 6 -4 10 -10 10 -5 0
-10 -4 -10 -10z"/>
<path d="M1904 1289 c-8 -14 14 -29 43 -29 16 0 21 6 20 20 -1 15 -8 20 -29
20 -15 0 -30 -5 -34 -11z m46 -9 c0 -5 -4 -10 -9 -10 -6 0 -13 5 -16 10 -3 6
1 10 9 10 9 0 16 -4 16 -10z"/>
<path d="M2487 1286 c-9 -7 -17 -18 -17 -23 0 -6 -7 -16 -15 -23 -8 -7 -15
-19 -15 -26 0 -21 30 1 57 42 23 36 19 50 -10 30z"/>
<path d="M4440 1230 c-69 -4 -126 -8 -127 -9 -1 0 -3 -15 -5 -33 -2 -24 -9
-34 -26 -38 -21 -5 -22 -7 -8 -25 14 -18 15 -18 16 -2 0 13 8 17 33 17 31 0
35 -3 48 -47 8 -27 20 -48 26 -48 6 0 15 -3 19 -7 4 -5 -6 -8 -22 -8 -24 -1
-26 -2 -11 -11 9 -5 17 -18 17 -27 0 -10 10 -22 23 -27 29 -13 28 -39 -1 -43
-31 -5 -50 13 -63 57 -6 21 -20 41 -34 47 -19 9 -22 9 -18 -2 3 -9 -2 -14 -15
-14 -12 0 -24 -5 -28 -11 -5 -9 1 -10 20 -5 21 5 28 2 37 -17 9 -21 7 -28 -16
-51 -14 -14 -31 -24 -36 -21 -17 11 -31 -6 -18 -21 14 -17 -2 -19 -19 -2 -9 9
-12 8 -12 -5 0 -9 7 -17 15 -17 8 0 15 -4 15 -10 0 -12 -49 -13 -67 -2 -8 5
-9 21 -3 50 10 54 3 80 -21 87 -13 4 -19 16 -19 35 0 39 -16 79 -36 87 -8 3
-28 -4 -44 -16 -16 -11 -41 -21 -55 -21 -15 0 -24 -4 -20 -10 10 -15 -26 -12
-44 4 -13 12 -26 13 -56 6 -22 -5 -41 -7 -43 -5 -10 9 11 25 33 25 13 0 26 4
29 9 3 4 18 6 32 3 19 -3 25 -1 20 7 -11 18 -58 13 -96 -11 -20 -12 -67 -27
-110 -33 -48 -7 -74 -15 -73 -23 2 -7 0 -11 -5 -11 -16 3 -72 -26 -72 -38 0
-7 -7 -13 -16 -13 -12 0 -15 6 -11 23 5 19 4 20 -6 6 -7 -9 -33 -19 -60 -22
-56 -8 -97 -32 -97 -58 0 -10 -11 -30 -25 -45 -31 -33 -32 -48 -2 -41 12 3 78
9 147 12 144 8 299 -7 345 -33 38 -23 65 -75 65 -129 l0 -43 51 0 52 0 -26 20
c-14 11 -35 20 -46 20 -14 0 -21 6 -21 20 0 11 6 20 14 20 7 0 20 7 27 16 18
22 112 13 150 -15 30 -22 39 -19 39 14 0 31 33 69 76 90 44 21 266 45 422 45
61 0 112 3 112 7 0 4 -25 72 -56 150 -44 110 -61 143 -75 143 -28 0 -30 16 -4
30 58 31 35 33 -215 20z m198 -14 c-10 -7 -18 -21 -18 -30 0 -9 -8 -16 -19
-16 -15 0 -19 -7 -19 -31 1 -30 -14 -49 -39 -49 -7 0 -13 7 -13 15 0 28 -42
56 -80 53 -33 -3 -35 -5 -34 -38 0 -19 4 -43 8 -52 6 -13 3 -15 -12 -11 -13 3
-24 20 -32 49 -7 25 -19 44 -26 44 -8 0 -14 7 -14 15 0 8 -4 15 -10 15 -8 0
-15 27 -7 31 2 2 225 14 292 17 35 1 38 0 23 -12z m33 -78 c8 -18 15 -49 15
-68 -1 -28 -6 -35 -26 -41 -16 -4 -18 -7 -8 -8 27 -2 58 -33 58 -58 0 -27 -5
-28 -42 -9 -31 17 -33 14 -15 -14 10 -17 9 -22 -3 -30 -21 -14 -28 -12 -50 10
-18 18 -21 18 -26 5 -6 -14 -8 -14 -25 1 -11 9 -19 26 -19 37 0 15 5 18 25 15
17 -4 25 -1 25 8 0 8 -6 14 -14 14 -15 0 -48 59 -39 73 3 4 10 6 17 4 20 -8
47 19 49 49 2 27 18 40 53 43 6 1 17 -14 25 -31z m-173 -8 c25 -24 29 -58 7
-66 -42 -17 -97 31 -82 70 9 22 49 20 75 -4z m-374 -73 c3 -12 6 -34 6 -49 0
-18 7 -29 21 -33 20 -7 21 -12 16 -71 -6 -62 -5 -64 18 -70 l25 -6 -20 -25
c-11 -14 -20 -36 -20 -50 0 -23 -1 -23 -25 -7 -13 9 -52 18 -85 21 -49 5 -64
3 -80 -12 -23 -21 -25 -19 -48 26 -10 18 -31 41 -47 51 -47 27 -201 41 -357
33 -98 -4 -138 -3 -138 5 0 6 7 13 15 16 8 4 15 16 15 29 0 38 45 60 123 59
46 -1 67 2 67 11 0 6 18 18 40 25 24 8 40 20 41 29 0 10 4 7 10 -8 8 -19 14
-22 37 -17 15 4 39 10 55 13 15 3 27 10 27 17 0 14 106 20 115 6 8 -13 65 -13
65 0 0 6 11 10 24 10 13 0 29 6 35 14 16 19 58 8 65 -17z m617 -72 l37 -95
-67 1 c-36 0 -60 3 -53 6 6 2 12 13 12 22 0 14 6 17 25 13 23 -4 25 -1 25 32
0 21 -6 39 -13 42 -12 4 -19 74 -7 74 3 0 21 -43 41 -95z m-931 67 c0 -4 -8
-8 -17 -8 -28 -1 -47 -8 -55 -19 -5 -6 -12 -5 -19 2 -10 10 -7 14 12 22 29 12
79 14 79 3z m650 -12 c0 -5 -4 -10 -10 -10 -5 0 -10 5 -10 10 0 6 5 10 10 10
6 0 10 -4 10 -10z m67 -17 c16 -33 10 -39 -22 -25 -37 17 -75 15 -75 -3 0 -8
-4 -15 -10 -15 -5 0 -10 9 -10 20 0 16 7 20 30 20 20 0 30 5 30 15 0 27 44 17
57 -12z m-179 -52 c16 -52 34 -65 82 -58 22 3 40 1 40 -4 0 -5 14 -9 30 -9 17
0 30 5 30 11 0 8 5 8 15 -1 8 -7 21 -10 28 -7 8 3 19 2 26 -2 7 -5 -23 -11
-66 -15 -43 -3 -104 -9 -136 -13 l-57 -6 6 29 c3 16 -1 48 -9 72 -8 23 -11 42
-7 42 4 0 12 -17 18 -39z m144 17 c8 -7 18 -28 22 -45 4 -27 2 -33 -12 -33
-16 0 -62 59 -62 80 0 14 33 13 52 -2z m-157 -85 c-7 -28 -25 -47 -35 -36 -3
3 1 8 8 10 6 3 12 16 12 29 0 13 5 24 11 24 7 0 9 -10 4 -27z m-45 -27 c0 -8
-6 -16 -14 -19 -10 -4 -12 0 -9 14 6 22 23 26 23 5z m-295 -206 c4 -6 -5 -10
-19 -10 -14 0 -26 5 -26 10 0 6 9 10 19 10 11 0 23 -4 26 -10z"/>
<path d="M4647 1073 c-10 -9 -9 -23 2 -23 5 0 11 7 15 15 5 15 -5 20 -17 8z"/>
<path d="M4622 1010 c0 -14 2 -19 5 -12 2 6 2 18 0 25 -3 6 -5 1 -5 -13z"/>
<path d="M5564 1215 c1 -11 6 -26 10 -33 9 -15 -1 -32 -20 -32 -18 0 -18 -19
1 -44 17 -23 20 -46 4 -46 -5 0 -7 5 -4 10 4 6 1 9 -7 8 -7 -2 -12 3 -10 10 4
23 -18 12 -28 -14 -13 -33 -13 -34 5 -34 17 0 20 -16 5 -25 -5 -3 -6 -13 -3
-22 4 -11 3 -14 -5 -9 -7 4 -12 2 -12 -3 0 -6 6 -11 14 -11 20 0 26 -23 11
-43 -7 -10 -15 -13 -16 -8 -3 7 -13 6 -29 -2 -21 -11 -25 -19 -22 -50 2 -28
-1 -37 -12 -37 -10 0 -18 -14 -22 -37 -4 -21 -10 -42 -14 -48 -3 -5 -8 -30 -9
-54 -2 -31 -9 -50 -24 -62 -19 -16 -20 -18 -4 -19 10 0 17 -8 17 -20 0 -21 62
-55 122 -67 26 -5 27 -3 53 83 15 49 30 96 34 104 4 8 6 29 6 45 -1 17 2 32 6
35 4 3 9 32 11 66 3 33 7 65 11 71 3 5 0 18 -7 29 -16 22 -10 44 13 45 10 0
11 2 4 6 -7 2 -13 20 -13 38 0 25 5 34 23 39 17 5 19 8 8 15 -7 5 -11 13 -7
19 3 6 -2 15 -11 21 -10 6 -13 11 -6 11 6 0 10 8 8 18 -2 9 -4 21 -4 26 -1 5
-8 3 -16 -4 -9 -7 -17 -11 -18 -9 -1 2 -8 12 -15 21 -12 14 -10 16 9 11 20 -6
21 -4 9 8 -20 22 -49 19 -46 -6z m59 -61 c-3 -9 0 -20 8 -25 10 -6 10 -9 2 -9
-7 0 -13 -11 -13 -25 0 -14 -4 -25 -10 -25 -14 0 -12 -28 2 -32 9 -3 9 -12 -1
-36 -9 -22 -10 -36 -3 -45 6 -6 8 -33 5 -59 -5 -45 -7 -48 -34 -48 -31 0 -41
-26 -14 -36 8 -4 15 -10 15 -15 0 -6 -8 -5 -19 1 -29 15 -41 12 -41 -10 0 -11
7 -20 15 -20 8 0 15 -9 15 -20 0 -22 25 -27 34 -7 13 27 -8 -63 -31 -136 -27
-87 -21 -84 -109 -46 -30 12 -43 24 -46 43 -3 14 -1 26 3 26 5 0 9 12 9 28 0
39 31 162 41 162 5 0 9 -9 9 -20 0 -11 5 -20 10 -20 6 0 10 -7 10 -15 0 -8 7
-15 15 -15 18 0 20 30 3 31 -10 0 -10 2 0 6 19 8 14 33 -7 33 -14 0 -20 9 -23
35 -3 24 0 35 9 35 7 0 13 5 13 10 0 7 6 7 19 0 36 -19 44 -13 37 33 -4 23 -7
59 -7 80 0 20 -4 37 -9 37 -6 0 -10 5 -10 12 0 9 3 9 12 0 17 -17 48 -15 48 3
0 8 7 15 15 15 8 0 15 9 15 20 0 11 -7 20 -15 20 -8 0 -15 4 -15 9 0 23 14 41
31 41 13 0 17 -5 12 -16z m-53 -24 c0 -5 -5 -10 -11 -10 -5 0 -7 5 -4 10 3 6
8 10 11 10 2 0 4 -4 4 -10z m30 -300 c0 -5 -6 -10 -14 -10 -8 0 -18 5 -21 10
-3 6 3 10 14 10 12 0 21 -4 21 -10z m-100 -24 c0 -2 -7 -6 -15 -10 -8 -3 -15
-1 -15 4 0 6 7 10 15 10 8 0 15 -2 15 -4z m84 -37 c-8 -13 -21 -11 -27 5 -4
10 0 12 14 9 10 -3 16 -9 13 -14z"/>
<path d="M5656 1207 c3 -10 9 -15 12 -12 3 3 0 11 -7 18 -10 9 -11 8 -5 -6z"/>
<path d="M5700 1200 c0 -5 7 -10 16 -10 8 0 12 5 9 10 -3 6 -10 10 -16 10 -5
0 -9 -4 -9 -10z"/>
<path d="M1498 1194 c-10 -9 23 -89 42 -106 11 -9 20 -22 20 -30 0 -22 36 -69
66 -85 16 -9 44 -24 63 -34 19 -10 38 -24 42 -30 4 -7 21 -12 38 -11 17 0 29
-3 27 -7 -5 -8 7 -9 102 -11 62 -2 122 9 177 30 11 4 40 14 65 21 25 7 52 18
60 24 8 7 23 15 33 18 10 4 24 21 33 39 8 18 21 43 30 56 22 30 0 29 -34 -3
-15 -14 -32 -25 -39 -25 -7 0 -13 -5 -13 -10 0 -12 -30 -24 -82 -34 -25 -5
-40 -2 -50 8 -24 23 -86 36 -114 24 -13 -6 -24 -15 -24 -20 0 -4 -7 -8 -15 -8
-8 0 -15 -4 -15 -9 0 -14 -36 -7 -54 12 -13 13 -27 16 -47 12 -18 -4 -29 -2
-29 4 0 6 -3 10 -7 10 -5 -1 -25 -1 -46 0 -34 1 -48 10 -115 77 -78 76 -105
97 -114 88z m100 -95 c82 -80 86 -82 206 -93 22 -2 43 -11 48 -20 10 -17 68
-22 68 -6 0 6 5 10 11 10 6 0 18 7 27 16 19 20 84 14 107 -10 9 -9 24 -16 33
-16 35 1 107 21 117 34 12 15 45 28 45 18 0 -14 -31 -52 -42 -52 -6 0 -19 -6
-27 -13 -9 -7 -36 -19 -61 -26 -25 -7 -54 -17 -65 -21 -55 -22 -118 -31 -176
-26 -98 8 -149 17 -149 27 0 5 -15 15 -32 24 -87 40 -138 85 -138 123 0 8 -9
21 -20 30 -11 10 -25 32 -30 51 -5 18 -7 32 -5 30 2 -2 39 -38 83 -80z"/>
<path d="M5748 1188 c7 -9 9 -19 5 -21 -14 -9 -14 -147 0 -147 7 0 6 -4 -3
-10 -13 -8 -12 -10 4 -10 12 0 16 -5 12 -16 -3 -8 -2 -12 4 -9 12 7 54 -34 57
-56 2 -16 -62 -69 -84 -69 -6 0 -9 -15 -6 -35 3 -27 0 -35 -12 -35 -11 0 -14
-6 -9 -24 4 -17 -2 -31 -24 -52 -37 -37 -56 -71 -41 -76 5 -2 7 -12 3 -22 -5
-12 -9 -14 -14 -6 -4 7 -13 9 -19 5 -9 -5 -9 -10 0 -21 17 -20 3 -47 -21 -41
-32 8 -25 -31 13 -65 17 -17 26 -27 20 -23 -7 3 -13 1 -13 -5 0 -6 -4 -8 -10
-5 -5 3 -10 -3 -10 -14 0 -11 -4 -22 -10 -26 -5 -3 -7 -12 -3 -20 3 -9 -1 -15
-11 -15 -10 0 -16 -9 -16 -25 0 -24 -10 -30 -65 -38 -11 -1 -26 -6 -34 -11
-11 -7 -9 -12 10 -22 24 -13 24 -13 2 -14 -12 0 -25 -5 -29 -11 -4 -8 -9 -7
-15 2 -4 8 -3 19 4 27 8 11 7 16 -6 23 -19 11 -23 59 -5 59 6 0 9 3 6 6 -4 3
-16 1 -27 -6 -16 -8 -21 -8 -21 1 0 6 9 13 20 16 21 6 28 23 9 23 -11 0 -9 28
5 61 11 26 -25 34 -44 10 -14 -20 -15 -18 -12 29 4 50 4 50 -27 50 -17 0 -31
-5 -31 -11 0 -5 5 -7 10 -4 6 3 10 -5 10 -19 0 -15 -5 -24 -12 -22 -7 1 -10 1
-5 -1 14 -8 7 -22 -8 -17 -10 4 -15 0 -15 -11 0 -9 5 -13 10 -10 15 9 30 -4
23 -21 -5 -12 -7 -13 -14 -3 -4 8 -10 11 -13 8 -7 -7 22 -69 32 -69 19 1 35
20 35 44 0 31 5 32 23 9 18 -25 17 -38 -2 -22 -13 11 -14 9 -8 -16 6 -25 5
-28 -15 -22 -11 3 -24 1 -27 -4 -3 -5 -1 -9 4 -9 5 0 12 -11 14 -25 6 -28 -1
-31 -21 -13 -11 11 -13 10 -8 -4 7 -20 -23 -34 -35 -16 -6 11 -8 11 -8 0 0
-18 30 -27 50 -14 10 6 22 7 31 1 11 -7 11 -9 -2 -9 -19 0 -33 -26 -18 -35 5
-4 7 -11 4 -16 -4 -5 1 -12 9 -15 9 -3 16 -10 16 -16 0 -5 -13 -1 -29 8 -17
10 -30 20 -29 23 0 3 0 13 -1 21 -1 13 -2 13 -11 0 -8 -13 -10 -12 -10 4 0 26
-12 12 -14 -16 -1 -13 5 -31 13 -41 13 -16 13 -17 -3 -11 -14 5 -16 2 -11 -17
7 -31 -10 -58 -26 -42 -8 8 -9 20 -2 40 6 17 7 38 2 51 -5 13 -7 27 -5 31 3 4
8 72 11 151 9 185 10 199 18 206 3 3 3 12 1 19 -3 7 0 23 6 35 8 15 9 25 1 33
-5 5 -7 23 -4 40 4 22 1 33 -11 43 -12 8 -15 17 -10 26 17 27 14 48 -6 48 -11
0 -20 -7 -20 -15 0 -8 -4 -15 -9 -15 -5 0 -13 -9 -16 -20 -3 -11 -13 -20 -21
-20 -8 0 -15 -4 -15 -10 -1 -5 -2 -14 -3 -19 0 -5 -4 -13 -8 -17 -5 -4 -8 -26
-9 -48 -1 -41 -1 -41 -10 -11 -6 18 -7 79 -3 150 7 130 7 132 -2 188 -5 27
-11 37 -25 37 -10 0 -19 -6 -20 -12 0 -7 -3 -24 -5 -38 -2 -14 -4 -31 -4 -37
0 -7 0 -21 -1 -30 0 -10 -1 -30 -1 -45 0 -16 -4 -28 -7 -28 -3 0 -7 -10 -8
-22 -3 -54 -16 -107 -24 -102 -5 3 -9 0 -9 -5 0 -6 -7 -11 -15 -11 -8 0 -15
-5 -15 -11 0 -5 -4 -8 -9 -5 -29 18 -41 -89 -16 -138 12 -22 12 -26 0 -26 -14
0 -15 -36 -1 -58 4 -7 3 -12 -3 -12 -5 0 -13 5 -16 10 -3 6 -10 10 -14 10 -13
0 -21 -39 -10 -46 6 -3 7 -14 4 -24 -3 -10 0 -22 6 -26 9 -5 10 -2 5 12 -7 18
-6 18 10 2 16 -16 11 -44 -6 -33 -5 3 -11 1 -15 -5 -4 -6 -10 -8 -15 -5 -4 3
-11 -2 -14 -10 -3 -9 1 -18 9 -21 8 -4 15 -15 15 -26 0 -11 7 -26 15 -34 23
-23 20 -47 -4 -34 -25 13 -41 13 -21 0 13 -9 13 -12 -2 -20 -10 -7 -14 -17
-10 -32 5 -19 4 -20 -10 -8 -9 8 -13 21 -11 27 3 7 0 13 -7 13 -7 0 -10 7 -6
15 3 10 -3 17 -20 21 -14 4 -22 9 -17 13 5 3 10 16 10 29 2 19 -1 21 -13 12
-8 -7 -14 -18 -14 -25 0 -8 -6 -15 -12 -18 -10 -3 -10 -9 0 -26 6 -11 18 -31
25 -44 6 -12 18 -26 25 -30 22 -14 14 -51 -15 -64 -34 -16 -56 -17 -47 -1 4 7
3 8 -5 4 -6 -4 -9 -12 -6 -17 4 -5 2 -9 -3 -9 -6 0 -12 7 -16 15 -3 8 -12 15
-21 15 -11 0 -14 -6 -9 -24 6 -27 -14 -46 -27 -25 -7 11 -9 10 -9 -3 0 -10 -4
-18 -10 -18 -5 0 -10 -7 -10 -15 0 -13 68 -15 550 -15 l550 0 6 28 c4 15 13
32 20 38 13 10 12 12 -1 18 -8 3 -15 13 -15 23 0 15 1 15 14 -2 13 -18 14 -16
10 15 -2 19 3 52 11 74 14 35 14 38 0 33 -8 -4 -15 -2 -15 3 0 6 5 10 10 10 6
0 10 9 10 20 0 23 -10 25 -29 7 -8 -6 -11 -7 -8 -2 3 6 1 17 -4 25 -15 24 -42
-18 -35 -57 3 -21 -1 -36 -11 -45 -14 -11 -15 -5 -8 67 4 44 9 83 12 88 8 13
33 8 33 -7 0 -8 11 -17 24 -20 13 -3 32 -9 43 -12 17 -5 17 -5 1 9 -10 8 -18
19 -18 26 0 6 -7 14 -15 17 -10 4 -12 11 -6 22 5 10 12 40 15 67 21 149 39
226 52 221 8 -3 15 -1 16 4 4 28 2 35 -12 35 -8 1 -13 7 -12 15 2 8 6 35 8 60
16 164 32 279 40 292 12 19 33 -42 35 -103 2 -43 -1 -63 -12 -71 -10 -7 -11
-11 -2 -15 10 -3 10 -9 0 -26 -16 -27 -15 -63 1 -60 6 2 11 -5 10 -15 -4 -52
2 -72 23 -72 18 0 19 -2 9 -15 -9 -11 -9 -15 -1 -15 7 0 9 -5 6 -10 -5 -8 -12
-7 -22 1 -12 10 -16 10 -23 -1 -12 -19 -1 -33 15 -20 10 8 14 5 17 -14 4 -17
1 -23 -9 -19 -16 6 -17 -2 -2 -29 10 -18 9 -20 -5 -15 -19 7 -22 -9 -3 -17 6
-3 2 -3 -10 0 -16 4 -23 1 -24 -10 -1 -9 -2 -23 -3 -33 0 -9 5 -18 13 -21 8
-3 11 0 7 7 -10 16 13 13 30 -4 13 -12 13 -15 1 -15 -9 0 -17 -19 -23 -57 -6
-37 -14 -57 -22 -56 -6 2 -12 -2 -12 -8 0 -6 7 -8 16 -5 9 3 20 6 26 6 6 0 8
7 4 15 -3 8 -1 15 4 15 17 0 11 -25 -10 -43 -11 -9 -17 -23 -14 -32 4 -10 1
-14 -7 -12 -8 2 -11 2 -6 0 4 -3 7 -17 7 -32 0 -15 8 -36 18 -47 24 -26 45
-75 31 -71 -14 3 -36 -30 -26 -39 3 -4 13 -1 22 6 13 11 14 10 9 -4 -3 -9 -10
-16 -16 -16 -16 0 -40 -29 -33 -40 3 -5 -2 -10 -11 -10 -16 0 -16 -1 -1 -18
10 -10 14 -22 10 -25 -3 -4 67 -7 156 -7 106 0 160 3 156 10 -3 6 -2 10 4 10
5 0 13 -4 16 -10 3 -5 37 -10 76 -10 l69 0 0 278 c0 265 -1 282 -23 344 -13
37 -27 72 -33 80 -5 7 -16 27 -24 43 -33 69 -94 154 -116 159 -34 9 -88 62
-81 80 6 15 16 16 192 18 17 0 44 -3 60 -8 27 -7 29 -6 16 9 -7 10 -28 17 -45
17 -18 0 -41 7 -52 15 -10 8 -27 15 -37 15 -11 0 -33 6 -50 14 -62 27 -174 62
-252 78 -27 5 -57 12 -65 16 -8 3 -37 11 -65 17 -27 7 -59 16 -70 20 -17 8
-18 7 -7 -7z m127 -37 c6 -3 35 -11 65 -18 83 -17 195 -52 257 -79 17 -8 40
-14 51 -14 11 0 25 -7 32 -15 11 -13 8 -15 -21 -16 -143 -3 -144 -3 -147 -28
-4 -27 44 -77 82 -87 22 -5 83 -90 116 -159 8 -16 19 -36 24 -43 6 -8 20 -43
33 -80 22 -62 23 -79 23 -334 l0 -268 -59 0 c-33 0 -63 5 -66 10 -3 6 -15 10
-26 10 -10 0 -19 -4 -19 -10 0 -16 -277 -13 -283 3 -6 19 13 67 28 67 7 0 15
7 19 15 3 8 12 15 21 15 8 0 15 6 15 14 0 9 7 12 20 9 14 -4 20 0 20 11 0 9
-7 16 -15 16 -8 0 -15 3 -15 8 0 4 -14 13 -31 21 -53 23 -71 50 -63 96 3 22
13 44 20 48 18 10 18 57 1 57 -9 0 -12 11 -9 35 3 21 10 35 18 35 8 0 14 7 14
15 0 8 -4 15 -9 15 -16 0 -21 30 -9 55 6 14 17 25 25 25 7 0 13 7 13 15 0 8
-4 15 -9 15 -14 0 -23 32 -11 44 5 5 10 23 10 38 0 21 -5 28 -20 28 -17 0 -20
7 -20 45 0 25 -4 45 -10 45 -14 0 -12 34 2 48 8 8 11 40 10 95 -3 85 -18 137
-40 137 -20 0 -29 -36 -41 -160 -7 -63 -16 -140 -22 -170 -8 -47 -7 -57 8 -67
15 -11 15 -13 1 -13 -15 0 -31 -70 -54 -230 -10 -63 -24 -89 -52 -92 -25 -3
-28 -8 -33 -58 -19 -159 -19 -160 -4 -160 8 0 15 6 15 13 0 8 9 22 21 33 17
16 22 16 29 4 13 -20 12 -60 -1 -60 -6 0 -10 -12 -9 -27 3 -45 1 -53 -15 -53
-18 0 -20 -26 -2 -33 6 -3 -102 -6 -240 -6 l-252 -1 6 30 c5 26 2 30 -15 30
-15 0 -22 -9 -27 -30 l-7 -30 -164 0 c-179 0 -169 -3 -164 58 1 12 -3 22 -9
22 -6 0 -11 16 -11 35 0 18 -6 38 -13 42 -18 11 -29 41 -17 48 5 3 12 -5 16
-17 15 -48 54 -65 54 -23 0 25 7 29 48 25 18 -1 22 4 22 29 0 17 -5 31 -11 31
-17 0 -39 27 -39 48 0 11 -5 22 -12 24 -7 3 -6 7 5 11 9 3 17 2 17 -3 0 -6 9
-10 20 -10 11 0 20 -4 20 -10 0 -5 9 -10 20 -10 27 0 27 36 0 43 -11 3 -23 13
-27 24 -3 10 -15 29 -25 42 -22 29 -23 42 -3 35 8 -4 15 -12 15 -20 0 -8 7
-14 15 -14 18 0 18 2 3 52 -9 32 -9 41 2 48 11 7 11 14 -2 42 -8 18 -14 51
-14 73 1 37 3 40 31 41 67 2 66 1 60 38 -4 21 1 58 13 102 12 38 20 89 19 114
-2 34 2 45 13 45 13 0 15 -20 12 -130 -4 -152 3 -215 24 -215 9 0 14 11 14 30
0 17 5 30 10 30 6 0 10 16 10 35 0 24 5 35 14 35 8 0 18 9 21 20 3 11 10 20
15 20 5 0 11 8 14 18 2 9 2 1 -1 -19 -3 -26 -1 -38 10 -42 15 -6 16 -57 3
-167 -5 -45 -16 -236 -21 -371 -3 -95 -2 -107 16 -122 10 -10 24 -17 29 -17 6
0 10 -4 10 -10 0 -5 9 -10 20 -10 11 0 20 5 20 10 0 6 6 10 14 10 16 0 29 41
20 65 -4 9 -2 20 3 24 6 3 14 21 18 38 6 29 4 33 -14 33 -12 0 -21 5 -21 11 0
15 68 2 87 -17 22 -22 52 -17 65 12 9 20 9 27 -1 33 -10 6 -9 10 4 15 9 3 25
6 34 6 30 0 59 34 71 83 8 30 19 48 31 52 27 9 23 29 -11 56 -36 29 -37 37 -8
41 13 2 24 11 26 22 3 11 11 26 19 34 8 9 13 26 10 39 -3 18 5 34 29 60 19 20
34 46 34 59 0 13 5 24 10 24 6 0 10 15 10 33 1 27 8 36 45 60 56 35 59 64 13
112 -18 18 -38 40 -45 48 -12 15 -10 117 2 137 7 11 89 4 110 -9z m-765 -131
c0 -5 -4 -10 -10 -10 -5 0 -10 5 -10 10 0 6 5 10 10 10 6 0 10 -4 10 -10z
m-76 -330 c-10 -4 -21 -6 -24 -3 -8 7 24 22 34 16 5 -4 1 -10 -10 -13z m315
-182 c-1 -18 -4 -44 -8 -58 -6 -23 -8 -23 -12 -5 -8 28 1 95 12 95 5 0 9 -15
8 -32z m591 22 c0 -5 -2 -10 -4 -10 -3 0 -8 5 -11 10 -3 6 -1 10 4 10 6 0 11
-4 11 -10z m-540 -71 c0 -6 -4 -7 -10 -4 -5 3 -10 11 -10 16 0 6 5 7 10 4 6
-3 10 -11 10 -16z m-73 -61 c-3 -8 -6 -5 -6 6 -1 11 2 17 5 13 3 -3 4 -12 1
-19z m-352 -48 c3 -5 -1 -10 -9 -10 -9 0 -16 5 -16 10 0 6 4 10 9 10 6 0 13
-4 16 -10z m830 -10 c3 -5 -1 -10 -9 -10 -9 0 -16 5 -16 10 0 6 4 10 9 10 6 0
13 -4 16 -10z m-795 -10 c0 -5 -4 -10 -10 -10 -5 0 -10 5 -10 10 0 6 5 10 10
10 6 0 10 -4 10 -10z m387 4 c-3 -3 -12 -4 -19 -1 -8 3 -5 6 6 6 11 1 17 -2
13 -5z m18 -44 c3 -6 -1 -7 -9 -4 -18 7 -21 14 -7 14 6 0 13 -4 16 -10z m-15
-22 c0 -6 -6 -5 -15 2 -8 7 -15 14 -15 16 0 2 7 1 15 -2 8 -4 15 -11 15 -16z
m-430 -38 c0 -11 -4 -20 -9 -20 -5 0 -7 9 -4 20 3 11 7 20 9 20 2 0 4 -9 4
-20z m505 10 c-3 -5 -12 -10 -18 -10 -7 0 -6 4 3 10 19 12 23 12 15 0z m315
-12 c0 -19 -2 -20 -10 -8 -13 19 -13 30 0 30 6 0 10 -10 10 -22z m-482 -55
c-2 -9 -10 -18 -18 -20 -13 -4 -13 -3 0 6 12 9 13 14 3 31 -18 27 -16 35 3 16
8 -9 14 -24 12 -33z m677 17 c3 -5 1 -10 -4 -10 -6 0 -11 5 -11 10 0 6 2 10 4
10 3 0 8 -4 11 -10z m-654 -39 c-8 -5 -10 -14 -6 -22 6 -10 5 -11 -3 -4 -6 6
-9 21 -5 33 4 17 9 20 17 12 8 -8 7 -13 -3 -19z m689 19 c0 -5 -4 -10 -10 -10
-5 0 -10 5 -10 10 0 6 5 10 10 10 6 0 10 -4 10 -10z m-720 -51 c0 -6 -4 -7
-10 -4 -5 3 -10 11 -10 16 0 6 5 7 10 4 6 -3 10 -11 10 -16z m37 -25 c-3 -3
-12 -4 -19 -1 -8 3 -5 6 6 6 11 1 17 -2 13 -5z m-482 -14 c-3 -5 -11 -10 -16
-10 -6 0 -7 5 -4 10 3 6 11 10 16 10 6 0 7 -4 4 -10z m-76 -17 c23 6 24 3 15
-31 -6 -20 -12 -22 -63 -21 l-56 1 33 14 c22 10 32 21 32 37 0 16 3 19 9 8 5
-8 18 -12 30 -8z m101 7 c0 -5 -5 -10 -11 -10 -5 0 -7 5 -4 10 3 6 8 10 11 10
2 0 4 -4 4 -10z m376 -26 c-3 -9 -6 -18 -6 -20 0 -2 -4 -4 -9 -4 -5 0 -7 9 -4
20 3 11 10 20 15 20 6 0 7 -7 4 -16z m-376 -26 c0 -5 -4 -8 -10 -8 -5 0 -10
10 -10 23 0 18 2 19 10 7 5 -8 10 -18 10 -22z m-30 7 c0 -8 -7 -15 -15 -15 -8
0 -15 7 -15 15 0 8 7 15 15 15 8 0 15 -7 15 -15z"/>
<path d="M5690 110 c0 -11 7 -20 15 -20 8 0 15 9 15 20 0 11 -7 20 -15 20 -8
0 -15 -9 -15 -20z"/>
<path d="M5970 55 c0 -8 7 -15 15 -15 8 0 15 7 15 15 0 8 -7 15 -15 15 -8 0
-15 -7 -15 -15z"/>
<path d="M6050 45 c0 -8 7 -15 15 -15 8 0 15 7 15 15 0 8 -7 15 -15 15 -8 0
-15 -7 -15 -15z"/>
<path d="M2392 1170 c-11 -18 -10 -19 13 -8 13 6 22 15 19 19 -8 14 -18 11
-32 -11z"/>
<path d="M5520 1175 c0 -8 7 -15 15 -15 8 0 15 4 15 9 0 5 -7 11 -15 15 -9 3
-15 0 -15 -9z"/>
<path d="M2690 1170 c-28 -8 -27 -8 57 -35 92 -29 128 -77 122 -162 -1 -21 -2
-59 -1 -84 l2 -47 128 -5 c134 -5 217 -22 191 -38 -25 -16 -5 -9 45 15 l49 24
-52 11 c-29 6 -62 11 -74 11 -35 0 -43 11 -55 80 -6 36 -19 105 -28 153 l-17
88 -171 -2 c-94 -2 -182 -6 -196 -9z m370 -77 c7 -43 16 -85 20 -93 4 -8 10
-34 14 -57 6 -41 5 -43 -19 -43 -18 0 -25 -5 -25 -20 0 -13 7 -20 20 -20 10 0
54 -5 96 -11 53 -8 72 -14 61 -20 -9 -6 -40 -3 -79 6 -35 8 -109 15 -165 15
l-103 0 0 43 c-2 186 -11 207 -100 244 -68 27 -55 30 131 32 l136 1 13 -77z
m30 -213 c0 -5 -7 -10 -15 -10 -8 0 -15 5 -15 10 0 6 7 10 15 10 8 0 15 -4 15
-10z"/>
<path d="M1373 1128 c-110 -12 -105 0 -65 -168 28 -113 28 -115 63 -127 42
-15 89 -16 89 -3 0 6 -17 10 -37 10 -25 0 -33 3 -24 9 7 5 22 6 33 3 17 -4 19
-2 13 19 -4 13 -18 45 -30 71 -26 55 -21 63 37 59 43 -3 42 -4 32 87 -4 28
-10 51 -13 51 -3 -1 -48 -6 -98 -11z m90 -15 c-7 -2 -19 -2 -25 0 -7 3 -2 5
12 5 14 0 19 -2 13 -5z m-35 -24 c2 -5 12 -9 22 -9 19 0 30 -19 30 -52 0 -18
-4 -20 -39 -14 -60 9 -70 -10 -37 -79 14 -31 26 -57 26 -59 0 -2 -11 -7 -25
-10 -14 -4 -25 -11 -25 -17 0 -7 -6 -7 -17 0 -23 12 -56 141 -36 141 7 0 13 9
13 20 0 13 -7 20 -20 20 -11 0 -20 5 -20 10 0 6 5 10 10 10 6 0 10 14 10 31
l0 31 53 -7 c28 -4 54 -11 55 -16z m-98 -79 c0 -5 -4 -10 -10 -10 -5 0 -10 5
-10 10 0 6 5 10 10 10 6 0 10 -4 10 -10z"/>
<path d="M1340 1075 c0 -8 7 -15 15 -15 8 0 15 7 15 15 0 8 -7 15 -15 15 -8 0
-15 -7 -15 -15z"/>
<path d="M2320 1099 c0 -5 5 -7 10 -4 6 3 10 8 10 11 0 2 -4 4 -10 4 -5 0 -10
-5 -10 -11z"/>
<path d="M2620 1090 c-22 -6 -23 -8 -7 -15 20 -8 47 0 47 15 0 11 -4 11 -40 0z"/>
<path d="M3961 1074 c0 -11 3 -14 6 -6 3 7 2 16 -1 19 -3 4 -6 -2 -5 -13z"/>
<path d="M5647 1051 c-4 -17 -3 -21 5 -13 5 5 8 16 6 23 -3 8 -7 3 -11 -10z"/>
<path d="M2590 1050 c8 -5 20 -10 25 -10 6 0 3 5 -5 10 -8 5 -19 10 -25 10 -5
0 -3 -5 5 -10z"/>
<path d="M5485 950 c-3 -5 -1 -10 4 -10 6 0 11 5 11 10 0 6 -2 10 -4 10 -3 0
-8 -4 -11 -10z"/>
<path d="M2697 921 c3 -12 9 -21 14 -21 5 0 9 -6 9 -12 0 -7 8 -23 18 -36 17
-21 18 -22 18 -3 0 11 -5 19 -10 18 -6 -1 -12 8 -14 19 -2 12 -12 30 -22 39
-18 16 -18 16 -13 -4z"/>
<path d="M3258 908 c-15 -4 -5 -6 30 -7 28 -1 52 3 52 8 0 9 -46 9 -82 -1z"/>
<path d="M3148 893 c6 -2 18 -2 25 0 6 3 1 5 -13 5 -14 0 -19 -2 -12 -5z"/>
<path d="M2847 814 c-3 -4 -2 -14 2 -23 14 -26 19 -150 7 -154 -6 -2 3 -11 21
-20 24 -13 33 -14 36 -4 4 9 8 8 15 -2 7 -10 32 -15 83 -15 64 -1 73 -4 80
-23 12 -34 29 -38 24 -6 -11 73 -25 150 -31 171 -3 12 -2 22 2 22 5 0 10 11
10 24 2 22 -3 24 -59 30 -77 8 -182 8 -190 0z m201 -22 c2 -7 10 -12 17 -12 8
0 11 -7 8 -21 -5 -17 -11 -20 -32 -14 -14 3 -48 10 -76 14 -62 10 -105 27
-105 42 0 16 182 7 188 -9z m-90 -42 c28 -3 56 -10 60 -16 5 -5 7 -31 4 -57
-3 -37 -7 -47 -19 -43 -8 3 -28 6 -44 6 -19 0 -28 4 -24 10 4 6 2 16 -3 23 -5
7 -13 23 -17 36 -4 14 -17 33 -29 44 -20 18 -20 18 -1 11 11 -4 44 -10 73 -14z
m-48 -67 c11 -38 11 -46 -1 -54 -20 -12 -26 -1 -34 59 -6 44 -5 51 8 46 8 -3
20 -26 27 -51z m164 30 c3 -10 6 -34 8 -53 3 -29 0 -35 -17 -35 -16 0 -21 8
-23 39 -4 42 2 66 17 66 5 0 12 -8 15 -17z m-59 -92 c44 -10 14 -23 -34 -15
-23 4 -41 10 -41 15 0 10 30 10 75 0z"/>
<path d="M5890 770 c20 -13 33 -13 25 0 -3 6 -14 10 -23 10 -15 0 -15 -2 -2
-10z"/>
<path d="M5894 650 c-1 -17 3 -30 7 -30 5 0 9 6 9 14 0 8 3 21 6 30 4 10 1 16
-7 16 -9 0 -14 -12 -15 -30z"/>
<path d="M1480 497 c0 -13 9 -33 20 -45 30 -31 34 -27 9 7 -12 16 -19 37 -16
45 4 9 2 16 -3 16 -6 0 -10 -10 -10 -23z"/>
<path d="M5465 460 c3 -5 8 -10 11 -10 2 0 4 5 4 10 0 6 -5 10 -11 10 -5 0 -7
-4 -4 -10z"/>
<path d="M5260 400 c0 -5 5 -10 10 -10 6 0 10 5 10 10 0 6 -4 10 -10 10 -5 0
-10 -4 -10 -10z"/>
<path d="M5861 374 c0 -11 3 -14 6 -6 3 7 2 16 -1 19 -3 4 -6 -2 -5 -13z"/>
<path d="M5832 350 c0 -14 2 -19 5 -12 2 6 2 18 0 25 -3 6 -5 1 -5 -13z"/>
<path d="M5286 345 c4 -8 10 -12 15 -9 11 6 2 24 -11 24 -5 0 -7 -7 -4 -15z"/>
<path d="M198 273 c7 -3 16 -2 19 1 4 3 -2 6 -13 5 -11 0 -14 -3 -6 -6z"/>
<path d="M240 270 c0 -13 18 -22 24 -11 3 5 -1 11 -9 15 -8 3 -15 1 -15 -4z"/>
<path d="M4572 155 c0 -16 2 -22 5 -12 2 9 2 23 0 30 -3 6 -5 -1 -5 -18z"/>
<path d="M5890 10 c0 -5 5 -10 10 -10 6 0 10 5 10 10 0 6 -4 10 -10 10 -5 0
-10 -4 -10 -10z"/>
</g>
</svg>
